<?xml version="1.0"?>
<svg
  xmlns="http://www.w3.org/2000/svg"
  xmlns:xlink="http://www.w3.org/1999/xlink" version="1.1"
  preserveAspectRatio="xMinYMin meet"
  viewBox="9340.100267654838 -4763.900034438877 583.8194854660833 462.98807617596685"
  width="100%" height="100%"
>
  <g stroke="#000000" stroke-width="0.1%" fill="none" transform="matrix(1,0,0,-1,0,0)">
    <g stroke="rgb(0, 0, 255)">
  <path d="M9593.079510847083,4419.451843184233L9593.079510847083,4413.804224136613" />
</g>
<g stroke="rgb(0, 0, 255)">
  <path d="M9593.079510847083,4521.108986041377L9593.079510847083,4515.461366993756" />
</g>
<g stroke="rgb(0, 0, 255)">
  <path d="M9593.079510847083,4509.813747946138L9593.079510847083,4504.166128898519" />
</g>
<g stroke="rgb(0, 0, 255)">
  <path d="M9593.079510847083,4498.518509850899L9593.079510847083,4492.870890803281" />
</g>
<g stroke="rgb(0, 0, 255)">
  <path d="M9593.079510847083,4487.223271755662L9593.079510847083,4481.575652708042" />
</g>
<g stroke="rgb(0, 0, 255)">
  <path d="M9593.079510847083,4475.928033660423L9593.079510847083,4470.280414612804" />
</g>
<g stroke="rgb(0, 0, 255)">
  <path d="M9593.079510847083,4464.632795565186L9593.079510847083,4458.985176517567" />
</g>
<g stroke="rgb(0, 0, 255)">
  <path d="M9593.079510847083,4453.337557469948L9593.079510847083,4447.689938422327" />
</g>
<g stroke="rgb(0, 0, 255)">
  <path d="M9593.079510847083,4442.042319374709L9593.079510847083,4436.394700327091" />
</g>
<g stroke="rgb(0, 0, 255)">
  <path d="M9593.079510847083,4430.747081279472L9593.079510847083,4425.099462231853" />
</g>
<g stroke="rgb(0, 0, 255)">
  <path d="M9812.379510847086,4526.756605088995L9806.925852310498,4526.756605088995" />
</g>
<g stroke="rgb(0, 0, 255)">
  <path d="M9801.472193773912,4526.756605088995L9796.018535237328,4526.756605088995" />
</g>
<g stroke="rgb(0, 0, 255)">
  <path d="M9790.564876700742,4526.756605088995L9785.111218164157,4526.756605088995" />
</g>
<g stroke="rgb(0, 0, 255)">
  <path d="M9779.657559627572,4526.756605088995L9774.203901090987,4526.756605088995" />
</g>
<g stroke="rgb(0, 0, 255)">
  <path d="M9768.750242554403,4526.756605088995L9763.296584017815,4526.756605088995" />
</g>
<g stroke="rgb(0, 0, 255)">
  <path d="M9757.842925481229,4526.756605088995L9752.389266944645,4526.756605088995" />
</g>
<g stroke="rgb(0, 0, 255)">
  <path d="M9746.935608408057,4526.756605088995L9741.481949871473,4526.756605088995" />
</g>
<g stroke="rgb(0, 0, 255)">
  <path d="M9736.02829133489,4526.756605088995L9730.574632798303,4526.756605088995" />
</g>
<g stroke="rgb(0, 0, 255)">
  <path d="M9725.120974261717,4526.756605088995L9719.667315725132,4526.756605088995" />
</g>
<g stroke="rgb(0, 0, 255)">
  <path d="M9714.213657188546,4526.756605088995L9708.759998651962,4526.756605088995" />
</g>
<g stroke="rgb(0, 0, 255)">
  <path d="M9703.306340115376,4526.756605088995L9697.85268157879,4526.756605088995" />
</g>
<g stroke="rgb(0, 0, 255)">
  <path d="M9692.399023042206,4526.756605088995L9686.94536450562,4526.756605088995" />
</g>
<g stroke="rgb(0, 0, 255)">
  <path d="M9681.491705969034,4526.756605088995L9676.038047432448,4526.756605088995" />
</g>
<g stroke="rgb(0, 0, 255)">
  <path d="M9670.584388895863,4526.756605088995L9665.130730359278,4526.756605088995" />
</g>
<g stroke="rgb(0, 0, 255)">
  <path d="M9659.677071822693,4526.756605088995L9654.223413286107,4526.756605088995" />
</g>
<g stroke="rgb(0, 0, 255)">
  <path d="M9648.769754749523,4526.756605088995L9643.316096212937,4526.756605088995" />
</g>
<g stroke="rgb(0, 0, 255)">
  <path d="M9637.862437676353,4526.756605088995L9632.408779139765,4526.756605088995" />
</g>
<g stroke="rgb(0, 0, 255)">
  <path d="M9626.95512060318,4526.756605088995L9621.501462066595,4526.756605088995" />
</g>
<g stroke="rgb(0, 0, 255)">
  <path d="M9616.04780353001,4526.756605088995L9610.594144993425,4526.756605088995" />
</g>
<g stroke="rgb(0, 0, 255)">
  <path d="M9605.14048645684,4526.756605088995L9599.686827920255,4526.756605088995" />
</g>
<g stroke="rgb(0, 0, 255)">
  <path d="M9594.233169383668,4526.756605088995L9588.779510847082,4526.756605088995" />
</g>
<g stroke="rgb(0, 0, 255)">
  <path d="M9588.779510847082,4526.756605088995L9588.779510847082,4521.108986041377" />
</g>
<g stroke="rgb(0, 0, 255)">
  <path d="M9588.779510847082,4515.461366993756L9588.779510847082,4509.813747946138" />
</g>
<g stroke="rgb(0, 0, 255)">
  <path d="M9588.779510847082,4504.166128898519L9588.779510847082,4498.518509850899" />
</g>
<g stroke="rgb(0, 0, 255)">
  <path d="M9588.779510847082,4492.870890803281L9588.779510847082,4487.223271755662" />
</g>
<g stroke="rgb(0, 0, 255)">
  <path d="M9588.779510847082,4481.575652708042L9588.779510847082,4475.928033660423" />
</g>
<g stroke="rgb(0, 0, 255)">
  <path d="M9588.779510847082,4470.280414612804L9588.779510847082,4464.632795565186" />
</g>
<g stroke="rgb(0, 0, 255)">
  <path d="M9588.779510847082,4458.985176517567L9588.779510847082,4453.337557469948" />
</g>
<g stroke="rgb(0, 0, 255)">
  <path d="M9588.779510847082,4447.689938422327L9588.779510847082,4442.042319374709" />
</g>
<g stroke="rgb(0, 0, 255)">
  <path d="M9588.779510847082,4436.394700327091L9588.779510847082,4430.747081279472" />
</g>
<g stroke="rgb(0, 0, 255)">
  <path d="M9588.779510847082,4425.099462231853L9588.779510847082,4419.451843184233" />
</g>
<g stroke="rgb(0, 0, 255)">
  <path d="M9588.779510847082,4413.804224136613L9588.779510847082,4408.156605088995" />
</g>
<g stroke="rgb(255, 0, 0)">
  <path d="M9588.779510847082,4526.756605088995L9588.779510847082,4533.965695998086" />
</g>
<g stroke="rgb(255, 0, 0)">
  <path d="M9588.779510847082,4541.174786907176L9588.779510847082,4548.383877816267" />
</g>
<g stroke="rgb(255, 0, 0)">
  <path d="M9588.779510847082,4555.592968725358L9588.779510847082,4562.802059634449" />
</g>
<g stroke="rgb(255, 0, 0)">
  <path d="M9588.779510847082,4570.011150543541L9588.779510847082,4577.220241452631" />
</g>
<g stroke="rgb(255, 0, 0)">
  <path d="M9588.779510847082,4584.429332361723L9588.779510847082,4591.638423270814" />
</g>
<g stroke="rgb(255, 0, 0)">
  <path d="M9588.779510847082,4598.847514179904L9588.779510847082,4606.056605088994" />
</g>
<g stroke="rgb(255, 0, 0)">
  <path d="M9588.779510847082,4606.056605088994L9812.379510847086,4606.056605088994" />
</g>
<g stroke="rgb(0, 255, 255)">
  <path d="M9593.079510847083,4601.756605088995L9808.079510847085,4601.756605088995" />
</g>
<g stroke="rgb(255, 0, 0)">
  <path d="M9812.379510847086,4606.056605088994L9812.379510847086,4598.847514179904" />
</g>
<g stroke="rgb(255, 0, 0)">
  <path d="M9812.379510847086,4591.638423270814L9812.379510847086,4584.429332361723" />
</g>
<g stroke="rgb(255, 0, 0)">
  <path d="M9812.379510847086,4577.220241452631L9812.379510847086,4570.011150543541" />
</g>
<g stroke="rgb(255, 0, 0)">
  <path d="M9812.379510847086,4562.802059634449L9812.379510847086,4555.592968725358" />
</g>
<g stroke="rgb(255, 0, 0)">
  <path d="M9812.379510847086,4548.383877816267L9812.379510847086,4541.174786907176" />
</g>
<g stroke="rgb(255, 0, 0)">
  <path d="M9812.379510847086,4533.965695998086L9812.379510847086,4526.756605088995" />
</g>
<g stroke="rgb(255, 0, 0)">
  <path d="M9509.479510847084,4522.456605088994L9509.479510847084,4477.456605088995" />
</g>
<g stroke="rgb(255, 0, 0)">
  <path d="M9509.479510847084,4457.456605088994L9509.479510847084,4412.456605088994" />
</g>
<g stroke="rgb(255, 0, 0)">
  <path d="M9396.094726464147,4328.856605088996L9506.094726464145,4328.856605088996L9506.094726464145,4543.856605088996L9396.094726464147,4543.856605088996L9396.094726464147,4328.856605088996" />
</g>
<g stroke="rgb(0, 0, 255)">
  <path d="M9594.233169383668,4522.456605088994L9599.686827920255,4522.456605088994" />
</g>
<g stroke="rgb(0, 0, 255)">
  <path d="M9605.14048645684,4522.456605088994L9610.594144993425,4522.456605088994" />
</g>
<g stroke="rgb(0, 0, 255)">
  <path d="M9616.04780353001,4522.456605088994L9621.501462066595,4522.456605088994" />
</g>
<g stroke="rgb(0, 0, 255)">
  <path d="M9626.95512060318,4522.456605088994L9632.408779139765,4522.456605088994" />
</g>
<g stroke="rgb(0, 0, 255)">
  <path d="M9637.862437676353,4522.456605088994L9643.316096212937,4522.456605088994" />
</g>
<g stroke="rgb(0, 0, 255)">
  <path d="M9648.769754749523,4522.456605088994L9654.223413286107,4522.456605088994" />
</g>
<g stroke="rgb(0, 0, 255)">
  <path d="M9659.677071822693,4522.456605088994L9665.130730359278,4522.456605088994" />
</g>
<g stroke="rgb(0, 0, 255)">
  <path d="M9670.584388895863,4522.456605088994L9676.038047432448,4522.456605088994" />
</g>
<g stroke="rgb(0, 0, 255)">
  <path d="M9681.491705969034,4522.456605088994L9686.94536450562,4522.456605088994" />
</g>
<g stroke="rgb(0, 0, 255)">
  <path d="M9692.399023042206,4522.456605088994L9697.85268157879,4522.456605088994" />
</g>
<g stroke="rgb(0, 0, 255)">
  <path d="M9703.306340115376,4522.456605088994L9708.759998651962,4522.456605088994" />
</g>
<g stroke="rgb(0, 0, 255)">
  <path d="M9714.213657188546,4522.456605088994L9719.667315725132,4522.456605088994" />
</g>
<g stroke="rgb(0, 0, 255)">
  <path d="M9725.120974261717,4522.456605088994L9730.574632798303,4522.456605088994" />
</g>
<g stroke="rgb(0, 0, 255)">
  <path d="M9736.02829133489,4522.456605088994L9741.481949871473,4522.456605088994" />
</g>
<g stroke="rgb(0, 0, 255)">
  <path d="M9746.935608408057,4522.456605088994L9752.389266944645,4522.456605088994" />
</g>
<g stroke="rgb(0, 0, 255)">
  <path d="M9757.842925481229,4522.456605088994L9763.296584017815,4522.456605088994" />
</g>
<g stroke="rgb(0, 0, 255)">
  <path d="M9768.750242554403,4522.456605088994L9774.203901090987,4522.456605088994" />
</g>
<g stroke="rgb(0, 0, 255)">
  <path d="M9779.657559627572,4522.456605088994L9785.111218164157,4522.456605088994" />
</g>
<g stroke="rgb(0, 0, 255)">
  <path d="M9790.564876700742,4522.456605088994L9796.018535237328,4522.456605088994" />
</g>
<g stroke="rgb(0, 0, 255)">
  <path d="M9801.472193773912,4522.456605088994L9806.925852310498,4522.456605088994" />
</g>
<g stroke="rgb(255, 0, 0)">
  <path d="M9385.065818892714,4543.76966909927L9392.065818892714,4543.76966909927L9392.065818892714,4328.769669099269L9385.065818892714,4328.769669099269L9385.065818892714,4543.76966909927" />
</g>
<g stroke="rgb(0, 0, 255)">
  <path d="M9588.779510847082,4413.804224136613L9593.079510847083,4413.804224136613" />
</g>
<g stroke="rgb(0, 0, 255)">
  <path d="M9588.779510847082,4419.451843184233L9593.079510847083,4419.451843184233" />
</g>
<g stroke="rgb(0, 0, 255)">
  <path d="M9588.779510847082,4425.099462231853L9593.079510847083,4425.099462231853" />
</g>
<g stroke="rgb(0, 0, 255)">
  <path d="M9588.779510847082,4430.747081279472L9593.079510847083,4430.747081279472" />
</g>
<g stroke="rgb(0, 0, 255)">
  <path d="M9588.779510847082,4436.394700327091L9593.079510847083,4436.394700327091" />
</g>
<g stroke="rgb(0, 0, 255)">
  <path d="M9588.779510847082,4442.042319374709L9593.079510847083,4442.042319374709" />
</g>
<g stroke="rgb(0, 0, 255)">
  <path d="M9588.779510847082,4447.689938422327L9593.079510847083,4447.689938422327" />
</g>
<g stroke="rgb(0, 0, 255)">
  <path d="M9588.779510847082,4453.337557469948L9593.079510847083,4453.337557469948" />
</g>
<g stroke="rgb(0, 0, 255)">
  <path d="M9588.779510847082,4458.985176517567L9593.079510847083,4458.985176517567" />
</g>
<g stroke="rgb(0, 0, 255)">
  <path d="M9588.779510847082,4464.632795565186L9593.079510847083,4464.632795565186" />
</g>
<g stroke="rgb(0, 0, 255)">
  <path d="M9588.779510847082,4470.280414612804L9593.079510847083,4470.280414612804" />
</g>
<g stroke="rgb(0, 0, 255)">
  <path d="M9588.779510847082,4475.928033660423L9593.079510847083,4475.928033660423" />
</g>
<g stroke="rgb(0, 0, 255)">
  <path d="M9588.779510847082,4481.575652708042L9593.079510847083,4481.575652708042" />
</g>
<g stroke="rgb(0, 0, 255)">
  <path d="M9588.779510847082,4487.223271755662L9593.079510847083,4487.223271755662" />
</g>
<g stroke="rgb(0, 0, 255)">
  <path d="M9588.779510847082,4492.870890803281L9593.079510847083,4492.870890803281" />
</g>
<g stroke="rgb(0, 0, 255)">
  <path d="M9588.779510847082,4498.518509850899L9593.079510847083,4498.518509850899" />
</g>
<g stroke="rgb(0, 0, 255)">
  <path d="M9588.779510847082,4504.166128898519L9593.079510847083,4504.166128898519" />
</g>
<g stroke="rgb(0, 0, 255)">
  <path d="M9588.779510847082,4509.813747946138L9593.079510847083,4509.813747946138" />
</g>
<g stroke="rgb(0, 0, 255)">
  <path d="M9588.779510847082,4515.461366993756L9593.079510847083,4515.461366993756" />
</g>
<g stroke="rgb(0, 0, 255)">
  <path d="M9588.779510847082,4521.108986041377L9593.079510847083,4521.108986041377" />
</g>
<g stroke="rgb(0, 0, 255)">
  <path d="M9594.233169383668,4522.456605088994L9594.233169383668,4526.756605088995" />
</g>
<g stroke="rgb(0, 0, 255)">
  <path d="M9599.686827920255,4522.456605088994L9599.686827920255,4526.756605088995" />
</g>
<g stroke="rgb(0, 0, 255)">
  <path d="M9605.14048645684,4522.456605088994L9605.14048645684,4526.756605088995" />
</g>
<g stroke="rgb(0, 0, 255)">
  <path d="M9610.594144993425,4522.456605088994L9610.594144993425,4526.756605088995" />
</g>
<g stroke="rgb(0, 0, 255)">
  <path d="M9616.04780353001,4522.456605088994L9616.04780353001,4526.756605088995" />
</g>
<g stroke="rgb(0, 0, 255)">
  <path d="M9621.501462066595,4522.456605088994L9621.501462066595,4526.756605088995" />
</g>
<g stroke="rgb(0, 0, 255)">
  <path d="M9626.95512060318,4522.456605088994L9626.95512060318,4526.756605088995" />
</g>
<g stroke="rgb(0, 0, 255)">
  <path d="M9632.408779139765,4522.456605088994L9632.408779139765,4526.756605088995" />
</g>
<g stroke="rgb(0, 0, 255)">
  <path d="M9637.862437676353,4522.456605088994L9637.862437676353,4526.756605088995" />
</g>
<g stroke="rgb(0, 0, 255)">
  <path d="M9643.316096212937,4522.456605088994L9643.316096212937,4526.756605088995" />
</g>
<g stroke="rgb(0, 0, 255)">
  <path d="M9648.769754749523,4522.456605088994L9648.769754749523,4526.756605088995" />
</g>
<g stroke="rgb(0, 0, 255)">
  <path d="M9654.223413286107,4522.456605088994L9654.223413286107,4526.756605088995" />
</g>
<g stroke="rgb(0, 0, 255)">
  <path d="M9659.677071822693,4522.456605088994L9659.677071822693,4526.756605088995" />
</g>
<g stroke="rgb(0, 0, 255)">
  <path d="M9665.130730359278,4522.456605088994L9665.130730359278,4526.756605088995" />
</g>
<g stroke="rgb(0, 0, 255)">
  <path d="M9670.584388895863,4522.456605088994L9670.584388895863,4526.756605088995" />
</g>
<g stroke="rgb(0, 0, 255)">
  <path d="M9676.038047432448,4522.456605088994L9676.038047432448,4526.756605088995" />
</g>
<g stroke="rgb(0, 0, 255)">
  <path d="M9681.491705969034,4522.456605088994L9681.491705969034,4526.756605088995" />
</g>
<g stroke="rgb(0, 0, 255)">
  <path d="M9686.94536450562,4522.456605088994L9686.94536450562,4526.756605088995" />
</g>
<g stroke="rgb(0, 0, 255)">
  <path d="M9692.399023042206,4522.456605088994L9692.399023042206,4526.756605088995" />
</g>
<g stroke="rgb(0, 0, 255)">
  <path d="M9697.85268157879,4522.456605088994L9697.85268157879,4526.756605088995" />
</g>
<g stroke="rgb(0, 0, 255)">
  <path d="M9703.306340115376,4522.456605088994L9703.306340115376,4526.756605088995" />
</g>
<g stroke="rgb(0, 0, 255)">
  <path d="M9708.759998651962,4522.456605088994L9708.759998651962,4526.756605088995" />
</g>
<g stroke="rgb(0, 0, 255)">
  <path d="M9714.213657188546,4522.456605088994L9714.213657188546,4526.756605088995" />
</g>
<g stroke="rgb(0, 0, 255)">
  <path d="M9719.667315725132,4522.456605088994L9719.667315725132,4526.756605088995" />
</g>
<g stroke="rgb(0, 0, 255)">
  <path d="M9725.120974261717,4522.456605088994L9725.120974261717,4526.756605088995" />
</g>
<g stroke="rgb(0, 0, 255)">
  <path d="M9730.574632798303,4522.456605088994L9730.574632798303,4526.756605088995" />
</g>
<g stroke="rgb(0, 0, 255)">
  <path d="M9736.02829133489,4522.456605088994L9736.02829133489,4526.756605088995" />
</g>
<g stroke="rgb(0, 0, 255)">
  <path d="M9741.481949871473,4522.456605088994L9741.481949871473,4526.756605088995" />
</g>
<g stroke="rgb(0, 0, 255)">
  <path d="M9746.935608408057,4522.456605088994L9746.935608408057,4526.756605088995" />
</g>
<g stroke="rgb(0, 0, 255)">
  <path d="M9752.389266944645,4522.456605088994L9752.389266944645,4526.756605088995" />
</g>
<g stroke="rgb(0, 0, 255)">
  <path d="M9757.842925481229,4522.456605088994L9757.842925481229,4526.756605088995" />
</g>
<g stroke="rgb(0, 0, 255)">
  <path d="M9763.296584017815,4522.456605088994L9763.296584017815,4526.756605088995" />
</g>
<g stroke="rgb(0, 0, 255)">
  <path d="M9768.750242554403,4522.456605088994L9768.750242554403,4526.756605088995" />
</g>
<g stroke="rgb(0, 0, 255)">
  <path d="M9774.203901090987,4522.456605088994L9774.203901090987,4526.756605088995" />
</g>
<g stroke="rgb(0, 0, 255)">
  <path d="M9779.657559627572,4522.456605088994L9779.657559627572,4526.756605088995" />
</g>
<g stroke="rgb(0, 0, 255)">
  <path d="M9785.111218164157,4522.456605088994L9785.111218164157,4526.756605088995" />
</g>
<g stroke="rgb(0, 0, 255)">
  <path d="M9790.564876700742,4522.456605088994L9790.564876700742,4526.756605088995" />
</g>
<g stroke="rgb(0, 0, 255)">
  <path d="M9796.018535237328,4522.456605088994L9796.018535237328,4526.756605088995" />
</g>
<g stroke="rgb(0, 0, 255)">
  <path d="M9801.472193773912,4522.456605088994L9801.472193773912,4526.756605088995" />
</g>
<g stroke="rgb(0, 0, 255)">
  <path d="M9806.925852310498,4522.456605088994L9806.925852310498,4526.756605088995" />
</g>
<g stroke="rgb(255, 0, 0)">
  <path d="M9812.379510847086,4526.756605088995L9812.379510847086,4521.108986041377" />
</g>
<g stroke="rgb(255, 0, 0)">
  <path d="M9812.379510847086,4515.461366993756L9812.379510847086,4509.813747946138" />
</g>
<g stroke="rgb(255, 0, 0)">
  <path d="M9812.379510847086,4504.166128898519L9812.379510847086,4498.518509850899" />
</g>
<g stroke="rgb(255, 0, 0)">
  <path d="M9812.379510847086,4492.870890803281L9812.379510847086,4487.223271755662" />
</g>
<g stroke="rgb(255, 0, 0)">
  <path d="M9812.379510847086,4481.575652708042L9812.379510847086,4475.928033660423" />
</g>
<g stroke="rgb(255, 0, 0)">
  <path d="M9812.379510847086,4470.280414612804L9812.379510847086,4464.632795565186" />
</g>
<g stroke="rgb(255, 0, 0)">
  <path d="M9812.379510847086,4458.985176517567L9812.379510847086,4453.337557469948" />
</g>
<g stroke="rgb(255, 0, 0)">
  <path d="M9812.379510847086,4447.689938422327L9812.379510847086,4442.042319374709" />
</g>
<g stroke="rgb(255, 0, 0)">
  <path d="M9812.379510847086,4436.394700327091L9812.379510847086,4430.747081279472" />
</g>
<g stroke="rgb(255, 0, 0)">
  <path d="M9812.379510847086,4425.099462231853L9812.379510847086,4419.451843184233" />
</g>
<g stroke="rgb(0, 0, 255)">
  <path d="M9812.379510847086,4413.804224136613L9812.379510847086,4408.156605088995" />
</g>
<g stroke="rgb(0, 0, 255)">
  <path d="M9812.379510847086,4413.804224136613L9808.079510847085,4413.804224136613" />
</g>
<g stroke="rgb(0, 0, 255)">
  <path d="M9812.379510847086,4419.451843184233L9808.079510847085,4419.451843184233" />
</g>
<g stroke="rgb(0, 0, 255)">
  <path d="M9812.379510847086,4425.099462231853L9808.079510847085,4425.099462231853" />
</g>
<g stroke="rgb(0, 0, 255)">
  <path d="M9812.379510847086,4430.747081279472L9808.079510847085,4430.747081279472" />
</g>
<g stroke="rgb(0, 0, 255)">
  <path d="M9812.379510847086,4436.394700327091L9808.079510847085,4436.394700327091" />
</g>
<g stroke="rgb(0, 0, 255)">
  <path d="M9812.379510847086,4442.042319374709L9808.079510847085,4442.042319374709" />
</g>
<g stroke="rgb(0, 0, 255)">
  <path d="M9812.379510847086,4447.689938422327L9808.079510847085,4447.689938422327" />
</g>
<g stroke="rgb(0, 0, 255)">
  <path d="M9812.379510847086,4453.337557469948L9808.079510847085,4453.337557469948" />
</g>
<g stroke="rgb(0, 0, 255)">
  <path d="M9812.379510847086,4458.985176517567L9808.079510847085,4458.985176517567" />
</g>
<g stroke="rgb(0, 0, 255)">
  <path d="M9812.379510847086,4464.632795565186L9808.079510847085,4464.632795565186" />
</g>
<g stroke="rgb(0, 0, 255)">
  <path d="M9812.379510847086,4470.280414612804L9808.079510847085,4470.280414612804" />
</g>
<g stroke="rgb(0, 0, 255)">
  <path d="M9812.379510847086,4475.928033660423L9808.079510847085,4475.928033660423" />
</g>
<g stroke="rgb(0, 0, 255)">
  <path d="M9812.379510847086,4481.575652708042L9808.079510847085,4481.575652708042" />
</g>
<g stroke="rgb(0, 0, 255)">
  <path d="M9812.379510847086,4487.223271755662L9808.079510847085,4487.223271755662" />
</g>
<g stroke="rgb(0, 0, 255)">
  <path d="M9812.379510847086,4492.870890803281L9808.079510847085,4492.870890803281" />
</g>
<g stroke="rgb(0, 0, 255)">
  <path d="M9812.379510847086,4498.518509850899L9808.079510847085,4498.518509850899" />
</g>
<g stroke="rgb(0, 0, 255)">
  <path d="M9812.379510847086,4504.166128898519L9808.079510847085,4504.166128898519" />
</g>
<g stroke="rgb(0, 0, 255)">
  <path d="M9812.379510847086,4509.813747946138L9808.079510847085,4509.813747946138" />
</g>
<g stroke="rgb(0, 0, 255)">
  <path d="M9812.379510847086,4515.461366993756L9808.079510847085,4515.461366993756" />
</g>
<g stroke="rgb(0, 0, 255)">
  <path d="M9812.379510847086,4521.108986041377L9808.079510847085,4521.108986041377" />
</g>
<g stroke="rgb(0, 0, 255)">
  <path d="M9812.379510847086,4408.156605088995L9806.925852310498,4408.156605088995" />
</g>
<g stroke="rgb(0, 0, 255)">
  <path d="M9801.472193773912,4408.156605088995L9796.018535237328,4408.156605088995" />
</g>
<g stroke="rgb(0, 0, 255)">
  <path d="M9790.564876700742,4408.156605088995L9785.111218164157,4408.156605088995" />
</g>
<g stroke="rgb(0, 0, 255)">
  <path d="M9779.657559627572,4408.156605088995L9774.203901090987,4408.156605088995" />
</g>
<g stroke="rgb(0, 0, 255)">
  <path d="M9768.750242554403,4408.156605088995L9763.296584017815,4408.156605088995" />
</g>
<g stroke="rgb(0, 0, 255)">
  <path d="M9757.842925481229,4408.156605088995L9752.389266944645,4408.156605088995" />
</g>
<g stroke="rgb(0, 0, 255)">
  <path d="M9746.935608408057,4408.156605088995L9741.481949871473,4408.156605088995" />
</g>
<g stroke="rgb(0, 0, 255)">
  <path d="M9736.02829133489,4408.156605088995L9730.574632798303,4408.156605088995" />
</g>
<g stroke="rgb(0, 0, 255)">
  <path d="M9725.120974261717,4408.156605088995L9719.667315725132,4408.156605088995" />
</g>
<g stroke="rgb(0, 0, 255)">
  <path d="M9714.213657188546,4408.156605088995L9708.759998651962,4408.156605088995" />
</g>
<g stroke="rgb(0, 0, 255)">
  <path d="M9703.306340115376,4408.156605088995L9697.85268157879,4408.156605088995" />
</g>
<g stroke="rgb(0, 0, 255)">
  <path d="M9692.399023042206,4408.156605088995L9686.94536450562,4408.156605088995" />
</g>
<g stroke="rgb(0, 0, 255)">
  <path d="M9681.491705969034,4408.156605088995L9676.038047432448,4408.156605088995" />
</g>
<g stroke="rgb(0, 0, 255)">
  <path d="M9670.584388895863,4408.156605088995L9665.130730359278,4408.156605088995" />
</g>
<g stroke="rgb(0, 0, 255)">
  <path d="M9659.677071822693,4408.156605088995L9654.223413286107,4408.156605088995" />
</g>
<g stroke="rgb(0, 0, 255)">
  <path d="M9648.769754749523,4408.156605088995L9643.316096212937,4408.156605088995" />
</g>
<g stroke="rgb(0, 0, 255)">
  <path d="M9637.862437676353,4408.156605088995L9632.408779139765,4408.156605088995" />
</g>
<g stroke="rgb(0, 0, 255)">
  <path d="M9626.95512060318,4408.156605088995L9621.501462066595,4408.156605088995" />
</g>
<g stroke="rgb(0, 0, 255)">
  <path d="M9616.04780353001,4408.156605088995L9610.594144993425,4408.156605088995" />
</g>
<g stroke="rgb(0, 0, 255)">
  <path d="M9605.14048645684,4408.156605088995L9599.686827920255,4408.156605088995" />
</g>
<g stroke="rgb(0, 0, 255)">
  <path d="M9594.233169383668,4408.156605088995L9588.779510847082,4408.156605088995" />
</g>
<g stroke="rgb(0, 0, 255)">
  <path d="M9594.233169383668,4412.456605088994L9599.686827920255,4412.456605088994" />
</g>
<g stroke="rgb(0, 0, 255)">
  <path d="M9605.14048645684,4412.456605088994L9610.594144993425,4412.456605088994" />
</g>
<g stroke="rgb(0, 0, 255)">
  <path d="M9616.04780353001,4412.456605088994L9621.501462066595,4412.456605088994" />
</g>
<g stroke="rgb(0, 0, 255)">
  <path d="M9626.95512060318,4412.456605088994L9632.408779139765,4412.456605088994" />
</g>
<g stroke="rgb(0, 0, 255)">
  <path d="M9637.862437676353,4412.456605088994L9643.316096212937,4412.456605088994" />
</g>
<g stroke="rgb(0, 0, 255)">
  <path d="M9648.769754749523,4412.456605088994L9654.223413286107,4412.456605088994" />
</g>
<g stroke="rgb(0, 0, 255)">
  <path d="M9659.677071822693,4412.456605088994L9665.130730359278,4412.456605088994" />
</g>
<g stroke="rgb(0, 0, 255)">
  <path d="M9670.584388895863,4412.456605088994L9676.038047432448,4412.456605088994" />
</g>
<g stroke="rgb(0, 0, 255)">
  <path d="M9681.491705969034,4412.456605088994L9686.94536450562,4412.456605088994" />
</g>
<g stroke="rgb(0, 0, 255)">
  <path d="M9692.399023042206,4412.456605088994L9697.85268157879,4412.456605088994" />
</g>
<g stroke="rgb(0, 0, 255)">
  <path d="M9703.306340115376,4412.456605088994L9708.759998651962,4412.456605088994" />
</g>
<g stroke="rgb(0, 0, 255)">
  <path d="M9714.213657188546,4412.456605088994L9719.667315725132,4412.456605088994" />
</g>
<g stroke="rgb(0, 0, 255)">
  <path d="M9725.120974261717,4412.456605088994L9730.574632798303,4412.456605088994" />
</g>
<g stroke="rgb(0, 0, 255)">
  <path d="M9736.02829133489,4412.456605088994L9741.481949871473,4412.456605088994" />
</g>
<g stroke="rgb(0, 0, 255)">
  <path d="M9746.935608408057,4412.456605088994L9752.389266944645,4412.456605088994" />
</g>
<g stroke="rgb(0, 0, 255)">
  <path d="M9757.842925481229,4412.456605088994L9763.296584017815,4412.456605088994" />
</g>
<g stroke="rgb(0, 0, 255)">
  <path d="M9768.750242554403,4412.456605088994L9774.203901090987,4412.456605088994" />
</g>
<g stroke="rgb(0, 0, 255)">
  <path d="M9779.657559627572,4412.456605088994L9785.111218164157,4412.456605088994" />
</g>
<g stroke="rgb(0, 0, 255)">
  <path d="M9790.564876700742,4412.456605088994L9796.018535237328,4412.456605088994" />
</g>
<g stroke="rgb(0, 0, 255)">
  <path d="M9801.472193773912,4412.456605088994L9806.925852310498,4412.456605088994" />
</g>
<g stroke="rgb(0, 0, 255)">
  <path d="M9594.233169383668,4412.456605088994L9594.233169383668,4408.156605088995" />
</g>
<g stroke="rgb(0, 0, 255)">
  <path d="M9599.686827920255,4412.456605088994L9599.686827920255,4408.156605088995" />
</g>
<g stroke="rgb(0, 0, 255)">
  <path d="M9605.14048645684,4412.456605088994L9605.14048645684,4408.156605088995" />
</g>
<g stroke="rgb(0, 0, 255)">
  <path d="M9610.594144993425,4412.456605088994L9610.594144993425,4408.156605088995" />
</g>
<g stroke="rgb(0, 0, 255)">
  <path d="M9616.04780353001,4412.456605088994L9616.04780353001,4408.156605088995" />
</g>
<g stroke="rgb(0, 0, 255)">
  <path d="M9621.501462066595,4412.456605088994L9621.501462066595,4408.156605088995" />
</g>
<g stroke="rgb(0, 0, 255)">
  <path d="M9626.95512060318,4412.456605088994L9626.95512060318,4408.156605088995" />
</g>
<g stroke="rgb(0, 0, 255)">
  <path d="M9632.408779139765,4412.456605088994L9632.408779139765,4408.156605088995" />
</g>
<g stroke="rgb(0, 0, 255)">
  <path d="M9637.862437676353,4412.456605088994L9637.862437676353,4408.156605088995" />
</g>
<g stroke="rgb(0, 0, 255)">
  <path d="M9643.316096212937,4412.456605088994L9643.316096212937,4408.156605088995" />
</g>
<g stroke="rgb(0, 0, 255)">
  <path d="M9648.769754749523,4412.456605088994L9648.769754749523,4408.156605088995" />
</g>
<g stroke="rgb(0, 0, 255)">
  <path d="M9654.223413286107,4412.456605088994L9654.223413286107,4408.156605088995" />
</g>
<g stroke="rgb(0, 0, 255)">
  <path d="M9659.677071822693,4412.456605088994L9659.677071822693,4408.156605088995" />
</g>
<g stroke="rgb(0, 0, 255)">
  <path d="M9665.130730359278,4412.456605088994L9665.130730359278,4408.156605088995" />
</g>
<g stroke="rgb(0, 0, 255)">
  <path d="M9670.584388895863,4412.456605088994L9670.584388895863,4408.156605088995" />
</g>
<g stroke="rgb(0, 0, 255)">
  <path d="M9676.038047432448,4412.456605088994L9676.038047432448,4408.156605088995" />
</g>
<g stroke="rgb(0, 0, 255)">
  <path d="M9681.491705969034,4412.456605088994L9681.491705969034,4408.156605088995" />
</g>
<g stroke="rgb(0, 0, 255)">
  <path d="M9686.94536450562,4412.456605088994L9686.94536450562,4408.156605088995" />
</g>
<g stroke="rgb(0, 0, 255)">
  <path d="M9692.399023042206,4412.456605088994L9692.399023042206,4408.156605088995" />
</g>
<g stroke="rgb(0, 0, 255)">
  <path d="M9697.85268157879,4412.456605088994L9697.85268157879,4408.156605088995" />
</g>
<g stroke="rgb(0, 0, 255)">
  <path d="M9703.306340115376,4412.456605088994L9703.306340115376,4408.156605088995" />
</g>
<g stroke="rgb(0, 0, 255)">
  <path d="M9708.759998651962,4412.456605088994L9708.759998651962,4408.156605088995" />
</g>
<g stroke="rgb(0, 0, 255)">
  <path d="M9714.213657188546,4412.456605088994L9714.213657188546,4408.156605088995" />
</g>
<g stroke="rgb(0, 0, 255)">
  <path d="M9719.667315725132,4412.456605088994L9719.667315725132,4408.156605088995" />
</g>
<g stroke="rgb(0, 0, 255)">
  <path d="M9725.120974261717,4412.456605088994L9725.120974261717,4408.156605088995" />
</g>
<g stroke="rgb(0, 0, 255)">
  <path d="M9730.574632798303,4412.456605088994L9730.574632798303,4408.156605088995" />
</g>
<g stroke="rgb(0, 0, 255)">
  <path d="M9736.02829133489,4412.456605088994L9736.02829133489,4408.156605088995" />
</g>
<g stroke="rgb(0, 0, 255)">
  <path d="M9741.481949871473,4412.456605088994L9741.481949871473,4408.156605088995" />
</g>
<g stroke="rgb(0, 0, 255)">
  <path d="M9746.935608408057,4412.456605088994L9746.935608408057,4408.156605088995" />
</g>
<g stroke="rgb(0, 0, 255)">
  <path d="M9752.389266944645,4412.456605088994L9752.389266944645,4408.156605088995" />
</g>
<g stroke="rgb(0, 0, 255)">
  <path d="M9757.842925481229,4412.456605088994L9757.842925481229,4408.156605088995" />
</g>
<g stroke="rgb(0, 0, 255)">
  <path d="M9763.296584017815,4412.456605088994L9763.296584017815,4408.156605088995" />
</g>
<g stroke="rgb(0, 0, 255)">
  <path d="M9768.750242554403,4412.456605088994L9768.750242554403,4408.156605088995" />
</g>
<g stroke="rgb(0, 0, 255)">
  <path d="M9774.203901090987,4412.456605088994L9774.203901090987,4408.156605088995" />
</g>
<g stroke="rgb(0, 0, 255)">
  <path d="M9779.657559627572,4412.456605088994L9779.657559627572,4408.156605088995" />
</g>
<g stroke="rgb(0, 0, 255)">
  <path d="M9785.111218164157,4412.456605088994L9785.111218164157,4408.156605088995" />
</g>
<g stroke="rgb(0, 0, 255)">
  <path d="M9790.564876700742,4412.456605088994L9790.564876700742,4408.156605088995" />
</g>
<g stroke="rgb(0, 0, 255)">
  <path d="M9796.018535237328,4412.456605088994L9796.018535237328,4408.156605088995" />
</g>
<g stroke="rgb(0, 0, 255)">
  <path d="M9801.472193773912,4412.456605088994L9801.472193773912,4408.156605088995" />
</g>
<g stroke="rgb(0, 0, 255)">
  <path d="M9806.925852310498,4412.456605088994L9806.925852310498,4408.156605088995" />
</g>
<g stroke="rgb(255, 0, 0)">
  <path d="M9588.779510847082,4408.156605088995L9588.779510847082,4400.947514179903" />
</g>
<g stroke="rgb(255, 0, 0)">
  <path d="M9588.779510847082,4393.738423270812L9588.779510847082,4386.529332361721" />
</g>
<g stroke="rgb(255, 0, 0)">
  <path d="M9588.779510847082,4379.320241452631L9588.779510847082,4372.111150543541" />
</g>
<g stroke="rgb(255, 0, 0)">
  <path d="M9588.779510847082,4364.90205963445L9588.779510847082,4357.692968725358" />
</g>
<g stroke="rgb(255, 0, 0)">
  <path d="M9588.779510847082,4350.483877816268L9588.779510847082,4343.274786907175" />
</g>
<g stroke="rgb(255, 0, 0)">
  <path d="M9588.779510847082,4336.065695998085L9588.779510847082,4328.856605088996" />
</g>
<g stroke="rgb(255, 0, 0)">
  <path d="M9588.779510847082,4328.856605088996L9812.379510847086,4328.856605088996" />
</g>
<g stroke="rgb(0, 255, 255)">
  <path d="M9593.079510847083,4333.156605088995L9808.079510847085,4333.156605088995" />
</g>
<g stroke="rgb(255, 0, 0)">
  <path d="M9812.379510847086,4328.856605088996L9812.379510847086,4336.065695998085" />
</g>
<g stroke="rgb(255, 0, 0)">
  <path d="M9812.379510847086,4343.274786907175L9812.379510847086,4350.483877816268" />
</g>
<g stroke="rgb(255, 0, 0)">
  <path d="M9812.379510847086,4357.692968725358L9812.379510847086,4364.90205963445" />
</g>
<g stroke="rgb(255, 0, 0)">
  <path d="M9812.379510847086,4372.111150543541L9812.379510847086,4379.320241452631" />
</g>
<g stroke="rgb(255, 0, 0)">
  <path d="M9812.379510847086,4386.529332361721L9812.379510847086,4393.738423270812" />
</g>
<g stroke="rgb(255, 0, 0)">
  <path d="M9812.379510847086,4400.947514179903L9812.379510847086,4408.156605088995" />
</g>
<g stroke="rgb(255, 0, 0)">
  <path d="M 9509.479510847084 4457.456605088994 A 10 10 0 1 1 9509.479510847084 4477.456605088994" />
</g>
<g stroke="rgb(255, 0, 0)">
  <path d="M9375.606805617024,4543.053995049101L9382.606805617024,4543.053995049101L9382.606805617024,4328.053995049101L9375.606805617024,4328.053995049101L9375.606805617024,4543.053995049101" />
</g>
<g stroke="rgb(255, 0, 255)">
  <g>
    <path d="M 9451.324224293134 4447.961490996969 C 9451.846378467808 4448.027647165571 9453.794714323441 4448.012598988491 9454.116152067501 4447.941698923406" />
    <path d="M 9454.116152067501 4447.941698923406 C 9454.116152067501 4440.232660432495 9454.116152067501 4432.519787550307 9454.116152067501 4424.809994583486" />
    <path d="M 9454.116152067501 4424.809994583486 C 9453.780022713743 4424.735921585457 9452.362930917223 4424.730495560068 9451.933851164726 4424.805633092601" />
    <path d="M 9451.933851164726 4424.805633092601 C 9451.933851164726 4430.532746046899 9451.933851164726 4436.266928337132 9451.933851164726 4442.001120962651" />
    <path d="M 9451.933851164726 4442.001120962651 C 9451.906080250019 4442.005069042077 9451.878314502956 4442.009017121503 9451.850543588247 4442.012975536216" />
    <path d="M 9451.850543588247 4442.012975536216 C 9451.483387704551 4440.675610139415 9451.149630299036 4439.32916002582 9450.801041757455 4437.986740673941" />
    <path d="M 9450.801041757455 4437.986740673941 C 9450.44687216119 4436.622823926235 9450.090154916814 4435.259568636863 9449.736491749585 4433.895527865719" />
    <path d="M 9449.736491749585 4433.895527865719 C 9449.386554453124 4432.54585314275 9449.039045948977 4431.195547967305 9448.680892099783 4429.808397495647" />
    <path d="M 9448.680892099783 4429.808397495647 C 9447.776347829176 4429.760607131076 9446.881926971653 4429.792026401901 9445.952061249229 4429.787892287319" />
    <path d="M 9445.952061249229 4429.787892287319 C 9444.88718051219 4433.895858594886 9443.828681814539 4437.979185579542 9442.770183116889 4442.062512564198" />
    <path d="M 9442.770183116889 4442.062512564198 C 9442.744934012075 4442.058822866933 9442.719679739621 4442.055143504955 9442.694430634809 4442.051453807692" />
    <path d="M 9442.694430634809 4442.051453807692 C 9442.694430634809 4436.305127555871 9442.694430634809 4430.55881163934 9442.694430634809 4424.793757848465" />
    <path d="M 9442.694430634809 4424.793757848465 C 9442.318763642716 4424.716718623222 9441.968319917214 4424.76306204769 9441.621534883125 4424.75472147152" />
    <path d="M 9441.621534883125 4424.75472147152 C 9441.26951502644 4424.746246536627 9440.917133434732 4424.752850784671 9440.53892396217 4424.752850784671" />
    <path d="M 9440.53892396217 4424.752850784671 C 9440.522387503841 4424.859541946754 9440.503101859314 4424.951288284622 9440.49529871804 4425.04399580413" />
    <path d="M 9440.49529871804 4425.04399580413 C 9440.488219046818 4425.128052688875 9440.493546886986 4425.213174108125 9440.493546886986 4425.297820104197" />
    <path d="M 9440.493546886986 4425.297820104197 C 9440.493541719343 4432.676336134253 9440.493541719343 4440.054841829023 9440.493541719343 4447.433357859079" />
    <path d="M 9440.493541719343 4447.433357859079 C 9440.493541719343 4447.601430287424 9440.493541719343 4447.769502715765 9440.493541719343 4447.9298753557" />
    <path d="M 9440.493541719343 4447.9298753557 C 9440.819072236838 4448.014200957893 9442.700171886436 4448.034871530804 9443.301985281467 4447.961522002827" />
    <path d="M 9443.301985281467 4447.961522002827 C 9444.624121633675 4443.060033071762 9445.927721649625 4438.134245882237 9447.290744395052 4433.213099236332" />
    <path d="M 9447.290744395052 4433.213099236332 C 9447.791328826894 4434.838395378505 9448.214775848273 4436.47642459359 9448.65997864764 4438.108231966229" />
    <path d="M 9448.65997864764 4438.108231966229 C 9449.10875745612 4439.75312381152 9449.545423308877 4441.401333283764 9449.990243702645 4443.047310334135" />
    <path d="M 9449.990243702645 4443.047310334135 C 9450.434449146873 4444.690982615624 9450.882194426707 4446.333683380188 9451.324224293134 4447.961490996969" />
  </g>
</g>
<g stroke="rgb(255, 0, 255)">
  <g>
    <path d="M 9449.270158457059 4379.891341030262 C 9448.322169809833 4379.891341030262 9447.421372080567 4379.891341030262 9446.479016164461 4379.891341030262" />
    <path d="M 9446.479016164461 4379.891341030262 C 9444.903081350403 4385.777689742982 9443.327162039272 4391.663976443986 9441.751247895787 4397.550252809701" />
    <path d="M 9441.751247895787 4397.550252809701 C 9441.634779552716 4397.062540977141 9441.67154216664 4396.579273317757 9441.664974092098 4396.097938356939" />
    <path d="M 9441.664974092098 4396.097938356939 C 9441.658235485329 4395.604294069954 9441.66345997263 4395.110474083097 9441.663454804988 4394.616736778533" />
    <path d="M 9441.663454804988 4394.616736778533 C 9441.663449637344 4394.137107139981 9441.663454804988 4393.657467166144 9441.663454804988 4393.177837527591" />
    <path d="M 9441.663454804988 4393.177837527591 C 9441.663454804988 4392.684100223028 9441.663454804988 4392.190352583178 9441.663454804988 4391.696615278614" />
    <path d="M 9441.663454804988 4391.696615278614 C 9441.663454804988 4391.202877974049 9441.663454804988 4390.709130334198 9441.663454804988 4390.215393029634" />
    <path d="M 9441.663454804988 4390.215393029634 C 9441.663454804988 4389.721655725071 9441.663454804988 4389.227918420506 9441.663454804988 4388.734181115942" />
    <path d="M 9441.663454804988 4388.734181115942 C 9441.663454804988 4388.25455147739 9441.663454804988 4387.774911503551 9441.663454804988 4387.295281864999" />
    <path d="M 9441.663454804988 4387.295281864999 C 9441.663454804988 4386.801544560436 9441.663454804988 4386.307796920585 9441.663454804988 4385.814059616021" />
    <path d="M 9441.663454804988 4385.814059616021 C 9441.663454804988 4385.320322311456 9441.663454804988 4384.826574671607 9441.663454804988 4384.332837367042" />
    <path d="M 9441.663454804988 4384.332837367042 C 9441.663454804988 4383.839100062479 9441.663454804988 4383.345352422628 9441.663454804988 4382.851615118063" />
    <path d="M 9441.663454804988 4382.851615118063 C 9441.663454804988 4382.371985479511 9441.663454804988 4381.892345505672 9441.663454804988 4381.412715867122" />
    <path d="M 9441.663454804988 4381.412715867122 C 9441.663454804988 4380.921324672582 9441.663454804988 4380.429933478044 9441.663454804988 4379.947068894831" />
    <path d="M 9441.663454804988 4379.947068894831 C 9441.334570487035 4379.866236619461 9439.958080863358 4379.846651251627 9439.369941052306 4379.906916306951" />
    <path d="M 9439.369941052306 4379.906916306951 C 9439.360256888898 4379.917179246401 9439.349539196843 4379.926677374655 9439.341198620674 4379.937922166319" />
    <path d="M 9439.341198620674 4379.937922166319 C 9439.333230114817 4379.948681199518 9439.322962007722 4379.96086650225 9439.32193364672 4379.973113816699" />
    <path d="M 9439.32193364672 4379.973113816699 C 9439.316052868726 4380.043238735303 9439.308880179928 4380.113570359633 9439.308895682856 4380.183829636961" />
    <path d="M 9439.308895682856 4380.183829636961 C 9439.310404634678 4387.787355188445 9439.312487194898 4395.390891075215 9439.3158823365 4402.994416626699" />
    <path d="M 9439.3158823365 4402.994416626699 C 9439.315892671784 4403.019893107813 9439.335431530832 4403.045369588926 9439.361290417542 4403.108600871463" />
    <path d="M 9439.361290417542 4403.108600871463 C 9440.313134126614 4403.145642538121 9441.280821829823 4403.123990112995 9442.28426962417 4403.119949015991" />
    <path d="M 9442.28426962417 4403.119949015991 C 9442.69603260421 4401.703105266346 9443.048631236932 4400.284845582455 9443.43139340318 4398.875195192183" />
    <path d="M 9443.43139340318 4398.875195192183 C 9443.819116506924 4397.447303021316 9444.189993093745 4396.014821983262 9444.571168793522 4394.585141807838" />
    <path d="M 9444.571168793522 4394.585141807838 C 9444.948721975392 4393.16906286939 9445.331013886103 4391.754255171177 9445.709202688091 4390.338351932599" />
    <path d="M 9445.709202688091 4390.338351932599 C 9446.086730031748 4388.924918827483 9446.461745900797 4387.510834599321 9446.834575856756 4386.10940076178" />
    <path d="M 9446.834575856756 4386.10940076178 C 9446.877896209935 4386.102269414126 9446.895269826467 4386.094073531967 9446.902685394498 4386.099499557356" />
    <path d="M 9446.902685394498 4386.099499557356 C 9446.9122248639 4386.106465540427 9446.916064422816 4386.124014856828 9446.918255503546 4386.137667770237" />
    <path d="M 9446.918255503546 4386.137667770237 C 9446.92271001201 4386.165356002652 9446.92686479716 4386.193498987671 9446.926880300092 4386.221455937532" />
    <path d="M 9446.926880300092 4386.221455937532 C 9446.929365936485 4391.807719608012 9446.93146916728 4397.393993613778 9446.934011647745 4402.980257284255" />
    <path d="M 9446.934011647745 4402.980257284255 C 9446.93401681539 4402.993879191804 9446.939727061155 4403.00762512279 9446.943540781856 4403.021092001043" />
    <path d="M 9446.943540781856 4403.021092001043 C 9446.947375173133 4403.034651896873 9446.952160410763 4403.047953410541 9446.956527069291 4403.061368612361" />
    <path d="M 9446.956527069291 4403.061368612361 C 9447.279106862503 4403.149528605828 9448.895788543416 4403.154086467155 9449.270158457059 4403.064097127984" />
    <path d="M 9449.270158457059 4403.064097127984 C 9449.270158457059 4395.356546918323 9449.270158457059 4387.645244999677 9449.270158457059 4379.891341030262" />
  </g>
</g>
<g stroke="rgb(255, 0, 255)">
  <g>
    <path d="M 9439.24284803476 4469.645877995128 C 9439.24284803476 4477.390805768258 9439.24284803476 4485.103492615286 9439.24284803476 4492.852616514717" />
    <path d="M 9439.24284803476 4492.852616514717 C 9439.395613903862 4492.860042418036 9439.533186901876 4492.872486102928 9439.67076506753 4492.87255328229" />
    <path d="M 9439.67076506753 4492.87255328229 C 9441.984939057838 4492.873726337303 9444.2991078805 4492.874672016013 9446.613281870808 4492.872160541405" />
    <path d="M 9446.613281870808 4492.872160541405 C 9447.051906260345 4492.871685118227 9447.48413310757 4492.822551166418 9447.903843922895 4492.679025043406" />
    <path d="M 9447.903843922895 4492.679025043406 C 9448.638135019715 4492.427944761893 9449.129138641012 4491.932698505507 9449.352013925787 4491.197105162592" />
    <path d="M 9449.352013925787 4491.197105162592 C 9449.453175709617 4490.863223733639 9449.486310637994 4490.507348815108 9449.533785776328 4490.159194355561" />
    <path d="M 9449.533785776328 4490.159194355561 C 9449.556482065385 4489.992754902476 9449.542090178995 4489.821070291516 9449.542095346638 4489.651757628799" />
    <path d="M 9449.542095346638 4489.651757628799 C 9449.542358896442 4484.049753317048 9449.541640594034 4478.447754172941 9449.543531951456 4472.845749861191" />
    <path d="M 9449.543531951456 4472.845749861191 C 9449.54369731604 4472.364497582664 9449.522525481734 4471.88796853005 9449.39215617838 4471.420751570531" />
    <path d="M 9449.39215617838 4471.420751570531 C 9449.156640838271 4470.576730737408 9448.62660084003 4470.017255843342 9447.779835988355 4469.788473942359" />
    <path d="M 9447.779835988355 4469.788473942359 C 9447.456145151848 4469.701021916012 9447.115116872308 4469.635206811862 9446.781602346025 4469.633460148451" />
    <path d="M 9446.781602346025 4469.633460148451 C 9444.340500702756 4469.620675399106 9441.899295706624 4469.626587182959 9439.458126883988 4469.627383000015" />
    <path d="M 9439.458126883988 4469.627383000015 C 9439.402321504773 4469.627398502946 9439.346516125555 4469.63667442254 9439.24284803476 4469.645877995128" />
  </g>
</g>
<g stroke="rgb(255, 0, 255)">
  <g>
    <path d="M 9441.84430164739 4471.855577742297 C 9441.893900687093 4471.847991642039 9441.947974905826 4471.832540388787 9442.002059459852 4471.832493879998" />
    <path d="M 9442.002059459852 4471.832493879998 C 9443.327570283089 4471.831300154413 9444.653091441613 4471.830499169712 9445.978591929561 4471.8339046466" />
    <path d="M 9445.978591929561 4471.8339046466 C 9446.104155324712 4471.834225040479 9446.231914968235 4471.852590844512 9446.354739512475 4471.880072371197" />
    <path d="M 9446.354739512475 4471.880072371197 C 9446.742860524748 4471.966919783284 9446.876552622694 4472.110771467819 9446.922952891238 4472.508581811144" />
    <path d="M 9446.922952891238 4472.508581811144 C 9446.949018483681 4472.732046207247 9446.960092743118 4472.958476830563 9446.960175425407 4473.183579369569" />
    <path d="M 9446.960175425407 4473.183579369569 C 9446.962149465122 4478.556150657288 9446.962211476843 4483.928727112651 9446.959979054967 4489.301298400371" />
    <path d="M 9446.959979054967 4489.301298400371 C 9446.959880869746 4489.540322570233 9446.948295013628 4489.781052062361 9446.91818315654 4490.017957498499" />
    <path d="M 9446.91818315654 4490.017957498499 C 9446.869312754534 4490.402502501658 9446.705787852228 4490.564533955068 9446.327376841582 4490.624954039688" />
    <path d="M 9446.327376841582 4490.624954039688 C 9446.188672129703 4490.647107726206 9446.046670461445 4490.657639383104 9445.906141571504 4490.657918435839" />
    <path d="M 9445.906141571504 4490.657918435839 C 9444.637035574102 4490.660424742804 9443.367919241413 4490.660404072231 9442.098813244005 4490.657613544889" />
    <path d="M 9442.098813244005 4490.657613544889 C 9442.006265921438 4490.657406839159 9441.91378061059 4490.629666930312 9441.82963587591 4490.616076028623" />
    <path d="M 9441.82963587591 4490.616076028623 C 9441.758611787387 4490.113119648539 9441.773835664335 4472.178849999703 9441.84430164739 4471.855577742297" />
  </g>
</g>
<g stroke="rgb(255, 0, 255)">
  <g>
    <path d="M 9462.92577454251 4391.473373091169 C 9462.925795213085 4388.595150842539 9462.92881311673 4385.716907923337 9462.921733445508 4382.838706345281" />
    <path d="M 9462.921733445508 4382.838706345281 C 9462.92090662259 4382.50257182388 9462.897461025266 4382.159481654695 9462.827403286024 4381.831832403474" />
    <path d="M 9462.827403286024 4381.831832403474 C 9462.611034064073 4380.820007859457 9461.97665418142 4380.199508266513 9460.968720872754 4379.980028123339" />
    <path d="M 9460.968720872754 4379.980028123339 C 9460.668077725042 4379.914564418928 9460.35408138723 4379.886287075185 9460.045862474546 4379.883889288726" />
    <path d="M 9460.045862474546 4379.883889288726 C 9458.733813361918 4379.873667690422 9457.421614387638 4379.875404018547 9456.109529101506 4379.883021124665" />
    <path d="M 9456.109529101506 4379.883021124665 C 9455.843281787122 4379.884561082348 9455.574181933673 4379.912848761376 9455.311717334129 4379.959006150687" />
    <path d="M 9455.311717334129 4379.959006150687 C 9454.156914437282 4380.162115200117 9453.45028573466 4380.881998907619 9453.281774056642 4382.033597865664" />
    <path d="M 9453.281774056642 4382.033597865664 C 9453.232934660497 4382.367386277039 9453.206150765645 4382.707561895443 9453.205882048196 4383.044833298354" />
    <path d="M 9453.205882048196 4383.044833298354 C 9453.201360360372 4388.688406132229 9453.201329354513 4394.331989301391 9453.205980233419 4399.975562135266" />
    <path d="M 9453.205980233419 4399.975562135266 C 9453.20625411851 4400.312781861745 9453.233565112969 4400.653112509447 9453.28401164616 4400.986590862228" />
    <path d="M 9453.28401164616 4400.986590862228 C 9453.46069336812 4402.154571249306 9454.235405770269 4402.911196900157 9455.40894654146 4403.07215865142" />
    <path d="M 9455.40894654146 4403.07215865142 C 9455.65969609381 4403.10656482003 9455.914724454746 4403.123380331095 9456.167876961194 4403.124403524454" />
    <path d="M 9456.167876961194 4403.124403524454 C 9457.437659919859 4403.129519491249 9458.70760824311 4403.136743856482 9459.97720516662 4403.120558797892" />
    <path d="M 9459.97720516662 4403.120558797892 C 9460.354691169128 4403.115742554404 9460.740280036223 4403.074504761445 9461.106402391273 4402.98529056876" />
    <path d="M 9461.106402391273 4402.98529056876 C 9461.971145473737 4402.774585083786 9462.529876227181 4402.222753134054 9462.78101335277 4401.362836630362" />
    <path d="M 9462.78101335277 4401.362836630362 C 9462.892913499223 4400.979676555589 9462.927671067575 4400.590129273785 9462.927283494333 4400.192696168415" />
    <path d="M 9462.927283494333 4400.192696168415 C 9462.92445679349 4397.286258587763 9462.925759039581 4394.379810671822 9462.92577454251 4391.473373091169" />
  </g>
</g>
<g stroke="rgb(255, 0, 255)">
  <g>
    <path d="M 9460.390156704603 4391.464484744817 C 9460.390156704603 4394.214332400379 9460.39155713592 4396.964180055942 9460.387547044773 4399.714027711504" />
    <path d="M 9460.387547044773 4399.714027711504 C 9460.387216315607 4399.937786663271 9460.360732144065 4400.163147584438 9460.326997769072 4400.384818808342" />
    <path d="M 9460.326997769072 4400.384818808342 C 9460.283124478068 4400.673080282879 9460.089058804288 4400.826145875289 9459.812874111974 4400.869316366814" />
    <path d="M 9459.812874111974 4400.869316366814 C 9459.632559536825 4400.897521363552 9459.44817285881 4400.910006389591 9459.265501838348 4400.911029582949" />
    <path d="M 9459.265501838348 4400.911029582949 C 9458.475829109053 4400.915463420839 9457.686104703327 4400.915473756126 9456.896426806386 4400.911463664981" />
    <path d="M 9456.896426806386 4400.911463664981 C 9456.713673103635 4400.9105334892 9456.529482796064 4400.898203492459 9456.348697965379 4400.872075888297" />
    <path d="M 9456.348697965379 4400.872075888297 C 9456.051930550087 4400.829194784793 9455.854516243498 4400.661339397466 9455.81575891929 4400.355911012125" />
    <path d="M 9455.81575891929 4400.355911012125 C 9455.780391569038 4400.077199342272 9455.751344246453 4399.795345745338 9455.751153043653 4399.514866741502" />
    <path d="M 9455.751153043653 4399.514866741502 C 9455.747437508173 4394.170293744791 9455.748378019241 4388.82572074808 9455.748605395545 4383.48114775137" />
    <path d="M 9455.748605395545 4383.48114775137 C 9455.748610563187 4383.354261439552 9455.746750211623 4383.227116745573 9455.753824715202 4383.100540492351" />
    <path d="M 9455.753824715202 4383.100540492351 C 9455.799336149112 4382.285871872762 9455.998590136693 4382.091702846118 9456.82008004534 4382.085594691822" />
    <path d="M 9456.82008004534 4382.085594691822 C 9457.666136929894 4382.079310837658 9458.5123075026 4382.080861130627 9459.358364387155 4382.08735169052" />
    <path d="M 9459.358364387155 4382.08735169052 C 9459.525599657294 4382.088633266041 9459.693537726913 4382.122243617595 9459.859398403954 4382.15106873152" />
    <path d="M 9459.859398403954 4382.15106873152 C 9460.127066820229 4382.19757752057 9460.287191413288 4382.366042689799 9460.328811611846 4382.628476283484" />
    <path d="M 9460.328811611846 4382.628476283484 C 9460.363925747579 4382.849837448794 9460.387366177261 4383.075673793138 9460.387686571143 4383.299556768341" />
    <path d="M 9460.387686571143 4383.299556768341 C 9460.391562303561 4386.021199427168 9460.390198045749 4388.742842085992 9460.390156704603 4391.464484744817" />
  </g>
</g>
<g stroke="rgb(255, 0, 255)">
  <g>
    <path d="M 9453.258984750006 4481.25718475492 C 9453.258984750006 4484.078898824853 9453.255951343432 4486.900623230073 9453.262710620773 4489.722321797074" />
    <path d="M 9453.262710620773 4489.722321797074 C 9453.26358395248 4490.08700754731 9453.284249357748 4490.457139993506 9453.348839730452 4490.81516465162" />
    <path d="M 9453.348839730452 4490.81516465162 C 9453.555230233333 4491.959286029914 9454.300089160552 4492.660871112747 9455.450768278102 4492.819166360102" />
    <path d="M 9455.450768278102 4492.819166360102 C 9455.701507495163 4492.853655211006 9455.956582364892 4492.870010801822 9456.209760709555 4492.871023659894" />
    <path d="M 9456.209760709555 4492.871023659894 C 9457.479512662363 4492.876108620832 9458.749347297462 4492.879638121156 9460.019032070908 4492.868935932031" />
    <path d="M 9460.019032070908 4492.868935932031 C 9460.341301805527 4492.866217751692 9460.669679694443 4492.839836933014 9460.983960252632 4492.772016783292" />
    <path d="M 9460.983960252632 4492.772016783292 C 9462.127389166735 4492.52529282502 9462.79087838369 4491.779503722017 9462.926880418165 4490.614132994768" />
    <path d="M 9462.926880418165 4490.614132994768 C 9462.954615159366 4490.376493753292 9462.968888189962 4490.135872781672 9462.96898120754 4489.896621235508" />
    <path d="M 9462.96898120754 4489.896621235508 C 9462.971260138203 4484.126213766248 9462.972908616393 4478.355795961701 9462.965632574727 4472.585398827726" />
    <path d="M 9462.965632574727 4472.585398827726 C 9462.96517265448 4472.222077335305 9462.925857224804 4471.850880354603 9462.84468388498 4471.497093163936" />
    <path d="M 9462.84468388498 4471.497093163936 C 9462.615633266549 4470.498761336386 9461.957673427843 4469.921861149356 9460.969351325228 4469.719077661451" />
    <path d="M 9460.969351325228 4469.719077661451 C 9460.681384406354 4469.659990828783 9460.382358730973 4469.632307764011 9460.08811829322 4469.630235539077" />
    <path d="M 9460.08811829322 4469.630235539077 C 9458.77607951588 4469.620980290057 9457.46394772096 4469.627284814794 9456.1518469319 4469.625574324886" />
    <path d="M 9456.1518469319 4469.625574324886 C 9455.75420195316 4469.625052392919 9455.364789030078 4469.674506738611 9454.984016406475 4469.790535832006" />
    <path d="M 9454.984016406475 4469.790535832006 C 9454.178835579854 4470.035890364822 9453.661125578355 4470.563522241318 9453.417812264615 4471.368734073799" />
    <path d="M 9453.417812264615 4471.368734073799 C 9453.281277962891 4471.820592797643 9453.258545500332 4472.283040022463 9453.25865402084 4472.749709211799" />
    <path d="M 9453.25865402084 4472.749709211799 C 9453.259315479172 4475.585536115388 9453.258984750006 4478.421357851333 9453.258984750006 4481.25718475492" />
  </g>
</g>
<g stroke="rgb(255, 0, 255)">
  <g>
    <path d="M 9455.802788134786 4481.223450379928 C 9455.802788134786 4479.122322816978 9455.802751961284 4477.021190086383 9455.802813973003 4474.920062523432" />
    <path d="M 9455.802813973003 4474.920062523432 C 9455.802834643575 4474.257291608884 9455.796953865585 4473.594427676759 9455.806886075867 4472.931801456222" />
    <path d="M 9455.806886075867 4472.931801456222 C 9455.810022835307 4472.722785790582 9455.845612394218 4472.512467878852 9455.884860644532 4472.306273746416" />
    <path d="M 9455.884860644532 4472.306273746416 C 9455.925514493803 4472.092710554738 9456.067759041296 4471.957390649172 9456.279653084212 4471.913109114352" />
    <path d="M 9456.279653084212 4471.913109114352 C 9456.457998787293 4471.87585040668 9456.640132372859 4471.836395450635 9456.820937874116 4471.83469012837" />
    <path d="M 9456.820937874116 4471.83469012837 C 9457.68105074825 4471.826592431431 9458.541313484038 4471.827600121861 9459.40145736403 4471.834054508252" />
    <path d="M 9459.40145736403 4471.834054508252 C 9459.568635790096 4471.835310245557 9459.736418830418 4471.870031640405 9459.902357022109 4471.898458845802" />
    <path d="M 9459.902357022109 4471.898458845802 C 9460.191693366436 4471.948011376714 9460.341813402207 4472.138898949908 9460.382493089697 4472.415776106415" />
    <path d="M 9460.382493089697 4472.415776106415 C 9460.413126878751 4472.624269840086 9460.437879889812 4472.835972680202 9460.437993577963 4473.046259586076" />
    <path d="M 9460.437993577963 4473.046259586076 C 9460.44093396696 4478.517646547597 9460.440944302247 4483.989038676764 9460.437900560386 4489.460425638286" />
    <path d="M 9460.437900560386 4489.460425638286 C 9460.437786872235 4489.670660867726 9460.410889289233 4489.882063984535 9460.3815370757 4490.090821268011" />
    <path d="M 9460.3815370757 4490.090821268011 C 9460.338981533718 4490.393505634798 9460.151148037672 4490.569029804675 9459.855176439438 4490.616339578426" />
    <path d="M 9459.855176439438 4490.616339578426 C 9459.67499105537 4490.645138854136 9459.490428677484 4490.656884907194 9459.307736986451 4490.657887429979" />
    <path d="M 9459.307736986451 4490.657887429979 C 9458.51807459244 4490.662223082646 9457.728370857287 4490.661189554002 9456.93869296035 4490.658564391242" />
    <path d="M 9456.93869296035 4490.658564391242 C 9456.783916878032 4490.658047626919 9456.627952237772 4490.651252176075 9456.474695442563 4490.631020852837" />
    <path d="M 9456.474695442563 4490.631020852837 C 9456.06421403804 4490.576827778308 9455.90286988118 4490.430981383486 9455.838114143891 4490.020556823043" />
    <path d="M 9455.838114143891 4490.020556823043 C 9455.803206713888 4489.799335184101 9455.804359098329 4489.571033873936 9455.804183398459 4489.345920999643" />
    <path d="M 9455.804183398459 4489.345920999643 C 9455.802116341167 4486.638432515619 9455.802844978864 4483.930938863953 9455.802788134786 4481.223450379928" />
  </g>
</g>
<g stroke="rgb(255, 0, 255)">
  <g>
    <path d="M 9461.153453782863 4424.767650914875 C 9460.310957404494 4424.767650914875 9459.510520474356 4424.767650914875 9458.719008064072 4424.767650914875" />
    <path d="M 9458.719008064072 4424.767650914875 C 9458.70117452729 4424.787918411616 9458.6915162021 4424.797395869296 9458.683682054965 4424.808206578928" />
    <path d="M 9458.683682054965 4424.808206578928 C 9458.675439664017 4424.81957539403 9458.66382280204 4424.831698685042 9458.66255672945 4424.844390416811" />
    <path d="M 9458.66255672945 4424.844390416811 C 9458.655580411092 4424.914339635543 9458.646779914674 4424.984547236436 9458.64678508232 4425.054672155039" />
    <path d="M 9458.64678508232 4425.054672155039 C 9458.647265673138 4432.640679395981 9458.648438728153 4440.226696972209 9458.650779670534 4447.812704213151" />
    <path d="M 9458.650779670534 4447.812704213151 C 9458.65079000582 4447.853022165616 9458.66780705497 4447.893329782793 9458.676266486931 4447.930908884346" />
    <path d="M 9458.676266486931 4447.930908884346 C 9458.970026333865 4448.015699574429 9460.595027920373 4448.035315948121 9461.10842810742 4447.961821726135" />
    <path d="M 9461.10842810742 4447.961821726135 C 9461.118375820632 4447.952778350486 9461.130023688467 4447.944985544499 9461.137800991526 4447.934371205309" />
    <path d="M 9461.137800991526 4447.934371205309 C 9461.145976203112 4447.923178090078 9461.155794725248 4447.909277129793 9461.155805060533 4447.896564727453" />
    <path d="M 9461.155805060533 4447.896564727453 C 9461.162977749333 4440.283148306831 9461.169447638653 4432.669731886209 9461.174987352191 4425.056315465585" />
    <path d="M 9461.174987352191 4425.056315465585 C 9461.175049363912 4424.973333450632 9461.162946743474 4424.890341100392 9461.153453782863 4424.767650914875" />
  </g>
</g>
<g stroke="rgb(255, 0, 0)">
  <path d="M9588.779510847082,4533.965695998086L9593.079510847083,4533.965695998086" />
</g>
<g stroke="rgb(255, 0, 0)">
  <path d="M9593.079510847083,4533.965695998086L9593.079510847083,4541.174786907176" />
</g>
<g stroke="rgb(255, 0, 0)">
  <path d="M9593.079510847083,4541.174786907176L9588.779510847082,4541.174786907176" />
</g>
<g stroke="rgb(255, 0, 0)">
  <path d="M9588.779510847082,4548.383877816267L9593.079510847083,4548.383877816267" />
</g>
<g stroke="rgb(255, 0, 0)">
  <path d="M9593.079510847083,4548.383877816267L9593.079510847083,4555.592968725358" />
</g>
<g stroke="rgb(255, 0, 0)">
  <path d="M9593.079510847083,4555.592968725358L9588.779510847082,4555.592968725358" />
</g>
<g stroke="rgb(255, 0, 0)">
  <path d="M9588.779510847082,4562.802059634449L9593.079510847083,4562.802059634449" />
</g>
<g stroke="rgb(255, 0, 0)">
  <path d="M9593.079510847083,4562.802059634449L9593.079510847083,4570.011150543541" />
</g>
<g stroke="rgb(255, 0, 0)">
  <path d="M9593.079510847083,4570.011150543541L9588.779510847082,4570.011150543541" />
</g>
<g stroke="rgb(255, 0, 0)">
  <path d="M9588.779510847082,4577.220241452631L9593.079510847083,4577.220241452631" />
</g>
<g stroke="rgb(255, 0, 0)">
  <path d="M9593.079510847083,4577.220241452631L9593.079510847083,4584.429332361723" />
</g>
<g stroke="rgb(255, 0, 0)">
  <path d="M9593.079510847083,4584.429332361723L9588.779510847082,4584.429332361723" />
</g>
<g stroke="rgb(255, 0, 0)">
  <path d="M9588.779510847082,4591.638423270814L9593.079510847083,4591.638423270814" />
</g>
<g stroke="rgb(255, 0, 0)">
  <path d="M9593.079510847083,4591.638423270814L9593.079510847083,4598.847514179904" />
</g>
<g stroke="rgb(255, 0, 0)">
  <path d="M9593.079510847083,4598.847514179904L9588.779510847082,4598.847514179904" />
</g>
<g stroke="rgb(255, 0, 0)">
  <path d="M9812.379510847086,4541.174786907176L9812.379510847086,4548.383877816267" />
</g>
<g stroke="rgb(255, 0, 0)">
  <path d="M9812.379510847086,4555.592968725358L9812.379510847086,4562.802059634449" />
</g>
<g stroke="rgb(255, 0, 0)">
  <path d="M9812.379510847086,4570.011150543541L9812.379510847086,4577.220241452631" />
</g>
<g stroke="rgb(255, 0, 0)">
  <path d="M9812.379510847086,4584.429332361723L9812.379510847086,4591.638423270814" />
</g>
<g stroke="rgb(255, 0, 0)">
  <path d="M9812.379510847086,4533.965695998086L9808.079510847085,4533.965695998086" />
</g>
<g stroke="rgb(255, 0, 0)">
  <path d="M9808.079510847085,4533.965695998086L9808.079510847085,4541.174786907176" />
</g>
<g stroke="rgb(255, 0, 0)">
  <path d="M9808.079510847085,4541.174786907176L9812.379510847086,4541.174786907176" />
</g>
<g stroke="rgb(255, 0, 0)">
  <path d="M9812.379510847086,4548.383877816267L9808.079510847085,4548.383877816267" />
</g>
<g stroke="rgb(255, 0, 0)">
  <path d="M9808.079510847085,4548.383877816267L9808.079510847085,4555.592968725358" />
</g>
<g stroke="rgb(255, 0, 0)">
  <path d="M9808.079510847085,4555.592968725358L9812.379510847086,4555.592968725358" />
</g>
<g stroke="rgb(255, 0, 0)">
  <path d="M9812.379510847086,4562.802059634449L9808.079510847085,4562.802059634449" />
</g>
<g stroke="rgb(255, 0, 0)">
  <path d="M9808.079510847085,4562.802059634449L9808.079510847085,4570.011150543541" />
</g>
<g stroke="rgb(255, 0, 0)">
  <path d="M9808.079510847085,4570.011150543541L9812.379510847086,4570.011150543541" />
</g>
<g stroke="rgb(255, 0, 0)">
  <path d="M9812.379510847086,4577.220241452631L9808.079510847085,4577.220241452631" />
</g>
<g stroke="rgb(255, 0, 0)">
  <path d="M9808.079510847085,4577.220241452631L9808.079510847085,4584.429332361723" />
</g>
<g stroke="rgb(255, 0, 0)">
  <path d="M9808.079510847085,4584.429332361723L9812.379510847086,4584.429332361723" />
</g>
<g stroke="rgb(255, 0, 0)">
  <path d="M9812.379510847086,4591.638423270814L9808.079510847085,4591.638423270814" />
</g>
<g stroke="rgb(255, 0, 0)">
  <path d="M9808.079510847085,4591.638423270814L9808.079510847085,4598.847514179904" />
</g>
<g stroke="rgb(255, 0, 0)">
  <path d="M9808.079510847085,4598.847514179904L9812.379510847086,4598.847514179904" />
</g>
<g stroke="rgb(255, 0, 0)">
  <path d="M9588.779510847082,4393.738423270812L9588.779510847082,4386.529332361721" />
</g>
<g stroke="rgb(255, 0, 0)">
  <path d="M9588.779510847082,4379.320241452631L9588.779510847082,4372.111150543541" />
</g>
<g stroke="rgb(255, 0, 0)">
  <path d="M9588.779510847082,4364.90205963445L9588.779510847082,4357.692968725358" />
</g>
<g stroke="rgb(255, 0, 0)">
  <path d="M9588.779510847082,4350.483877816268L9588.779510847082,4343.274786907175" />
</g>
<g stroke="rgb(255, 0, 0)">
  <path d="M9812.379510847086,4343.274786907175L9812.379510847086,4350.483877816268" />
</g>
<g stroke="rgb(255, 0, 0)">
  <path d="M9812.379510847086,4357.692968725358L9812.379510847086,4364.90205963445" />
</g>
<g stroke="rgb(255, 0, 0)">
  <path d="M9812.379510847086,4372.111150543541L9812.379510847086,4379.320241452631" />
</g>
<g stroke="rgb(255, 0, 0)">
  <path d="M9812.379510847086,4386.529332361721L9812.379510847086,4393.738423270812" />
</g>
<g stroke="rgb(255, 0, 0)">
  <path d="M9588.779510847082,4400.947514179903L9593.079510847083,4400.947514179903" />
</g>
<g stroke="rgb(255, 0, 0)">
  <path d="M9593.079510847083,4400.947514179903L9593.079510847083,4393.738423270812" />
</g>
<g stroke="rgb(255, 0, 0)">
  <path d="M9593.079510847083,4393.738423270812L9588.779510847082,4393.738423270812" />
</g>
<g stroke="rgb(255, 0, 0)">
  <path d="M9588.779510847082,4386.529332361721L9593.079510847083,4386.529332361721" />
</g>
<g stroke="rgb(255, 0, 0)">
  <path d="M9593.079510847083,4386.529332361721L9593.079510847083,4379.320241452631" />
</g>
<g stroke="rgb(255, 0, 0)">
  <path d="M9593.079510847083,4379.320241452631L9588.779510847082,4379.320241452631" />
</g>
<g stroke="rgb(255, 0, 0)">
  <path d="M9588.779510847082,4372.111150543541L9593.079510847081,4372.111150543541" />
</g>
<g stroke="rgb(255, 0, 0)">
  <path d="M9593.079510847081,4372.111150543541L9593.079510847081,4364.90205963445" />
</g>
<g stroke="rgb(255, 0, 0)">
  <path d="M9593.079510847081,4364.90205963445L9588.779510847082,4364.90205963445" />
</g>
<g stroke="rgb(255, 0, 0)">
  <path d="M9588.779510847082,4357.692968725358L9593.079510847081,4357.692968725358" />
</g>
<g stroke="rgb(255, 0, 0)">
  <path d="M9593.079510847081,4357.692968725358L9593.079510847081,4350.483877816268" />
</g>
<g stroke="rgb(255, 0, 0)">
  <path d="M9593.079510847081,4350.483877816268L9588.779510847082,4350.483877816268" />
</g>
<g stroke="rgb(255, 0, 0)">
  <path d="M9588.779510847082,4343.274786907175L9593.079510847081,4343.274786907175" />
</g>
<g stroke="rgb(255, 0, 0)">
  <path d="M9593.079510847081,4343.274786907175L9593.079510847081,4336.065695998085" />
</g>
<g stroke="rgb(255, 0, 0)">
  <path d="M9593.079510847081,4336.065695998085L9588.779510847082,4336.065695998085" />
</g>
<g stroke="rgb(255, 0, 0)">
  <path d="M9812.379510847086,4393.738423270812L9812.379510847086,4386.529332361721" />
</g>
<g stroke="rgb(255, 0, 0)">
  <path d="M9812.379510847086,4379.320241452631L9812.379510847086,4372.111150543541" />
</g>
<g stroke="rgb(255, 0, 0)">
  <path d="M9812.379510847086,4364.90205963445L9812.379510847086,4357.692968725358" />
</g>
<g stroke="rgb(255, 0, 0)">
  <path d="M9812.379510847086,4350.483877816268L9812.379510847086,4343.274786907175" />
</g>
<g stroke="rgb(255, 0, 0)">
  <path d="M9812.379510847086,4400.947514179903L9808.079510847085,4400.947514179903" />
</g>
<g stroke="rgb(255, 0, 0)">
  <path d="M9808.079510847085,4400.947514179903L9808.079510847085,4393.738423270812" />
</g>
<g stroke="rgb(255, 0, 0)">
  <path d="M9808.079510847085,4393.738423270812L9812.379510847086,4393.738423270812" />
</g>
<g stroke="rgb(255, 0, 0)">
  <path d="M9812.379510847086,4386.529332361721L9808.079510847085,4386.529332361721" />
</g>
<g stroke="rgb(255, 0, 0)">
  <path d="M9808.079510847085,4386.529332361721L9808.079510847085,4379.320241452631" />
</g>
<g stroke="rgb(255, 0, 0)">
  <path d="M9808.079510847085,4379.320241452631L9812.379510847086,4379.320241452631" />
</g>
<g stroke="rgb(255, 0, 0)">
  <path d="M9812.379510847086,4372.111150543541L9808.079510847085,4372.111150543541" />
</g>
<g stroke="rgb(255, 0, 0)">
  <path d="M9808.079510847085,4372.111150543541L9808.079510847085,4364.90205963445" />
</g>
<g stroke="rgb(255, 0, 0)">
  <path d="M9808.079510847085,4364.90205963445L9812.379510847086,4364.90205963445" />
</g>
<g stroke="rgb(255, 0, 0)">
  <path d="M9812.379510847086,4357.692968725358L9808.079510847085,4357.692968725358" />
</g>
<g stroke="rgb(255, 0, 0)">
  <path d="M9808.079510847085,4357.692968725358L9808.079510847085,4350.483877816268" />
</g>
<g stroke="rgb(255, 0, 0)">
  <path d="M9808.079510847085,4350.483877816268L9812.379510847086,4350.483877816268" />
</g>
<g stroke="rgb(255, 0, 0)">
  <path d="M9812.379510847086,4343.274786907175L9808.079510847085,4343.274786907175" />
</g>
<g stroke="rgb(255, 0, 0)">
  <path d="M9808.079510847085,4343.274786907175L9808.079510847085,4336.065695998085" />
</g>
<g stroke="rgb(255, 0, 0)">
  <path d="M9808.079510847085,4336.065695998085L9812.379510847086,4336.065695998085" />
</g>
<g stroke="rgb(255, 0, 0)">
  <path d="M9588.779510847082,4522.456605088994L9581.57041993799,4522.456605088994" />
</g>
<g stroke="rgb(255, 0, 0)">
  <path d="M9574.3613290289,4522.456605088994L9567.15223811981,4522.456605088994" />
</g>
<g stroke="rgb(255, 0, 0)">
  <path d="M9559.94314721072,4522.456605088994L9552.73405630163,4522.456605088994" />
</g>
<g stroke="rgb(255, 0, 0)">
  <path d="M9545.524965392538,4522.456605088994L9538.315874483447,4522.456605088994" />
</g>
<g stroke="rgb(255, 0, 0)">
  <path d="M9531.106783574356,4522.456605088994L9523.897692665265,4522.456605088994" />
</g>
<g stroke="rgb(255, 0, 0)">
  <path d="M9581.57041993799,4522.456605088994L9581.57041993799,4526.756605088995" />
</g>
<g stroke="rgb(255, 0, 0)">
  <path d="M9581.57041993799,4526.756605088995L9574.3613290289,4526.756605088995" />
</g>
<g stroke="rgb(255, 0, 0)">
  <path d="M9574.3613290289,4526.756605088995L9574.3613290289,4522.456605088994" />
</g>
<g stroke="rgb(255, 0, 0)">
  <path d="M9567.15223811981,4522.456605088994L9567.15223811981,4526.756605088995" />
</g>
<g stroke="rgb(255, 0, 0)">
  <path d="M9567.15223811981,4526.756605088995L9559.94314721072,4526.756605088995" />
</g>
<g stroke="rgb(255, 0, 0)">
  <path d="M9559.94314721072,4526.756605088995L9559.94314721072,4522.456605088994" />
</g>
<g stroke="rgb(255, 0, 0)">
  <path d="M9552.73405630163,4522.456605088994L9552.73405630163,4526.756605088995" />
</g>
<g stroke="rgb(255, 0, 0)">
  <path d="M9552.73405630163,4526.756605088995L9545.524965392538,4526.756605088995" />
</g>
<g stroke="rgb(255, 0, 0)">
  <path d="M9545.524965392538,4526.756605088995L9545.524965392538,4522.456605088994" />
</g>
<g stroke="rgb(255, 0, 0)">
  <path d="M9538.315874483447,4522.456605088994L9538.315874483447,4526.756605088995" />
</g>
<g stroke="rgb(255, 0, 0)">
  <path d="M9538.315874483447,4526.756605088995L9531.106783574356,4526.756605088995" />
</g>
<g stroke="rgb(255, 0, 0)">
  <path d="M9531.106783574356,4526.756605088995L9531.106783574356,4522.456605088994" />
</g>
<g stroke="rgb(255, 0, 0)">
  <path d="M9523.897692665265,4522.456605088994L9523.897692665265,4526.756605088995" />
</g>
<g stroke="rgb(255, 0, 0)">
  <path d="M9523.897692665265,4526.756605088995L9516.688601756174,4526.756605088995" />
</g>
<g stroke="rgb(255, 0, 0)">
  <path d="M9516.688601756174,4526.756605088995L9516.688601756174,4522.456605088994" />
</g>
<g stroke="rgb(0, 0, 255)">
  <path d="M9808.079510847085,4419.451843184233L9808.079510847085,4413.804224136613" />
</g>
<g stroke="rgb(0, 0, 255)">
  <path d="M9808.079510847085,4521.108986041377L9808.079510847085,4515.461366993756" />
</g>
<g stroke="rgb(0, 0, 255)">
  <path d="M9808.079510847085,4509.813747946138L9808.079510847085,4504.166128898519" />
</g>
<g stroke="rgb(0, 0, 255)">
  <path d="M9808.079510847085,4498.518509850899L9808.079510847085,4492.870890803281" />
</g>
<g stroke="rgb(0, 0, 255)">
  <path d="M9808.079510847085,4487.22327175566L9808.079510847085,4481.575652708042" />
</g>
<g stroke="rgb(0, 0, 255)">
  <path d="M9808.079510847085,4475.928033660423L9808.079510847085,4470.280414612804" />
</g>
<g stroke="rgb(0, 0, 255)">
  <path d="M9808.079510847085,4464.632795565186L9808.079510847085,4458.985176517567" />
</g>
<g stroke="rgb(0, 0, 255)">
  <path d="M9808.079510847085,4453.337557469946L9808.079510847085,4447.689938422327" />
</g>
<g stroke="rgb(0, 0, 255)">
  <path d="M9808.079510847085,4442.042319374709L9808.079510847085,4436.394700327091" />
</g>
<g stroke="rgb(0, 0, 255)">
  <path d="M9808.079510847085,4430.747081279472L9808.079510847085,4425.099462231853" />
</g>
<g stroke="rgb(255, 0, 0)">
  <path d="M9516.688601756174,4522.456605088994L9509.479510847084,4522.456605088994" />
</g>
<g stroke="rgb(255, 0, 0)">
  <path d="M9588.779510847082,4412.456605088994L9581.57041993799,4412.456605088994" />
</g>
<g stroke="rgb(255, 0, 0)">
  <path d="M9574.3613290289,4412.456605088994L9567.15223811981,4412.456605088994" />
</g>
<g stroke="rgb(255, 0, 0)">
  <path d="M9559.94314721072,4412.456605088994L9552.73405630163,4412.456605088994" />
</g>
<g stroke="rgb(255, 0, 0)">
  <path d="M9545.524965392538,4412.456605088994L9538.315874483447,4412.456605088994" />
</g>
<g stroke="rgb(255, 0, 0)">
  <path d="M9531.106783574356,4412.456605088994L9523.897692665265,4412.456605088994" />
</g>
<g stroke="rgb(255, 0, 0)">
  <path d="M9581.57041993799,4412.456605088994L9581.57041993799,4408.156605088995" />
</g>
<g stroke="rgb(255, 0, 0)">
  <path d="M9581.57041993799,4408.156605088995L9574.3613290289,4408.156605088995" />
</g>
<g stroke="rgb(255, 0, 0)">
  <path d="M9574.3613290289,4408.156605088995L9574.3613290289,4412.456605088994" />
</g>
<g stroke="rgb(255, 0, 0)">
  <path d="M9567.15223811981,4412.456605088994L9567.15223811981,4408.156605088995" />
</g>
<g stroke="rgb(255, 0, 0)">
  <path d="M9567.15223811981,4408.156605088995L9559.94314721072,4408.156605088995" />
</g>
<g stroke="rgb(255, 0, 0)">
  <path d="M9559.94314721072,4408.156605088995L9559.94314721072,4412.456605088994" />
</g>
<g stroke="rgb(255, 0, 0)">
  <path d="M9552.73405630163,4412.456605088994L9552.73405630163,4408.156605088995" />
</g>
<g stroke="rgb(255, 0, 0)">
  <path d="M9552.73405630163,4408.156605088995L9545.524965392538,4408.156605088995" />
</g>
<g stroke="rgb(255, 0, 0)">
  <path d="M9545.524965392538,4408.156605088995L9545.524965392538,4412.456605088994" />
</g>
<g stroke="rgb(255, 0, 0)">
  <path d="M9538.315874483447,4412.456605088994L9538.315874483447,4408.156605088995" />
</g>
<g stroke="rgb(255, 0, 0)">
  <path d="M9538.315874483447,4408.156605088995L9531.106783574356,4408.156605088995" />
</g>
<g stroke="rgb(255, 0, 0)">
  <path d="M9531.106783574356,4408.156605088995L9531.106783574356,4412.456605088994" />
</g>
<g stroke="rgb(255, 0, 0)">
  <path d="M9523.897692665265,4412.456605088994L9523.897692665265,4408.156605088995" />
</g>
<g stroke="rgb(255, 0, 0)">
  <path d="M9523.897692665265,4408.156605088995L9516.688601756174,4408.156605088995" />
</g>
<g stroke="rgb(255, 0, 0)">
  <path d="M9516.688601756174,4408.156605088995L9516.688601756174,4412.456605088994" />
</g>
<g stroke="rgb(255, 0, 0)">
  <path d="M9516.688601756174,4412.456605088994L9509.479510847084,4412.456605088994" />
</g>
<g stroke="rgb(255, 0, 0)">
  <path d="M9891.679510847083,4522.456605088994L9891.679510847083,4477.456605088995" />
</g>
<g stroke="rgb(255, 0, 0)">
  <path d="M9891.679510847083,4457.456605088994L9891.679510847083,4412.456605088994" />
</g>
<g stroke="rgb(255, 0, 0)">
  <path d="M 9891.679510847083 4477.456605088994 A 10 10 0 1 1 9891.679510847083 4457.456605088994" />
</g>
<g stroke="rgb(255, 0, 0)">
  <path d="M9812.379510847086,4522.456605088994L9819.588601756173,4522.456605088994" />
</g>
<g stroke="rgb(255, 0, 0)">
  <path d="M9826.797692665266,4522.456605088994L9834.006783574356,4522.456605088994" />
</g>
<g stroke="rgb(255, 0, 0)">
  <path d="M9841.215874483445,4522.456605088994L9848.424965392536,4522.456605088994" />
</g>
<g stroke="rgb(255, 0, 0)">
  <path d="M9855.634056301627,4522.456605088994L9862.843147210719,4522.456605088994" />
</g>
<g stroke="rgb(255, 0, 0)">
  <path d="M9870.052238119812,4522.456605088994L9877.261329028903,4522.456605088994" />
</g>
<g stroke="rgb(255, 0, 0)">
  <path d="M9819.588601756173,4522.456605088994L9819.588601756173,4526.756605088995" />
</g>
<g stroke="rgb(255, 0, 0)">
  <path d="M9819.588601756173,4526.756605088995L9826.797692665266,4526.756605088995" />
</g>
<g stroke="rgb(255, 0, 0)">
  <path d="M9826.797692665266,4526.756605088995L9826.797692665266,4522.456605088994" />
</g>
<g stroke="rgb(255, 0, 0)">
  <path d="M9834.006783574356,4522.456605088994L9834.006783574356,4526.756605088995" />
</g>
<g stroke="rgb(255, 0, 0)">
  <path d="M9834.006783574356,4526.756605088995L9841.215874483445,4526.756605088995" />
</g>
<g stroke="rgb(255, 0, 0)">
  <path d="M9841.215874483445,4526.756605088995L9841.215874483445,4522.456605088994" />
</g>
<g stroke="rgb(255, 0, 0)">
  <path d="M9848.424965392536,4522.456605088994L9848.424965392536,4526.756605088995" />
</g>
<g stroke="rgb(255, 0, 0)">
  <path d="M9848.424965392536,4526.756605088995L9855.634056301627,4526.756605088995" />
</g>
<g stroke="rgb(255, 0, 0)">
  <path d="M9855.634056301627,4526.756605088995L9855.634056301627,4522.456605088994" />
</g>
<g stroke="rgb(255, 0, 0)">
  <path d="M9862.843147210719,4522.456605088994L9862.843147210719,4526.756605088995" />
</g>
<g stroke="rgb(255, 0, 0)">
  <path d="M9862.843147210719,4526.756605088995L9870.052238119812,4526.756605088995" />
</g>
<g stroke="rgb(255, 0, 0)">
  <path d="M9870.052238119812,4526.756605088995L9870.052238119812,4522.456605088994" />
</g>
<g stroke="rgb(255, 0, 0)">
  <path d="M9877.261329028903,4522.456605088994L9877.261329028903,4526.756605088995" />
</g>
<g stroke="rgb(255, 0, 0)">
  <path d="M9877.261329028903,4526.756605088995L9884.470419937992,4526.756605088995" />
</g>
<g stroke="rgb(255, 0, 0)">
  <path d="M9884.470419937992,4526.756605088995L9884.470419937992,4522.456605088994" />
</g>
<g stroke="rgb(255, 0, 0)">
  <path d="M9884.470419937992,4522.456605088994L9891.679510847083,4522.456605088994" />
</g>
<g stroke="rgb(255, 0, 0)">
  <path d="M9812.379510847086,4412.456605088994L9819.588601756173,4412.456605088994" />
</g>
<g stroke="rgb(255, 0, 0)">
  <path d="M9826.797692665266,4412.456605088994L9834.006783574356,4412.456605088994" />
</g>
<g stroke="rgb(255, 0, 0)">
  <path d="M9841.215874483445,4412.456605088994L9848.424965392536,4412.456605088994" />
</g>
<g stroke="rgb(255, 0, 0)">
  <path d="M9855.634056301627,4412.456605088994L9862.843147210719,4412.456605088994" />
</g>
<g stroke="rgb(255, 0, 0)">
  <path d="M9870.052238119812,4412.456605088994L9877.261329028903,4412.456605088994" />
</g>
<g stroke="rgb(255, 0, 0)">
  <path d="M9819.588601756173,4412.456605088994L9819.588601756173,4408.156605088995" />
</g>
<g stroke="rgb(255, 0, 0)">
  <path d="M9819.588601756173,4408.156605088995L9826.797692665266,4408.156605088995" />
</g>
<g stroke="rgb(255, 0, 0)">
  <path d="M9826.797692665266,4408.156605088995L9826.797692665266,4412.456605088994" />
</g>
<g stroke="rgb(255, 0, 0)">
  <path d="M9834.006783574356,4412.456605088994L9834.006783574356,4408.156605088995" />
</g>
<g stroke="rgb(255, 0, 0)">
  <path d="M9834.006783574356,4408.156605088995L9841.215874483445,4408.156605088995" />
</g>
<g stroke="rgb(255, 0, 0)">
  <path d="M9841.215874483445,4408.156605088995L9841.215874483445,4412.456605088994" />
</g>
<g stroke="rgb(255, 0, 0)">
  <path d="M9848.424965392536,4412.456605088994L9848.424965392536,4408.156605088995" />
</g>
<g stroke="rgb(255, 0, 0)">
  <path d="M9848.424965392536,4408.156605088995L9855.634056301627,4408.156605088995" />
</g>
<g stroke="rgb(255, 0, 0)">
  <path d="M9855.634056301627,4408.156605088995L9855.634056301627,4412.456605088994" />
</g>
<g stroke="rgb(255, 0, 0)">
  <path d="M9862.843147210719,4412.456605088994L9862.843147210719,4408.156605088995" />
</g>
<g stroke="rgb(255, 0, 0)">
  <path d="M9862.843147210719,4408.156605088995L9870.052238119812,4408.156605088995" />
</g>
<g stroke="rgb(255, 0, 0)">
  <path d="M9870.052238119812,4408.156605088995L9870.052238119812,4412.456605088994" />
</g>
<g stroke="rgb(255, 0, 0)">
  <path d="M9877.261329028903,4412.456605088994L9877.261329028903,4408.156605088995" />
</g>
<g stroke="rgb(255, 0, 0)">
  <path d="M9877.261329028903,4408.156605088995L9884.470419937992,4408.156605088995" />
</g>
<g stroke="rgb(255, 0, 0)">
  <path d="M9884.470419937992,4408.156605088995L9884.470419937992,4412.456605088994" />
</g>
<g stroke="rgb(255, 0, 0)">
  <path d="M9884.470419937992,4412.456605088994L9891.679510847083,4412.456605088994" />
</g>
<g stroke="rgb(0, 0, 0)">
  <path d="M9340.100267654838,4763.900034438877L9923.919753120921,4763.900034438877L9923.919753120921,4300.91195826291L9340.100267654838,4300.91195826291L9340.100267654838,4763.900034438877" />
</g>
  </g>
</svg>