<?xml version="1.0"?>
<svg
  xmlns="http://www.w3.org/2000/svg"
  xmlns:xlink="http://www.w3.org/1999/xlink" version="1.1"
  preserveAspectRatio="xMinYMin meet"
  viewBox="-26.17143715884185 -38.08762922971376 111.99897813658946 22.110491803278663"
  width="100%" height="100%"
>
  <g stroke="#000000" stroke-width="0.1%" fill="none" transform="matrix(1,0,0,-1,0,0)">
    <g stroke="rgb(79, 0, 0)">
  <path d="M56.74290710345309,23.34730136086125L56.74290710345309,32.56000627889405" />
</g>
<g stroke="rgb(79, 0, 0)">
  <path d="M56.74290710345309,32.56000627889405L51.2152841526335,32.56000627889405" />
</g>
<g stroke="rgb(79, 0, 0)">
  <path d="M51.2152841526335,32.56000627889405L49.372743169027,30.7174652952875" />
</g>
<g stroke="rgb(79, 0, 0)">
  <path d="M54.90036611984659,23.3473013608613L56.74290710345309,23.34730136086125" />
</g>
<g stroke="rgb(79, 0, 0)">
  <path d="M16.20700546410895,28.874924311681L19.89208743132205,28.87492431168095" />
</g>
<g stroke="rgb(79, 0, 0)">
  <path d="M54.90036611984659,25.1881274548546L54.90036611984659,23.3473013608613" />
</g>
<g stroke="rgb(79, 0, 0)">
  <path d="M49.372743169027,30.7174652952875L49.372743169027,23.3473013608613" />
</g>
<g stroke="rgb(79, 0, 0)">
  <path d="M51.2152841526335,30.7174652952875L51.2152841526335,25.18984234446785" />
</g>
<g stroke="rgb(79, 0, 0)">
  <path d="M54.90036611984659,30.7174652952875L51.2152841526335,30.7174652952875" />
</g>
<g stroke="rgb(79, 0, 0)">
  <path d="M49.372743169027,23.3473013608613L53.05782513623999,23.3473013608613" />
</g>
<g stroke="rgb(79, 0, 0)">
  <path d="M53.05782513623999,23.3473013608613L54.90036611984659,25.1881274548546" />
</g>
<g stroke="rgb(79, 0, 0)">
  <path d="M51.2152841526335,25.18984234446785L54.90036611984659,25.1881274548546" />
</g>
<g stroke="rgb(79, 0, 0)">
  <path d="M38.31749726738765,36.24508824610715L36.47495628378095,36.24508824610715" />
</g>
<g stroke="rgb(79, 0, 0)">
  <path d="M36.47495628378095,34.40254726250065L38.31749726738765,36.24508824610715" />
</g>
<g stroke="rgb(79, 0, 0)">
  <path d="M36.47495628378095,36.24508824610715L36.47495628378095,34.40254726250065" />
</g>
<g stroke="rgb(79, 0, 0)">
  <path d="M21.73462841492855,25.1898423444679L16.20700546410895,25.1898423444678" />
</g>
<g stroke="rgb(79, 0, 0)">
  <path d="M21.73462841492855,23.34730136086125L21.73462841492855,25.1898423444679" />
</g>
<g stroke="rgb(79, 0, 0)">
  <path d="M16.20700546410895,27.03238332807445L21.73462841492855,27.03238332807445" />
</g>
<g stroke="rgb(79, 0, 0)">
  <path d="M16.20700546410895,25.1898423444678L16.20700546410895,27.03238332807445" />
</g>
<g stroke="rgb(79, 0, 0)">
  <path d="M84.37869442037059,33.68570485735525L84.5061344203706,33.68570485735525" />
</g>
<g stroke="rgb(79, 0, 0)">
  <path d="M84.5061344203706,33.68570485735525L84.5061344203706,36.07363797210935" />
</g>
<g stroke="rgb(79, 0, 0)">
  <path d="M84.5061344203706,36.07363797210935L85.1031176990591,36.07363797210935" />
</g>
<g stroke="rgb(79, 0, 0)">
  <path d="M14.36446448050238,23.34730136086125L21.73462841492855,23.34730136086125" />
</g>
<g stroke="rgb(79, 0, 0)">
  <path d="M14.36446448050238,32.56000627889405L14.36446448050238,23.34730136086125" />
</g>
<g stroke="rgb(79, 0, 0)">
  <path d="M19.89208743132205,28.87492431168095L19.89208743132205,30.7174652952875" />
</g>
<g stroke="rgb(79, 0, 0)">
  <path d="M54.90036611984659,25.1881274548546L54.90036611984659,30.7174652952875" />
</g>
<g stroke="rgb(79, 0, 0)">
  <path d="M16.20700546410895,30.7174652952875L16.20700546410895,28.874924311681" />
</g>
<g stroke="rgb(79, 0, 0)">
  <path d="M19.89208743132205,30.7174652952875L16.20700546410895,30.7174652952875" />
</g>
<g stroke="rgb(79, 0, 0)">
  <path d="M-21.56508469982555,36.2450882461072L-18.80127322441565,36.2450882461072" />
</g>
<g stroke="rgb(79, 0, 0)">
  <path d="M-18.80127322441565,36.2450882461072L-18.80127322441565,38.08762922971376" />
</g>
<g stroke="rgb(79, 0, 0)">
  <path d="M-21.56508469982555,23.34730136086135L-21.56508469982555,36.2450882461072" />
</g>
<g stroke="rgb(79, 0, 0)">
  <path d="M-26.17143715884185,36.24508824610715L-23.4076256834321,36.2450882461072" />
</g>
<g stroke="rgb(79, 0, 0)">
  <path d="M-23.4076256834321,36.2450882461072L-23.4076256834321,23.34730136086125" />
</g>
<g stroke="rgb(79, 0, 0)">
  <path d="M-23.4076256834321,23.34730136086125L-21.56508469982555,23.34730136086135" />
</g>
<g stroke="rgb(79, 0, 0)">
  <path d="M75.1683169395188,23.34730136086125L77.01085792312529,23.34730136086125" />
</g>
<g stroke="rgb(79, 0, 0)">
  <path d="M77.01085792312529,23.34730136086125L77.01085792312529,30.71746529528755" />
</g>
<g stroke="rgb(79, 0, 0)">
  <path d="M77.01085792312529,30.71746529528755L82.53848087394499,30.7174652952875" />
</g>
<g stroke="rgb(79, 0, 0)">
  <path d="M75.1683169395188,32.56000627889405L75.1683169395188,23.34730136086125" />
</g>
<g stroke="rgb(79, 0, 0)">
  <path d="M77.01085792312529,30.71746529528755L77.01085792312529,32.560006278894" />
</g>
<g stroke="rgb(79, 0, 0)">
  <path d="M77.01085792312529,32.560006278894L75.1683169395188,32.56000627889405" />
</g>
<g stroke="rgb(79, 0, 0)">
  <path d="M82.53848087394499,30.7174652952875L82.53848087394499,32.560006278894" />
</g>
<g stroke="rgb(79, 0, 0)">
  <path d="M82.53848087394499,32.560006278894L78.8533989067319,32.56000627889405" />
</g>
<g stroke="rgb(79, 0, 0)">
  <path d="M78.85339890673188,32.56000627889405L77.01085792312527,30.71746529528755" />
</g>
<g stroke="rgb(79, 0, 0)">
  <path d="M12.52192349689584,36.2450882461072L10.67938251328928,38.08762922971376" />
</g>
<g stroke="rgb(79, 0, 0)">
  <path d="M10.67938251328928,32.56000627889405L10.67938251328928,36.2450882461072" />
</g>
<g stroke="rgb(79, 0, 0)">
  <path d="M12.52192349689584,32.56000627889405L12.52192349689584,36.2450882461072" />
</g>
<g stroke="rgb(79, 0, 0)">
  <path d="M12.52192349689584,23.3473013608613L12.52192349689584,30.7174652952875" />
</g>
<g stroke="rgb(79, 0, 0)">
  <path d="M12.52192349689584,30.7174652952875L11.60065300509248,31.63873578709075" />
</g>
<g stroke="rgb(79, 0, 0)">
  <path d="M11.60065300509248,31.63873578709075L12.52192349689584,32.56000627889405" />
</g>
<g stroke="rgb(79, 0, 0)">
  <path d="M6.99430054607619,32.56000627889405L10.67938251328928,32.56000627889405" />
</g>
<g stroke="rgb(79, 0, 0)">
  <path d="M10.67938251328928,36.2450882461072L6.99430054607619,36.2450882461072" />
</g>
<g stroke="rgb(79, 0, 0)">
  <path d="M6.99430054607619,36.2450882461072L6.99430054607619,32.56000627889405" />
</g>
<g stroke="rgb(79, 0, 0)">
  <path d="M-26.17143715884185,38.0876292297137L-26.17143715884185,36.24508824610715" />
</g>
<g stroke="rgb(79, 0, 0)">
  <path d="M-18.80127322441565,38.08762922971376L-26.17143715884185,38.0876292297137" />
</g>
<g stroke="rgb(79, 0, 0)">
  <path d="M6.99430054607619,30.7174652952875L10.67938251328928,30.7174652952875" />
</g>
<g stroke="rgb(79, 0, 0)">
  <path d="M10.67938251328928,30.7174652952875L10.67938251328928,23.3473013608613" />
</g>
<g stroke="rgb(79, 0, 0)">
  <path d="M10.67938251328928,23.3473013608613L12.52192349689584,23.3473013608613" />
</g>
<g stroke="rgb(79, 0, 0)">
  <path d="M6.99430054607619,23.3473013608613L6.99430054607619,30.7174652952875" />
</g>
<g stroke="rgb(79, 0, 0)">
  <path d="M10.67938251328928,38.08762922971376L5.15175956246948,38.08762922971376" />
</g>
<g stroke="rgb(79, 0, 0)">
  <path d="M5.15175956246948,38.08762922971376L5.15175956246948,23.3473013608613" />
</g>
<g stroke="rgb(79, 0, 0)">
  <path d="M5.15175956246948,23.3473013608613L6.99430054607619,23.3473013608613" />
</g>
<g stroke="rgb(79, 0, 0)">
  <path d="M85.1031176990591,36.07363797210935L85.1031176990591,33.68570485735525" />
</g>
<g stroke="rgb(79, 0, 0)">
  <path d="M58.5854480870597,30.7174652952875L60.4279890706663,30.7174652952875" />
</g>
<g stroke="rgb(79, 0, 0)">
  <path d="M47.5302021854204,25.18984234446785L42.00257923460075,25.18984234446785" />
</g>
<g stroke="rgb(79, 0, 0)">
  <path d="M42.00257923460075,25.18984234446785L42.00257923460075,30.7174652952875" />
</g>
<g stroke="rgb(79, 0, 0)">
  <path d="M42.00257923460075,30.7174652952875L45.6876612018139,30.7174652952875" />
</g>
<g stroke="rgb(79, 0, 0)">
  <path d="M47.5302021854204,23.3473013608613L47.5302021854204,25.18984234446785" />
</g>
<g stroke="rgb(79, 0, 0)">
  <path d="M40.1600382509942,30.7174652952875L40.1600382509942,23.3473013608613" />
</g>
<g stroke="rgb(79, 0, 0)">
  <path d="M40.1600382509942,23.3473013608613L47.5302021854204,23.3473013608613" />
</g>
<g stroke="rgb(79, 0, 0)">
  <path d="M67.7981530050926,25.1898423444679L71.4832349723057,25.18984234446785" />
</g>
<g stroke="rgb(79, 0, 0)">
  <path d="M73.3257759559123,23.34730136086125L73.3257759559123,32.56000627889405" />
</g>
<g stroke="rgb(79, 0, 0)">
  <path d="M36.47495628378095,23.3473013608613L38.31749726738765,23.3473013608613" />
</g>
<g stroke="rgb(79, 0, 0)">
  <path d="M38.31749726738765,23.3473013608613L38.31749726738765,32.56000627889405" />
</g>
<g stroke="rgb(79, 0, 0)">
  <path d="M38.31749726738765,32.56000627889405L36.47495628378095,32.56000627889405" />
</g>
<g stroke="rgb(79, 0, 0)">
  <path d="M36.47495628378095,32.56000627889405L36.47495628378095,23.3473013608613" />
</g>
<g stroke="rgb(79, 0, 0)">
  <path d="M73.3257759559123,32.56000627889405L65.95561202148589,32.56000627889405" />
</g>
<g stroke="rgb(79, 0, 0)">
  <path d="M65.95561202148589,23.3473013608613L73.3257759559123,23.34730136086125" />
</g>
<g stroke="rgb(79, 0, 0)">
  <path d="M65.95561202148589,32.56000627889405L65.95561202148589,23.3473013608613" />
</g>
<g stroke="rgb(79, 0, 0)">
  <path d="M62.2705300542728,25.18984234446785L62.2705300542728,30.7174652952875" />
</g>
<g stroke="rgb(79, 0, 0)">
  <path d="M64.1130710378793,25.18984234446785L62.2705300542728,25.18984234446785" />
</g>
<g stroke="rgb(79, 0, 0)">
  <path d="M64.1130710378793,30.7174652952875L64.1130710378793,32.56000627889405" />
</g>
<g stroke="rgb(79, 0, 0)">
  <path d="M62.2705300542728,30.7174652952875L64.1130710378793,30.7174652952875" />
</g>
<g stroke="rgb(79, 0, 0)">
  <path d="M60.4279890706663,30.7174652952875L60.4279890706663,23.3473013608614" />
</g>
<g stroke="rgb(79, 0, 0)">
  <path d="M64.1130710378793,23.34730136086125L64.1130710378793,25.18984234446785" />
</g>
<g stroke="rgb(79, 0, 0)">
  <path d="M60.4279890706663,23.3473013608614L64.1130710378793,23.34730136086125" />
</g>
<g stroke="rgb(79, 0, 0)">
  <path d="M58.5854480870597,32.56000627889405L58.5854480870597,30.7174652952875" />
</g>
<g stroke="rgb(79, 0, 0)">
  <path d="M60.4279890706663,32.56000627889405L58.5854480870597,32.56000627889405" />
</g>
<g stroke="rgb(79, 0, 0)">
  <path d="M45.6876612018139,30.7174652952875L47.5302021854204,28.87492431168095" />
</g>
<g stroke="rgb(79, 0, 0)">
  <path d="M47.5302021854204,28.87492431168095L47.5302021854204,32.56000627889405" />
</g>
<g stroke="rgb(79, 0, 0)">
  <path d="M64.1130710378793,32.56000627889405L62.2705300542728,32.56000627889405" />
</g>
<g stroke="rgb(79, 0, 0)">
  <path d="M60.4279890706663,38.08762922971376L60.4279890706663,32.56000627889405" />
</g>
<g stroke="rgb(79, 0, 0)">
  <path d="M62.2705300542728,38.08762922971376L60.4279890706663,38.08762922971376" />
</g>
<g stroke="rgb(79, 0, 0)">
  <path d="M23.5771693985351,32.56000627889405L23.5771693985351,15.9771374264351" />
</g>
<g stroke="rgb(79, 0, 0)">
  <path d="M23.5771693985351,15.9771374264351L25.41971038214165,15.9771374264351" />
</g>
<g stroke="rgb(79, 0, 0)">
  <path d="M25.41971038214165,15.9771374264351L25.41971038214165,23.3473013608613" />
</g>
<g stroke="rgb(79, 0, 0)">
  <path d="M29.10479234935475,32.56000627889405L23.5771693985351,32.56000627889405" />
</g>
<g stroke="rgb(79, 0, 0)">
  <path d="M85.70010097774761,33.68570485735525L85.8275409777476,33.68570485735525" />
</g>
<g stroke="rgb(79, 0, 0)">
  <path d="M85.8275409777476,33.68570485735525L85.8275409777476,36.2010779721094" />
</g>
<g stroke="rgb(79, 0, 0)">
  <path d="M85.8275409777476,36.2010779721094L84.37869442037059,36.2010779721094" />
</g>
<g stroke="rgb(79, 0, 0)">
  <path d="M85.70010097774761,36.07363797210935L85.70010097774761,33.68570485735525" />
</g>
<g stroke="rgb(79, 0, 0)">
  <path d="M85.1031176990591,33.68570485735525L85.2305576990591,33.68570485735525" />
</g>
<g stroke="rgb(79, 0, 0)">
  <path d="M85.2305576990591,33.68570485735525L85.2305576990591,36.07363797210935" />
</g>
<g stroke="rgb(79, 0, 0)">
  <path d="M85.2305576990591,36.07363797210935L85.70010097774761,36.07363797210935" />
</g>
<g stroke="rgb(79, 0, 0)">
  <path d="M84.37869442037059,36.2010779721094L84.37869442037059,33.68570485735525" />
</g>
<g stroke="rgb(79, 0, 0)">
  <path d="M21.73462841492855,27.03238332807445L21.73462841492855,30.71746529528755" />
</g>
<g stroke="rgb(79, 0, 0)">
  <path d="M19.89208743132205,32.56000627889405L14.36446448050238,32.56000627889405" />
</g>
<g stroke="rgb(79, 0, 0)">
  <path d="M21.73462841492855,30.71746529528755L19.89208743132205,32.56000627889405" />
</g>
<g stroke="rgb(79, 0, 0)">
  <path d="M32.78987431656785,23.3473013608613L34.6324153001744,23.3473013608613" />
</g>
<g stroke="rgb(79, 0, 0)">
  <path d="M34.6324153001744,23.3473013608613L34.6324153001744,38.08762922971376" />
</g>
<g stroke="rgb(79, 0, 0)">
  <path d="M34.6324153001744,38.08762922971376L32.78987431656785,38.08762922971376" />
</g>
<g stroke="rgb(79, 0, 0)">
  <path d="M71.4832349723057,25.18984234446785L71.4832349723057,30.7174652952875" />
</g>
<g stroke="rgb(79, 0, 0)">
  <path d="M32.78987431656785,38.08762922971376L32.78987431656785,23.3473013608613" />
</g>
<g stroke="rgb(79, 0, 0)">
  <path d="M67.7981530050926,30.7174652952875L67.7981530050926,25.1898423444679" />
</g>
<g stroke="rgb(79, 0, 0)">
  <path d="M71.4832349723057,30.7174652952875L67.7981530050926,30.7174652952875" />
</g>
<g stroke="rgb(79, 0, 0)">
  <path d="M29.10479234935475,25.18984234446785L29.10479234935475,30.7174652952875" />
</g>
<g stroke="rgb(79, 0, 0)">
  <path d="M29.10479234935475,30.7174652952875L25.41971038214165,30.7174652952875" />
</g>
<g stroke="rgb(79, 0, 0)">
  <path d="M25.41971038214165,23.3473013608613L30.9473333329613,23.3473013608613" />
</g>
<g stroke="rgb(79, 0, 0)">
  <path d="M30.9473333329613,23.3473013608613L30.9473333329613,30.7174652952875" />
</g>
<g stroke="rgb(79, 0, 0)">
  <path d="M30.9473333329613,30.7174652952875L29.10479234935475,32.56000627889405" />
</g>
<g stroke="rgb(79, 0, 0)">
  <path d="M25.41971038214165,25.18984234446785L29.10479234935475,25.18984234446785" />
</g>
<g stroke="rgb(79, 0, 0)">
  <path d="M25.41971038214165,30.7174652952875L25.41971038214165,25.18984234446785" />
</g>
<g stroke="rgb(79, 0, 0)">
  <path d="M42.00257923460075,32.56000627889405L40.1600382509942,30.7174652952875" />
</g>
<g stroke="rgb(79, 0, 0)">
  <path d="M47.5302021854204,32.56000627889405L42.00257923460075,32.56000627889405" />
</g>
<g stroke="rgb(79, 0, 0)">
  <path d="M62.2705300542728,32.56000627889405L62.2705300542728,38.08762922971376" />
</g>
<g stroke="rgb(79, 0, 0)">
  <path d="M-11.43110928998944,23.34730136086135L-9.588568306382898,23.34730136086135" />
</g>
<g stroke="rgb(79, 0, 0)">
  <path d="M-11.43110928998944,30.7174652952875L-11.43110928998944,23.34730136086135" />
</g>
<g stroke="rgb(79, 0, 0)">
  <path d="M-9.588568306382898,30.7174652952875L-11.43110928998944,32.56000627889405" />
</g>
<g stroke="rgb(79, 0, 0)">
  <path d="M-9.588568306382898,23.34730136086135L-9.588568306382898,30.7174652952875" />
</g>
<g stroke="rgb(79, 0, 0)">
  <path d="M-16.9587322408091,23.34730136086135L-15.11619125720255,23.3473013608613" />
</g>
<g stroke="rgb(79, 0, 0)">
  <path d="M83.90915114168219,36.2010779721094L83.43960786299368,36.2010779721094" />
</g>
<g stroke="rgb(79, 0, 0)">
  <path d="M-15.11619125720255,30.71746529528755L-11.43110928998944,30.7174652952875" />
</g>
<g stroke="rgb(79, 0, 0)">
  <path d="M-15.11619125720255,23.3473013608613L-15.11619125720255,30.71746529528755" />
</g>
<g stroke="rgb(79, 0, 0)">
  <path d="M-11.43110928998944,32.56000627889405L-15.11619125720255,32.56000627889405" />
</g>
<g stroke="rgb(79, 0, 0)">
  <path d="M-15.11619125720255,32.56000627889405L-15.11619125720255,38.08762922971376" />
</g>
<g stroke="rgb(79, 0, 0)">
  <path d="M-15.11619125720255,38.08762922971376L-16.9587322408091,38.08762922971376" />
</g>
<g stroke="rgb(79, 0, 0)">
  <path d="M82.7151845843049,36.2010779721094L82.7151845843049,36.07363797210935" />
</g>
<g stroke="rgb(79, 0, 0)">
  <path d="M82.7151845843049,36.07363797210935L83.31216786299369,36.07363797210935" />
</g>
<g stroke="rgb(79, 0, 0)">
  <path d="M83.31216786299369,36.07363797210935L83.31216786299369,33.68570485735525" />
</g>
<g stroke="rgb(79, 0, 0)">
  <path d="M83.31216786299369,36.2010779721094L82.7151845843049,36.2010779721094" />
</g>
<g stroke="rgb(79, 0, 0)">
  <path d="M83.43960786299368,36.2010779721094L83.43960786299368,37.26760452948645" />
</g>
<g stroke="rgb(79, 0, 0)">
  <path d="M83.31216786299369,33.68570485735525L83.90915114168219,33.68570485735525" />
</g>
<g stroke="rgb(79, 0, 0)">
  <path d="M83.90915114168219,36.07363797210935L83.90915114168219,36.2010779721094" />
</g>
<g stroke="rgb(79, 0, 0)">
  <path d="M-16.9587322408091,38.08762922971376L-16.9587322408091,23.34730136086135" />
</g>
<g stroke="rgb(79, 0, 0)">
  <path d="M83.43960786299368,36.07363797210935L83.90915114168219,36.07363797210935" />
</g>
<g stroke="rgb(79, 0, 0)">
  <path d="M83.90915114168219,33.68570485735525L83.90915114168219,33.8131448573553" />
</g>
<g stroke="rgb(79, 0, 0)">
  <path d="M83.90915114168219,33.8131448573553L83.43960786299368,33.8131448573553" />
</g>
<g stroke="rgb(79, 0, 0)">
  <path d="M83.43960786299368,33.8131448573553L83.43960786299368,36.07363797210935" />
</g>
<g stroke="rgb(79, 0, 0)">
  <path d="M83.43960786299368,37.26760452948645L83.31216786299369,37.26760452948645" />
</g>
<g stroke="rgb(79, 0, 0)">
  <path d="M83.31216786299369,37.26760452948645L83.31216786299369,36.2010779721094" />
</g>
<g stroke="rgb(79, 0, 0)">
  <path d="M-5.90348633916981,27.03238332807445L-0.3758633883501651,27.03238332807445" />
</g>
<g stroke="rgb(79, 0, 0)">
  <path d="M-5.90348633916981,25.1898423444678L-5.90348633916981,27.03238332807445" />
</g>
<g stroke="rgb(79, 0, 0)">
  <path d="M-0.375863388350163,25.1898423444679L-5.903486339169808,25.1898423444678" />
</g>
<g stroke="rgb(79, 0, 0)">
  <path d="M-5.90348633916981,28.87492431168105L-2.21840437195671,28.87492431168095" />
</g>
<g stroke="rgb(79, 0, 0)">
  <path d="M-5.90348633916981,30.7174652952875L-5.90348633916981,28.87492431168105" />
</g>
<g stroke="rgb(79, 0, 0)">
  <path d="M-0.375863388350163,23.34730136086125L-0.375863388350163,25.1898423444679" />
</g>
<g stroke="rgb(79, 0, 0)">
  <path d="M-0.375863388350163,27.03238332807445L-0.3758633883501615,30.71746529528755" />
</g>
<g stroke="rgb(79, 0, 0)">
  <path d="M-0.3758633883501615,30.71746529528755L-2.21840437195671,32.56000627889405" />
</g>
<g stroke="rgb(79, 0, 0)">
  <path d="M-7.74602732277635,23.34730136086125L-0.3758633883501634,23.34730136086125" />
</g>
<g stroke="rgb(79, 0, 0)">
  <path d="M-7.74602732277635,32.56000627889405L-7.74602732277635,23.34730136086125" />
</g>
<g stroke="rgb(79, 0, 0)">
  <path d="M-2.21840437195671,32.56000627889405L-7.746027322776348,32.56000627889405" />
</g>
<g stroke="rgb(79, 0, 0)">
  <path d="M-2.21840437195671,30.7174652952875L-5.90348633916981,30.7174652952875" />
</g>
<g stroke="rgb(79, 0, 0)">
  <path d="M-2.21840437195671,28.87492431168095L-2.21840437195671,30.7174652952875" />
</g>
<g stroke="rgb(79, 0, 0)">
  <path d="M36.47495628378095,32.56000627889405L36.47495628378095,23.3473013608613" />
</g>
<g stroke="rgb(79, 0, 0)">
  <path d="M84.37869442037059,33.68570485735525L84.5061344203706,33.68570485735525" />
</g>
<g stroke="rgb(79, 0, 0)">
  <path d="M54.90036611984659,30.7174652952875L51.2152841526335,30.7174652952875" />
</g>
<g stroke="rgb(79, 0, 0)">
  <path d="M54.90036611984659,25.1881274548546L54.90036611984659,30.7174652952875" />
</g>
<g stroke="rgb(79, 0, 0)">
  <path d="M84.37869442037059,36.2010779721094L84.37869442037059,33.68570485735525" />
</g>
<g stroke="rgb(79, 0, 0)">
  <path d="M85.70010097774761,33.68570485735525L85.8275409777476,33.68570485735525" />
</g>
<g stroke="rgb(79, 0, 0)">
  <path d="M85.8275409777476,33.68570485735525L85.8275409777476,36.2010779721094" />
</g>
<g stroke="rgb(79, 0, 0)">
  <path d="M85.8275409777476,36.2010779721094L84.37869442037059,36.2010779721094" />
</g>
<g stroke="rgb(79, 0, 0)">
  <path d="M36.47495628378095,34.40254726250065L38.31749726738765,36.24508824610715" />
</g>
<g stroke="rgb(79, 0, 0)">
  <path d="M54.90036611984659,23.3473013608613L56.74290710345309,23.34730136086125" />
</g>
<g stroke="rgb(79, 0, 0)">
  <path d="M56.74290710345309,23.34730136086125L56.74290710345309,32.56000627889405" />
</g>
<g stroke="rgb(79, 0, 0)">
  <path d="M51.2152841526335,30.7174652952875L51.2152841526335,25.18984234446785" />
</g>
<g stroke="rgb(79, 0, 0)">
  <path d="M36.47495628378095,36.24508824610715L36.47495628378095,34.40254726250065" />
</g>
<g stroke="rgb(79, 0, 0)">
  <path d="M51.2152841526335,25.18984234446785L54.90036611984659,25.1881274548546" />
</g>
<g stroke="rgb(79, 0, 0)">
  <path d="M38.31749726738765,36.24508824610715L36.47495628378095,36.24508824610715" />
</g>
<g stroke="rgb(79, 0, 0)">
  <path d="M30.9473333329613,23.3473013608613L30.9473333329613,30.7174652952875" />
</g>
<g stroke="rgb(79, 0, 0)">
  <path d="M30.9473333329613,30.7174652952875L29.10479234935475,32.56000627889405" />
</g>
<g stroke="rgb(79, 0, 0)">
  <path d="M29.10479234935475,32.56000627889405L23.5771693985351,32.56000627889405" />
</g>
<g stroke="rgb(79, 0, 0)">
  <path d="M19.89208743132205,30.7174652952875L16.20700546410895,30.7174652952875" />
</g>
<g stroke="rgb(79, 0, 0)">
  <path d="M16.20700546410895,30.7174652952875L16.20700546410895,28.87492431168105" />
</g>
<g stroke="rgb(79, 0, 0)">
  <path d="M16.20700546410895,28.87492431168105L19.89208743132205,28.87492431168095" />
</g>
<g stroke="rgb(79, 0, 0)">
  <path d="M19.89208743132205,28.87492431168095L19.89208743132205,30.7174652952875" />
</g>
<g stroke="rgb(79, 0, 0)">
  <path d="M85.2305576990591,33.68570485735525L85.2305576990591,36.07363797210935" />
</g>
<g stroke="rgb(79, 0, 0)">
  <path d="M85.2305576990591,36.07363797210935L85.70010097774761,36.07363797210935" />
</g>
<g stroke="rgb(79, 0, 0)">
  <path d="M85.70010097774761,36.07363797210935L85.70010097774761,33.68570485735525" />
</g>
<g stroke="rgb(79, 0, 0)">
  <path d="M85.1031176990591,33.68570485735525L85.2305576990591,33.68570485735525" />
</g>
<g stroke="rgb(79, 0, 0)">
  <path d="M84.5061344203706,33.68570485735525L84.5061344203706,36.07363797210935" />
</g>
<g stroke="rgb(79, 0, 0)">
  <path d="M84.5061344203706,36.07363797210935L85.1031176990591,36.07363797210935" />
</g>
<g stroke="rgb(79, 0, 0)">
  <path d="M85.1031176990591,36.07363797210935L85.1031176990591,33.68570485735525" />
</g>
<g stroke="rgb(79, 0, 0)">
  <path d="M5.15175956246948,38.08762922971376L5.15175956246948,23.3473013608613" />
</g>
<g stroke="rgb(79, 0, 0)">
  <path d="M5.15175956246948,23.3473013608613L6.99430054607619,23.3473013608613" />
</g>
<g stroke="rgb(79, 0, 0)">
  <path d="M6.99430054607619,23.3473013608613L6.99430054607619,30.7174652952875" />
</g>
<g stroke="rgb(79, 0, 0)">
  <path d="M6.99430054607619,32.56000627889405L10.67938251328928,32.56000627889405" />
</g>
<g stroke="rgb(79, 0, 0)">
  <path d="M-26.17143715884185,36.24508824610715L-23.4076256834321,36.2450882461072" />
</g>
<g stroke="rgb(79, 0, 0)">
  <path d="M10.67938251328928,32.56000627889405L10.67938251328928,36.2450882461072" />
</g>
<g stroke="rgb(79, 0, 0)">
  <path d="M-26.17143715884185,38.08762922971376L-26.17143715884185,36.24508824610715" />
</g>
<g stroke="rgb(79, 0, 0)">
  <path d="M12.52192349689584,30.7174652952875L11.60065300509248,31.63873578709075" />
</g>
<g stroke="rgb(79, 0, 0)">
  <path d="M-15.11619125720255,38.08762922971376L-16.9587322408091,38.08762922971376" />
</g>
<g stroke="rgb(79, 0, 0)">
  <path d="M11.60065300509248,31.63873578709075L12.52192349689584,32.56000627889405" />
</g>
<g stroke="rgb(79, 0, 0)">
  <path d="M12.52192349689584,23.3473013608613L12.52192349689584,30.7174652952875" />
</g>
<g stroke="rgb(79, 0, 0)">
  <path d="M6.99430054607619,30.7174652952875L10.67938251328928,30.7174652952875" />
</g>
<g stroke="rgb(79, 0, 0)">
  <path d="M10.67938251328928,30.7174652952875L10.67938251328928,23.3473013608613" />
</g>
<g stroke="rgb(79, 0, 0)">
  <path d="M10.67938251328928,23.3473013608613L12.52192349689584,23.3473013608613" />
</g>
<g stroke="rgb(79, 0, 0)">
  <path d="M-18.80127322441565,36.2450882461072L-18.80127322441565,38.08762922971376" />
</g>
<g stroke="rgb(79, 0, 0)">
  <path d="M49.372743169027,23.3473013608613L53.05782513623999,23.3473013608613" />
</g>
<g stroke="rgb(79, 0, 0)">
  <path d="M-21.56508469982555,36.2450882461072L-18.80127322441565,36.2450882461072" />
</g>
<g stroke="rgb(79, 0, 0)">
  <path d="M49.372743169027,30.7174652952875L49.372743169027,23.3473013608613" />
</g>
<g stroke="rgb(79, 0, 0)">
  <path d="M56.74290710345309,32.56000627889405L51.2152841526335,32.56000627889405" />
</g>
<g stroke="rgb(79, 0, 0)">
  <path d="M51.2152841526335,32.56000627889405L49.372743169027,30.7174652952875" />
</g>
<g stroke="rgb(79, 0, 0)">
  <path d="M-18.80127322441565,38.08762922971376L-26.17143715884185,38.08762922971376" />
</g>
<g stroke="rgb(79, 0, 0)">
  <path d="M6.99430054607619,36.2450882461072L6.99430054607619,32.56000627889405" />
</g>
<g stroke="rgb(79, 0, 0)">
  <path d="M-23.4076256834321,36.2450882461072L-23.4076256834321,23.34730136086125" />
</g>
<g stroke="rgb(79, 0, 0)">
  <path d="M10.67938251328928,36.2450882461072L6.99430054607619,36.2450882461072" />
</g>
<g stroke="rgb(79, 0, 0)">
  <path d="M-23.4076256834321,23.34730136086125L-21.56508469982555,23.34730136086135" />
</g>
<g stroke="rgb(79, 0, 0)">
  <path d="M53.05782513623999,23.3473013608613L54.90036611984659,25.1881274548546" />
</g>
<g stroke="rgb(79, 0, 0)">
  <path d="M-21.56508469982555,23.34730136086135L-21.56508469982555,36.2450882461072" />
</g>
<g stroke="rgb(79, 0, 0)">
  <path d="M54.90036611984659,25.1881274548546L54.90036611984659,23.3473013608613" />
</g>
<g stroke="rgb(79, 0, 0)">
  <path d="M65.95561202148589,23.3473013608613L73.3257759559123,23.34730136086125" />
</g>
<g stroke="rgb(79, 0, 0)">
  <path d="M42.00257923460075,25.18984234446785L42.00257923460075,30.7174652952875" />
</g>
<g stroke="rgb(79, 0, 0)">
  <path d="M65.95561202148589,32.56000627889405L65.95561202148589,23.3473013608613" />
</g>
<g stroke="rgb(79, 0, 0)">
  <path d="M47.5302021854204,25.18984234446785L42.00257923460075,25.18984234446785" />
</g>
<g stroke="rgb(79, 0, 0)">
  <path d="M73.3257759559123,32.56000627889405L65.95561202148589,32.56000627889405" />
</g>
<g stroke="rgb(79, 0, 0)">
  <path d="M47.5302021854204,23.3473013608613L47.5302021854204,25.18984234446785" />
</g>
<g stroke="rgb(79, 0, 0)">
  <path d="M73.3257759559123,23.34730136086125L73.3257759559123,32.56000627889405" />
</g>
<g stroke="rgb(79, 0, 0)">
  <path d="M67.7981530050926,30.7174652952875L67.7981530050926,25.1898423444679" />
</g>
<g stroke="rgb(79, 0, 0)">
  <path d="M45.6876612018139,30.7174652952875L47.5302021854204,28.87492431168095" />
</g>
<g stroke="rgb(79, 0, 0)">
  <path d="M47.5302021854204,28.87492431168095L47.5302021854204,32.56000627889405" />
</g>
<g stroke="rgb(79, 0, 0)">
  <path d="M71.4832349723057,30.7174652952875L67.7981530050926,30.7174652952875" />
</g>
<g stroke="rgb(79, 0, 0)">
  <path d="M42.00257923460075,30.7174652952875L45.6876612018139,30.7174652952875" />
</g>
<g stroke="rgb(79, 0, 0)">
  <path d="M67.7981530050926,25.1898423444679L71.4832349723057,25.18984234446785" />
</g>
<g stroke="rgb(79, 0, 0)">
  <path d="M71.4832349723057,25.18984234446785L71.4832349723057,30.7174652952875" />
</g>
<g stroke="rgb(79, 0, 0)">
  <path d="M64.1130710378793,30.7174652952875L64.1130710378793,32.56000627889405" />
</g>
<g stroke="rgb(79, 0, 0)">
  <path d="M64.1130710378793,32.56000627889405L62.2705300542728,32.56000627889405" />
</g>
<g stroke="rgb(79, 0, 0)">
  <path d="M62.2705300542728,32.56000627889405L62.2705300542728,38.08762922971376" />
</g>
<g stroke="rgb(79, 0, 0)">
  <path d="M62.2705300542728,30.7174652952875L64.1130710378793,30.7174652952875" />
</g>
<g stroke="rgb(79, 0, 0)">
  <path d="M64.1130710378793,23.34730136086125L64.1130710378793,25.18984234446785" />
</g>
<g stroke="rgb(79, 0, 0)">
  <path d="M64.1130710378793,25.18984234446785L62.2705300542728,25.18984234446785" />
</g>
<g stroke="rgb(79, 0, 0)">
  <path d="M62.2705300542728,25.18984234446785L62.2705300542728,30.7174652952875" />
</g>
<g stroke="rgb(79, 0, 0)">
  <path d="M58.5854480870597,30.7174652952875L60.4279890706663,30.7174652952875" />
</g>
<g stroke="rgb(79, 0, 0)">
  <path d="M60.4279890706663,30.7174652952875L60.4279890706663,23.3473013608613" />
</g>
<g stroke="rgb(79, 0, 0)">
  <path d="M40.1600382509942,23.3473013608613L47.5302021854204,23.3473013608613" />
</g>
<g stroke="rgb(79, 0, 0)">
  <path d="M58.5854480870597,32.56000627889405L58.5854480870597,30.7174652952875" />
</g>
<g stroke="rgb(79, 0, 0)">
  <path d="M62.2705300542728,38.08762922971376L60.4279890706663,38.08762922971376" />
</g>
<g stroke="rgb(79, 0, 0)">
  <path d="M60.4279890706663,38.08762922971376L60.4279890706663,32.56000627889405" />
</g>
<g stroke="rgb(79, 0, 0)">
  <path d="M60.4279890706663,32.56000627889405L58.5854480870597,32.56000627889405" />
</g>
<g stroke="rgb(79, 0, 0)">
  <path d="M21.73462841492855,23.34730136086125L21.73462841492855,25.1898423444679" />
</g>
<g stroke="rgb(79, 0, 0)">
  <path d="M29.10479234935475,25.18984234446785L29.10479234935475,30.7174652952875" />
</g>
<g stroke="rgb(79, 0, 0)">
  <path d="M14.36446448050238,23.34730136086125L21.73462841492855,23.34730136086125" />
</g>
<g stroke="rgb(79, 0, 0)">
  <path d="M29.10479234935475,30.7174652952875L25.41971038214165,30.7174652952875" />
</g>
<g stroke="rgb(79, 0, 0)">
  <path d="M16.20700546410895,25.1898423444678L16.20700546410895,27.03238332807445" />
</g>
<g stroke="rgb(79, 0, 0)">
  <path d="M25.41971038214165,30.7174652952875L25.41971038214165,25.18984234446785" />
</g>
<g stroke="rgb(79, 0, 0)">
  <path d="M21.73462841492855,25.1898423444679L16.20700546410895,25.1898423444678" />
</g>
<g stroke="rgb(79, 0, 0)">
  <path d="M25.41971038214165,15.9771374264351L25.41971038214165,23.3473013608613" />
</g>
<g stroke="rgb(79, 0, 0)">
  <path d="M21.73462841492855,30.71746529528755L19.89208743132205,32.56000627889405" />
</g>
<g stroke="rgb(79, 0, 0)">
  <path d="M25.41971038214165,23.3473013608613L30.9473333329613,23.3473013608613" />
</g>
<g stroke="rgb(79, 0, 0)">
  <path d="M19.89208743132205,32.56000627889405L14.36446448050238,32.56000627889405" />
</g>
<g stroke="rgb(79, 0, 0)">
  <path d="M23.5771693985351,32.56000627889405L23.5771693985351,15.9771374264351" />
</g>
<g stroke="rgb(79, 0, 0)">
  <path d="M14.36446448050238,32.56000627889405L14.36446448050238,23.34730136086125" />
</g>
<g stroke="rgb(79, 0, 0)">
  <path d="M23.5771693985351,15.9771374264351L25.41971038214165,15.9771374264351" />
</g>
<g stroke="rgb(79, 0, 0)">
  <path d="M36.47495628378095,23.3473013608613L38.31749726738765,23.3473013608613" />
</g>
<g stroke="rgb(79, 0, 0)">
  <path d="M38.31749726738765,23.3473013608613L38.31749726738765,32.56000627889405" />
</g>
<g stroke="rgb(79, 0, 0)">
  <path d="M38.31749726738765,32.56000627889405L36.47495628378095,32.56000627889405" />
</g>
<g stroke="rgb(79, 0, 0)">
  <path d="M47.5302021854204,32.56000627889405L42.00257923460075,32.56000627889405" />
</g>
<g stroke="rgb(79, 0, 0)">
  <path d="M42.00257923460075,32.56000627889405L40.1600382509942,30.7174652952875" />
</g>
<g stroke="rgb(79, 0, 0)">
  <path d="M40.1600382509942,30.7174652952875L40.1600382509942,23.3473013608613" />
</g>
<g stroke="rgb(79, 0, 0)">
  <path d="M32.78987431656785,23.3473013608613L34.6324153001744,23.3473013608613" />
</g>
<g stroke="rgb(79, 0, 0)">
  <path d="M16.20700546410895,27.03238332807445L21.73462841492855,27.03238332807445" />
</g>
<g stroke="rgb(79, 0, 0)">
  <path d="M25.41971038214165,25.18984234446785L29.10479234935475,25.18984234446785" />
</g>
<g stroke="rgb(79, 0, 0)">
  <path d="M21.73462841492855,27.03238332807445L21.73462841492855,30.71746529528755" />
</g>
<g stroke="rgb(79, 0, 0)">
  <path d="M34.6324153001744,23.3473013608613L34.6324153001744,38.08762922971376" />
</g>
<g stroke="rgb(79, 0, 0)">
  <path d="M34.6324153001744,38.08762922971376L32.78987431656785,38.08762922971376" />
</g>
<g stroke="rgb(79, 0, 0)">
  <path d="M32.78987431656785,38.08762922971376L32.78987431656785,23.3473013608613" />
</g>
<g stroke="rgb(79, 0, 0)">
  <path d="M-15.11619125720255,32.56000627889405L-15.11619125720255,38.08762922971376" />
</g>
<g stroke="rgb(79, 0, 0)">
  <path d="M60.4279890706663,23.3473013608613L64.1130710378793,23.34730136086125" />
</g>
<g stroke="rgb(79, 0, 0)">
  <path d="M82.53848087394499,32.560006278894L78.8533989067319,32.56000627889405" />
</g>
<g stroke="rgb(79, 0, 0)">
  <path d="M78.85339890673188,32.56000627889405L77.01085792312527,30.71746529528755" />
</g>
<g stroke="rgb(79, 0, 0)">
  <path d="M77.01085792312529,30.71746529528755L77.01085792312529,32.560006278894" />
</g>
<g stroke="rgb(79, 0, 0)">
  <path d="M-16.9587322408091,38.08762922971376L-16.9587322408091,23.34730136086135" />
</g>
<g stroke="rgb(79, 0, 0)">
  <path d="M77.01085792312529,30.71746529528755L82.53848087394499,30.7174652952875" />
</g>
<g stroke="rgb(79, 0, 0)">
  <path d="M-16.9587322408091,23.34730136086135L-15.11619125720255,23.3473013608613" />
</g>
<g stroke="rgb(79, 0, 0)">
  <path d="M82.53848087394499,30.7174652952875L82.53848087394499,32.560006278894" />
</g>
<g stroke="rgb(79, 0, 0)">
  <path d="M82.7151845843049,36.2010779721094L82.7151845843049,36.07363797210935" />
</g>
<g stroke="rgb(79, 0, 0)">
  <path d="M82.7151845843049,36.07363797210935L83.31216786299369,36.07363797210935" />
</g>
<g stroke="rgb(79, 0, 0)">
  <path d="M83.31216786299369,36.07363797210935L83.31216786299369,33.68570485735525" />
</g>
<g stroke="rgb(79, 0, 0)">
  <path d="M83.31216786299369,36.2010779721094L82.7151845843049,36.2010779721094" />
</g>
<g stroke="rgb(79, 0, 0)">
  <path d="M83.43960786299368,36.2010779721094L83.43960786299368,37.26760452948645" />
</g>
<g stroke="rgb(79, 0, 0)">
  <path d="M83.43960786299368,37.26760452948645L83.31216786299369,37.26760452948645" />
</g>
<g stroke="rgb(79, 0, 0)">
  <path d="M83.31216786299369,37.26760452948645L83.31216786299369,36.2010779721094" />
</g>
<g stroke="rgb(79, 0, 0)">
  <path d="M10.67938251328928,38.08762922971376L5.15175956246948,38.08762922971376" />
</g>
<g stroke="rgb(79, 0, 0)">
  <path d="M-9.588568306382898,23.34730136086135L-9.588568306382898,30.7174652952875" />
</g>
<g stroke="rgb(79, 0, 0)">
  <path d="M77.01085792312529,32.560006278894L75.1683169395188,32.56000627889405" />
</g>
<g stroke="rgb(79, 0, 0)">
  <path d="M-9.588568306382898,30.7174652952875L-11.43110928998944,32.56000627889405" />
</g>
<g stroke="rgb(79, 0, 0)">
  <path d="M12.52192349689584,32.56000627889405L12.52192349689584,36.2450882461072" />
</g>
<g stroke="rgb(79, 0, 0)">
  <path d="M-11.43110928998944,32.56000627889405L-15.11619125720255,32.56000627889405" />
</g>
<g stroke="rgb(79, 0, 0)">
  <path d="M12.52192349689584,36.2450882461072L10.67938251328928,38.08762922971376" />
</g>
<g stroke="rgb(79, 0, 0)">
  <path d="M-15.11619125720255,30.71746529528755L-11.43110928998944,30.7174652952875" />
</g>
<g stroke="rgb(79, 0, 0)">
  <path d="M77.01085792312529,23.34730136086125L77.01085792312529,30.71746529528755" />
</g>
<g stroke="rgb(79, 0, 0)">
  <path d="M-15.11619125720255,23.3473013608613L-15.11619125720255,30.71746529528755" />
</g>
<g stroke="rgb(79, 0, 0)">
  <path d="M75.1683169395188,23.34730136086125L77.01085792312529,23.34730136086125" />
</g>
<g stroke="rgb(79, 0, 0)">
  <path d="M-11.43110928998944,23.34730136086135L-9.588568306382898,23.34730136086135" />
</g>
<g stroke="rgb(79, 0, 0)">
  <path d="M75.1683169395188,32.56000627889405L75.1683169395188,23.34730136086125" />
</g>
<g stroke="rgb(79, 0, 0)">
  <path d="M-11.43110928998944,30.7174652952875L-11.43110928998944,23.34730136086135" />
</g>
<g stroke="rgb(79, 0, 0)">
  <path d="M-0.375863388350163,30.71746529528755L-2.21840437195671,32.56000627889405" />
</g>
<g stroke="rgb(79, 0, 0)">
  <path d="M-5.90348633916981,28.87492431168105L-2.21840437195671,28.87492431168095" />
</g>
<g stroke="rgb(79, 0, 0)">
  <path d="M-7.74602732277635,32.56000627889405L-7.74602732277635,23.34730136086125" />
</g>
<g stroke="rgb(79, 0, 0)">
  <path d="M-2.21840437195671,32.56000627889405L-7.746027322776348,32.56000627889405" />
</g>
<g stroke="rgb(79, 0, 0)">
  <path d="M-2.21840437195671,28.87492431168095L-2.21840437195671,30.7174652952875" />
</g>
<g stroke="rgb(79, 0, 0)">
  <path d="M-2.21840437195671,30.7174652952875L-5.90348633916981,30.7174652952875" />
</g>
<g stroke="rgb(79, 0, 0)">
  <path d="M-5.90348633916981,30.7174652952875L-5.90348633916981,28.87492431168105" />
</g>
<g stroke="rgb(79, 0, 0)">
  <path d="M-5.90348633916981,27.03238332807445L-0.3758633883501651,27.03238332807445" />
</g>
<g stroke="rgb(79, 0, 0)">
  <path d="M83.43960786299368,33.8131448573553L83.43960786299368,36.07363797210935" />
</g>
<g stroke="rgb(79, 0, 0)">
  <path d="M-5.90348633916981,25.1898423444678L-5.90348633916981,27.03238332807445" />
</g>
<g stroke="rgb(79, 0, 0)">
  <path d="M83.90915114168219,33.8131448573553L83.43960786299368,33.8131448573553" />
</g>
<g stroke="rgb(79, 0, 0)">
  <path d="M83.31216786299369,33.68570485735525L83.90915114168219,33.68570485735525" />
</g>
<g stroke="rgb(79, 0, 0)">
  <path d="M83.90915114168219,33.68570485735525L83.90915114168219,33.8131448573553" />
</g>
<g stroke="rgb(79, 0, 0)">
  <path d="M-0.375863388350163,27.03238332807445L-0.375863388350163,30.71746529528755" />
</g>
<g stroke="rgb(79, 0, 0)">
  <path d="M83.90915114168219,36.2010779721094L83.43960786299368,36.2010779721094" />
</g>
<g stroke="rgb(79, 0, 0)">
  <path d="M-7.74602732277635,23.34730136086125L-0.3758633883501634,23.34730136086125" />
</g>
<g stroke="rgb(79, 0, 0)">
  <path d="M-0.375863388350163,23.34730136086125L-0.375863388350163,25.1898423444679" />
</g>
<g stroke="rgb(79, 0, 0)">
  <path d="M83.43960786299368,36.07363797210935L83.90915114168219,36.07363797210935" />
</g>
<g stroke="rgb(79, 0, 0)">
  <path d="M-0.375863388350163,25.1898423444679L-5.903486339169808,25.1898423444678" />
</g>
<g stroke="rgb(79, 0, 0)">
  <path d="M83.90915114168219,36.07363797210935L83.90915114168219,36.2010779721094" />
</g>
  </g>
</svg>