<?xml version="1.0"?>
<svg
  xmlns="http://www.w3.org/2000/svg"
  xmlns:xlink="http://www.w3.org/1999/xlink" version="1.1"
  preserveAspectRatio="xMinYMin meet"
  viewBox="8559.317236769755 -4758.001724019825 583.8194854660833 462.98807617596685"
  width="100%" height="100%"
>
  <g stroke="#000000" stroke-width="0.1%" fill="none" transform="matrix(1,0,0,-1,0,0)">
    <g stroke="rgb(0, 0, 255)">
  <path d="M8812.296479962,4413.55353276518L8812.296479962,4407.905913717561" />
</g>
<g stroke="rgb(0, 0, 255)">
  <path d="M8812.296479962,4515.210675622324L8812.296479962,4509.563056574704" />
</g>
<g stroke="rgb(0, 0, 255)">
  <path d="M8812.296479962,4503.915437527085L8812.296479962,4498.267818479468" />
</g>
<g stroke="rgb(0, 0, 255)">
  <path d="M8812.296479962,4492.620199431847L8812.296479962,4486.972580384229" />
</g>
<g stroke="rgb(0, 0, 255)">
  <path d="M8812.296479962,4481.32496133661L8812.296479962,4475.67734228899" />
</g>
<g stroke="rgb(0, 0, 255)">
  <path d="M8812.296479962,4470.029723241371L8812.296479962,4464.382104193751" />
</g>
<g stroke="rgb(0, 0, 255)">
  <path d="M8812.296479962,4458.734485146133L8812.296479962,4453.086866098515" />
</g>
<g stroke="rgb(0, 0, 255)">
  <path d="M8812.296479962,4447.439247050897L8812.296479962,4441.791628003275" />
</g>
<g stroke="rgb(0, 0, 255)">
  <path d="M8812.296479962,4436.144008955657L8812.296479962,4430.496389908039" />
</g>
<g stroke="rgb(0, 0, 255)">
  <path d="M8812.296479962,4424.84877086042L8812.296479962,4419.201151812801" />
</g>
<g stroke="rgb(0, 0, 255)">
  <path d="M9031.596479962001,4520.858294669943L9026.142821425417,4520.858294669943" />
</g>
<g stroke="rgb(0, 0, 255)">
  <path d="M9020.68916288883,4520.858294669943L9015.235504352246,4520.858294669943" />
</g>
<g stroke="rgb(0, 0, 255)">
  <path d="M9009.78184581566,4520.858294669943L9004.328187279076,4520.858294669943" />
</g>
<g stroke="rgb(0, 0, 255)">
  <path d="M8998.87452874249,4520.858294669943L8993.420870205904,4520.858294669943" />
</g>
<g stroke="rgb(0, 0, 255)">
  <path d="M8987.967211669318,4520.858294669943L8982.513553132734,4520.858294669943" />
</g>
<g stroke="rgb(0, 0, 255)">
  <path d="M8977.059894596145,4520.858294669943L8971.606236059562,4520.858294669943" />
</g>
<g stroke="rgb(0, 0, 255)">
  <path d="M8966.152577522975,4520.858294669943L8960.698918986393,4520.858294669943" />
</g>
<g stroke="rgb(0, 0, 255)">
  <path d="M8955.245260449805,4520.858294669943L8949.791601913224,4520.858294669943" />
</g>
<g stroke="rgb(0, 0, 255)">
  <path d="M8944.337943376637,4520.858294669943L8938.884284840047,4520.858294669943" />
</g>
<g stroke="rgb(0, 0, 255)">
  <path d="M8933.430626303463,4520.858294669943L8927.97696776688,4520.858294669943" />
</g>
<g stroke="rgb(0, 0, 255)">
  <path d="M8922.523309230291,4520.858294669943L8917.069650693707,4520.858294669943" />
</g>
<g stroke="rgb(0, 0, 255)">
  <path d="M8911.615992157123,4520.858294669943L8906.162333620538,4520.858294669943" />
</g>
<g stroke="rgb(0, 0, 255)">
  <path d="M8900.708675083953,4520.858294669943L8895.255016547364,4520.858294669943" />
</g>
<g stroke="rgb(0, 0, 255)">
  <path d="M8889.80135801078,4520.858294669943L8884.347699474196,4520.858294669943" />
</g>
<g stroke="rgb(0, 0, 255)">
  <path d="M8878.894040937606,4520.858294669943L8873.440382401026,4520.858294669943" />
</g>
<g stroke="rgb(0, 0, 255)">
  <path d="M8867.986723864442,4520.858294669943L8862.533065327852,4520.858294669943" />
</g>
<g stroke="rgb(0, 0, 255)">
  <path d="M8857.079406791268,4520.858294669943L8851.625748254683,4520.858294669943" />
</g>
<g stroke="rgb(0, 0, 255)">
  <path d="M8846.172089718097,4520.858294669943L8840.718431181513,4520.858294669943" />
</g>
<g stroke="rgb(0, 0, 255)">
  <path d="M8835.264772644927,4520.858294669943L8829.811114108345,4520.858294669943" />
</g>
<g stroke="rgb(0, 0, 255)">
  <path d="M8824.357455571757,4520.858294669943L8818.903797035175,4520.858294669943" />
</g>
<g stroke="rgb(0, 0, 255)">
  <path d="M8813.450138498585,4520.858294669943L8807.996479962,4520.858294669943" />
</g>
<g stroke="rgb(0, 0, 255)">
  <path d="M8807.996479962,4520.858294669943L8807.996479962,4515.210675622324" />
</g>
<g stroke="rgb(0, 0, 255)">
  <path d="M8807.996479962,4509.563056574704L8807.996479962,4503.915437527085" />
</g>
<g stroke="rgb(0, 0, 255)">
  <path d="M8807.996479962,4498.267818479468L8807.996479962,4492.620199431847" />
</g>
<g stroke="rgb(0, 0, 255)">
  <path d="M8807.996479962,4486.972580384229L8807.996479962,4481.32496133661" />
</g>
<g stroke="rgb(0, 0, 255)">
  <path d="M8807.996479962,4475.67734228899L8807.996479962,4470.029723241371" />
</g>
<g stroke="rgb(0, 0, 255)">
  <path d="M8807.996479962,4464.382104193751L8807.996479962,4458.734485146133" />
</g>
<g stroke="rgb(0, 0, 255)">
  <path d="M8807.996479962,4453.086866098515L8807.996479962,4447.439247050897" />
</g>
<g stroke="rgb(0, 0, 255)">
  <path d="M8807.996479962,4441.791628003275L8807.996479962,4436.144008955657" />
</g>
<g stroke="rgb(0, 0, 255)">
  <path d="M8807.996479962,4430.496389908039L8807.996479962,4424.84877086042" />
</g>
<g stroke="rgb(0, 0, 255)">
  <path d="M8807.996479962,4419.201151812801L8807.996479962,4413.55353276518" />
</g>
<g stroke="rgb(0, 0, 255)">
  <path d="M8807.996479962,4407.905913717561L8807.996479962,4402.258294669943" />
</g>
<g stroke="rgb(255, 0, 0)">
  <path d="M8807.996479962,4520.858294669943L8807.996479962,4528.067385579034" />
</g>
<g stroke="rgb(255, 0, 0)">
  <path d="M8807.996479962,4535.276476488124L8807.996479962,4542.485567397215" />
</g>
<g stroke="rgb(255, 0, 0)">
  <path d="M8807.996479962,4549.694658306306L8807.996479962,4556.903749215396" />
</g>
<g stroke="rgb(255, 0, 0)">
  <path d="M8807.996479962,4564.112840124489L8807.996479962,4571.321931033579" />
</g>
<g stroke="rgb(255, 0, 0)">
  <path d="M8807.996479962,4578.531021942671L8807.996479962,4585.740112851762" />
</g>
<g stroke="rgb(255, 0, 0)">
  <path d="M8807.996479962,4592.949203760852L8807.996479962,4600.158294669942" />
</g>
<g stroke="rgb(255, 0, 0)">
  <path d="M8807.996479962,4600.158294669942L9031.596479962001,4600.158294669942" />
</g>
<g stroke="rgb(0, 255, 255)">
  <path d="M8812.296479962,4595.858294669943L9027.296479962,4595.858294669943" />
</g>
<g stroke="rgb(255, 0, 0)">
  <path d="M9031.596479962001,4600.158294669942L9031.596479962001,4592.949203760852" />
</g>
<g stroke="rgb(255, 0, 0)">
  <path d="M9031.596479962001,4585.740112851762L9031.596479962001,4578.531021942671" />
</g>
<g stroke="rgb(255, 0, 0)">
  <path d="M9031.596479962001,4571.321931033579L9031.596479962001,4564.112840124489" />
</g>
<g stroke="rgb(255, 0, 0)">
  <path d="M9031.596479962001,4556.903749215396L9031.596479962001,4549.694658306306" />
</g>
<g stroke="rgb(255, 0, 0)">
  <path d="M9031.596479962001,4542.485567397215L9031.596479962001,4535.276476488124" />
</g>
<g stroke="rgb(255, 0, 0)">
  <path d="M9031.596479962001,4528.067385579034L9031.596479962001,4520.858294669943" />
</g>
<g stroke="rgb(255, 0, 0)">
  <path d="M8728.696479962002,4516.558294669942L8728.696479962002,4471.558294669942" />
</g>
<g stroke="rgb(255, 0, 0)">
  <path d="M8728.696479962002,4451.558294669943L8728.696479962002,4406.558294669942" />
</g>
<g stroke="rgb(255, 0, 0)">
  <path d="M8615.311695579065,4322.958294669944L8725.311695579065,4322.958294669944L8725.311695579065,4537.958294669944L8615.311695579065,4537.958294669944L8615.311695579065,4322.958294669944" />
</g>
<g stroke="rgb(0, 0, 255)">
  <path d="M8813.450138498585,4516.558294669942L8818.903797035175,4516.558294669942" />
</g>
<g stroke="rgb(0, 0, 255)">
  <path d="M8824.357455571757,4516.558294669942L8829.811114108345,4516.558294669942" />
</g>
<g stroke="rgb(0, 0, 255)">
  <path d="M8835.264772644927,4516.558294669942L8840.718431181513,4516.558294669942" />
</g>
<g stroke="rgb(0, 0, 255)">
  <path d="M8846.172089718097,4516.558294669942L8851.625748254683,4516.558294669942" />
</g>
<g stroke="rgb(0, 0, 255)">
  <path d="M8857.079406791268,4516.558294669942L8862.533065327852,4516.558294669942" />
</g>
<g stroke="rgb(0, 0, 255)">
  <path d="M8867.986723864442,4516.558294669942L8873.440382401026,4516.558294669942" />
</g>
<g stroke="rgb(0, 0, 255)">
  <path d="M8878.894040937606,4516.558294669942L8884.347699474196,4516.558294669942" />
</g>
<g stroke="rgb(0, 0, 255)">
  <path d="M8889.80135801078,4516.558294669942L8895.255016547364,4516.558294669942" />
</g>
<g stroke="rgb(0, 0, 255)">
  <path d="M8900.708675083953,4516.558294669942L8906.162333620538,4516.558294669942" />
</g>
<g stroke="rgb(0, 0, 255)">
  <path d="M8911.615992157123,4516.558294669942L8917.069650693707,4516.558294669942" />
</g>
<g stroke="rgb(0, 0, 255)">
  <path d="M8922.523309230291,4516.558294669942L8927.97696776688,4516.558294669942" />
</g>
<g stroke="rgb(0, 0, 255)">
  <path d="M8933.430626303463,4516.558294669942L8938.884284840047,4516.558294669942" />
</g>
<g stroke="rgb(0, 0, 255)">
  <path d="M8944.337943376637,4516.558294669942L8949.791601913224,4516.558294669942" />
</g>
<g stroke="rgb(0, 0, 255)">
  <path d="M8955.245260449805,4516.558294669942L8960.698918986393,4516.558294669942" />
</g>
<g stroke="rgb(0, 0, 255)">
  <path d="M8966.152577522975,4516.558294669942L8971.606236059562,4516.558294669942" />
</g>
<g stroke="rgb(0, 0, 255)">
  <path d="M8977.059894596145,4516.558294669942L8982.513553132734,4516.558294669942" />
</g>
<g stroke="rgb(0, 0, 255)">
  <path d="M8987.967211669318,4516.558294669942L8993.420870205904,4516.558294669942" />
</g>
<g stroke="rgb(0, 0, 255)">
  <path d="M8998.87452874249,4516.558294669942L9004.328187279076,4516.558294669942" />
</g>
<g stroke="rgb(0, 0, 255)">
  <path d="M9009.78184581566,4516.558294669942L9015.235504352246,4516.558294669942" />
</g>
<g stroke="rgb(0, 0, 255)">
  <path d="M9020.68916288883,4516.558294669942L9026.142821425417,4516.558294669942" />
</g>
<g stroke="rgb(255, 0, 0)">
  <path d="M8604.282788007631,4537.871358680217L8611.282788007631,4537.871358680217L8611.282788007631,4322.871358680217L8604.282788007631,4322.871358680217L8604.282788007631,4537.871358680217" />
</g>
<g stroke="rgb(0, 0, 255)">
  <path d="M8807.996479962,4407.905913717561L8812.296479962,4407.905913717561" />
</g>
<g stroke="rgb(0, 0, 255)">
  <path d="M8807.996479962,4413.55353276518L8812.296479962,4413.55353276518" />
</g>
<g stroke="rgb(0, 0, 255)">
  <path d="M8807.996479962,4419.201151812801L8812.296479962,4419.201151812801" />
</g>
<g stroke="rgb(0, 0, 255)">
  <path d="M8807.996479962,4424.84877086042L8812.296479962,4424.84877086042" />
</g>
<g stroke="rgb(0, 0, 255)">
  <path d="M8807.996479962,4430.496389908039L8812.296479962,4430.496389908039" />
</g>
<g stroke="rgb(0, 0, 255)">
  <path d="M8807.996479962,4436.144008955657L8812.296479962,4436.144008955657" />
</g>
<g stroke="rgb(0, 0, 255)">
  <path d="M8807.996479962,4441.791628003275L8812.296479962,4441.791628003275" />
</g>
<g stroke="rgb(0, 0, 255)">
  <path d="M8807.996479962,4447.439247050897L8812.296479962,4447.439247050897" />
</g>
<g stroke="rgb(0, 0, 255)">
  <path d="M8807.996479962,4453.086866098515L8812.296479962,4453.086866098515" />
</g>
<g stroke="rgb(0, 0, 255)">
  <path d="M8807.996479962,4458.734485146133L8812.296479962,4458.734485146133" />
</g>
<g stroke="rgb(0, 0, 255)">
  <path d="M8807.996479962,4464.382104193751L8812.296479962,4464.382104193751" />
</g>
<g stroke="rgb(0, 0, 255)">
  <path d="M8807.996479962,4470.029723241371L8812.296479962,4470.029723241371" />
</g>
<g stroke="rgb(0, 0, 255)">
  <path d="M8807.996479962,4475.67734228899L8812.296479962,4475.67734228899" />
</g>
<g stroke="rgb(0, 0, 255)">
  <path d="M8807.996479962,4481.32496133661L8812.296479962,4481.32496133661" />
</g>
<g stroke="rgb(0, 0, 255)">
  <path d="M8807.996479962,4486.972580384229L8812.296479962,4486.972580384229" />
</g>
<g stroke="rgb(0, 0, 255)">
  <path d="M8807.996479962,4492.620199431847L8812.296479962,4492.620199431847" />
</g>
<g stroke="rgb(0, 0, 255)">
  <path d="M8807.996479962,4498.267818479468L8812.296479962,4498.267818479468" />
</g>
<g stroke="rgb(0, 0, 255)">
  <path d="M8807.996479962,4503.915437527085L8812.296479962,4503.915437527085" />
</g>
<g stroke="rgb(0, 0, 255)">
  <path d="M8807.996479962,4509.563056574704L8812.296479962,4509.563056574704" />
</g>
<g stroke="rgb(0, 0, 255)">
  <path d="M8807.996479962,4515.210675622324L8812.296479962,4515.210675622324" />
</g>
<g stroke="rgb(0, 0, 255)">
  <path d="M8813.450138498585,4516.558294669942L8813.450138498585,4520.858294669943" />
</g>
<g stroke="rgb(0, 0, 255)">
  <path d="M8818.903797035175,4516.558294669942L8818.903797035175,4520.858294669943" />
</g>
<g stroke="rgb(0, 0, 255)">
  <path d="M8824.357455571757,4516.558294669942L8824.357455571757,4520.858294669943" />
</g>
<g stroke="rgb(0, 0, 255)">
  <path d="M8829.811114108345,4516.558294669942L8829.811114108345,4520.858294669943" />
</g>
<g stroke="rgb(0, 0, 255)">
  <path d="M8835.264772644927,4516.558294669942L8835.264772644927,4520.858294669943" />
</g>
<g stroke="rgb(0, 0, 255)">
  <path d="M8840.718431181513,4516.558294669942L8840.718431181513,4520.858294669943" />
</g>
<g stroke="rgb(0, 0, 255)">
  <path d="M8846.172089718097,4516.558294669942L8846.172089718097,4520.858294669943" />
</g>
<g stroke="rgb(0, 0, 255)">
  <path d="M8851.625748254683,4516.558294669942L8851.625748254683,4520.858294669943" />
</g>
<g stroke="rgb(0, 0, 255)">
  <path d="M8857.079406791268,4516.558294669942L8857.079406791268,4520.858294669943" />
</g>
<g stroke="rgb(0, 0, 255)">
  <path d="M8862.533065327852,4516.558294669942L8862.533065327852,4520.858294669943" />
</g>
<g stroke="rgb(0, 0, 255)">
  <path d="M8867.986723864442,4516.558294669942L8867.986723864442,4520.858294669943" />
</g>
<g stroke="rgb(0, 0, 255)">
  <path d="M8873.440382401026,4516.558294669942L8873.440382401026,4520.858294669943" />
</g>
<g stroke="rgb(0, 0, 255)">
  <path d="M8878.894040937606,4516.558294669942L8878.894040937606,4520.858294669943" />
</g>
<g stroke="rgb(0, 0, 255)">
  <path d="M8884.347699474196,4516.558294669942L8884.347699474196,4520.858294669943" />
</g>
<g stroke="rgb(0, 0, 255)">
  <path d="M8889.80135801078,4516.558294669942L8889.80135801078,4520.858294669943" />
</g>
<g stroke="rgb(0, 0, 255)">
  <path d="M8895.255016547364,4516.558294669942L8895.255016547364,4520.858294669943" />
</g>
<g stroke="rgb(0, 0, 255)">
  <path d="M8900.708675083953,4516.558294669942L8900.708675083953,4520.858294669943" />
</g>
<g stroke="rgb(0, 0, 255)">
  <path d="M8906.162333620538,4516.558294669942L8906.162333620538,4520.858294669943" />
</g>
<g stroke="rgb(0, 0, 255)">
  <path d="M8911.615992157123,4516.558294669942L8911.615992157123,4520.858294669943" />
</g>
<g stroke="rgb(0, 0, 255)">
  <path d="M8917.069650693707,4516.558294669942L8917.069650693707,4520.858294669943" />
</g>
<g stroke="rgb(0, 0, 255)">
  <path d="M8922.523309230291,4516.558294669942L8922.523309230291,4520.858294669943" />
</g>
<g stroke="rgb(0, 0, 255)">
  <path d="M8927.97696776688,4516.558294669942L8927.97696776688,4520.858294669943" />
</g>
<g stroke="rgb(0, 0, 255)">
  <path d="M8933.430626303463,4516.558294669942L8933.430626303463,4520.858294669943" />
</g>
<g stroke="rgb(0, 0, 255)">
  <path d="M8938.884284840047,4516.558294669942L8938.884284840047,4520.858294669943" />
</g>
<g stroke="rgb(0, 0, 255)">
  <path d="M8944.337943376637,4516.558294669942L8944.337943376637,4520.858294669943" />
</g>
<g stroke="rgb(0, 0, 255)">
  <path d="M8949.791601913224,4516.558294669942L8949.791601913224,4520.858294669943" />
</g>
<g stroke="rgb(0, 0, 255)">
  <path d="M8955.245260449805,4516.558294669942L8955.245260449805,4520.858294669943" />
</g>
<g stroke="rgb(0, 0, 255)">
  <path d="M8960.698918986393,4516.558294669942L8960.698918986393,4520.858294669943" />
</g>
<g stroke="rgb(0, 0, 255)">
  <path d="M8966.152577522975,4516.558294669942L8966.152577522975,4520.858294669943" />
</g>
<g stroke="rgb(0, 0, 255)">
  <path d="M8971.606236059562,4516.558294669942L8971.606236059562,4520.858294669943" />
</g>
<g stroke="rgb(0, 0, 255)">
  <path d="M8977.059894596145,4516.558294669942L8977.059894596145,4520.858294669943" />
</g>
<g stroke="rgb(0, 0, 255)">
  <path d="M8982.513553132734,4516.558294669942L8982.513553132734,4520.858294669943" />
</g>
<g stroke="rgb(0, 0, 255)">
  <path d="M8987.967211669318,4516.558294669942L8987.967211669318,4520.858294669943" />
</g>
<g stroke="rgb(0, 0, 255)">
  <path d="M8993.420870205904,4516.558294669942L8993.420870205904,4520.858294669943" />
</g>
<g stroke="rgb(0, 0, 255)">
  <path d="M8998.87452874249,4516.558294669942L8998.87452874249,4520.858294669943" />
</g>
<g stroke="rgb(0, 0, 255)">
  <path d="M9004.328187279076,4516.558294669942L9004.328187279076,4520.858294669943" />
</g>
<g stroke="rgb(0, 0, 255)">
  <path d="M9009.78184581566,4516.558294669942L9009.78184581566,4520.858294669943" />
</g>
<g stroke="rgb(0, 0, 255)">
  <path d="M9015.235504352246,4516.558294669942L9015.235504352246,4520.858294669943" />
</g>
<g stroke="rgb(0, 0, 255)">
  <path d="M9020.68916288883,4516.558294669942L9020.68916288883,4520.858294669943" />
</g>
<g stroke="rgb(0, 0, 255)">
  <path d="M9026.142821425417,4516.558294669942L9026.142821425417,4520.858294669943" />
</g>
<g stroke="rgb(255, 0, 0)">
  <path d="M9031.596479962001,4520.858294669943L9031.596479962001,4515.210675622324" />
</g>
<g stroke="rgb(255, 0, 0)">
  <path d="M9031.596479962001,4509.563056574704L9031.596479962001,4503.915437527085" />
</g>
<g stroke="rgb(255, 0, 0)">
  <path d="M9031.596479962001,4498.267818479468L9031.596479962001,4492.620199431847" />
</g>
<g stroke="rgb(255, 0, 0)">
  <path d="M9031.596479962001,4486.972580384229L9031.596479962001,4481.32496133661" />
</g>
<g stroke="rgb(255, 0, 0)">
  <path d="M9031.596479962001,4475.67734228899L9031.596479962001,4470.029723241371" />
</g>
<g stroke="rgb(255, 0, 0)">
  <path d="M9031.596479962001,4464.382104193751L9031.596479962001,4458.734485146133" />
</g>
<g stroke="rgb(255, 0, 0)">
  <path d="M9031.596479962001,4453.086866098515L9031.596479962001,4447.439247050897" />
</g>
<g stroke="rgb(255, 0, 0)">
  <path d="M9031.596479962001,4441.791628003275L9031.596479962001,4436.144008955657" />
</g>
<g stroke="rgb(255, 0, 0)">
  <path d="M9031.596479962001,4430.496389908039L9031.596479962001,4424.84877086042" />
</g>
<g stroke="rgb(255, 0, 0)">
  <path d="M9031.596479962001,4419.201151812801L9031.596479962001,4413.55353276518" />
</g>
<g stroke="rgb(0, 0, 255)">
  <path d="M9031.596479962001,4407.905913717561L9031.596479962001,4402.258294669943" />
</g>
<g stroke="rgb(0, 0, 255)">
  <path d="M9031.596479962001,4407.905913717561L9027.296479962,4407.905913717561" />
</g>
<g stroke="rgb(0, 0, 255)">
  <path d="M9031.596479962001,4413.55353276518L9027.296479962,4413.55353276518" />
</g>
<g stroke="rgb(0, 0, 255)">
  <path d="M9031.596479962001,4419.201151812801L9027.296479962,4419.201151812801" />
</g>
<g stroke="rgb(0, 0, 255)">
  <path d="M9031.596479962001,4424.84877086042L9027.296479962,4424.84877086042" />
</g>
<g stroke="rgb(0, 0, 255)">
  <path d="M9031.596479962001,4430.496389908039L9027.296479962,4430.496389908039" />
</g>
<g stroke="rgb(0, 0, 255)">
  <path d="M9031.596479962001,4436.144008955657L9027.296479962,4436.144008955657" />
</g>
<g stroke="rgb(0, 0, 255)">
  <path d="M9031.596479962001,4441.791628003275L9027.296479962,4441.791628003275" />
</g>
<g stroke="rgb(0, 0, 255)">
  <path d="M9031.596479962001,4447.439247050897L9027.296479962,4447.439247050897" />
</g>
<g stroke="rgb(0, 0, 255)">
  <path d="M9031.596479962001,4453.086866098515L9027.296479962,4453.086866098515" />
</g>
<g stroke="rgb(0, 0, 255)">
  <path d="M9031.596479962001,4458.734485146133L9027.296479962,4458.734485146133" />
</g>
<g stroke="rgb(0, 0, 255)">
  <path d="M9031.596479962001,4464.382104193751L9027.296479962,4464.382104193751" />
</g>
<g stroke="rgb(0, 0, 255)">
  <path d="M9031.596479962001,4470.029723241371L9027.296479962,4470.029723241371" />
</g>
<g stroke="rgb(0, 0, 255)">
  <path d="M9031.596479962001,4475.67734228899L9027.296479962,4475.67734228899" />
</g>
<g stroke="rgb(0, 0, 255)">
  <path d="M9031.596479962001,4481.32496133661L9027.296479962,4481.32496133661" />
</g>
<g stroke="rgb(0, 0, 255)">
  <path d="M9031.596479962001,4486.972580384229L9027.296479962,4486.972580384229" />
</g>
<g stroke="rgb(0, 0, 255)">
  <path d="M9031.596479962001,4492.620199431847L9027.296479962,4492.620199431847" />
</g>
<g stroke="rgb(0, 0, 255)">
  <path d="M9031.596479962001,4498.267818479468L9027.296479962,4498.267818479468" />
</g>
<g stroke="rgb(0, 0, 255)">
  <path d="M9031.596479962001,4503.915437527085L9027.296479962,4503.915437527085" />
</g>
<g stroke="rgb(0, 0, 255)">
  <path d="M9031.596479962001,4509.563056574704L9027.296479962,4509.563056574704" />
</g>
<g stroke="rgb(0, 0, 255)">
  <path d="M9031.596479962001,4515.210675622324L9027.296479962,4515.210675622324" />
</g>
<g stroke="rgb(0, 0, 255)">
  <path d="M9031.596479962001,4402.258294669943L9026.142821425417,4402.258294669943" />
</g>
<g stroke="rgb(0, 0, 255)">
  <path d="M9020.68916288883,4402.258294669943L9015.235504352246,4402.258294669943" />
</g>
<g stroke="rgb(0, 0, 255)">
  <path d="M9009.78184581566,4402.258294669943L9004.328187279076,4402.258294669943" />
</g>
<g stroke="rgb(0, 0, 255)">
  <path d="M8998.87452874249,4402.258294669943L8993.420870205904,4402.258294669943" />
</g>
<g stroke="rgb(0, 0, 255)">
  <path d="M8987.967211669318,4402.258294669943L8982.513553132734,4402.258294669943" />
</g>
<g stroke="rgb(0, 0, 255)">
  <path d="M8977.059894596145,4402.258294669943L8971.606236059562,4402.258294669943" />
</g>
<g stroke="rgb(0, 0, 255)">
  <path d="M8966.152577522975,4402.258294669943L8960.698918986393,4402.258294669943" />
</g>
<g stroke="rgb(0, 0, 255)">
  <path d="M8955.245260449805,4402.258294669943L8949.791601913224,4402.258294669943" />
</g>
<g stroke="rgb(0, 0, 255)">
  <path d="M8944.337943376637,4402.258294669943L8938.884284840047,4402.258294669943" />
</g>
<g stroke="rgb(0, 0, 255)">
  <path d="M8933.430626303463,4402.258294669943L8927.97696776688,4402.258294669943" />
</g>
<g stroke="rgb(0, 0, 255)">
  <path d="M8922.523309230291,4402.258294669943L8917.069650693707,4402.258294669943" />
</g>
<g stroke="rgb(0, 0, 255)">
  <path d="M8911.615992157123,4402.258294669943L8906.162333620538,4402.258294669943" />
</g>
<g stroke="rgb(0, 0, 255)">
  <path d="M8900.708675083953,4402.258294669943L8895.255016547364,4402.258294669943" />
</g>
<g stroke="rgb(0, 0, 255)">
  <path d="M8889.80135801078,4402.258294669943L8884.347699474196,4402.258294669943" />
</g>
<g stroke="rgb(0, 0, 255)">
  <path d="M8878.894040937606,4402.258294669943L8873.440382401026,4402.258294669943" />
</g>
<g stroke="rgb(0, 0, 255)">
  <path d="M8867.986723864442,4402.258294669943L8862.533065327852,4402.258294669943" />
</g>
<g stroke="rgb(0, 0, 255)">
  <path d="M8857.079406791268,4402.258294669943L8851.625748254683,4402.258294669943" />
</g>
<g stroke="rgb(0, 0, 255)">
  <path d="M8846.172089718097,4402.258294669943L8840.718431181513,4402.258294669943" />
</g>
<g stroke="rgb(0, 0, 255)">
  <path d="M8835.264772644927,4402.258294669943L8829.811114108345,4402.258294669943" />
</g>
<g stroke="rgb(0, 0, 255)">
  <path d="M8824.357455571757,4402.258294669943L8818.903797035175,4402.258294669943" />
</g>
<g stroke="rgb(0, 0, 255)">
  <path d="M8813.450138498585,4402.258294669943L8807.996479962,4402.258294669943" />
</g>
<g stroke="rgb(0, 0, 255)">
  <path d="M8813.450138498585,4406.558294669942L8818.903797035175,4406.558294669942" />
</g>
<g stroke="rgb(0, 0, 255)">
  <path d="M8824.357455571757,4406.558294669942L8829.811114108345,4406.558294669942" />
</g>
<g stroke="rgb(0, 0, 255)">
  <path d="M8835.264772644927,4406.558294669942L8840.718431181513,4406.558294669942" />
</g>
<g stroke="rgb(0, 0, 255)">
  <path d="M8846.172089718097,4406.558294669942L8851.625748254683,4406.558294669942" />
</g>
<g stroke="rgb(0, 0, 255)">
  <path d="M8857.079406791268,4406.558294669942L8862.533065327852,4406.558294669942" />
</g>
<g stroke="rgb(0, 0, 255)">
  <path d="M8867.986723864442,4406.558294669942L8873.440382401026,4406.558294669942" />
</g>
<g stroke="rgb(0, 0, 255)">
  <path d="M8878.894040937606,4406.558294669942L8884.347699474196,4406.558294669942" />
</g>
<g stroke="rgb(0, 0, 255)">
  <path d="M8889.80135801078,4406.558294669942L8895.255016547364,4406.558294669942" />
</g>
<g stroke="rgb(0, 0, 255)">
  <path d="M8900.708675083953,4406.558294669942L8906.162333620538,4406.558294669942" />
</g>
<g stroke="rgb(0, 0, 255)">
  <path d="M8911.615992157123,4406.558294669942L8917.069650693707,4406.558294669942" />
</g>
<g stroke="rgb(0, 0, 255)">
  <path d="M8922.523309230291,4406.558294669942L8927.97696776688,4406.558294669942" />
</g>
<g stroke="rgb(0, 0, 255)">
  <path d="M8933.430626303463,4406.558294669942L8938.884284840047,4406.558294669942" />
</g>
<g stroke="rgb(0, 0, 255)">
  <path d="M8944.337943376637,4406.558294669942L8949.791601913224,4406.558294669942" />
</g>
<g stroke="rgb(0, 0, 255)">
  <path d="M8955.245260449805,4406.558294669942L8960.698918986393,4406.558294669942" />
</g>
<g stroke="rgb(0, 0, 255)">
  <path d="M8966.152577522975,4406.558294669942L8971.606236059562,4406.558294669942" />
</g>
<g stroke="rgb(0, 0, 255)">
  <path d="M8977.059894596145,4406.558294669942L8982.513553132734,4406.558294669942" />
</g>
<g stroke="rgb(0, 0, 255)">
  <path d="M8987.967211669318,4406.558294669942L8993.420870205904,4406.558294669942" />
</g>
<g stroke="rgb(0, 0, 255)">
  <path d="M8998.87452874249,4406.558294669942L9004.328187279076,4406.558294669942" />
</g>
<g stroke="rgb(0, 0, 255)">
  <path d="M9009.78184581566,4406.558294669942L9015.235504352246,4406.558294669942" />
</g>
<g stroke="rgb(0, 0, 255)">
  <path d="M9020.68916288883,4406.558294669942L9026.142821425417,4406.558294669942" />
</g>
<g stroke="rgb(0, 0, 255)">
  <path d="M8813.450138498585,4406.558294669942L8813.450138498585,4402.258294669943" />
</g>
<g stroke="rgb(0, 0, 255)">
  <path d="M8818.903797035175,4406.558294669942L8818.903797035175,4402.258294669943" />
</g>
<g stroke="rgb(0, 0, 255)">
  <path d="M8824.357455571757,4406.558294669942L8824.357455571757,4402.258294669943" />
</g>
<g stroke="rgb(0, 0, 255)">
  <path d="M8829.811114108345,4406.558294669942L8829.811114108345,4402.258294669943" />
</g>
<g stroke="rgb(0, 0, 255)">
  <path d="M8835.264772644927,4406.558294669942L8835.264772644927,4402.258294669943" />
</g>
<g stroke="rgb(0, 0, 255)">
  <path d="M8840.718431181513,4406.558294669942L8840.718431181513,4402.258294669943" />
</g>
<g stroke="rgb(0, 0, 255)">
  <path d="M8846.172089718097,4406.558294669942L8846.172089718097,4402.258294669943" />
</g>
<g stroke="rgb(0, 0, 255)">
  <path d="M8851.625748254683,4406.558294669942L8851.625748254683,4402.258294669943" />
</g>
<g stroke="rgb(0, 0, 255)">
  <path d="M8857.079406791268,4406.558294669942L8857.079406791268,4402.258294669943" />
</g>
<g stroke="rgb(0, 0, 255)">
  <path d="M8862.533065327852,4406.558294669942L8862.533065327852,4402.258294669943" />
</g>
<g stroke="rgb(0, 0, 255)">
  <path d="M8867.986723864442,4406.558294669942L8867.986723864442,4402.258294669943" />
</g>
<g stroke="rgb(0, 0, 255)">
  <path d="M8873.440382401026,4406.558294669942L8873.440382401026,4402.258294669943" />
</g>
<g stroke="rgb(0, 0, 255)">
  <path d="M8878.894040937606,4406.558294669942L8878.894040937606,4402.258294669943" />
</g>
<g stroke="rgb(0, 0, 255)">
  <path d="M8884.347699474196,4406.558294669942L8884.347699474196,4402.258294669943" />
</g>
<g stroke="rgb(0, 0, 255)">
  <path d="M8889.80135801078,4406.558294669942L8889.80135801078,4402.258294669943" />
</g>
<g stroke="rgb(0, 0, 255)">
  <path d="M8895.255016547364,4406.558294669942L8895.255016547364,4402.258294669943" />
</g>
<g stroke="rgb(0, 0, 255)">
  <path d="M8900.708675083953,4406.558294669942L8900.708675083953,4402.258294669943" />
</g>
<g stroke="rgb(0, 0, 255)">
  <path d="M8906.162333620538,4406.558294669942L8906.162333620538,4402.258294669943" />
</g>
<g stroke="rgb(0, 0, 255)">
  <path d="M8911.615992157123,4406.558294669942L8911.615992157123,4402.258294669943" />
</g>
<g stroke="rgb(0, 0, 255)">
  <path d="M8917.069650693707,4406.558294669942L8917.069650693707,4402.258294669943" />
</g>
<g stroke="rgb(0, 0, 255)">
  <path d="M8922.523309230291,4406.558294669942L8922.523309230291,4402.258294669943" />
</g>
<g stroke="rgb(0, 0, 255)">
  <path d="M8927.97696776688,4406.558294669942L8927.97696776688,4402.258294669943" />
</g>
<g stroke="rgb(0, 0, 255)">
  <path d="M8933.430626303463,4406.558294669942L8933.430626303463,4402.258294669943" />
</g>
<g stroke="rgb(0, 0, 255)">
  <path d="M8938.884284840047,4406.558294669942L8938.884284840047,4402.258294669943" />
</g>
<g stroke="rgb(0, 0, 255)">
  <path d="M8944.337943376637,4406.558294669942L8944.337943376637,4402.258294669943" />
</g>
<g stroke="rgb(0, 0, 255)">
  <path d="M8949.791601913224,4406.558294669942L8949.791601913224,4402.258294669943" />
</g>
<g stroke="rgb(0, 0, 255)">
  <path d="M8955.245260449805,4406.558294669942L8955.245260449805,4402.258294669943" />
</g>
<g stroke="rgb(0, 0, 255)">
  <path d="M8960.698918986393,4406.558294669942L8960.698918986393,4402.258294669943" />
</g>
<g stroke="rgb(0, 0, 255)">
  <path d="M8966.152577522975,4406.558294669942L8966.152577522975,4402.258294669943" />
</g>
<g stroke="rgb(0, 0, 255)">
  <path d="M8971.606236059562,4406.558294669942L8971.606236059562,4402.258294669943" />
</g>
<g stroke="rgb(0, 0, 255)">
  <path d="M8977.059894596145,4406.558294669942L8977.059894596145,4402.258294669943" />
</g>
<g stroke="rgb(0, 0, 255)">
  <path d="M8982.513553132734,4406.558294669942L8982.513553132734,4402.258294669943" />
</g>
<g stroke="rgb(0, 0, 255)">
  <path d="M8987.967211669318,4406.558294669942L8987.967211669318,4402.258294669943" />
</g>
<g stroke="rgb(0, 0, 255)">
  <path d="M8993.420870205904,4406.558294669942L8993.420870205904,4402.258294669943" />
</g>
<g stroke="rgb(0, 0, 255)">
  <path d="M8998.87452874249,4406.558294669942L8998.87452874249,4402.258294669943" />
</g>
<g stroke="rgb(0, 0, 255)">
  <path d="M9004.328187279076,4406.558294669942L9004.328187279076,4402.258294669943" />
</g>
<g stroke="rgb(0, 0, 255)">
  <path d="M9009.78184581566,4406.558294669942L9009.78184581566,4402.258294669943" />
</g>
<g stroke="rgb(0, 0, 255)">
  <path d="M9015.235504352246,4406.558294669942L9015.235504352246,4402.258294669943" />
</g>
<g stroke="rgb(0, 0, 255)">
  <path d="M9020.68916288883,4406.558294669942L9020.68916288883,4402.258294669943" />
</g>
<g stroke="rgb(0, 0, 255)">
  <path d="M9026.142821425417,4406.558294669942L9026.142821425417,4402.258294669943" />
</g>
<g stroke="rgb(255, 0, 0)">
  <path d="M8807.996479962,4402.258294669943L8807.996479962,4395.049203760851" />
</g>
<g stroke="rgb(255, 0, 0)">
  <path d="M8807.996479962,4387.84011285176L8807.996479962,4380.63102194267" />
</g>
<g stroke="rgb(255, 0, 0)">
  <path d="M8807.996479962,4373.421931033579L8807.996479962,4366.212840124489" />
</g>
<g stroke="rgb(255, 0, 0)">
  <path d="M8807.996479962,4359.003749215398L8807.996479962,4351.794658306306" />
</g>
<g stroke="rgb(255, 0, 0)">
  <path d="M8807.996479962,4344.585567397215L8807.996479962,4337.376476488123" />
</g>
<g stroke="rgb(255, 0, 0)">
  <path d="M8807.996479962,4330.167385579033L8807.996479962,4322.958294669944" />
</g>
<g stroke="rgb(255, 0, 0)">
  <path d="M8807.996479962,4322.958294669944L9031.596479962001,4322.958294669944" />
</g>
<g stroke="rgb(0, 255, 255)">
  <path d="M8812.296479962,4327.258294669943L9027.296479962,4327.258294669943" />
</g>
<g stroke="rgb(255, 0, 0)">
  <path d="M9031.596479962001,4322.958294669944L9031.596479962001,4330.167385579033" />
</g>
<g stroke="rgb(255, 0, 0)">
  <path d="M9031.596479962001,4337.376476488123L9031.596479962001,4344.585567397215" />
</g>
<g stroke="rgb(255, 0, 0)">
  <path d="M9031.596479962001,4351.794658306306L9031.596479962001,4359.003749215398" />
</g>
<g stroke="rgb(255, 0, 0)">
  <path d="M9031.596479962001,4366.212840124489L9031.596479962001,4373.421931033579" />
</g>
<g stroke="rgb(255, 0, 0)">
  <path d="M9031.596479962001,4380.63102194267L9031.596479962001,4387.84011285176" />
</g>
<g stroke="rgb(255, 0, 0)">
  <path d="M9031.596479962001,4395.049203760851L9031.596479962001,4402.258294669943" />
</g>
<g stroke="rgb(255, 0, 0)">
  <path d="M 8728.696479962002 4451.558294669942 A 10 10 0 1 1 8728.696479962002 4471.558294669942" />
</g>
<g stroke="rgb(255, 0, 0)">
  <path d="M8594.823774731942,4537.155684630049L8601.823774731942,4537.155684630049L8601.823774731942,4322.155684630049L8594.823774731942,4322.155684630049L8594.823774731942,4537.155684630049" />
</g>
<g stroke="rgb(255, 0, 255)">
  <g>
    <path d="M 8670.54119340805 4442.063180577917 C 8671.063347582725 4442.129336746519 8673.011683438357 4442.114288569438 8673.33312118242 4442.043388504354" />
    <path d="M 8673.33312118242 4442.043388504354 C 8673.33312118242 4434.334350013442 8673.33312118242 4426.621477131255 8673.33312118242 4418.911684164434" />
    <path d="M 8673.33312118242 4418.911684164434 C 8672.99699182866 4418.837611166405 8671.579900032142 4418.832185141016 8671.150820279645 4418.90732267355" />
    <path d="M 8671.150820279645 4418.90732267355 C 8671.150820279645 4424.634435627846 8671.150820279645 4430.36861791808 8671.150820279645 4436.102810543599" />
    <path d="M 8671.150820279645 4436.102810543599 C 8671.123049364936 4436.106758623025 8671.095283617875 4436.110706702451 8671.067512703166 4436.114665117163" />
    <path d="M 8671.067512703166 4436.114665117163 C 8670.70035681947 4434.777299720362 8670.366599413954 4433.430849606767 8670.018010872373 4432.088430254889" />
    <path d="M 8670.018010872373 4432.088430254889 C 8669.663841276108 4430.724513507182 8669.30712403173 4429.361258217811 8668.953460864504 4427.997217446666" />
    <path d="M 8668.953460864504 4427.997217446666 C 8668.603523568041 4426.647542723698 8668.256015063895 4425.297237548253 8667.897861214704 4423.910087076595" />
    <path d="M 8667.897861214704 4423.910087076595 C 8666.993316944094 4423.862296712023 8666.09889608657 4423.893715982849 8665.169030364144 4423.889581868267" />
    <path d="M 8665.169030364144 4423.889581868267 C 8664.10414962711 4427.997548175834 8663.045650929456 4432.080875160489 8661.987152231806 4436.164202145146" />
    <path d="M 8661.987152231806 4436.164202145146 C 8661.96190312699 4436.160512447881 8661.936648854538 4436.156833085902 8661.911399749726 4436.15314338864" />
    <path d="M 8661.911399749726 4436.15314338864 C 8661.911399749726 4430.406817136819 8661.911399749726 4424.660501220286 8661.911399749726 4418.895447429413" />
    <path d="M 8661.911399749726 4418.895447429413 C 8661.535732757631 4418.818408204169 8661.185289032133 4418.864751628638 8660.83850399804 4418.856411052469" />
    <path d="M 8660.83850399804 4418.856411052469 C 8660.486484141358 4418.847936117574 8660.13410254965 4418.854540365619 8659.755893077088 4418.854540365619" />
    <path d="M 8659.755893077088 4418.854540365619 C 8659.739356618758 4418.961231527702 8659.720070974234 4419.05297786557 8659.712267832958 4419.145685385077" />
    <path d="M 8659.712267832958 4419.145685385077 C 8659.705188161735 4419.229742269823 8659.710516001905 4419.314863689073 8659.710516001905 4419.399509685145" />
    <path d="M 8659.710516001905 4419.399509685145 C 8659.710510834262 4426.778025715201 8659.710510834262 4434.15653140997 8659.710510834262 4441.535047440026" />
    <path d="M 8659.710510834262 4441.535047440026 C 8659.710510834262 4441.703119868371 8659.710510834262 4441.871192296713 8659.710510834262 4442.031564936648" />
    <path d="M 8659.710510834262 4442.031564936648 C 8660.036041351757 4442.115890538841 8661.917141001353 4442.136561111751 8662.518954396386 4442.063211583775" />
    <path d="M 8662.518954396386 4442.063211583775 C 8663.841090748592 4437.16172265271 8665.144690764542 4432.235935463185 8666.50771350997 4427.314788817279" />
    <path d="M 8666.50771350997 4427.314788817279 C 8667.00829794181 4428.940084959452 8667.431744963193 4430.578114174538 8667.876947762557 4432.209921547177" />
    <path d="M 8667.876947762557 4432.209921547177 C 8668.325726571038 4433.854813392469 8668.762392423792 4435.503022864712 8669.207212817562 4437.148999915083" />
    <path d="M 8669.207212817562 4437.148999915083 C 8669.65141826179 4438.792672196571 8670.099163541625 4440.435372961135 8670.54119340805 4442.063180577917" />
  </g>
</g>
<g stroke="rgb(255, 0, 255)">
  <g>
    <path d="M 8668.487127571978 4373.99303061121 C 8667.53913892475 4373.99303061121 8666.638341195485 4373.99303061121 8665.695985279377 4373.99303061121" />
    <path d="M 8665.695985279377 4373.99303061121 C 8664.12005046532 4379.87937932393 8662.54413115419 4385.765666024934 8660.968217010706 4391.651942390649" />
    <path d="M 8660.968217010706 4391.651942390649 C 8660.851748667634 4391.164230558088 8660.888511281557 4390.680962898705 8660.881943207016 4390.199627937887" />
    <path d="M 8660.881943207016 4390.199627937887 C 8660.875204600246 4389.705983650902 8660.880429087547 4389.212163664045 8660.880423919905 4388.71842635948" />
    <path d="M 8660.880423919905 4388.71842635948 C 8660.880418752262 4388.238796720929 8660.880423919905 4387.759156747091 8660.880423919905 4387.279527108538" />
    <path d="M 8660.880423919905 4387.279527108538 C 8660.880423919905 4386.785789803975 8660.880423919905 4386.292042164126 8660.880423919905 4385.798304859561" />
    <path d="M 8660.880423919905 4385.798304859561 C 8660.880423919905 4385.304567554998 8660.880423919905 4384.810819915145 8660.880423919905 4384.317082610581" />
    <path d="M 8660.880423919905 4384.317082610581 C 8660.880423919905 4383.823345306018 8660.880423919905 4383.329608001454 8660.880423919905 4382.83587069689" />
    <path d="M 8660.880423919905 4382.83587069689 C 8660.880423919905 4382.356241058338 8660.880423919905 4381.876601084499 8660.880423919905 4381.396971445947" />
    <path d="M 8660.880423919905 4381.396971445947 C 8660.880423919905 4380.903234141384 8660.880423919905 4380.409486501533 8660.880423919905 4379.915749196969" />
    <path d="M 8660.880423919905 4379.915749196969 C 8660.880423919905 4379.422011892404 8660.880423919905 4378.928264252555 8660.880423919905 4378.43452694799" />
    <path d="M 8660.880423919905 4378.43452694799 C 8660.880423919905 4377.940789643427 8660.880423919905 4377.447042003576 8660.880423919905 4376.953304699011" />
    <path d="M 8660.880423919905 4376.953304699011 C 8660.880423919905 4376.473675060458 8660.880423919905 4375.99403508662 8660.880423919905 4375.514405448071" />
    <path d="M 8660.880423919905 4375.514405448071 C 8660.880423919905 4375.02301425353 8660.880423919905 4374.531623058991 8660.880423919905 4374.048758475779" />
    <path d="M 8660.880423919905 4374.048758475779 C 8660.551539601953 4373.96792620041 8659.175049978277 4373.948340832575 8658.586910167222 4374.008605887899" />
    <path d="M 8658.586910167222 4374.008605887899 C 8658.577226003816 4374.018868827348 8658.566508311762 4374.028366955602 8658.558167735591 4374.039611747267" />
    <path d="M 8658.558167735591 4374.039611747267 C 8658.550199229732 4374.050370780465 8658.53993112264 4374.062556083198 8658.538902761637 4374.074803397647" />
    <path d="M 8658.538902761637 4374.074803397647 C 8658.533021983643 4374.14492831625 8658.525849294845 4374.21525994058 8658.525864797773 4374.285519217909" />
    <path d="M 8658.525864797773 4374.285519217909 C 8658.527373749595 4381.889044769393 8658.529456309814 4389.492580656162 8658.532851451419 4397.096106207647" />
    <path d="M 8658.532851451419 4397.096106207647 C 8658.532861786702 4397.12158268876 8658.55240064575 4397.147059169873 8658.578259532458 4397.21029045241" />
    <path d="M 8658.578259532458 4397.21029045241 C 8659.530103241534 4397.247332119069 8660.497790944743 4397.225679693942 8661.501238739089 4397.221638596939" />
    <path d="M 8661.501238739089 4397.221638596939 C 8661.913001719126 4395.804794847293 8662.26560035185 4394.386535163403 8662.648362518095 4392.976884773131" />
    <path d="M 8662.648362518095 4392.976884773131 C 8663.036085621841 4391.548992602263 8663.40696220866 4390.11651156421 8663.788137908437 4388.686831388787" />
    <path d="M 8663.788137908437 4388.686831388787 C 8664.16569109031 4387.270752450337 8664.54798300102 4385.855944752125 8664.92617180301 4384.440041513546" />
    <path d="M 8664.92617180301 4384.440041513546 C 8665.303699146665 4383.026608408431 8665.678715015712 4381.612524180269 8666.051544971671 4380.211090342728" />
    <path d="M 8666.051544971671 4380.211090342728 C 8666.094865324854 4380.203958995074 8666.112238941387 4380.195763112915 8666.119654509415 4380.201189138303" />
    <path d="M 8666.119654509415 4380.201189138303 C 8666.129193978815 4380.208155121375 8666.133033537732 4380.225704437775 8666.135224618463 4380.239357351184" />
    <path d="M 8666.135224618463 4380.239357351184 C 8666.139679126925 4380.267045583599 8666.143833912078 4380.295188568619 8666.143849415012 4380.323145518479" />
    <path d="M 8666.143849415012 4380.323145518479 C 8666.146335051402 4385.90940918896 8666.148438282196 4391.495683194725 8666.150980762663 4397.081946865202" />
    <path d="M 8666.150980762663 4397.081946865202 C 8666.150985930308 4397.095568772751 8666.156696176073 4397.109314703738 8666.160509896774 4397.122781581991" />
    <path d="M 8666.160509896774 4397.122781581991 C 8666.16434428805 4397.136341477821 8666.169129525682 4397.149642991489 8666.17349618421 4397.163058193308" />
    <path d="M 8666.17349618421 4397.163058193308 C 8666.49607597742 4397.251218186776 8668.112757658333 4397.255776048103 8668.487127571978 4397.165786708931" />
    <path d="M 8668.487127571978 4397.165786708931 C 8668.487127571978 4389.458236499272 8668.487127571978 4381.746934580625 8668.487127571978 4373.99303061121" />
  </g>
</g>
<g stroke="rgb(255, 0, 255)">
  <g>
    <path d="M 8658.459817149676 4463.747567576076 C 8658.459817149676 4471.492495349206 8658.459817149676 4479.205182196234 8658.459817149676 4486.954306095665" />
    <path d="M 8658.459817149676 4486.954306095665 C 8658.61258301878 4486.961731998984 8658.750156016793 4486.974175683875 8658.887734182448 4486.974242863237" />
    <path d="M 8658.887734182448 4486.974242863237 C 8661.201908172758 4486.975415918251 8663.516076995418 4486.976361596961 8665.830250985726 4486.973850122352" />
    <path d="M 8665.830250985726 4486.973850122352 C 8666.268875375265 4486.973374699174 8666.701102222489 4486.924240747366 8667.120813037813 4486.780714624354" />
    <path d="M 8667.120813037813 4486.780714624354 C 8667.855104134633 4486.529634342841 8668.34610775593 4486.034388086454 8668.568983040706 4485.29879474354" />
    <path d="M 8668.568983040706 4485.29879474354 C 8668.670144824533 4484.964913314587 8668.703279752914 4484.609038396056 8668.750754891245 4484.260883936509" />
    <path d="M 8668.750754891245 4484.260883936509 C 8668.773451180303 4484.094444483424 8668.759059293914 4483.922759872464 8668.759064461556 4483.753447209746" />
    <path d="M 8668.759064461556 4483.753447209746 C 8668.75932801136 4478.151442897995 8668.758609708952 4472.549443753889 8668.760501066374 4466.947439442138" />
    <path d="M 8668.760501066374 4466.947439442138 C 8668.760666430957 4466.466187163613 8668.739494596652 4465.989658110998 8668.609125293298 4465.522441151479" />
    <path d="M 8668.609125293298 4465.522441151479 C 8668.373609953189 4464.678420318356 8667.84356995495 4464.11894542429 8666.996805103272 4463.890163523307" />
    <path d="M 8666.996805103272 4463.890163523307 C 8666.673114266767 4463.80271149696 8666.332085987226 4463.73689639281 8665.998571460945 4463.735149729399" />
    <path d="M 8665.998571460945 4463.735149729399 C 8663.557469817673 4463.722364980053 8661.116264821541 4463.728276763907 8658.675095998908 4463.729072580963" />
    <path d="M 8658.675095998908 4463.729072580963 C 8658.619290619688 4463.729088083894 8658.563485240473 4463.738364003488 8658.459817149676 4463.747567576076" />
  </g>
</g>
<g stroke="rgb(255, 0, 255)">
  <g>
    <path d="M 8661.061270762308 4465.957267323245 C 8661.110869802009 4465.949681222987 8661.164944020746 4465.934229969735 8661.21902857477 4465.934183460945" />
    <path d="M 8661.21902857477 4465.934183460945 C 8662.544539398004 4465.93298973536 8663.870060556532 4465.93218875066 8665.195561044478 4465.935594227548" />
    <path d="M 8665.195561044478 4465.935594227548 C 8665.32112443963 4465.935914621428 8665.448884083153 4465.954280425459 8665.571708627393 4465.981761952145" />
    <path d="M 8665.571708627393 4465.981761952145 C 8665.959829639665 4466.068609364232 8666.093521737614 4466.212461048767 8666.139922006156 4466.610271392092" />
    <path d="M 8666.139922006156 4466.610271392092 C 8666.165987598599 4466.833735788195 8666.177061858036 4467.060166411511 8666.177144540325 4467.285268950517" />
    <path d="M 8666.177144540325 4467.285268950517 C 8666.17911858004 4472.657840238237 8666.179180591758 4478.030416693598 8666.176948169887 4483.402987981318" />
    <path d="M 8666.176948169887 4483.402987981318 C 8666.176849984664 4483.642012151181 8666.165264128545 4483.882741643308 8666.135152271458 4484.119647079448" />
    <path d="M 8666.135152271458 4484.119647079448 C 8666.086281869451 4484.504192082606 8665.922756967146 4484.666223536016 8665.5443459565 4484.726643620636" />
    <path d="M 8665.5443459565 4484.726643620636 C 8665.405641244623 4484.748797307154 8665.263639576362 4484.759328964052 8665.123110686422 4484.759608016786" />
    <path d="M 8665.123110686422 4484.759608016786 C 8663.85400468902 4484.762114323752 8662.58488835633 4484.762093653178 8661.315782358924 4484.759303125836" />
    <path d="M 8661.315782358924 4484.759303125836 C 8661.223235036356 4484.759096420107 8661.130749725507 4484.73135651126 8661.046604990826 4484.717765609571" />
    <path d="M 8661.046604990826 4484.717765609571 C 8660.975580902305 4484.214809229486 8660.990804779254 4466.28053958065 8661.061270762308 4465.957267323245" />
  </g>
</g>
<g stroke="rgb(255, 0, 255)">
  <g>
    <path d="M 8682.142743657427 4385.575062672116 C 8682.142764328 4382.696840423487 8682.14578223165 4379.818597504285 8682.138702560425 4376.940395926228" />
    <path d="M 8682.138702560425 4376.940395926228 C 8682.137875737508 4376.604261404827 8682.114430140186 4376.261171235642 8682.044372400944 4375.933521984422" />
    <path d="M 8682.044372400944 4375.933521984422 C 8681.82800317899 4374.921697440404 8681.193623296336 4374.301197847461 8680.185689987671 4374.081717704287" />
    <path d="M 8680.185689987671 4374.081717704287 C 8679.88504683996 4374.016253999876 8679.571050502145 4373.987976656132 8679.262831589464 4373.985578869674" />
    <path d="M 8679.262831589464 4373.985578869674 C 8677.950782476835 4373.97535727137 8676.638583502558 4373.977093599495 8675.326498216426 4373.984710705612" />
    <path d="M 8675.326498216426 4373.984710705612 C 8675.060250902037 4373.986250663295 8674.79115104859 4374.014538342324 8674.528686449046 4374.060695731635" />
    <path d="M 8674.528686449046 4374.060695731635 C 8673.373883552198 4374.263804781064 8672.667254849575 4374.983688488567 8672.498743171562 4376.135287446611" />
    <path d="M 8672.498743171562 4376.135287446611 C 8672.449903775412 4376.469075857987 8672.423119880563 4376.809251476391 8672.422851163114 4377.146522879303" />
    <path d="M 8672.422851163114 4377.146522879303 C 8672.41832947529 4382.790095713176 8672.418298469429 4388.433678882339 8672.422949348336 4394.077251716214" />
    <path d="M 8672.422949348336 4394.077251716214 C 8672.423223233429 4394.414471442693 8672.450534227884 4394.754802090395 8672.500980761077 4395.088280443175" />
    <path d="M 8672.500980761077 4395.088280443175 C 8672.677662483036 4396.256260830254 8673.452374885184 4397.012886481105 8674.625915656377 4397.173848232368" />
    <path d="M 8674.625915656377 4397.173848232368 C 8674.876665208725 4397.208254400978 8675.131693569663 4397.225069912042 8675.384846076111 4397.226093105401" />
    <path d="M 8675.384846076111 4397.226093105401 C 8676.654629034778 4397.231209072197 8677.92457735803 4397.23843343743 8679.19417428154 4397.22224837884" />
    <path d="M 8679.19417428154 4397.22224837884 C 8679.571660284046 4397.217432135351 8679.957249151143 4397.176194342392 8680.323371506189 4397.086980149707" />
    <path d="M 8680.323371506189 4397.086980149707 C 8681.188114588655 4396.876274664734 8681.746845342097 4396.324442715002 8681.997982467687 4395.464526211309" />
    <path d="M 8681.997982467687 4395.464526211309 C 8682.10988261414 4395.081366136537 8682.144640182492 4394.691818854732 8682.14425260925 4394.294385749363" />
    <path d="M 8682.14425260925 4394.294385749363 C 8682.141425908405 4391.387948168711 8682.142728154498 4388.48150025277 8682.142743657427 4385.575062672116" />
  </g>
</g>
<g stroke="rgb(255, 0, 255)">
  <g>
    <path d="M 8679.607125819522 4385.566174325765 C 8679.607125819522 4388.316021981327 8679.608526250839 4391.065869636889 8679.60451615969 4393.815717292452" />
    <path d="M 8679.60451615969 4393.815717292452 C 8679.604185430526 4394.039476244219 8679.57770125898 4394.264837165386 8679.54396688399 4394.48650838929" />
    <path d="M 8679.54396688399 4394.48650838929 C 8679.500093592986 4394.774769863826 8679.306027919205 4394.927835456236 8679.029843226894 4394.971005947762" />
    <path d="M 8679.029843226894 4394.971005947762 C 8678.849528651745 4394.9992109445 8678.665141973728 4395.011695970539 8678.482470953266 4395.012719163897" />
    <path d="M 8678.482470953266 4395.012719163897 C 8677.692798223969 4395.017153001787 8676.903073818245 4395.017163337073 8676.113395921306 4395.013153245929" />
    <path d="M 8676.113395921306 4395.013153245929 C 8675.930642218555 4395.012223070148 8675.746451910982 4394.999893073407 8675.565667080296 4394.973765469245" />
    <path d="M 8675.565667080296 4394.973765469245 C 8675.268899665003 4394.930884365741 8675.071485358416 4394.763028978413 8675.03272803421 4394.457600593073" />
    <path d="M 8675.03272803421 4394.457600593073 C 8674.997360683958 4394.178888923219 8674.968313361373 4393.897035326285 8674.96812215857 4393.61655632245" />
    <path d="M 8674.96812215857 4393.61655632245 C 8674.964406623089 4388.271983325739 8674.965347134159 4382.927410329028 8674.965574510463 4377.582837332318" />
    <path d="M 8674.965574510463 4377.582837332318 C 8674.965579678106 4377.4559510205 8674.96371932654 4377.328806326521 8674.970793830118 4377.202230073299" />
    <path d="M 8674.970793830118 4377.202230073299 C 8675.016305264027 4376.38756145371 8675.21555925161 4376.193392427066 8676.037049160259 4376.187284272769" />
    <path d="M 8676.037049160259 4376.187284272769 C 8676.883106044812 4376.181000418607 8677.729276617518 4376.182550711575 8678.575333502073 4376.189041271469" />
    <path d="M 8678.575333502073 4376.189041271469 C 8678.742568772213 4376.190322846989 8678.910506841828 4376.223933198542 8679.076367518872 4376.252758312468" />
    <path d="M 8679.076367518872 4376.252758312468 C 8679.344035935146 4376.299267101518 8679.504160528208 4376.467732270747 8679.545780726765 4376.730165864432" />
    <path d="M 8679.545780726765 4376.730165864432 C 8679.580894862498 4376.951527029741 8679.604335292177 4377.177363374086 8679.60465568606 4377.401246349289" />
    <path d="M 8679.60465568606 4377.401246349289 C 8679.608531418477 4380.122889008116 8679.607167160666 4382.844531666939 8679.607125819522 4385.566174325765" />
  </g>
</g>
<g stroke="rgb(255, 0, 255)">
  <g>
    <path d="M 8672.475953864921 4475.358874335867 C 8672.475953864921 4478.180588405801 8672.47292045835 4481.002312811021 8672.479679735688 4483.824011378022" />
    <path d="M 8672.479679735688 4483.824011378022 C 8672.4805530674 4484.188697128258 8672.501218472666 4484.558829574454 8672.56580884537 4484.916854232568" />
    <path d="M 8672.56580884537 4484.916854232568 C 8672.77219934825 4486.060975610861 8673.51705827547 4486.762560693695 8674.66773739302 4486.92085594105" />
    <path d="M 8674.66773739302 4486.92085594105 C 8674.91847661008 4486.955344791954 8675.17355147981 4486.97170038277 8675.426729824472 4486.972713240841" />
    <path d="M 8675.426729824472 4486.972713240841 C 8676.696481777282 4486.977798201779 8677.966316412378 4486.981327702103 8679.236001185825 4486.97062551298" />
    <path d="M 8679.236001185825 4486.97062551298 C 8679.558270920446 4486.96790733264 8679.886648809363 4486.941526513962 8680.20092936755 4486.87370636424" />
    <path d="M 8680.20092936755 4486.87370636424 C 8681.344358281654 4486.626982405968 8682.007847498608 4485.881193302965 8682.143849533082 4484.715822575715" />
    <path d="M 8682.143849533082 4484.715822575715 C 8682.171584274283 4484.47818333424 8682.18585730488 4484.237562362619 8682.185950322457 4483.998310816455" />
    <path d="M 8682.185950322457 4483.998310816455 C 8682.188229253123 4478.227903347195 8682.189877731309 4472.457485542649 8682.182601689645 4466.687088408674" />
    <path d="M 8682.182601689645 4466.687088408674 C 8682.182141769397 4466.323766916253 8682.14282633972 4465.952569935551 8682.061652999899 4465.598782744884" />
    <path d="M 8682.061652999899 4465.598782744884 C 8681.832602381466 4464.600450917334 8681.174642542763 4464.023550730304 8680.186320440145 4463.820767242398" />
    <path d="M 8680.186320440145 4463.820767242398 C 8679.898353521272 4463.761680409731 8679.59932784589 4463.733997344959 8679.305087408138 4463.731925120025" />
    <path d="M 8679.305087408138 4463.731925120025 C 8677.993048630797 4463.722669871004 8676.680916835878 4463.728974395741 8675.368816046817 4463.727263905833" />
    <path d="M 8675.368816046817 4463.727263905833 C 8674.971171068079 4463.726741973866 8674.581758144996 4463.776196319559 8674.200985521393 4463.892225412954" />
    <path d="M 8674.200985521393 4463.892225412954 C 8673.395804694772 4464.137579945769 8672.878094693271 4464.665211822265 8672.634781379533 4465.470423654746" />
    <path d="M 8672.634781379533 4465.470423654746 C 8672.498247077809 4465.922282378591 8672.475514615247 4466.384729603411 8672.475623135759 4466.851398792746" />
    <path d="M 8672.475623135759 4466.851398792746 C 8672.47628459409 4469.687225696335 8672.475953864921 4472.523047432281 8672.475953864921 4475.358874335867" />
  </g>
</g>
<g stroke="rgb(255, 0, 255)">
  <g>
    <path d="M 8675.019757249705 4475.325139960876 C 8675.019757249705 4473.224012397927 8675.019721076202 4471.122879667331 8675.019783087924 4469.02175210438" />
    <path d="M 8675.019783087924 4469.02175210438 C 8675.019803758492 4468.358981189832 8675.013922980503 4467.696117257706 8675.023855190784 4467.033491037169" />
    <path d="M 8675.023855190784 4467.033491037169 C 8675.026991950224 4466.82447537153 8675.062581509133 4466.614157459799 8675.10182975945 4466.407963327364" />
    <path d="M 8675.10182975945 4466.407963327364 C 8675.142483608723 4466.194400135686 8675.284728156214 4466.059080230119 8675.49662219913 4466.0147986953" />
    <path d="M 8675.49662219913 4466.0147986953 C 8675.67496790221 4465.977539987628 8675.857101487778 4465.938085031583 8676.037906989033 4465.936379709318" />
    <path d="M 8676.037906989033 4465.936379709318 C 8676.898019863163 4465.928282012379 8677.758282598958 4465.929289702809 8678.618426478946 4465.9357440892" />
    <path d="M 8678.618426478946 4465.9357440892 C 8678.785604905013 4465.936999826506 8678.953387945336 4465.971721221353 8679.119326137026 4466.00014842675" />
    <path d="M 8679.119326137026 4466.00014842675 C 8679.408662481354 4466.049700957662 8679.558782517126 4466.240588530856 8679.599462204616 4466.517465687362" />
    <path d="M 8679.599462204616 4466.517465687362 C 8679.63009599367 4466.725959421033 8679.65484900473 4466.93766226115 8679.65496269288 4467.147949167024" />
    <path d="M 8679.65496269288 4467.147949167024 C 8679.657903081878 4472.619336128545 8679.657913417166 4478.090728257711 8679.654869675303 4483.562115219235" />
    <path d="M 8679.654869675303 4483.562115219235 C 8679.654755987154 4483.772350448673 8679.62785840415 4483.983753565484 8679.598506190618 4484.192510848958" />
    <path d="M 8679.598506190618 4484.192510848958 C 8679.555950648635 4484.495195215746 8679.36811715259 4484.670719385624 8679.072145554355 4484.718029159374" />
    <path d="M 8679.072145554355 4484.718029159374 C 8678.891960170286 4484.746828435083 8678.7073977924 4484.758574488142 8678.524706101369 4484.759577010927" />
    <path d="M 8678.524706101369 4484.759577010927 C 8677.735043707356 4484.763912663594 8676.945339972204 4484.76287913495 8676.155662075265 4484.76025397219" />
    <path d="M 8676.155662075265 4484.76025397219 C 8676.00088599295 4484.759737207867 8675.84492135269 4484.752941757022 8675.69166455748 4484.732710433784" />
    <path d="M 8675.69166455748 4484.732710433784 C 8675.281183152956 4484.678517359256 8675.119838996097 4484.532670964433 8675.05508325881 4484.12224640399" />
    <path d="M 8675.05508325881 4484.12224640399 C 8675.020175828806 4483.901024765049 8675.021328213246 4483.672723454884 8675.021152513376 4483.44761058059" />
    <path d="M 8675.021152513376 4483.44761058059 C 8675.019085456082 4480.740122096566 8675.019814093781 4478.032628444901 8675.019757249705 4475.325139960876" />
  </g>
</g>
<g stroke="rgb(255, 0, 255)">
  <g>
    <path d="M 8680.37042289778 4418.869340495823 C 8679.52792651941 4418.869340495823 8678.727489589273 4418.869340495823 8677.93597717899 4418.869340495823" />
    <path d="M 8677.93597717899 4418.869340495823 C 8677.91814364221 4418.889607992564 8677.908485317017 4418.899085450244 8677.900651169883 4418.909896159877" />
    <path d="M 8677.900651169883 4418.909896159877 C 8677.892408778935 4418.921264974978 8677.880791916958 4418.93338826599 8677.879525844366 4418.946079997758" />
    <path d="M 8677.879525844366 4418.946079997758 C 8677.872549526011 4419.016029216491 8677.863749029591 4419.086236817384 8677.863754197238 4419.156361735987" />
    <path d="M 8677.863754197238 4419.156361735987 C 8677.864234788058 4426.742368976928 8677.86540784307 4434.328386553157 8677.86774878545 4441.914393794099" />
    <path d="M 8677.86774878545 4441.914393794099 C 8677.867759120738 4441.954711746563 8677.884776169887 4441.99501936374 8677.89323560185 4442.032598465294" />
    <path d="M 8677.89323560185 4442.032598465294 C 8678.186995448781 4442.117389155376 8679.811997035287 4442.137005529069 8680.325397222337 4442.063511307082" />
    <path d="M 8680.325397222337 4442.063511307082 C 8680.335344935549 4442.054467931433 8680.346992803385 4442.046675125447 8680.354770106444 4442.036060786256" />
    <path d="M 8680.354770106444 4442.036060786256 C 8680.362945318027 4442.024867671026 8680.372763840165 4442.010966710741 8680.37277417545 4441.9982543084" />
    <path d="M 8680.37277417545 4441.9982543084 C 8680.379946864252 4434.384837887779 8680.38641675357 4426.771421467157 8680.39195646711 4419.158005046532" />
    <path d="M 8680.39195646711 4419.158005046532 C 8680.39201847883 4419.07502303158 8680.379915858392 4418.99203068134 8680.37042289778 4418.869340495823" />
  </g>
</g>
<g stroke="rgb(255, 0, 0)">
  <path d="M8807.996479962,4528.067385579034L8812.296479962,4528.067385579034" />
</g>
<g stroke="rgb(255, 0, 0)">
  <path d="M8812.296479962,4528.067385579034L8812.296479962,4535.276476488124" />
</g>
<g stroke="rgb(255, 0, 0)">
  <path d="M8812.296479962,4535.276476488124L8807.996479962,4535.276476488124" />
</g>
<g stroke="rgb(255, 0, 0)">
  <path d="M8807.996479962,4542.485567397215L8812.296479962,4542.485567397215" />
</g>
<g stroke="rgb(255, 0, 0)">
  <path d="M8812.296479962,4542.485567397215L8812.296479962,4549.694658306306" />
</g>
<g stroke="rgb(255, 0, 0)">
  <path d="M8812.296479962,4549.694658306306L8807.996479962,4549.694658306306" />
</g>
<g stroke="rgb(255, 0, 0)">
  <path d="M8807.996479962,4556.903749215396L8812.296479962,4556.903749215396" />
</g>
<g stroke="rgb(255, 0, 0)">
  <path d="M8812.296479962,4556.903749215396L8812.296479962,4564.112840124489" />
</g>
<g stroke="rgb(255, 0, 0)">
  <path d="M8812.296479962,4564.112840124489L8807.996479962,4564.112840124489" />
</g>
<g stroke="rgb(255, 0, 0)">
  <path d="M8807.996479962,4571.321931033579L8812.296479962,4571.321931033579" />
</g>
<g stroke="rgb(255, 0, 0)">
  <path d="M8812.296479962,4571.321931033579L8812.296479962,4578.531021942671" />
</g>
<g stroke="rgb(255, 0, 0)">
  <path d="M8812.296479962,4578.531021942671L8807.996479962,4578.531021942671" />
</g>
<g stroke="rgb(255, 0, 0)">
  <path d="M8807.996479962,4585.740112851762L8812.296479962,4585.740112851762" />
</g>
<g stroke="rgb(255, 0, 0)">
  <path d="M8812.296479962,4585.740112851762L8812.296479962,4592.949203760852" />
</g>
<g stroke="rgb(255, 0, 0)">
  <path d="M8812.296479962,4592.949203760852L8807.996479962,4592.949203760852" />
</g>
<g stroke="rgb(255, 0, 0)">
  <path d="M9031.596479962001,4535.276476488124L9031.596479962001,4542.485567397215" />
</g>
<g stroke="rgb(255, 0, 0)">
  <path d="M9031.596479962001,4549.694658306306L9031.596479962001,4556.903749215396" />
</g>
<g stroke="rgb(255, 0, 0)">
  <path d="M9031.596479962001,4564.112840124489L9031.596479962001,4571.321931033579" />
</g>
<g stroke="rgb(255, 0, 0)">
  <path d="M9031.596479962001,4578.531021942671L9031.596479962001,4585.740112851762" />
</g>
<g stroke="rgb(255, 0, 0)">
  <path d="M9031.596479962001,4528.067385579034L9027.296479962,4528.067385579034" />
</g>
<g stroke="rgb(255, 0, 0)">
  <path d="M9027.296479962,4528.067385579034L9027.296479962,4535.276476488124" />
</g>
<g stroke="rgb(255, 0, 0)">
  <path d="M9027.296479962,4535.276476488124L9031.596479962001,4535.276476488124" />
</g>
<g stroke="rgb(255, 0, 0)">
  <path d="M9031.596479962001,4542.485567397215L9027.296479962,4542.485567397215" />
</g>
<g stroke="rgb(255, 0, 0)">
  <path d="M9027.296479962,4542.485567397215L9027.296479962,4549.694658306306" />
</g>
<g stroke="rgb(255, 0, 0)">
  <path d="M9027.296479962,4549.694658306306L9031.596479962001,4549.694658306306" />
</g>
<g stroke="rgb(255, 0, 0)">
  <path d="M9031.596479962001,4556.903749215396L9027.296479962,4556.903749215396" />
</g>
<g stroke="rgb(255, 0, 0)">
  <path d="M9027.296479962,4556.903749215396L9027.296479962,4564.112840124489" />
</g>
<g stroke="rgb(255, 0, 0)">
  <path d="M9027.296479962,4564.112840124489L9031.596479962001,4564.112840124489" />
</g>
<g stroke="rgb(255, 0, 0)">
  <path d="M9031.596479962001,4571.321931033579L9027.296479962,4571.321931033579" />
</g>
<g stroke="rgb(255, 0, 0)">
  <path d="M9027.296479962,4571.321931033579L9027.296479962,4578.531021942671" />
</g>
<g stroke="rgb(255, 0, 0)">
  <path d="M9027.296479962,4578.531021942671L9031.596479962001,4578.531021942671" />
</g>
<g stroke="rgb(255, 0, 0)">
  <path d="M9031.596479962001,4585.740112851762L9027.296479962,4585.740112851762" />
</g>
<g stroke="rgb(255, 0, 0)">
  <path d="M9027.296479962,4585.740112851762L9027.296479962,4592.949203760852" />
</g>
<g stroke="rgb(255, 0, 0)">
  <path d="M9027.296479962,4592.949203760852L9031.596479962001,4592.949203760852" />
</g>
<g stroke="rgb(255, 0, 0)">
  <path d="M8807.996479962,4387.84011285176L8807.996479962,4380.63102194267" />
</g>
<g stroke="rgb(255, 0, 0)">
  <path d="M8807.996479962,4373.421931033579L8807.996479962,4366.212840124489" />
</g>
<g stroke="rgb(255, 0, 0)">
  <path d="M8807.996479962,4359.003749215398L8807.996479962,4351.794658306306" />
</g>
<g stroke="rgb(255, 0, 0)">
  <path d="M8807.996479962,4344.585567397215L8807.996479962,4337.376476488123" />
</g>
<g stroke="rgb(255, 0, 0)">
  <path d="M9031.596479962001,4337.376476488123L9031.596479962001,4344.585567397215" />
</g>
<g stroke="rgb(255, 0, 0)">
  <path d="M9031.596479962001,4351.794658306306L9031.596479962001,4359.003749215398" />
</g>
<g stroke="rgb(255, 0, 0)">
  <path d="M9031.596479962001,4366.212840124489L9031.596479962001,4373.421931033579" />
</g>
<g stroke="rgb(255, 0, 0)">
  <path d="M9031.596479962001,4380.63102194267L9031.596479962001,4387.84011285176" />
</g>
<g stroke="rgb(255, 0, 0)">
  <path d="M8807.996479962,4395.049203760851L8812.296479962,4395.049203760851" />
</g>
<g stroke="rgb(255, 0, 0)">
  <path d="M8812.296479962,4395.049203760851L8812.296479962,4387.84011285176" />
</g>
<g stroke="rgb(255, 0, 0)">
  <path d="M8812.296479962,4387.84011285176L8807.996479962,4387.84011285176" />
</g>
<g stroke="rgb(255, 0, 0)">
  <path d="M8807.996479962,4380.63102194267L8812.296479962,4380.63102194267" />
</g>
<g stroke="rgb(255, 0, 0)">
  <path d="M8812.296479962,4380.63102194267L8812.296479962,4373.421931033579" />
</g>
<g stroke="rgb(255, 0, 0)">
  <path d="M8812.296479962,4373.421931033579L8807.996479962,4373.421931033579" />
</g>
<g stroke="rgb(255, 0, 0)">
  <path d="M8807.996479962,4366.212840124489L8812.296479961997,4366.212840124489" />
</g>
<g stroke="rgb(255, 0, 0)">
  <path d="M8812.296479961997,4366.212840124489L8812.296479961997,4359.003749215398" />
</g>
<g stroke="rgb(255, 0, 0)">
  <path d="M8812.296479961997,4359.003749215398L8807.996479962,4359.003749215398" />
</g>
<g stroke="rgb(255, 0, 0)">
  <path d="M8807.996479962,4351.794658306306L8812.296479961997,4351.794658306306" />
</g>
<g stroke="rgb(255, 0, 0)">
  <path d="M8812.296479961997,4351.794658306306L8812.296479961997,4344.585567397215" />
</g>
<g stroke="rgb(255, 0, 0)">
  <path d="M8812.296479961997,4344.585567397215L8807.996479962,4344.585567397215" />
</g>
<g stroke="rgb(255, 0, 0)">
  <path d="M8807.996479962,4337.376476488123L8812.296479961997,4337.376476488123" />
</g>
<g stroke="rgb(255, 0, 0)">
  <path d="M8812.296479961997,4337.376476488123L8812.296479961997,4330.167385579033" />
</g>
<g stroke="rgb(255, 0, 0)">
  <path d="M8812.296479961997,4330.167385579033L8807.996479962,4330.167385579033" />
</g>
<g stroke="rgb(255, 0, 0)">
  <path d="M9031.596479962001,4387.84011285176L9031.596479962001,4380.63102194267" />
</g>
<g stroke="rgb(255, 0, 0)">
  <path d="M9031.596479962001,4373.421931033579L9031.596479962001,4366.212840124489" />
</g>
<g stroke="rgb(255, 0, 0)">
  <path d="M9031.596479962001,4359.003749215398L9031.596479962001,4351.794658306306" />
</g>
<g stroke="rgb(255, 0, 0)">
  <path d="M9031.596479962001,4344.585567397215L9031.596479962001,4337.376476488123" />
</g>
<g stroke="rgb(255, 0, 0)">
  <path d="M9031.596479962001,4395.049203760851L9027.296479962,4395.049203760851" />
</g>
<g stroke="rgb(255, 0, 0)">
  <path d="M9027.296479962,4395.049203760851L9027.296479962,4387.84011285176" />
</g>
<g stroke="rgb(255, 0, 0)">
  <path d="M9027.296479962,4387.84011285176L9031.596479962001,4387.84011285176" />
</g>
<g stroke="rgb(255, 0, 0)">
  <path d="M9031.596479962001,4380.63102194267L9027.296479962,4380.63102194267" />
</g>
<g stroke="rgb(255, 0, 0)">
  <path d="M9027.296479962,4380.63102194267L9027.296479962,4373.421931033579" />
</g>
<g stroke="rgb(255, 0, 0)">
  <path d="M9027.296479962,4373.421931033579L9031.596479962001,4373.421931033579" />
</g>
<g stroke="rgb(255, 0, 0)">
  <path d="M9031.596479962001,4366.212840124489L9027.296479962,4366.212840124489" />
</g>
<g stroke="rgb(255, 0, 0)">
  <path d="M9027.296479962,4366.212840124489L9027.296479962,4359.003749215398" />
</g>
<g stroke="rgb(255, 0, 0)">
  <path d="M9027.296479962,4359.003749215398L9031.596479962001,4359.003749215398" />
</g>
<g stroke="rgb(255, 0, 0)">
  <path d="M9031.596479962001,4351.794658306306L9027.296479962,4351.794658306306" />
</g>
<g stroke="rgb(255, 0, 0)">
  <path d="M9027.296479962,4351.794658306306L9027.296479962,4344.585567397215" />
</g>
<g stroke="rgb(255, 0, 0)">
  <path d="M9027.296479962,4344.585567397215L9031.596479962001,4344.585567397215" />
</g>
<g stroke="rgb(255, 0, 0)">
  <path d="M9031.596479962001,4337.376476488123L9027.296479962,4337.376476488123" />
</g>
<g stroke="rgb(255, 0, 0)">
  <path d="M9027.296479962,4337.376476488123L9027.296479962,4330.167385579033" />
</g>
<g stroke="rgb(255, 0, 0)">
  <path d="M9027.296479962,4330.167385579033L9031.596479962001,4330.167385579033" />
</g>
<g stroke="rgb(255, 0, 0)">
  <path d="M8807.996479962,4516.558294669942L8800.78738905291,4516.558294669942" />
</g>
<g stroke="rgb(255, 0, 0)">
  <path d="M8793.578298143817,4516.558294669942L8786.369207234728,4516.558294669942" />
</g>
<g stroke="rgb(255, 0, 0)">
  <path d="M8779.160116325638,4516.558294669942L8771.951025416545,4516.558294669942" />
</g>
<g stroke="rgb(255, 0, 0)">
  <path d="M8764.741934507458,4516.558294669942L8757.532843598367,4516.558294669942" />
</g>
<g stroke="rgb(255, 0, 0)">
  <path d="M8750.323752689274,4516.558294669942L8743.11466178018,4516.558294669942" />
</g>
<g stroke="rgb(255, 0, 0)">
  <path d="M8800.78738905291,4516.558294669942L8800.78738905291,4520.858294669943" />
</g>
<g stroke="rgb(255, 0, 0)">
  <path d="M8800.78738905291,4520.858294669943L8793.578298143817,4520.858294669943" />
</g>
<g stroke="rgb(255, 0, 0)">
  <path d="M8793.578298143817,4520.858294669943L8793.578298143817,4516.558294669942" />
</g>
<g stroke="rgb(255, 0, 0)">
  <path d="M8786.369207234728,4516.558294669942L8786.369207234728,4520.858294669943" />
</g>
<g stroke="rgb(255, 0, 0)">
  <path d="M8786.369207234728,4520.858294669943L8779.160116325638,4520.858294669943" />
</g>
<g stroke="rgb(255, 0, 0)">
  <path d="M8779.160116325638,4520.858294669943L8779.160116325638,4516.558294669942" />
</g>
<g stroke="rgb(255, 0, 0)">
  <path d="M8771.951025416545,4516.558294669942L8771.951025416545,4520.858294669943" />
</g>
<g stroke="rgb(255, 0, 0)">
  <path d="M8771.951025416545,4520.858294669943L8764.741934507458,4520.858294669943" />
</g>
<g stroke="rgb(255, 0, 0)">
  <path d="M8764.741934507458,4520.858294669943L8764.741934507458,4516.558294669942" />
</g>
<g stroke="rgb(255, 0, 0)">
  <path d="M8757.532843598367,4516.558294669942L8757.532843598367,4520.858294669943" />
</g>
<g stroke="rgb(255, 0, 0)">
  <path d="M8757.532843598367,4520.858294669943L8750.323752689274,4520.858294669943" />
</g>
<g stroke="rgb(255, 0, 0)">
  <path d="M8750.323752689274,4520.858294669943L8750.323752689274,4516.558294669942" />
</g>
<g stroke="rgb(255, 0, 0)">
  <path d="M8743.11466178018,4516.558294669942L8743.11466178018,4520.858294669943" />
</g>
<g stroke="rgb(255, 0, 0)">
  <path d="M8743.11466178018,4520.858294669943L8735.905570871091,4520.858294669943" />
</g>
<g stroke="rgb(255, 0, 0)">
  <path d="M8735.905570871091,4520.858294669943L8735.905570871091,4516.558294669942" />
</g>
<g stroke="rgb(0, 0, 255)">
  <path d="M9027.296479962,4413.55353276518L9027.296479962,4407.905913717561" />
</g>
<g stroke="rgb(0, 0, 255)">
  <path d="M9027.296479962,4515.210675622324L9027.296479962,4509.563056574704" />
</g>
<g stroke="rgb(0, 0, 255)">
  <path d="M9027.296479962,4503.915437527085L9027.296479962,4498.267818479468" />
</g>
<g stroke="rgb(0, 0, 255)">
  <path d="M9027.296479962,4492.620199431847L9027.296479962,4486.972580384229" />
</g>
<g stroke="rgb(0, 0, 255)">
  <path d="M9027.296479962,4481.324961336609L9027.296479962,4475.67734228899" />
</g>
<g stroke="rgb(0, 0, 255)">
  <path d="M9027.296479962,4470.029723241371L9027.296479962,4464.382104193751" />
</g>
<g stroke="rgb(0, 0, 255)">
  <path d="M9027.296479962,4458.734485146133L9027.296479962,4453.086866098515" />
</g>
<g stroke="rgb(0, 0, 255)">
  <path d="M9027.296479962,4447.439247050894L9027.296479962,4441.791628003275" />
</g>
<g stroke="rgb(0, 0, 255)">
  <path d="M9027.296479962,4436.144008955657L9027.296479962,4430.496389908039" />
</g>
<g stroke="rgb(0, 0, 255)">
  <path d="M9027.296479962,4424.84877086042L9027.296479962,4419.201151812801" />
</g>
<g stroke="rgb(255, 0, 0)">
  <path d="M8735.905570871091,4516.558294669942L8728.696479962002,4516.558294669942" />
</g>
<g stroke="rgb(255, 0, 0)">
  <path d="M8807.996479962,4406.558294669942L8800.78738905291,4406.558294669942" />
</g>
<g stroke="rgb(255, 0, 0)">
  <path d="M8793.578298143817,4406.558294669942L8786.369207234728,4406.558294669942" />
</g>
<g stroke="rgb(255, 0, 0)">
  <path d="M8779.160116325638,4406.558294669942L8771.951025416545,4406.558294669942" />
</g>
<g stroke="rgb(255, 0, 0)">
  <path d="M8764.741934507458,4406.558294669942L8757.532843598367,4406.558294669942" />
</g>
<g stroke="rgb(255, 0, 0)">
  <path d="M8750.323752689274,4406.558294669942L8743.11466178018,4406.558294669942" />
</g>
<g stroke="rgb(255, 0, 0)">
  <path d="M8800.78738905291,4406.558294669942L8800.78738905291,4402.258294669943" />
</g>
<g stroke="rgb(255, 0, 0)">
  <path d="M8800.78738905291,4402.258294669943L8793.578298143817,4402.258294669943" />
</g>
<g stroke="rgb(255, 0, 0)">
  <path d="M8793.578298143817,4402.258294669943L8793.578298143817,4406.558294669942" />
</g>
<g stroke="rgb(255, 0, 0)">
  <path d="M8786.369207234728,4406.558294669942L8786.369207234728,4402.258294669943" />
</g>
<g stroke="rgb(255, 0, 0)">
  <path d="M8786.369207234728,4402.258294669943L8779.160116325638,4402.258294669943" />
</g>
<g stroke="rgb(255, 0, 0)">
  <path d="M8779.160116325638,4402.258294669943L8779.160116325638,4406.558294669942" />
</g>
<g stroke="rgb(255, 0, 0)">
  <path d="M8771.951025416545,4406.558294669942L8771.951025416545,4402.258294669943" />
</g>
<g stroke="rgb(255, 0, 0)">
  <path d="M8771.951025416545,4402.258294669943L8764.741934507458,4402.258294669943" />
</g>
<g stroke="rgb(255, 0, 0)">
  <path d="M8764.741934507458,4402.258294669943L8764.741934507458,4406.558294669942" />
</g>
<g stroke="rgb(255, 0, 0)">
  <path d="M8757.532843598367,4406.558294669942L8757.532843598367,4402.258294669943" />
</g>
<g stroke="rgb(255, 0, 0)">
  <path d="M8757.532843598367,4402.258294669943L8750.323752689274,4402.258294669943" />
</g>
<g stroke="rgb(255, 0, 0)">
  <path d="M8750.323752689274,4402.258294669943L8750.323752689274,4406.558294669942" />
</g>
<g stroke="rgb(255, 0, 0)">
  <path d="M8743.11466178018,4406.558294669942L8743.11466178018,4402.258294669943" />
</g>
<g stroke="rgb(255, 0, 0)">
  <path d="M8743.11466178018,4402.258294669943L8735.905570871091,4402.258294669943" />
</g>
<g stroke="rgb(255, 0, 0)">
  <path d="M8735.905570871091,4402.258294669943L8735.905570871091,4406.558294669942" />
</g>
<g stroke="rgb(255, 0, 0)">
  <path d="M8735.905570871091,4406.558294669942L8728.696479962002,4406.558294669942" />
</g>
<g stroke="rgb(255, 0, 0)">
  <path d="M9110.896479962,4516.558294669942L9110.896479962,4471.558294669942" />
</g>
<g stroke="rgb(255, 0, 0)">
  <path d="M9110.896479962,4451.558294669943L9110.896479962,4406.558294669942" />
</g>
<g stroke="rgb(255, 0, 0)">
  <path d="M 9110.896479962 4471.558294669942 A 10 10 0 1 1 9110.896479962 4451.558294669942" />
</g>
<g stroke="rgb(255, 0, 0)">
  <path d="M9031.596479962001,4516.558294669942L9038.805570871089,4516.558294669942" />
</g>
<g stroke="rgb(255, 0, 0)">
  <path d="M9046.014661780184,4516.558294669942L9053.223752689273,4516.558294669942" />
</g>
<g stroke="rgb(255, 0, 0)">
  <path d="M9060.43284359836,4516.558294669942L9067.641934507454,4516.558294669942" />
</g>
<g stroke="rgb(255, 0, 0)">
  <path d="M9074.851025416547,4516.558294669942L9082.06011632564,4516.558294669942" />
</g>
<g stroke="rgb(255, 0, 0)">
  <path d="M9089.269207234727,4516.558294669942L9096.47829814382,4516.558294669942" />
</g>
<g stroke="rgb(255, 0, 0)">
  <path d="M9038.805570871089,4516.558294669942L9038.805570871089,4520.858294669943" />
</g>
<g stroke="rgb(255, 0, 0)">
  <path d="M9038.805570871089,4520.858294669943L9046.014661780184,4520.858294669943" />
</g>
<g stroke="rgb(255, 0, 0)">
  <path d="M9046.014661780184,4520.858294669943L9046.014661780184,4516.558294669942" />
</g>
<g stroke="rgb(255, 0, 0)">
  <path d="M9053.223752689273,4516.558294669942L9053.223752689273,4520.858294669943" />
</g>
<g stroke="rgb(255, 0, 0)">
  <path d="M9053.223752689273,4520.858294669943L9060.43284359836,4520.858294669943" />
</g>
<g stroke="rgb(255, 0, 0)">
  <path d="M9060.43284359836,4520.858294669943L9060.43284359836,4516.558294669942" />
</g>
<g stroke="rgb(255, 0, 0)">
  <path d="M9067.641934507454,4516.558294669942L9067.641934507454,4520.858294669943" />
</g>
<g stroke="rgb(255, 0, 0)">
  <path d="M9067.641934507454,4520.858294669943L9074.851025416547,4520.858294669943" />
</g>
<g stroke="rgb(255, 0, 0)">
  <path d="M9074.851025416547,4520.858294669943L9074.851025416547,4516.558294669942" />
</g>
<g stroke="rgb(255, 0, 0)">
  <path d="M9082.06011632564,4516.558294669942L9082.06011632564,4520.858294669943" />
</g>
<g stroke="rgb(255, 0, 0)">
  <path d="M9082.06011632564,4520.858294669943L9089.269207234727,4520.858294669943" />
</g>
<g stroke="rgb(255, 0, 0)">
  <path d="M9089.269207234727,4520.858294669943L9089.269207234727,4516.558294669942" />
</g>
<g stroke="rgb(255, 0, 0)">
  <path d="M9096.47829814382,4516.558294669942L9096.47829814382,4520.858294669943" />
</g>
<g stroke="rgb(255, 0, 0)">
  <path d="M9096.47829814382,4520.858294669943L9103.68738905291,4520.858294669943" />
</g>
<g stroke="rgb(255, 0, 0)">
  <path d="M9103.68738905291,4520.858294669943L9103.68738905291,4516.558294669942" />
</g>
<g stroke="rgb(255, 0, 0)">
  <path d="M9103.68738905291,4516.558294669942L9110.896479962,4516.558294669942" />
</g>
<g stroke="rgb(255, 0, 0)">
  <path d="M9031.596479962001,4406.558294669942L9038.805570871089,4406.558294669942" />
</g>
<g stroke="rgb(255, 0, 0)">
  <path d="M9046.014661780184,4406.558294669942L9053.223752689273,4406.558294669942" />
</g>
<g stroke="rgb(255, 0, 0)">
  <path d="M9060.43284359836,4406.558294669942L9067.641934507454,4406.558294669942" />
</g>
<g stroke="rgb(255, 0, 0)">
  <path d="M9074.851025416547,4406.558294669942L9082.06011632564,4406.558294669942" />
</g>
<g stroke="rgb(255, 0, 0)">
  <path d="M9089.269207234727,4406.558294669942L9096.47829814382,4406.558294669942" />
</g>
<g stroke="rgb(255, 0, 0)">
  <path d="M9038.805570871089,4406.558294669942L9038.805570871089,4402.258294669943" />
</g>
<g stroke="rgb(255, 0, 0)">
  <path d="M9038.805570871089,4402.258294669943L9046.014661780184,4402.258294669943" />
</g>
<g stroke="rgb(255, 0, 0)">
  <path d="M9046.014661780184,4402.258294669943L9046.014661780184,4406.558294669942" />
</g>
<g stroke="rgb(255, 0, 0)">
  <path d="M9053.223752689273,4406.558294669942L9053.223752689273,4402.258294669943" />
</g>
<g stroke="rgb(255, 0, 0)">
  <path d="M9053.223752689273,4402.258294669943L9060.43284359836,4402.258294669943" />
</g>
<g stroke="rgb(255, 0, 0)">
  <path d="M9060.43284359836,4402.258294669943L9060.43284359836,4406.558294669942" />
</g>
<g stroke="rgb(255, 0, 0)">
  <path d="M9067.641934507454,4406.558294669942L9067.641934507454,4402.258294669943" />
</g>
<g stroke="rgb(255, 0, 0)">
  <path d="M9067.641934507454,4402.258294669943L9074.851025416547,4402.258294669943" />
</g>
<g stroke="rgb(255, 0, 0)">
  <path d="M9074.851025416547,4402.258294669943L9074.851025416547,4406.558294669942" />
</g>
<g stroke="rgb(255, 0, 0)">
  <path d="M9082.06011632564,4406.558294669942L9082.06011632564,4402.258294669943" />
</g>
<g stroke="rgb(255, 0, 0)">
  <path d="M9082.06011632564,4402.258294669943L9089.269207234727,4402.258294669943" />
</g>
<g stroke="rgb(255, 0, 0)">
  <path d="M9089.269207234727,4402.258294669943L9089.269207234727,4406.558294669942" />
</g>
<g stroke="rgb(255, 0, 0)">
  <path d="M9096.47829814382,4406.558294669942L9096.47829814382,4402.258294669943" />
</g>
<g stroke="rgb(255, 0, 0)">
  <path d="M9096.47829814382,4402.258294669943L9103.68738905291,4402.258294669943" />
</g>
<g stroke="rgb(255, 0, 0)">
  <path d="M9103.68738905291,4402.258294669943L9103.68738905291,4406.558294669942" />
</g>
<g stroke="rgb(255, 0, 0)">
  <path d="M9103.68738905291,4406.558294669942L9110.896479962,4406.558294669942" />
</g>
<g stroke="rgb(0, 0, 0)">
  <path d="M8559.317236769755,4758.001724019825L9143.136722235839,4758.001724019825L9143.136722235839,4295.013647843858L8559.317236769755,4295.013647843858L8559.317236769755,4758.001724019825" />
</g>
<g stroke="rgb(255, 0, 0)">
  <path d="M8595.65349841983,4702.503766225129L8602.786033806124,4702.900018191033L8602.423949785072,4550.900505268287L8595.423949785072,4550.900505268287L8595.65349841983,4702.503766225129" />
</g>
<g stroke="rgb(255, 0, 255)">
  <g>
    <path d="M 8620.72102743343 4676.171016190601 C 8620.72102743343 4683.915943963731 8620.72102743343 4691.628630810759 8620.72102743343 4699.37775471019" />
    <path d="M 8620.72102743343 4699.37775471019 C 8620.873793302533 4699.385180613509 8621.011366300547 4699.3976242984 8621.148944466202 4699.397691477762" />
    <path d="M 8621.148944466202 4699.397691477762 C 8623.463118456511 4699.398864532776 8625.777287279172 4699.399810211487 8628.09146126948 4699.397298736877" />
    <path d="M 8628.09146126948 4699.397298736877 C 8628.530085659018 4699.396823313699 8628.962312506243 4699.347689361891 8629.382023321567 4699.204163238879" />
    <path d="M 8629.382023321567 4699.204163238879 C 8630.116314418387 4698.953082957366 8630.607318039683 4698.457836700979 8630.83019332446 4697.722243358065" />
    <path d="M 8630.83019332446 4697.722243358065 C 8630.931355108287 4697.388361929112 8630.964490036667 4697.032487010581 8631.011965175 4696.684332551034" />
    <path d="M 8631.011965175 4696.684332551034 C 8631.034661464057 4696.517893097949 8631.020269577668 4696.346208486989 8631.02027474531 4696.176895824271" />
    <path d="M 8631.02027474531 4696.176895824271 C 8631.020538295114 4690.57489151252 8631.019819992705 4684.972892368414 8631.021711350128 4679.370888056663" />
    <path d="M 8631.021711350128 4679.370888056663 C 8631.02187671471 4678.889635778138 8631.000704880405 4678.413106725523 8630.870335577052 4677.945889766004" />
    <path d="M 8630.870335577052 4677.945889766004 C 8630.634820236943 4677.101868932881 8630.104780238704 4676.542394038815 8629.258015387026 4676.313612137832" />
    <path d="M 8629.258015387026 4676.313612137832 C 8628.93432455052 4676.226160111485 8628.59329627098 4676.160345007335 8628.259781744699 4676.158598343924" />
    <path d="M 8628.259781744699 4676.158598343924 C 8625.818680101427 4676.145813594578 8623.377475105295 4676.151725378432 8620.936306282661 4676.152521195488" />
    <path d="M 8620.936306282661 4676.152521195488 C 8620.880500903442 4676.152536698419 8620.824695524227 4676.161812618013 8620.72102743343 4676.171016190601" />
  </g>
</g>
<g stroke="rgb(255, 0, 255)">
  <g>
    <path d="M 8623.322481046062 4678.38071593777 C 8623.372080085763 4678.373129837512 8623.4261543045 4678.35767858426 8623.480238858523 4678.35763207547" />
    <path d="M 8623.480238858523 4678.35763207547 C 8624.805749681758 4678.356438349885 8626.131270840286 4678.355637365185 8627.456771328232 4678.359042842073" />
    <path d="M 8627.456771328232 4678.359042842073 C 8627.582334723384 4678.359363235953 8627.710094366907 4678.377729039984 8627.832918911146 4678.40521056667" />
    <path d="M 8627.832918911146 4678.40521056667 C 8628.221039923419 4678.492057978757 8628.354732021367 4678.635909663292 8628.40113228991 4679.033720006617" />
    <path d="M 8628.40113228991 4679.033720006617 C 8628.427197882353 4679.25718440272 8628.43827214179 4679.483615026036 8628.438354824078 4679.708717565042" />
    <path d="M 8628.438354824078 4679.708717565042 C 8628.440328863793 4685.081288852763 8628.440390875512 4690.453865308124 8628.43815845364 4695.826436595843" />
    <path d="M 8628.43815845364 4695.826436595843 C 8628.438060268418 4696.065460765706 8628.4264744123 4696.306190257833 8628.396362555211 4696.543095693974" />
    <path d="M 8628.396362555211 4696.543095693974 C 8628.347492153205 4696.927640697131 8628.1839672509 4697.089672150541 8627.805556240253 4697.150092235162" />
    <path d="M 8627.805556240253 4697.150092235162 C 8627.666851528376 4697.172245921679 8627.524849860116 4697.182777578577 8627.384320970175 4697.183056631311" />
    <path d="M 8627.384320970175 4697.183056631311 C 8626.115214972773 4697.185562938277 8624.846098640084 4697.185542267704 8623.576992642678 4697.182751740361" />
    <path d="M 8623.576992642678 4697.182751740361 C 8623.48444532011 4697.182545034632 8623.391960009261 4697.154805125785 8623.30781527458 4697.141214224096" />
    <path d="M 8623.30781527458 4697.141214224096 C 8623.236791186058 4696.638257844011 8623.252015063008 4678.703988195175 8623.322481046062 4678.38071593777" />
  </g>
</g>
  </g>
</svg>