<?xml version="1.0"?>
<svg
  xmlns="http://www.w3.org/2000/svg"
  xmlns:xlink="http://www.w3.org/1999/xlink" version="1.1"
  preserveAspectRatio="xMinYMin meet"
  viewBox="-548.9011827403017 -2061.084896776979 1300.0000102305562 1501.190674864311"
  width="100%" height="100%"
>
  <g stroke="#000000" stroke-width="0.1%" fill="none" transform="matrix(1,0,0,-1,0,0)">
    <g stroke="rgb(255, 0, 0)">
  <path d="M234.2043826194778,1171.668231166L344.2043742586443,1171.668231166L344.2043742586443,1386.668224445583L234.2043826194778,1386.668224445583L234.2043826194778,1171.668231166" />
</g>
<g stroke="rgb(255, 0, 0)">
  <path d="M211.4298959585047,1386.668224445583L218.4298890123105,1386.668224445583L218.4298890123105,1171.668231166L211.4298959585047,1171.668231166L211.4298959585047,1386.668224445583" />
</g>
<g stroke="rgb(255, 0, 0)">
  <path d="M223.6765765109986,1386.668224445583L230.676604842582,1386.668224445583L230.676604842582,1171.668231166L223.6765765109986,1171.668231166L223.6765765109986,1386.668224445583" />
</g>
<g stroke="rgb(255, 0, 0)">
  <path d="M656.9154864026887,1358.273000008237L656.9154864026887,1363.92061945127" />
</g>
<g stroke="rgb(255, 0, 0)">
  <path d="M656.9154864026887,1256.615850033652L656.9154864026887,1262.263469476685" />
</g>
<g stroke="rgb(255, 0, 0)">
  <path d="M656.9154864026887,1267.911088919717L656.9154864026887,1273.55870836275" />
</g>
<g stroke="rgb(255, 0, 0)">
  <path d="M656.9154864026887,1279.206327805782L656.9154864026887,1284.853947248815" />
</g>
<g stroke="rgb(255, 0, 0)">
  <path d="M656.9154864026887,1290.501566691847L656.9154864026887,1296.14918613488" />
</g>
<g stroke="rgb(255, 0, 0)">
  <path d="M656.9154864026887,1301.796805577912L656.9154864026887,1307.444425020945" />
</g>
<g stroke="rgb(255, 0, 0)">
  <path d="M656.9154864026887,1313.092044463977L656.9154864026887,1318.73966390701" />
</g>
<g stroke="rgb(255, 0, 0)">
  <path d="M656.9154864026887,1324.387283350043L656.9154864026887,1330.034902793075" />
</g>
<g stroke="rgb(255, 0, 0)">
  <path d="M656.9154864026887,1335.682522236108L656.9154864026887,1341.330141679141" />
</g>
<g stroke="rgb(255, 0, 0)">
  <path d="M656.9154864026887,1346.977761122172L656.9154864026887,1352.625380565205" />
</g>
<g stroke="rgb(255, 0, 0)">
  <path d="M437.6154847908475,1250.96823059062L443.0691470117061,1250.96823059062" />
</g>
<g stroke="rgb(255, 0, 0)">
  <path d="M448.5228092325647,1250.96823059062L453.9764714534239,1250.96823059062" />
</g>
<g stroke="rgb(255, 0, 0)">
  <path d="M459.4300983965049,1250.96823059062L464.8837606173635,1250.96823059062" />
</g>
<g stroke="rgb(255, 0, 0)">
  <path d="M470.337422838222,1250.96823059062L475.7910850590812,1250.96823059062" />
</g>
<g stroke="rgb(255, 0, 0)">
  <path d="M481.2447472799398,1250.96823059062L486.6984095007984,1250.96823059062" />
</g>
<g stroke="rgb(255, 0, 0)">
  <path d="M492.1520717216576,1250.96823059062L497.6057339425162,1250.96823059062" />
</g>
<g stroke="rgb(255, 0, 0)">
  <path d="M503.0593961633747,1250.96823059062L508.5130231064558,1250.96823059062" />
</g>
<g stroke="rgb(255, 0, 0)">
  <path d="M513.966685327315,1250.96823059062L519.4203475481736,1250.96823059062" />
</g>
<g stroke="rgb(255, 0, 0)">
  <path d="M524.8740097690321,1250.96823059062L530.3276719898913,1250.96823059062" />
</g>
<g stroke="rgb(255, 0, 0)">
  <path d="M535.78133421075,1250.96823059062L541.2349964316085,1250.96823059062" />
</g>
<g stroke="rgb(255, 0, 0)">
  <path d="M546.6886586524677,1250.96823059062L552.142320873327,1250.96823059062" />
</g>
<g stroke="rgb(255, 0, 0)">
  <path d="M557.5959830941855,1250.96823059062L563.0496100372666,1250.96823059062" />
</g>
<g stroke="rgb(255, 0, 0)">
  <path d="M568.5032722581251,1250.96823059062L573.9569344789843,1250.96823059062" />
</g>
<g stroke="rgb(255, 0, 0)">
  <path d="M579.4105966998429,1250.96823059062L584.8642589207014,1250.96823059062" />
</g>
<g stroke="rgb(255, 0, 0)">
  <path d="M590.3179211415606,1250.96823059062L595.7715833624193,1250.96823059062" />
</g>
<g stroke="rgb(255, 0, 0)">
  <path d="M601.2252455832778,1250.96823059062L606.678907804137,1250.96823059062" />
</g>
<g stroke="rgb(255, 0, 0)">
  <path d="M612.1325700249956,1250.96823059062L617.5861969680767,1250.96823059062" />
</g>
<g stroke="rgb(255, 0, 0)">
  <path d="M623.0398591889352,1250.96823059062L628.4935214097944,1250.96823059062" />
</g>
<g stroke="rgb(255, 0, 0)">
  <path d="M633.947183630653,1250.96823059062L639.4008458515116,1250.96823059062" />
</g>
<g stroke="rgb(255, 0, 0)">
  <path d="M644.8545080723708,1250.96823059062L650.3081702932293,1250.96823059062" />
</g>
<g stroke="rgb(255, 0, 0)">
  <path d="M655.7618325140879,1250.96823059062L661.2154947349471,1250.96823059062" />
</g>
<g stroke="rgb(255, 0, 0)">
  <path d="M661.2154947349471,1250.96823059062L661.2154947349471,1256.615850033652" />
</g>
<g stroke="rgb(255, 0, 0)">
  <path d="M661.2154947349471,1262.263469476685L661.2154947349471,1267.911088919717" />
</g>
<g stroke="rgb(255, 0, 0)">
  <path d="M661.2154947349471,1273.55870836275L661.2154947349471,1279.206327805782" />
</g>
<g stroke="rgb(255, 0, 0)">
  <path d="M661.2154947349471,1284.853947248815L661.2154947349471,1290.501566691847" />
</g>
<g stroke="rgb(255, 0, 0)">
  <path d="M661.2154947349471,1296.14918613488L661.2154947349471,1301.796805577912" />
</g>
<g stroke="rgb(255, 0, 0)">
  <path d="M661.2154947349471,1307.444425020945L661.2154947349471,1313.092044463977" />
</g>
<g stroke="rgb(255, 0, 0)">
  <path d="M661.2154947349471,1318.73966390701L661.2154947349471,1324.387283350043" />
</g>
<g stroke="rgb(255, 0, 0)">
  <path d="M661.2154947349471,1330.034902793075L661.2154947349471,1335.682522236108" />
</g>
<g stroke="rgb(255, 0, 0)">
  <path d="M661.2154947349471,1341.330141679141L661.2154947349471,1346.977761122172" />
</g>
<g stroke="rgb(255, 0, 0)">
  <path d="M661.2154947349471,1352.625380565205L661.2154947349471,1358.273000008237" />
</g>
<g stroke="rgb(255, 0, 0)">
  <path d="M661.2154947349471,1363.92061945127L661.2154947349471,1369.568238894303" />
</g>
<g stroke="rgb(255, 0, 0)">
  <path d="M661.2154947349471,1250.96823059062L661.2154947349471,1243.759146147978" />
</g>
<g stroke="rgb(255, 0, 0)">
  <path d="M661.2154947349471,1236.550061705335L661.2154947349471,1229.340977262693" />
</g>
<g stroke="rgb(255, 0, 0)">
  <path d="M661.2154947349471,1222.131857542273L661.2154947349471,1214.922773099631" />
</g>
<g stroke="rgb(255, 0, 0)">
  <path d="M661.2154947349471,1207.713688656989L661.2154947349471,1200.504604214347" />
</g>
<g stroke="rgb(255, 0, 0)">
  <path d="M661.2154947349471,1193.295519771704L661.2154947349471,1186.086435329062" />
</g>
<g stroke="rgb(255, 0, 0)">
  <path d="M661.2154947349471,1178.877315608642L661.2154947349471,1171.668231166" />
</g>
<g stroke="rgb(255, 0, 0)">
  <path d="M661.2154947349471,1171.668231166L437.6154847908475,1171.668231166" />
</g>
<g stroke="rgb(255, 0, 0)">
  <path d="M437.6154847908475,1171.668231166L437.6154847908475,1178.877315608642" />
</g>
<g stroke="rgb(255, 0, 0)">
  <path d="M437.6154847908475,1186.086435329062L437.6154847908475,1193.295519771704" />
</g>
<g stroke="rgb(255, 0, 0)">
  <path d="M437.6154847908475,1200.504604214347L437.6154847908475,1207.713688656989" />
</g>
<g stroke="rgb(255, 0, 0)">
  <path d="M437.6154847908475,1214.922773099631L437.6154847908475,1222.131857542273" />
</g>
<g stroke="rgb(255, 0, 0)">
  <path d="M437.6154847908475,1229.340977262693L437.6154847908475,1236.550061705335" />
</g>
<g stroke="rgb(255, 0, 0)">
  <path d="M437.6154847908475,1243.759146147978L437.6154847908475,1250.96823059062" />
</g>
<g stroke="rgb(255, 0, 0)">
  <path d="M740.515494159567,1255.268238922878L740.515494159567,1300.268219467183" />
</g>
<g stroke="rgb(255, 0, 0)">
  <path d="M740.515494159567,1320.268250017739L740.515494159567,1365.268230562045" />
</g>
<g stroke="rgb(255, 0, 0)">
  <path d="M655.7618325140879,1255.268238922878L650.3081702932293,1255.268238922878" />
</g>
<g stroke="rgb(255, 0, 0)">
  <path d="M644.8545080723708,1255.268238922878L639.4008458515116,1255.268238922878" />
</g>
<g stroke="rgb(255, 0, 0)">
  <path d="M633.947183630653,1255.268238922878L628.4935214097944,1255.268238922878" />
</g>
<g stroke="rgb(255, 0, 0)">
  <path d="M623.0398591889352,1255.268238922878L617.5861969680767,1255.268238922878" />
</g>
<g stroke="rgb(255, 0, 0)">
  <path d="M612.1325700249956,1255.268238922878L606.678907804137,1255.268238922878" />
</g>
<g stroke="rgb(255, 0, 0)">
  <path d="M601.2252455832778,1255.268238922878L595.7715833624193,1255.268238922878" />
</g>
<g stroke="rgb(255, 0, 0)">
  <path d="M590.3179211415606,1255.268238922878L584.8642589207014,1255.268238922878" />
</g>
<g stroke="rgb(255, 0, 0)">
  <path d="M579.4105966998429,1255.268238922878L573.9569344789843,1255.268238922878" />
</g>
<g stroke="rgb(255, 0, 0)">
  <path d="M568.5032722581251,1255.268238922878L563.0496100372666,1255.268238922878" />
</g>
<g stroke="rgb(255, 0, 0)">
  <path d="M557.5959830941855,1255.268238922878L552.142320873327,1255.268238922878" />
</g>
<g stroke="rgb(255, 0, 0)">
  <path d="M546.6886586524677,1255.268238922878L541.2349964316085,1255.268238922878" />
</g>
<g stroke="rgb(255, 0, 0)">
  <path d="M535.78133421075,1255.268238922878L530.3276719898913,1255.268238922878" />
</g>
<g stroke="rgb(255, 0, 0)">
  <path d="M524.8740097690321,1255.268238922878L519.4203475481736,1255.268238922878" />
</g>
<g stroke="rgb(255, 0, 0)">
  <path d="M513.966685327315,1255.268238922878L508.5130231064558,1255.268238922878" />
</g>
<g stroke="rgb(255, 0, 0)">
  <path d="M503.0593961633747,1255.268238922878L497.6057339425162,1255.268238922878" />
</g>
<g stroke="rgb(255, 0, 0)">
  <path d="M492.1520717216576,1255.268238922878L486.6984095007984,1255.268238922878" />
</g>
<g stroke="rgb(255, 0, 0)">
  <path d="M481.2447472799398,1255.268238922878L475.7910850590812,1255.268238922878" />
</g>
<g stroke="rgb(255, 0, 0)">
  <path d="M470.337422838222,1255.268238922878L464.8837606173635,1255.268238922878" />
</g>
<g stroke="rgb(255, 0, 0)">
  <path d="M459.4300983965049,1255.268238922878L453.9764714534239,1255.268238922878" />
</g>
<g stroke="rgb(255, 0, 0)">
  <path d="M448.5228092325647,1255.268238922878L443.0691470117061,1255.268238922878" />
</g>
<g stroke="rgb(255, 0, 0)">
  <path d="M661.2154947349471,1255.462196145051L661.2154947349471,1255.462196145051" />
</g>
<g stroke="rgb(255, 0, 0)">
  <path d="M661.2154947349471,1267.911088919717L661.2154947349471,1267.911088919717" />
</g>
<g stroke="rgb(255, 0, 0)">
  <path d="M661.2154947349471,1273.55870836275L661.2154947349471,1273.55870836275" />
</g>
<g stroke="rgb(255, 0, 0)">
  <path d="M661.2154947349471,1279.206327805782L661.2154947349471,1279.206327805782" />
</g>
<g stroke="rgb(255, 0, 0)">
  <path d="M661.2154947349471,1284.853947248815L661.2154947349471,1284.853947248815" />
</g>
<g stroke="rgb(255, 0, 0)">
  <path d="M661.2154947349471,1290.501566691847L661.2154947349471,1290.501566691847" />
</g>
<g stroke="rgb(255, 0, 0)">
  <path d="M661.2154947349471,1296.14918613488L661.2154947349471,1296.14918613488" />
</g>
<g stroke="rgb(255, 0, 0)">
  <path d="M661.2154947349471,1301.796805577912L661.2154947349471,1301.796805577912" />
</g>
<g stroke="rgb(255, 0, 0)">
  <path d="M661.2154947349471,1307.444425020945L661.2154947349471,1307.444425020945" />
</g>
<g stroke="rgb(255, 0, 0)">
  <path d="M661.2154947349471,1313.092044463977L661.2154947349471,1313.092044463977" />
</g>
<g stroke="rgb(255, 0, 0)">
  <path d="M661.2154947349471,1318.73966390701L661.2154947349471,1318.73966390701" />
</g>
<g stroke="rgb(255, 0, 0)">
  <path d="M661.2154947349471,1324.387283350043L661.2154947349471,1324.387283350043" />
</g>
<g stroke="rgb(255, 0, 0)">
  <path d="M661.2154947349471,1330.034902793075L661.2154947349471,1330.034902793075" />
</g>
<g stroke="rgb(255, 0, 0)">
  <path d="M661.2154947349471,1335.682522236108L661.2154947349471,1335.682522236108" />
</g>
<g stroke="rgb(255, 0, 0)">
  <path d="M661.2154947349471,1341.330141679141L661.2154947349471,1341.330141679141" />
</g>
<g stroke="rgb(255, 0, 0)">
  <path d="M661.2154947349471,1346.977761122172L661.2154947349471,1346.977761122172" />
</g>
<g stroke="rgb(255, 0, 0)">
  <path d="M661.2154947349471,1352.625380565205L661.2154947349471,1352.625380565205" />
</g>
<g stroke="rgb(255, 0, 0)">
  <path d="M661.2154947349471,1358.273000008237L661.2154947349471,1358.273000008237" />
</g>
<g stroke="rgb(255, 0, 0)">
  <path d="M661.2154947349471,1363.92061945127L656.9154864026887,1363.92061945127" />
</g>
<g stroke="rgb(255, 0, 0)">
  <path d="M661.2154947349471,1358.273000008237L656.9154864026887,1358.273000008237" />
</g>
<g stroke="rgb(255, 0, 0)">
  <path d="M661.2154947349471,1352.625380565205L656.9154864026887,1352.625380565205" />
</g>
<g stroke="rgb(255, 0, 0)">
  <path d="M661.2154947349471,1346.977761122172L656.9154864026887,1346.977761122172" />
</g>
<g stroke="rgb(255, 0, 0)">
  <path d="M661.2154947349471,1341.330141679141L656.9154864026887,1341.330141679141" />
</g>
<g stroke="rgb(255, 0, 0)">
  <path d="M661.2154947349471,1335.682522236108L656.9154864026887,1335.682522236108" />
</g>
<g stroke="rgb(255, 0, 0)">
  <path d="M661.2154947349471,1330.034902793075L656.9154864026887,1330.034902793075" />
</g>
<g stroke="rgb(255, 0, 0)">
  <path d="M661.2154947349471,1324.387283350043L656.9154864026887,1324.387283350043" />
</g>
<g stroke="rgb(255, 0, 0)">
  <path d="M661.2154947349471,1318.73966390701L656.9154864026887,1318.73966390701" />
</g>
<g stroke="rgb(255, 0, 0)">
  <path d="M661.2154947349471,1313.092044463977L656.9154864026887,1313.092044463977" />
</g>
<g stroke="rgb(255, 0, 0)">
  <path d="M661.2154947349471,1307.444425020945L656.9154864026887,1307.444425020945" />
</g>
<g stroke="rgb(255, 0, 0)">
  <path d="M661.2154947349471,1301.796805577912L656.9154864026887,1301.796805577912" />
</g>
<g stroke="rgb(255, 0, 0)">
  <path d="M661.2154947349471,1296.14918613488L656.9154864026887,1296.14918613488" />
</g>
<g stroke="rgb(255, 0, 0)">
  <path d="M661.2154947349471,1290.501566691847L656.9154864026887,1290.501566691847" />
</g>
<g stroke="rgb(255, 0, 0)">
  <path d="M661.2154947349471,1284.853947248815L656.9154864026887,1284.853947248815" />
</g>
<g stroke="rgb(255, 0, 0)">
  <path d="M661.2154947349471,1279.206327805782L656.9154864026887,1279.206327805782" />
</g>
<g stroke="rgb(255, 0, 0)">
  <path d="M661.2154947349471,1273.55870836275L656.9154864026887,1273.55870836275" />
</g>
<g stroke="rgb(255, 0, 0)">
  <path d="M661.2154947349471,1267.911088919717L656.9154864026887,1267.911088919717" />
</g>
<g stroke="rgb(255, 0, 0)">
  <path d="M661.2154947349471,1262.263469476685L656.9154864026887,1262.263469476685" />
</g>
<g stroke="rgb(255, 0, 0)">
  <path d="M661.2154947349471,1256.615850033652L656.9154864026887,1256.615850033652" />
</g>
<g stroke="rgb(255, 0, 0)">
  <path d="M655.7618325140879,1255.268238922878L655.7618325140879,1250.96823059062" />
</g>
<g stroke="rgb(255, 0, 0)">
  <path d="M650.3081702932293,1255.268238922878L650.3081702932293,1250.96823059062" />
</g>
<g stroke="rgb(255, 0, 0)">
  <path d="M644.8545080723708,1255.268238922878L644.8545080723708,1250.96823059062" />
</g>
<g stroke="rgb(255, 0, 0)">
  <path d="M639.4008458515116,1255.268238922878L639.4008458515116,1250.96823059062" />
</g>
<g stroke="rgb(255, 0, 0)">
  <path d="M633.947183630653,1255.268238922878L633.947183630653,1250.96823059062" />
</g>
<g stroke="rgb(255, 0, 0)">
  <path d="M628.4935214097944,1255.268238922878L628.4935214097944,1250.96823059062" />
</g>
<g stroke="rgb(255, 0, 0)">
  <path d="M623.0398591889352,1255.268238922878L623.0398591889352,1250.96823059062" />
</g>
<g stroke="rgb(255, 0, 0)">
  <path d="M617.5861969680767,1255.268238922878L617.5861969680767,1250.96823059062" />
</g>
<g stroke="rgb(255, 0, 0)">
  <path d="M612.1325700249956,1255.268238922878L612.1325700249956,1250.96823059062" />
</g>
<g stroke="rgb(255, 0, 0)">
  <path d="M606.678907804137,1255.268238922878L606.678907804137,1250.96823059062" />
</g>
<g stroke="rgb(255, 0, 0)">
  <path d="M601.2252455832778,1255.268238922878L601.2252455832778,1250.96823059062" />
</g>
<g stroke="rgb(255, 0, 0)">
  <path d="M595.7715833624193,1255.268238922878L595.7715833624193,1250.96823059062" />
</g>
<g stroke="rgb(255, 0, 0)">
  <path d="M590.3179211415606,1255.268238922878L590.3179211415606,1250.96823059062" />
</g>
<g stroke="rgb(255, 0, 0)">
  <path d="M584.8642589207014,1255.268238922878L584.8642589207014,1250.96823059062" />
</g>
<g stroke="rgb(255, 0, 0)">
  <path d="M579.4105966998429,1255.268238922878L579.4105966998429,1250.96823059062" />
</g>
<g stroke="rgb(255, 0, 0)">
  <path d="M573.9569344789843,1255.268238922878L573.9569344789843,1250.96823059062" />
</g>
<g stroke="rgb(255, 0, 0)">
  <path d="M568.5032722581251,1255.268238922878L568.5032722581251,1250.96823059062" />
</g>
<g stroke="rgb(255, 0, 0)">
  <path d="M563.0496100372666,1255.268238922878L563.0496100372666,1250.96823059062" />
</g>
<g stroke="rgb(255, 0, 0)">
  <path d="M557.5959830941855,1255.268238922878L557.5959830941855,1250.96823059062" />
</g>
<g stroke="rgb(255, 0, 0)">
  <path d="M552.142320873327,1255.268238922878L552.142320873327,1250.96823059062" />
</g>
<g stroke="rgb(255, 0, 0)">
  <path d="M546.6886586524677,1255.268238922878L546.6886586524677,1250.96823059062" />
</g>
<g stroke="rgb(255, 0, 0)">
  <path d="M541.2349964316085,1255.268238922878L541.2349964316085,1250.96823059062" />
</g>
<g stroke="rgb(255, 0, 0)">
  <path d="M535.78133421075,1255.268238922878L535.78133421075,1250.96823059062" />
</g>
<g stroke="rgb(255, 0, 0)">
  <path d="M530.3276719898913,1255.268238922878L530.3276719898913,1250.96823059062" />
</g>
<g stroke="rgb(255, 0, 0)">
  <path d="M524.8740097690321,1255.268238922878L524.8740097690321,1250.96823059062" />
</g>
<g stroke="rgb(255, 0, 0)">
  <path d="M519.4203475481736,1255.268238922878L519.4203475481736,1250.96823059062" />
</g>
<g stroke="rgb(255, 0, 0)">
  <path d="M513.966685327315,1255.268238922878L513.966685327315,1250.96823059062" />
</g>
<g stroke="rgb(255, 0, 0)">
  <path d="M508.5130231064558,1255.268238922878L508.5130231064558,1250.96823059062" />
</g>
<g stroke="rgb(255, 0, 0)">
  <path d="M503.0593961633747,1255.268238922878L503.0593961633747,1250.96823059062" />
</g>
<g stroke="rgb(255, 0, 0)">
  <path d="M497.6057339425162,1255.268238922878L497.6057339425162,1250.96823059062" />
</g>
<g stroke="rgb(255, 0, 0)">
  <path d="M492.1520717216576,1255.268238922878L492.1520717216576,1250.96823059062" />
</g>
<g stroke="rgb(255, 0, 0)">
  <path d="M486.6984095007984,1255.268238922878L486.6984095007984,1250.96823059062" />
</g>
<g stroke="rgb(255, 0, 0)">
  <path d="M481.2447472799398,1255.268238922878L481.2447472799398,1250.96823059062" />
</g>
<g stroke="rgb(255, 0, 0)">
  <path d="M475.7910850590812,1255.268238922878L475.7910850590812,1250.96823059062" />
</g>
<g stroke="rgb(255, 0, 0)">
  <path d="M470.337422838222,1255.268238922878L470.337422838222,1250.96823059062" />
</g>
<g stroke="rgb(255, 0, 0)">
  <path d="M464.8837606173635,1255.268238922878L464.8837606173635,1250.96823059062" />
</g>
<g stroke="rgb(255, 0, 0)">
  <path d="M459.4300983965049,1255.268238922878L459.4300983965049,1250.96823059062" />
</g>
<g stroke="rgb(255, 0, 0)">
  <path d="M453.9764714534239,1255.268238922878L453.9764714534239,1250.96823059062" />
</g>
<g stroke="rgb(255, 0, 0)">
  <path d="M448.5228092325647,1255.268238922878L448.5228092325647,1250.96823059062" />
</g>
<g stroke="rgb(255, 0, 0)">
  <path d="M443.0691470117061,1255.268238922878L443.0691470117061,1250.96823059062" />
</g>
<g stroke="rgb(255, 0, 0)">
  <path d="M437.6154847908475,1250.96823059062L437.6154847908475,1256.615850033652" />
</g>
<g stroke="rgb(255, 0, 0)">
  <path d="M437.6154847908475,1262.263469476685L437.6154847908475,1267.911088919717" />
</g>
<g stroke="rgb(255, 0, 0)">
  <path d="M437.6154847908475,1273.55870836275L437.6154847908475,1279.206327805782" />
</g>
<g stroke="rgb(255, 0, 0)">
  <path d="M437.6154847908475,1284.853947248815L437.6154847908475,1290.501566691847" />
</g>
<g stroke="rgb(255, 0, 0)">
  <path d="M437.6154847908475,1296.14918613488L437.6154847908475,1301.796805577912" />
</g>
<g stroke="rgb(255, 0, 0)">
  <path d="M437.6154847908475,1307.444425020945L437.6154847908475,1313.092044463977" />
</g>
<g stroke="rgb(255, 0, 0)">
  <path d="M437.6154847908475,1318.73966390701L437.6154847908475,1324.387283350043" />
</g>
<g stroke="rgb(255, 0, 0)">
  <path d="M437.6154847908475,1330.034902793075L437.6154847908475,1335.682522236108" />
</g>
<g stroke="rgb(255, 0, 0)">
  <path d="M437.6154847908475,1341.330141679141L437.6154847908475,1346.977761122172" />
</g>
<g stroke="rgb(255, 0, 0)">
  <path d="M437.6154847908475,1352.625380565205L437.6154847908475,1358.273000008237" />
</g>
<g stroke="rgb(255, 0, 0)">
  <path d="M437.6154847908475,1363.92061945127L437.6154847908475,1369.568238894303" />
</g>
<g stroke="rgb(255, 0, 0)">
  <path d="M437.6154847908475,1256.615850033652L437.6154847908475,1256.615850033652" />
</g>
<g stroke="rgb(255, 0, 0)">
  <path d="M437.6154847908475,1262.263469476685L437.6154847908475,1262.263469476685" />
</g>
<g stroke="rgb(255, 0, 0)">
  <path d="M437.6154847908475,1267.911088919717L437.6154847908475,1267.911088919717" />
</g>
<g stroke="rgb(255, 0, 0)">
  <path d="M437.6154847908475,1273.55870836275L437.6154847908475,1273.55870836275" />
</g>
<g stroke="rgb(255, 0, 0)">
  <path d="M437.6154847908475,1279.206327805782L437.6154847908475,1279.206327805782" />
</g>
<g stroke="rgb(255, 0, 0)">
  <path d="M437.6154847908475,1284.853947248815L437.6154847908475,1284.853947248815" />
</g>
<g stroke="rgb(255, 0, 0)">
  <path d="M437.6154847908475,1290.501566691847L437.6154847908475,1290.501566691847" />
</g>
<g stroke="rgb(255, 0, 0)">
  <path d="M437.6154847908475,1296.14918613488L437.6154847908475,1296.14918613488" />
</g>
<g stroke="rgb(255, 0, 0)">
  <path d="M437.6154847908475,1301.796805577912L437.6154847908475,1301.796805577912" />
</g>
<g stroke="rgb(255, 0, 0)">
  <path d="M437.6154847908475,1307.444425020945L437.6154847908475,1307.444425020945" />
</g>
<g stroke="rgb(255, 0, 0)">
  <path d="M437.6154847908475,1313.092044463977L437.6154847908475,1313.092044463977" />
</g>
<g stroke="rgb(255, 0, 0)">
  <path d="M437.6154847908475,1318.73966390701L437.6154847908475,1318.73966390701" />
</g>
<g stroke="rgb(255, 0, 0)">
  <path d="M437.6154847908475,1324.387283350043L437.6154847908475,1324.387283350043" />
</g>
<g stroke="rgb(255, 0, 0)">
  <path d="M437.6154847908475,1330.034902793075L437.6154847908475,1330.034902793075" />
</g>
<g stroke="rgb(255, 0, 0)">
  <path d="M437.6154847908475,1335.682522236108L437.6154847908475,1335.682522236108" />
</g>
<g stroke="rgb(255, 0, 0)">
  <path d="M437.6154847908475,1341.330141679141L437.6154847908475,1341.330141679141" />
</g>
<g stroke="rgb(255, 0, 0)">
  <path d="M437.6154847908475,1346.977761122172L437.6154847908475,1346.977761122172" />
</g>
<g stroke="rgb(255, 0, 0)">
  <path d="M437.6154847908475,1352.625380565205L437.6154847908475,1352.625380565205" />
</g>
<g stroke="rgb(255, 0, 0)">
  <path d="M437.6154847908475,1358.273000008237L437.6154847908475,1358.273000008237" />
</g>
<g stroke="rgb(255, 0, 0)">
  <path d="M437.6154847908475,1363.92061945127L441.9154931231053,1363.92061945127" />
</g>
<g stroke="rgb(255, 0, 0)">
  <path d="M437.6154847908475,1358.273000008237L441.9154931231053,1358.273000008237" />
</g>
<g stroke="rgb(255, 0, 0)">
  <path d="M437.6154847908475,1352.625380565205L441.9154931231053,1352.625380565205" />
</g>
<g stroke="rgb(255, 0, 0)">
  <path d="M437.6154847908475,1346.977761122172L441.9154931231053,1346.977761122172" />
</g>
<g stroke="rgb(255, 0, 0)">
  <path d="M437.6154847908475,1341.330141679141L441.9154931231053,1341.330141679141" />
</g>
<g stroke="rgb(255, 0, 0)">
  <path d="M437.6154847908475,1335.682522236108L441.9154931231053,1335.682522236108" />
</g>
<g stroke="rgb(255, 0, 0)">
  <path d="M437.6154847908475,1330.034902793075L441.9154931231053,1330.034902793075" />
</g>
<g stroke="rgb(255, 0, 0)">
  <path d="M437.6154847908475,1324.387283350043L441.9154931231053,1324.387283350043" />
</g>
<g stroke="rgb(255, 0, 0)">
  <path d="M437.6154847908475,1318.73966390701L441.9154931231053,1318.73966390701" />
</g>
<g stroke="rgb(255, 0, 0)">
  <path d="M437.6154847908475,1313.092044463977L441.9154931231053,1313.092044463977" />
</g>
<g stroke="rgb(255, 0, 0)">
  <path d="M437.6154847908475,1307.444425020945L441.9154931231053,1307.444425020945" />
</g>
<g stroke="rgb(255, 0, 0)">
  <path d="M437.6154847908475,1301.796805577912L441.9154931231053,1301.796805577912" />
</g>
<g stroke="rgb(255, 0, 0)">
  <path d="M437.6154847908475,1296.14918613488L441.9154931231053,1296.14918613488" />
</g>
<g stroke="rgb(255, 0, 0)">
  <path d="M437.6154847908475,1290.501566691847L441.9154931231053,1290.501566691847" />
</g>
<g stroke="rgb(255, 0, 0)">
  <path d="M437.6154847908475,1284.853947248815L441.9154931231053,1284.853947248815" />
</g>
<g stroke="rgb(255, 0, 0)">
  <path d="M437.6154847908475,1279.206327805782L441.9154931231053,1279.206327805782" />
</g>
<g stroke="rgb(255, 0, 0)">
  <path d="M437.6154847908475,1273.55870836275L441.9154931231053,1273.55870836275" />
</g>
<g stroke="rgb(255, 0, 0)">
  <path d="M437.6154847908475,1267.911088919717L441.9154931231053,1267.911088919717" />
</g>
<g stroke="rgb(255, 0, 0)">
  <path d="M437.6154847908475,1262.263469476685L441.9154931231053,1262.263469476685" />
</g>
<g stroke="rgb(255, 0, 0)">
  <path d="M437.6154847908475,1256.615850033652L441.9154931231053,1256.615850033652" />
</g>
<g stroke="rgb(255, 0, 0)">
  <path d="M437.6154847908475,1369.568238894303L443.0691470117061,1369.568238894303" />
</g>
<g stroke="rgb(255, 0, 0)">
  <path d="M448.5228092325647,1369.568238894303L453.9764714534239,1369.568238894303" />
</g>
<g stroke="rgb(255, 0, 0)">
  <path d="M459.4300983965049,1369.568238894303L464.8837606173635,1369.568238894303" />
</g>
<g stroke="rgb(255, 0, 0)">
  <path d="M470.337422838222,1369.568238894303L475.7910850590812,1369.568238894303" />
</g>
<g stroke="rgb(255, 0, 0)">
  <path d="M481.2447472799398,1369.568238894303L486.6984095007984,1369.568238894303" />
</g>
<g stroke="rgb(255, 0, 0)">
  <path d="M492.1520717216576,1369.568238894303L497.6057339425162,1369.568238894303" />
</g>
<g stroke="rgb(255, 0, 0)">
  <path d="M503.0593961633747,1369.568238894303L508.5130231064558,1369.568238894303" />
</g>
<g stroke="rgb(255, 0, 0)">
  <path d="M513.966685327315,1369.568238894303L519.4203475481736,1369.568238894303" />
</g>
<g stroke="rgb(255, 0, 0)">
  <path d="M524.8740097690321,1369.568238894303L530.3276719898913,1369.568238894303" />
</g>
<g stroke="rgb(255, 0, 0)">
  <path d="M535.78133421075,1369.568238894303L541.2349964316085,1369.568238894303" />
</g>
<g stroke="rgb(255, 0, 0)">
  <path d="M546.6886586524677,1369.568238894303L552.142320873327,1369.568238894303" />
</g>
<g stroke="rgb(255, 0, 0)">
  <path d="M557.5959830941855,1369.568238894303L563.0496100372666,1369.568238894303" />
</g>
<g stroke="rgb(255, 0, 0)">
  <path d="M568.5032722581251,1369.568238894303L573.9569344789843,1369.568238894303" />
</g>
<g stroke="rgb(255, 0, 0)">
  <path d="M579.4105966998429,1369.568238894303L584.8642589207014,1369.568238894303" />
</g>
<g stroke="rgb(255, 0, 0)">
  <path d="M590.3179211415606,1369.568238894303L595.7715833624193,1369.568238894303" />
</g>
<g stroke="rgb(255, 0, 0)">
  <path d="M601.2252455832778,1369.568238894303L606.678907804137,1369.568238894303" />
</g>
<g stroke="rgb(255, 0, 0)">
  <path d="M612.1325700249956,1369.568238894303L617.5861969680767,1369.568238894303" />
</g>
<g stroke="rgb(255, 0, 0)">
  <path d="M623.0398591889352,1369.568238894303L628.4935214097944,1369.568238894303" />
</g>
<g stroke="rgb(255, 0, 0)">
  <path d="M633.947183630653,1369.568238894303L639.4008458515116,1369.568238894303" />
</g>
<g stroke="rgb(255, 0, 0)">
  <path d="M644.8545080723708,1369.568238894303L650.3081702932293,1369.568238894303" />
</g>
<g stroke="rgb(255, 0, 0)">
  <path d="M655.7618325140879,1369.568238894303L661.2154947349471,1369.568238894303" />
</g>
<g stroke="rgb(255, 0, 0)">
  <path d="M655.7618325140879,1365.268230562045L650.3081702932293,1365.268230562045" />
</g>
<g stroke="rgb(255, 0, 0)">
  <path d="M644.8545080723708,1365.268230562045L639.4008458515116,1365.268230562045" />
</g>
<g stroke="rgb(255, 0, 0)">
  <path d="M633.947183630653,1365.268230562045L628.4935214097944,1365.268230562045" />
</g>
<g stroke="rgb(255, 0, 0)">
  <path d="M623.0398591889352,1365.268230562045L617.5861969680767,1365.268230562045" />
</g>
<g stroke="rgb(255, 0, 0)">
  <path d="M612.1325700249956,1365.268230562045L606.678907804137,1365.268230562045" />
</g>
<g stroke="rgb(255, 0, 0)">
  <path d="M601.2252455832778,1365.268230562045L595.7715833624193,1365.268230562045" />
</g>
<g stroke="rgb(255, 0, 0)">
  <path d="M590.3179211415606,1365.268230562045L584.8642589207014,1365.268230562045" />
</g>
<g stroke="rgb(255, 0, 0)">
  <path d="M579.4105966998429,1365.268230562045L573.9569344789843,1365.268230562045" />
</g>
<g stroke="rgb(255, 0, 0)">
  <path d="M568.5032722581251,1365.268230562045L563.0496100372666,1365.268230562045" />
</g>
<g stroke="rgb(255, 0, 0)">
  <path d="M557.5959830941855,1365.268230562045L552.142320873327,1365.268230562045" />
</g>
<g stroke="rgb(255, 0, 0)">
  <path d="M546.6886586524677,1365.268230562045L541.2349964316085,1365.268230562045" />
</g>
<g stroke="rgb(255, 0, 0)">
  <path d="M535.78133421075,1365.268230562045L530.3276719898913,1365.268230562045" />
</g>
<g stroke="rgb(255, 0, 0)">
  <path d="M524.8740097690321,1365.268230562045L519.4203475481736,1365.268230562045" />
</g>
<g stroke="rgb(255, 0, 0)">
  <path d="M513.966685327315,1365.268230562045L508.5130231064558,1365.268230562045" />
</g>
<g stroke="rgb(255, 0, 0)">
  <path d="M503.0593961633747,1365.268230562045L497.6057339425162,1365.268230562045" />
</g>
<g stroke="rgb(255, 0, 0)">
  <path d="M492.1520717216576,1365.268230562045L486.6984095007984,1365.268230562045" />
</g>
<g stroke="rgb(255, 0, 0)">
  <path d="M481.2447472799398,1365.268230562045L475.7910850590812,1365.268230562045" />
</g>
<g stroke="rgb(255, 0, 0)">
  <path d="M470.337422838222,1365.268230562045L464.8837606173635,1365.268230562045" />
</g>
<g stroke="rgb(255, 0, 0)">
  <path d="M459.4300983965049,1365.268230562045L453.9764714534239,1365.268230562045" />
</g>
<g stroke="rgb(255, 0, 0)">
  <path d="M448.5228092325647,1365.268230562045L443.0691470117061,1365.268230562045" />
</g>
<g stroke="rgb(255, 0, 0)">
  <path d="M655.7618325140879,1365.268230562045L655.7618325140879,1369.568238894303" />
</g>
<g stroke="rgb(255, 0, 0)">
  <path d="M650.3081702932293,1365.268230562045L650.3081702932293,1369.568238894303" />
</g>
<g stroke="rgb(255, 0, 0)">
  <path d="M644.8545080723708,1365.268230562045L644.8545080723708,1369.568238894303" />
</g>
<g stroke="rgb(255, 0, 0)">
  <path d="M639.4008458515116,1365.268230562045L639.4008458515116,1369.568238894303" />
</g>
<g stroke="rgb(255, 0, 0)">
  <path d="M633.947183630653,1365.268230562045L633.947183630653,1369.568238894303" />
</g>
<g stroke="rgb(255, 0, 0)">
  <path d="M628.4935214097944,1365.268230562045L628.4935214097944,1369.568238894303" />
</g>
<g stroke="rgb(255, 0, 0)">
  <path d="M623.0398591889352,1365.268230562045L623.0398591889352,1369.568238894303" />
</g>
<g stroke="rgb(255, 0, 0)">
  <path d="M617.5861969680767,1365.268230562045L617.5861969680767,1369.568238894303" />
</g>
<g stroke="rgb(255, 0, 0)">
  <path d="M612.1325700249956,1365.268230562045L612.1325700249956,1369.568238894303" />
</g>
<g stroke="rgb(255, 0, 0)">
  <path d="M606.678907804137,1365.268230562045L606.678907804137,1369.568238894303" />
</g>
<g stroke="rgb(255, 0, 0)">
  <path d="M601.2252455832778,1365.268230562045L601.2252455832778,1369.568238894303" />
</g>
<g stroke="rgb(255, 0, 0)">
  <path d="M595.7715833624193,1365.268230562045L595.7715833624193,1369.568238894303" />
</g>
<g stroke="rgb(255, 0, 0)">
  <path d="M590.3179211415606,1365.268230562045L590.3179211415606,1369.568238894303" />
</g>
<g stroke="rgb(255, 0, 0)">
  <path d="M584.8642589207014,1365.268230562045L584.8642589207014,1369.568238894303" />
</g>
<g stroke="rgb(255, 0, 0)">
  <path d="M579.4105966998429,1365.268230562045L579.4105966998429,1369.568238894303" />
</g>
<g stroke="rgb(255, 0, 0)">
  <path d="M573.9569344789843,1365.268230562045L573.9569344789843,1369.568238894303" />
</g>
<g stroke="rgb(255, 0, 0)">
  <path d="M568.5032722581251,1365.268230562045L568.5032722581251,1369.568238894303" />
</g>
<g stroke="rgb(255, 0, 0)">
  <path d="M563.0496100372666,1365.268230562045L563.0496100372666,1369.568238894303" />
</g>
<g stroke="rgb(255, 0, 0)">
  <path d="M557.5959830941855,1365.268230562045L557.5959830941855,1369.568238894303" />
</g>
<g stroke="rgb(255, 0, 0)">
  <path d="M552.142320873327,1365.268230562045L552.142320873327,1369.568238894303" />
</g>
<g stroke="rgb(255, 0, 0)">
  <path d="M546.6886586524677,1365.268230562045L546.6886586524677,1369.568238894303" />
</g>
<g stroke="rgb(255, 0, 0)">
  <path d="M541.2349964316085,1365.268230562045L541.2349964316085,1369.568238894303" />
</g>
<g stroke="rgb(255, 0, 0)">
  <path d="M535.78133421075,1365.268230562045L535.78133421075,1369.568238894303" />
</g>
<g stroke="rgb(255, 0, 0)">
  <path d="M530.3276719898913,1365.268230562045L530.3276719898913,1369.568238894303" />
</g>
<g stroke="rgb(255, 0, 0)">
  <path d="M524.8740097690321,1365.268230562045L524.8740097690321,1369.568238894303" />
</g>
<g stroke="rgb(255, 0, 0)">
  <path d="M519.4203475481736,1365.268230562045L519.4203475481736,1369.568238894303" />
</g>
<g stroke="rgb(255, 0, 0)">
  <path d="M513.966685327315,1365.268230562045L513.966685327315,1369.568238894303" />
</g>
<g stroke="rgb(255, 0, 0)">
  <path d="M508.5130231064558,1365.268230562045L508.5130231064558,1369.568238894303" />
</g>
<g stroke="rgb(255, 0, 0)">
  <path d="M503.0593961633747,1365.268230562045L503.0593961633747,1369.568238894303" />
</g>
<g stroke="rgb(255, 0, 0)">
  <path d="M497.6057339425162,1365.268230562045L497.6057339425162,1369.568238894303" />
</g>
<g stroke="rgb(255, 0, 0)">
  <path d="M492.1520717216576,1365.268230562045L492.1520717216576,1369.568238894303" />
</g>
<g stroke="rgb(255, 0, 0)">
  <path d="M486.6984095007984,1365.268230562045L486.6984095007984,1369.568238894303" />
</g>
<g stroke="rgb(255, 0, 0)">
  <path d="M481.2447472799398,1365.268230562045L481.2447472799398,1369.568238894303" />
</g>
<g stroke="rgb(255, 0, 0)">
  <path d="M475.7910850590812,1365.268230562045L475.7910850590812,1369.568238894303" />
</g>
<g stroke="rgb(255, 0, 0)">
  <path d="M470.337422838222,1365.268230562045L470.337422838222,1369.568238894303" />
</g>
<g stroke="rgb(255, 0, 0)">
  <path d="M464.8837606173635,1365.268230562045L464.8837606173635,1369.568238894303" />
</g>
<g stroke="rgb(255, 0, 0)">
  <path d="M459.4300983965049,1365.268230562045L459.4300983965049,1369.568238894303" />
</g>
<g stroke="rgb(255, 0, 0)">
  <path d="M453.9764714534239,1365.268230562045L453.9764714534239,1369.568238894303" />
</g>
<g stroke="rgb(255, 0, 0)">
  <path d="M448.5228092325647,1365.268230562045L448.5228092325647,1369.568238894303" />
</g>
<g stroke="rgb(255, 0, 0)">
  <path d="M443.0691470117061,1365.268230562045L443.0691470117061,1369.568238894303" />
</g>
<g stroke="rgb(255, 0, 0)">
  <path d="M661.2154947349471,1369.568238894303L661.2154947349471,1376.777323336945" />
</g>
<g stroke="rgb(255, 0, 0)">
  <path d="M661.2154947349471,1383.986407779587L661.2154947349471,1391.19549222223" />
</g>
<g stroke="rgb(255, 0, 0)">
  <path d="M661.2154947349471,1398.404611942649L661.2154947349471,1405.613696385291" />
</g>
<g stroke="rgb(255, 0, 0)">
  <path d="M661.2154947349471,1412.822780827933L661.2154947349471,1420.031865270576" />
</g>
<g stroke="rgb(255, 0, 0)">
  <path d="M661.2154947349471,1427.240949713218L661.2154947349471,1434.450069433638" />
</g>
<g stroke="rgb(255, 0, 0)">
  <path d="M661.2154947349471,1441.65915387628L661.2154947349471,1448.868238318922" />
</g>
<g stroke="rgb(255, 0, 0)">
  <path d="M661.2154947349471,1448.868238318922L437.6154847908475,1448.868238318922" />
</g>
<g stroke="rgb(255, 0, 0)">
  <path d="M437.6154847908475,1448.868238318922L437.6154847908475,1441.65915387628" />
</g>
<g stroke="rgb(255, 0, 0)">
  <path d="M437.6154847908475,1434.450069433638L437.6154847908475,1427.240949713218" />
</g>
<g stroke="rgb(255, 0, 0)">
  <path d="M437.6154847908475,1420.031865270576L437.6154847908475,1412.822780827933" />
</g>
<g stroke="rgb(255, 0, 0)">
  <path d="M437.6154847908475,1405.613696385291L437.6154847908475,1398.404611942649" />
</g>
<g stroke="rgb(255, 0, 0)">
  <path d="M437.6154847908475,1391.19549222223L437.6154847908475,1383.986407779587" />
</g>
<g stroke="rgb(255, 0, 0)">
  <path d="M437.6154847908475,1376.777323336945L437.6154847908475,1369.568238894303" />
</g>
<g stroke="rgb(255, 0, 0)">
  <g>
    <path d="M 740.515494159567 1320.268250017739 C 734.992616938725 1320.268250017739 730.5154788842887 1315.791076685524 730.5154788842887 1310.268234742461" />
    <path d="M 730.5154788842887 1310.268234742461 C 730.5154788842887 1304.745392799397 734.992616938725 1300.268219467183 740.515494159567 1300.268219467183" />
  </g>
</g>
<g stroke="rgb(255, 0, 0)">
  <path d="M661.2154947349471,1243.759146147978L656.9154864026887,1243.759146147978" />
</g>
<g stroke="rgb(255, 0, 0)">
  <path d="M656.9154864026887,1243.759146147978L656.9154864026887,1236.550061705335" />
</g>
<g stroke="rgb(255, 0, 0)">
  <path d="M656.9154864026887,1236.550061705335L661.2154947349471,1236.550061705335" />
</g>
<g stroke="rgb(255, 0, 0)">
  <path d="M661.2154947349471,1229.340977262693L656.9154864026887,1229.340977262693" />
</g>
<g stroke="rgb(255, 0, 0)">
  <path d="M656.9154864026887,1229.340977262693L656.9154864026887,1222.131857542273" />
</g>
<g stroke="rgb(255, 0, 0)">
  <path d="M656.9154864026887,1222.131857542273L661.2154947349471,1222.131857542273" />
</g>
<g stroke="rgb(255, 0, 0)">
  <path d="M661.2154947349471,1214.922773099631L656.9154864026887,1214.922773099631" />
</g>
<g stroke="rgb(255, 0, 0)">
  <path d="M656.9154864026887,1214.922773099631L656.9154864026887,1207.713688656989" />
</g>
<g stroke="rgb(255, 0, 0)">
  <path d="M656.9154864026887,1207.713688656989L661.2154947349471,1207.713688656989" />
</g>
<g stroke="rgb(255, 0, 0)">
  <path d="M661.2154947349471,1200.504604214347L656.9154864026887,1200.504604214347" />
</g>
<g stroke="rgb(255, 0, 0)">
  <path d="M656.9154864026887,1200.504604214347L656.9154864026887,1193.295519771704" />
</g>
<g stroke="rgb(255, 0, 0)">
  <path d="M656.9154864026887,1193.295519771704L661.2154947349471,1193.295519771704" />
</g>
<g stroke="rgb(255, 0, 0)">
  <path d="M661.2154947349471,1186.086435329062L656.9154864026887,1186.086435329062" />
</g>
<g stroke="rgb(255, 0, 0)">
  <path d="M656.9154864026887,1186.086435329062L656.9154864026887,1178.877315608642" />
</g>
<g stroke="rgb(255, 0, 0)">
  <path d="M656.9154864026887,1178.877315608642L661.2154947349471,1178.877315608642" />
</g>
<g stroke="rgb(255, 0, 0)">
  <path d="M437.6154847908475,1236.550061705335L437.6154847908475,1229.340977262693" />
</g>
<g stroke="rgb(255, 0, 0)">
  <path d="M437.6154847908475,1222.131857542273L437.6154847908475,1214.922773099631" />
</g>
<g stroke="rgb(255, 0, 0)">
  <path d="M437.6154847908475,1207.713688656989L437.6154847908475,1200.504604214347" />
</g>
<g stroke="rgb(255, 0, 0)">
  <path d="M437.6154847908475,1193.295519771704L437.6154847908475,1186.086435329062" />
</g>
<g stroke="rgb(255, 0, 0)">
  <path d="M437.6154847908475,1243.759146147978L441.9154931231053,1243.759146147978" />
</g>
<g stroke="rgb(255, 0, 0)">
  <path d="M441.9154931231053,1243.759146147978L441.9154931231053,1236.550061705335" />
</g>
<g stroke="rgb(255, 0, 0)">
  <path d="M441.9154931231053,1236.550061705335L437.6154847908475,1236.550061705335" />
</g>
<g stroke="rgb(255, 0, 0)">
  <path d="M437.6154847908475,1229.340977262693L441.9154931231053,1229.340977262693" />
</g>
<g stroke="rgb(255, 0, 0)">
  <path d="M441.9154931231053,1229.340977262693L441.9154931231053,1222.131857542273" />
</g>
<g stroke="rgb(255, 0, 0)">
  <path d="M441.9154931231053,1222.131857542273L437.6154847908475,1222.131857542273" />
</g>
<g stroke="rgb(255, 0, 0)">
  <path d="M437.6154847908475,1214.922773099631L441.9154931231053,1214.922773099631" />
</g>
<g stroke="rgb(255, 0, 0)">
  <path d="M441.9154931231053,1214.922773099631L441.9154931231053,1207.713688656989" />
</g>
<g stroke="rgb(255, 0, 0)">
  <path d="M441.9154931231053,1207.713688656989L437.6154847908475,1207.713688656989" />
</g>
<g stroke="rgb(255, 0, 0)">
  <path d="M437.6154847908475,1200.504604214347L441.9154931231053,1200.504604214347" />
</g>
<g stroke="rgb(255, 0, 0)">
  <path d="M441.9154931231053,1200.504604214347L441.9154931231053,1193.295519771704" />
</g>
<g stroke="rgb(255, 0, 0)">
  <path d="M441.9154931231053,1193.295519771704L437.6154847908475,1193.295519771704" />
</g>
<g stroke="rgb(255, 0, 0)">
  <path d="M437.6154847908475,1186.086435329062L441.9154931231053,1186.086435329062" />
</g>
<g stroke="rgb(255, 0, 0)">
  <path d="M441.9154931231053,1186.086435329062L441.9154931231053,1178.877315608642" />
</g>
<g stroke="rgb(255, 0, 0)">
  <path d="M441.9154931231053,1178.877315608642L437.6154847908475,1178.877315608642" />
</g>
<g stroke="rgb(255, 0, 0)">
  <path d="M661.2154947349471,1383.986407779587L661.2154947349471,1391.19549222223" />
</g>
<g stroke="rgb(255, 0, 0)">
  <path d="M661.2154947349471,1398.404611942649L661.2154947349471,1405.613696385291" />
</g>
<g stroke="rgb(255, 0, 0)">
  <path d="M661.2154947349471,1412.822780827933L661.2154947349471,1420.031865270576" />
</g>
<g stroke="rgb(255, 0, 0)">
  <path d="M661.2154947349471,1427.240949713218L661.2154947349471,1434.450069433638" />
</g>
<g stroke="rgb(255, 0, 0)">
  <path d="M437.6154847908475,1434.450069433638L437.6154847908475,1427.240949713218" />
</g>
<g stroke="rgb(255, 0, 0)">
  <path d="M437.6154847908475,1420.031865270576L437.6154847908475,1412.822780827933" />
</g>
<g stroke="rgb(255, 0, 0)">
  <path d="M437.6154847908475,1405.613696385291L437.6154847908475,1398.404611942649" />
</g>
<g stroke="rgb(255, 0, 0)">
  <path d="M437.6154847908475,1391.19549222223L437.6154847908475,1383.986407779587" />
</g>
<g stroke="rgb(255, 0, 0)">
  <path d="M661.2154947349471,1376.777323336945L656.9154864026887,1376.777323336945" />
</g>
<g stroke="rgb(255, 0, 0)">
  <path d="M656.9154864026887,1376.777323336945L656.9154864026887,1383.986407779587" />
</g>
<g stroke="rgb(255, 0, 0)">
  <path d="M656.9154864026887,1383.986407779587L661.2154947349471,1383.986407779587" />
</g>
<g stroke="rgb(255, 0, 0)">
  <path d="M661.2154947349471,1391.19549222223L656.9154864026887,1391.19549222223" />
</g>
<g stroke="rgb(255, 0, 0)">
  <path d="M656.9154864026887,1391.19549222223L656.9154864026887,1398.404611942649" />
</g>
<g stroke="rgb(255, 0, 0)">
  <path d="M656.9154864026887,1398.404611942649L661.2154947349471,1398.404611942649" />
</g>
<g stroke="rgb(255, 0, 0)">
  <path d="M661.2154947349471,1405.613696385291L656.9154864026887,1405.613696385291" />
</g>
<g stroke="rgb(255, 0, 0)">
  <path d="M656.9154864026887,1405.613696385291L656.9154864026887,1412.822780827933" />
</g>
<g stroke="rgb(255, 0, 0)">
  <path d="M656.9154864026887,1412.822780827933L661.2154947349471,1412.822780827933" />
</g>
<g stroke="rgb(255, 0, 0)">
  <path d="M661.2154947349471,1420.031865270576L656.9154864026887,1420.031865270576" />
</g>
<g stroke="rgb(255, 0, 0)">
  <path d="M656.9154864026887,1420.031865270576L656.9154864026887,1427.240949713218" />
</g>
<g stroke="rgb(255, 0, 0)">
  <path d="M656.9154864026887,1427.240949713218L661.2154947349471,1427.240949713218" />
</g>
<g stroke="rgb(255, 0, 0)">
  <path d="M661.2154947349471,1434.450069433638L656.9154864026887,1434.450069433638" />
</g>
<g stroke="rgb(255, 0, 0)">
  <path d="M656.9154864026887,1434.450069433638L656.9154864026887,1441.65915387628" />
</g>
<g stroke="rgb(255, 0, 0)">
  <path d="M656.9154864026887,1441.65915387628L661.2154947349471,1441.65915387628" />
</g>
<g stroke="rgb(255, 0, 0)">
  <path d="M437.6154847908475,1383.986407779587L437.6154847908475,1391.19549222223" />
</g>
<g stroke="rgb(255, 0, 0)">
  <path d="M437.6154847908475,1398.404611942649L437.6154847908475,1405.613696385291" />
</g>
<g stroke="rgb(255, 0, 0)">
  <path d="M437.6154847908475,1412.822780827933L437.6154847908475,1420.031865270576" />
</g>
<g stroke="rgb(255, 0, 0)">
  <path d="M437.6154847908475,1427.240949713218L437.6154847908475,1434.450069433638" />
</g>
<g stroke="rgb(255, 0, 0)">
  <path d="M437.6154847908475,1376.777323336945L441.9154931231053,1376.777323336945" />
</g>
<g stroke="rgb(255, 0, 0)">
  <path d="M441.9154931231053,1376.777323336945L441.9154931231053,1383.986407779587" />
</g>
<g stroke="rgb(255, 0, 0)">
  <path d="M441.9154931231053,1383.986407779587L437.6154847908475,1383.986407779587" />
</g>
<g stroke="rgb(255, 0, 0)">
  <path d="M437.6154847908475,1391.19549222223L441.9154931231053,1391.19549222223" />
</g>
<g stroke="rgb(255, 0, 0)">
  <path d="M441.9154931231053,1391.19549222223L441.9154931231053,1398.404611942649" />
</g>
<g stroke="rgb(255, 0, 0)">
  <path d="M441.9154931231053,1398.404611942649L437.6154847908475,1398.404611942649" />
</g>
<g stroke="rgb(255, 0, 0)">
  <path d="M437.6154847908475,1405.613696385291L441.9154931231053,1405.613696385291" />
</g>
<g stroke="rgb(255, 0, 0)">
  <path d="M441.9154931231053,1405.613696385291L441.9154931231053,1412.822780827933" />
</g>
<g stroke="rgb(255, 0, 0)">
  <path d="M441.9154931231053,1412.822780827933L437.6154847908475,1412.822780827933" />
</g>
<g stroke="rgb(255, 0, 0)">
  <path d="M437.6154847908475,1420.031865270576L441.9154931231053,1420.031865270576" />
</g>
<g stroke="rgb(255, 0, 0)">
  <path d="M441.9154931231053,1420.031865270576L441.9154931231053,1427.240949713218" />
</g>
<g stroke="rgb(255, 0, 0)">
  <path d="M441.9154931231053,1427.240949713218L437.6154847908475,1427.240949713218" />
</g>
<g stroke="rgb(255, 0, 0)">
  <path d="M437.6154847908475,1434.450069433638L441.9154931231053,1434.450069433638" />
</g>
<g stroke="rgb(255, 0, 0)">
  <path d="M441.9154931231053,1434.450069433638L441.9154931231053,1441.65915387628" />
</g>
<g stroke="rgb(255, 0, 0)">
  <path d="M441.9154931231053,1441.65915387628L437.6154847908475,1441.65915387628" />
</g>
<g stroke="rgb(255, 0, 0)">
  <path d="M661.2154947349471,1255.268238922878L668.4245791775893,1255.268238922878" />
</g>
<g stroke="rgb(255, 0, 0)">
  <path d="M675.6336636202315,1255.268238922878L682.8427480628735,1255.268238922878" />
</g>
<g stroke="rgb(255, 0, 0)">
  <path d="M690.0518325055157,1255.268238922878L697.2609169481578,1255.268238922878" />
</g>
<g stroke="rgb(255, 0, 0)">
  <path d="M704.4700366685781,1255.268238922878L711.6791211112203,1255.268238922878" />
</g>
<g stroke="rgb(255, 0, 0)">
  <path d="M718.8882055538623,1255.268238922878L726.0972899965045,1255.268238922878" />
</g>
<g stroke="rgb(255, 0, 0)">
  <path d="M668.4245791775893,1255.268238922878L668.4245791775893,1250.96823059062" />
</g>
<g stroke="rgb(255, 0, 0)">
  <path d="M668.4245791775893,1250.96823059062L675.6336636202315,1250.96823059062" />
</g>
<g stroke="rgb(255, 0, 0)">
  <path d="M675.6336636202315,1250.96823059062L675.6336636202315,1255.268238922878" />
</g>
<g stroke="rgb(255, 0, 0)">
  <path d="M682.8427480628735,1255.268238922878L682.8427480628735,1250.96823059062" />
</g>
<g stroke="rgb(255, 0, 0)">
  <path d="M682.8427480628735,1250.96823059062L690.0518325055157,1250.96823059062" />
</g>
<g stroke="rgb(255, 0, 0)">
  <path d="M690.0518325055157,1250.96823059062L690.0518325055157,1255.268238922878" />
</g>
<g stroke="rgb(255, 0, 0)">
  <path d="M697.2609169481578,1255.268238922878L697.2609169481578,1250.96823059062" />
</g>
<g stroke="rgb(255, 0, 0)">
  <path d="M697.2609169481578,1250.96823059062L704.4700366685781,1250.96823059062" />
</g>
<g stroke="rgb(255, 0, 0)">
  <path d="M704.4700366685781,1250.96823059062L704.4700366685781,1255.268238922878" />
</g>
<g stroke="rgb(255, 0, 0)">
  <path d="M711.6791211112203,1255.268238922878L711.6791211112203,1250.96823059062" />
</g>
<g stroke="rgb(255, 0, 0)">
  <path d="M711.6791211112203,1250.96823059062L718.8882055538623,1250.96823059062" />
</g>
<g stroke="rgb(255, 0, 0)">
  <path d="M718.8882055538623,1250.96823059062L718.8882055538623,1255.268238922878" />
</g>
<g stroke="rgb(255, 0, 0)">
  <path d="M726.0972899965045,1255.268238922878L726.0972899965045,1250.96823059062" />
</g>
<g stroke="rgb(255, 0, 0)">
  <path d="M726.0972899965045,1250.96823059062L733.3063744391467,1250.96823059062" />
</g>
<g stroke="rgb(255, 0, 0)">
  <path d="M733.3063744391467,1250.96823059062L733.3063744391467,1255.268238922878" />
</g>
<g stroke="rgb(255, 0, 0)">
  <path d="M441.9154931231053,1358.273000008237L441.9154931231053,1363.92061945127" />
</g>
<g stroke="rgb(255, 0, 0)">
  <path d="M441.9154931231053,1256.615850033652L441.9154931231053,1262.263469476685" />
</g>
<g stroke="rgb(255, 0, 0)">
  <path d="M441.9154931231053,1267.911088919717L441.9154931231053,1273.55870836275" />
</g>
<g stroke="rgb(255, 0, 0)">
  <path d="M441.9154931231053,1279.206327805782L441.9154931231053,1284.853947248815" />
</g>
<g stroke="rgb(255, 0, 0)">
  <path d="M441.9154931231053,1290.501566691847L441.9154931231053,1296.14918613488" />
</g>
<g stroke="rgb(255, 0, 0)">
  <path d="M441.9154931231053,1301.796805577912L441.9154931231053,1307.444425020945" />
</g>
<g stroke="rgb(255, 0, 0)">
  <path d="M441.9154931231053,1313.092044463977L441.9154931231053,1318.73966390701" />
</g>
<g stroke="rgb(255, 0, 0)">
  <path d="M441.9154931231053,1324.387283350043L441.9154931231053,1330.034902793075" />
</g>
<g stroke="rgb(255, 0, 0)">
  <path d="M441.9154931231053,1335.682522236108L441.9154931231053,1341.330141679141" />
</g>
<g stroke="rgb(255, 0, 0)">
  <path d="M441.9154931231053,1346.977761122172L441.9154931231053,1352.625380565205" />
</g>
<g stroke="rgb(255, 0, 0)">
  <path d="M733.3063744391467,1255.268238922878L740.515494159567,1255.268238922878" />
</g>
<g stroke="rgb(255, 0, 0)">
  <path d="M661.2154947349471,1365.268230562045L668.4245791775893,1365.268230562045" />
</g>
<g stroke="rgb(255, 0, 0)">
  <path d="M675.6336636202315,1365.268230562045L682.8427480628735,1365.268230562045" />
</g>
<g stroke="rgb(255, 0, 0)">
  <path d="M690.0518325055157,1365.268230562045L697.2609169481578,1365.268230562045" />
</g>
<g stroke="rgb(255, 0, 0)">
  <path d="M704.4700366685781,1365.268230562045L711.6791211112203,1365.268230562045" />
</g>
<g stroke="rgb(255, 0, 0)">
  <path d="M718.8882055538623,1365.268230562045L726.0972899965045,1365.268230562045" />
</g>
<g stroke="rgb(255, 0, 0)">
  <path d="M668.4245791775893,1365.268230562045L668.4245791775893,1369.568238894303" />
</g>
<g stroke="rgb(255, 0, 0)">
  <path d="M668.4245791775893,1369.568238894303L675.6336636202315,1369.568238894303" />
</g>
<g stroke="rgb(255, 0, 0)">
  <path d="M675.6336636202315,1369.568238894303L675.6336636202315,1365.268230562045" />
</g>
<g stroke="rgb(255, 0, 0)">
  <path d="M682.8427480628735,1365.268230562045L682.8427480628735,1369.568238894303" />
</g>
<g stroke="rgb(255, 0, 0)">
  <path d="M682.8427480628735,1369.568238894303L690.0518325055157,1369.568238894303" />
</g>
<g stroke="rgb(255, 0, 0)">
  <path d="M690.0518325055157,1369.568238894303L690.0518325055157,1365.268230562045" />
</g>
<g stroke="rgb(255, 0, 0)">
  <path d="M697.2609169481578,1365.268230562045L697.2609169481578,1369.568238894303" />
</g>
<g stroke="rgb(255, 0, 0)">
  <path d="M697.2609169481578,1369.568238894303L704.4700366685781,1369.568238894303" />
</g>
<g stroke="rgb(255, 0, 0)">
  <path d="M704.4700366685781,1369.568238894303L704.4700366685781,1365.268230562045" />
</g>
<g stroke="rgb(255, 0, 0)">
  <path d="M711.6791211112203,1365.268230562045L711.6791211112203,1369.568238894303" />
</g>
<g stroke="rgb(255, 0, 0)">
  <path d="M711.6791211112203,1369.568238894303L718.8882055538623,1369.568238894303" />
</g>
<g stroke="rgb(255, 0, 0)">
  <path d="M718.8882055538623,1369.568238894303L718.8882055538623,1365.268230562045" />
</g>
<g stroke="rgb(255, 0, 0)">
  <path d="M726.0972899965045,1365.268230562045L726.0972899965045,1369.568238894303" />
</g>
<g stroke="rgb(255, 0, 0)">
  <path d="M726.0972899965045,1369.568238894303L733.3063744391467,1369.568238894303" />
</g>
<g stroke="rgb(255, 0, 0)">
  <path d="M733.3063744391467,1369.568238894303L733.3063744391467,1365.268230562045" />
</g>
<g stroke="rgb(255, 0, 0)">
  <path d="M733.3063744391467,1365.268230562045L740.515494159567,1365.268230562045" />
</g>
<g stroke="rgb(255, 0, 0)">
  <path d="M358.3154853662277,1255.268238922878L358.3154853662277,1300.268219467183" />
</g>
<g stroke="rgb(255, 0, 0)">
  <path d="M358.3154853662277,1320.268250017739L358.3154853662277,1365.268230562045" />
</g>
<g stroke="rgb(255, 0, 0)">
  <g>
    <path d="M 358.3154853662277 1300.268219467183 C 363.8383273092915 1300.268219467183 368.3154653637278 1304.745392799397 368.3154653637278 1310.268234742461" />
    <path d="M 368.3154653637278 1310.268234742461 C 368.3154653637278 1315.791076685524 363.8383273092915 1320.268250017739 358.3154853662277 1320.268250017739" />
  </g>
</g>
<g stroke="rgb(255, 0, 0)">
  <path d="M437.6154847908475,1255.268238922878L430.4064003482054,1255.268238922878" />
</g>
<g stroke="rgb(255, 0, 0)">
  <path d="M423.1972806277851,1255.268238922878L415.988196185143,1255.268238922878" />
</g>
<g stroke="rgb(255, 0, 0)">
  <path d="M408.7791117425008,1255.268238922878L401.5700272998587,1255.268238922878" />
</g>
<g stroke="rgb(255, 0, 0)">
  <path d="M394.3609428572165,1255.268238922878L387.1518584145744,1255.268238922878" />
</g>
<g stroke="rgb(255, 0, 0)">
  <path d="M379.9427386941541,1255.268238922878L372.733654251512,1255.268238922878" />
</g>
<g stroke="rgb(255, 0, 0)">
  <path d="M430.4064003482054,1255.268238922878L430.4064003482054,1250.96823059062" />
</g>
<g stroke="rgb(255, 0, 0)">
  <path d="M430.4064003482054,1250.96823059062L423.1972806277851,1250.96823059062" />
</g>
<g stroke="rgb(255, 0, 0)">
  <path d="M423.1972806277851,1250.96823059062L423.1972806277851,1255.268238922878" />
</g>
<g stroke="rgb(255, 0, 0)">
  <path d="M415.988196185143,1255.268238922878L415.988196185143,1250.96823059062" />
</g>
<g stroke="rgb(255, 0, 0)">
  <path d="M415.988196185143,1250.96823059062L408.7791117425008,1250.96823059062" />
</g>
<g stroke="rgb(255, 0, 0)">
  <path d="M408.7791117425008,1250.96823059062L408.7791117425008,1255.268238922878" />
</g>
<g stroke="rgb(255, 0, 0)">
  <path d="M401.5700272998587,1255.268238922878L401.5700272998587,1250.96823059062" />
</g>
<g stroke="rgb(255, 0, 0)">
  <path d="M401.5700272998587,1250.96823059062L394.3609428572165,1250.96823059062" />
</g>
<g stroke="rgb(255, 0, 0)">
  <path d="M394.3609428572165,1250.96823059062L394.3609428572165,1255.268238922878" />
</g>
<g stroke="rgb(255, 0, 0)">
  <path d="M387.1518584145744,1255.268238922878L387.1518584145744,1250.96823059062" />
</g>
<g stroke="rgb(255, 0, 0)">
  <path d="M387.1518584145744,1250.96823059062L379.9427386941541,1250.96823059062" />
</g>
<g stroke="rgb(255, 0, 0)">
  <path d="M379.9427386941541,1250.96823059062L379.9427386941541,1255.268238922878" />
</g>
<g stroke="rgb(255, 0, 0)">
  <path d="M372.733654251512,1255.268238922878L372.733654251512,1250.96823059062" />
</g>
<g stroke="rgb(255, 0, 0)">
  <path d="M372.733654251512,1250.96823059062L365.5245698088698,1250.96823059062" />
</g>
<g stroke="rgb(255, 0, 0)">
  <path d="M365.5245698088698,1250.96823059062L365.5245698088698,1255.268238922878" />
</g>
<g stroke="rgb(255, 0, 0)">
  <path d="M365.5245698088698,1255.268238922878L358.3154853662277,1255.268238922878" />
</g>
<g stroke="rgb(255, 0, 0)">
  <path d="M437.6154847908475,1365.268230562045L430.4064003482054,1365.268230562045" />
</g>
<g stroke="rgb(255, 0, 0)">
  <path d="M423.1972806277851,1365.268230562045L415.988196185143,1365.268230562045" />
</g>
<g stroke="rgb(255, 0, 0)">
  <path d="M408.7791117425008,1365.268230562045L401.5700272998587,1365.268230562045" />
</g>
<g stroke="rgb(255, 0, 0)">
  <path d="M394.3609428572165,1365.268230562045L387.1518584145744,1365.268230562045" />
</g>
<g stroke="rgb(255, 0, 0)">
  <path d="M379.9427386941541,1365.268230562045L372.733654251512,1365.268230562045" />
</g>
<g stroke="rgb(255, 0, 0)">
  <path d="M430.4064003482054,1365.268230562045L430.4064003482054,1369.568238894303" />
</g>
<g stroke="rgb(255, 0, 0)">
  <path d="M430.4064003482054,1369.568238894303L423.1972806277851,1369.568238894303" />
</g>
<g stroke="rgb(255, 0, 0)">
  <path d="M423.1972806277851,1369.568238894303L423.1972806277851,1365.268230562045" />
</g>
<g stroke="rgb(255, 0, 0)">
  <path d="M415.988196185143,1365.268230562045L415.988196185143,1369.568238894303" />
</g>
<g stroke="rgb(255, 0, 0)">
  <path d="M415.988196185143,1369.568238894303L408.7791117425008,1369.568238894303" />
</g>
<g stroke="rgb(255, 0, 0)">
  <path d="M408.7791117425008,1369.568238894303L408.7791117425008,1365.268230562045" />
</g>
<g stroke="rgb(255, 0, 0)">
  <path d="M401.5700272998587,1365.268230562045L401.5700272998587,1369.568238894303" />
</g>
<g stroke="rgb(255, 0, 0)">
  <path d="M401.5700272998587,1369.568238894303L394.3609428572165,1369.568238894303" />
</g>
<g stroke="rgb(255, 0, 0)">
  <path d="M394.3609428572165,1369.568238894303L394.3609428572165,1365.268230562045" />
</g>
<g stroke="rgb(255, 0, 0)">
  <path d="M387.1518584145744,1365.268230562045L387.1518584145744,1369.568238894303" />
</g>
<g stroke="rgb(255, 0, 0)">
  <path d="M387.1518584145744,1369.568238894303L379.9427386941541,1369.568238894303" />
</g>
<g stroke="rgb(255, 0, 0)">
  <path d="M379.9427386941541,1369.568238894303L379.9427386941541,1365.268230562045" />
</g>
<g stroke="rgb(255, 0, 0)">
  <path d="M372.733654251512,1365.268230562045L372.733654251512,1369.568238894303" />
</g>
<g stroke="rgb(255, 0, 0)">
  <path d="M372.733654251512,1369.568238894303L365.5245698088698,1369.568238894303" />
</g>
<g stroke="rgb(255, 0, 0)">
  <path d="M365.5245698088698,1369.568238894303L365.5245698088698,1365.268230562045" />
</g>
<g stroke="rgb(255, 0, 0)">
  <path d="M365.5245698088698,1365.268230562045L358.3154853662277,1365.268230562045" />
</g>
<g stroke="rgb(0, 255, 255)">
  <g transform="matrix(1 0 0 1 0 0)">
    <g>
      <path d="M 192.592037783513 584.8250065041294 C 192.592037783513 598.5938986353102 203.7539302437937 609.7557910955909 217.5228223749744 609.7557910955909" />
      <path d="M 217.5228223749744 609.7557910955909 C 231.2917145061552 609.7557910955909 242.4536069664356 598.5938986353102 242.4536069664356 584.8250065041294" />
      <path d="M 242.4536069664356 584.8250065041294 C 242.4536069664356 571.0561143729487 231.2917145061552 559.8942219126681 217.5228223749744 559.8942219126681" />
      <path d="M 217.5228223749744 559.8942219126681 C 203.7539302437937 559.8942219126681 192.592037783513 571.0561143729487 192.592037783513 584.8250065041294" />
      <path d="M 192.592037783513 584.8250065041294 C 192.592037783513 584.8250065041294 192.592037783513 584.8250065041294 192.592037783513 584.8250065041294" />
    </g>
  </g>
</g>
<g stroke="rgb(0, 255, 255)">
  <path d="M656.9154864026887,1175.968239498258L441.9154931231053,1175.968239498258" />
</g>
<g stroke="rgb(0, 255, 255)">
  <path d="M656.9154864026887,1444.568229986664L441.9154931231053,1444.568229986664" />
</g>
<g stroke="rgb(0, 0, 0)">
  <path d="M751.0988274902545,1161.084897835312L-548.9011827403017,1161.084897835312L-548.9011827403017,2061.084896776979L751.0988274902545,2061.084896776979L751.0988274902545,1161.084897835312" />
</g>
  </g>
</svg>