<?xml version="1.0"?>
<svg
  xmlns="http://www.w3.org/2000/svg"
  xmlns:xlink="http://www.w3.org/1999/xlink" version="1.1"
  preserveAspectRatio="xMinYMin meet"
  viewBox="8559.317236769755 -4758.001724019825 583.8194854660833 462.98807617596685"
  width="100%" height="100%"
>
  <g stroke="#000000" stroke-width="0.1%" fill="none" transform="matrix(1,0,0,-1,0,0)">
    <g stroke="rgb(0, 0, 255)">
  <path d="M8807.996479962,4520.858294669943L8807.996479962,4515.210675622324" />
</g>
<g stroke="rgb(255, 0, 0)">
  <path d="M8807.996479962,4520.858294669943L8807.996479962,4528.067385579034" />
</g>
<g stroke="rgb(255, 0, 0)">
  <path d="M8807.996479962,4535.276476488124L8807.996479962,4542.485567397215" />
</g>
<g stroke="rgb(255, 0, 0)">
  <path d="M8807.996479962,4549.694658306306L8807.996479962,4556.903749215396" />
</g>
<g stroke="rgb(255, 0, 0)">
  <path d="M8807.996479962,4564.112840124489L8807.996479962,4571.321931033579" />
</g>
<g stroke="rgb(255, 0, 0)">
  <path d="M8807.996479962,4578.531021942671L8807.996479962,4585.740112851762" />
</g>
<g stroke="rgb(255, 0, 0)">
  <path d="M8807.996479962,4592.949203760852L8807.996479962,4600.158294669942" />
</g>
<g stroke="rgb(255, 0, 0)">
  <path d="M8807.996479962,4600.158294669942L9031.596479962001,4600.158294669942" />
</g>
<g stroke="rgb(255, 0, 0)">
  <path d="M9031.596479962001,4600.158294669942L9031.596479962001,4592.949203760852" />
</g>
<g stroke="rgb(255, 0, 0)">
  <path d="M9031.596479962001,4585.740112851762L9031.596479962001,4578.531021942671" />
</g>
<g stroke="rgb(255, 0, 0)">
  <path d="M9031.596479962001,4571.321931033579L9031.596479962001,4564.112840124489" />
</g>
<g stroke="rgb(255, 0, 0)">
  <path d="M9031.596479962001,4556.903749215396L9031.596479962001,4549.694658306306" />
</g>
<g stroke="rgb(255, 0, 0)">
  <path d="M9031.596479962001,4542.485567397215L9031.596479962001,4535.276476488124" />
</g>
<g stroke="rgb(255, 0, 0)">
  <path d="M9031.596479962001,4528.067385579034L9031.596479962001,4520.858294669943" />
</g>
<g stroke="rgb(255, 0, 0)">
  <path d="M8728.696479962002,4516.558294669942L8728.696479962002,4471.558294669942" />
</g>
<g stroke="rgb(255, 0, 0)">
  <path d="M8728.696479962002,4451.558294669943L8728.696479962002,4406.558294669942" />
</g>
<g stroke="rgb(255, 0, 0)">
  <path d="M9031.596479962001,4520.858294669943L9031.596479962001,4515.210675622324" />
</g>
<g stroke="rgb(0, 0, 255)">
  <path d="M9031.596479962001,4407.905913717561L9031.596479962001,4402.258294669943" />
</g>
<g stroke="rgb(255, 0, 0)">
  <path d="M8807.996479962,4402.258294669943L8807.996479962,4395.049203760851" />
</g>
<g stroke="rgb(255, 0, 0)">
  <path d="M8807.996479962,4387.84011285176L8807.996479962,4380.63102194267" />
</g>
<g stroke="rgb(255, 0, 0)">
  <path d="M8807.996479962,4373.421931033579L8807.996479962,4366.212840124489" />
</g>
<g stroke="rgb(255, 0, 0)">
  <path d="M8807.996479962,4359.003749215398L8807.996479962,4351.794658306306" />
</g>
<g stroke="rgb(255, 0, 0)">
  <path d="M8807.996479962,4344.585567397215L8807.996479962,4337.376476488123" />
</g>
<g stroke="rgb(255, 0, 0)">
  <path d="M8807.996479962,4330.167385579033L8807.996479962,4322.958294669944" />
</g>
<g stroke="rgb(255, 0, 0)">
  <path d="M8807.996479962,4322.958294669944L9031.596479962001,4322.958294669944" />
</g>
<g stroke="rgb(255, 0, 0)">
  <path d="M9031.596479962001,4322.958294669944L9031.596479962001,4330.167385579033" />
</g>
<g stroke="rgb(255, 0, 0)">
  <path d="M9031.596479962001,4337.376476488123L9031.596479962001,4344.585567397215" />
</g>
<g stroke="rgb(255, 0, 0)">
  <path d="M9031.596479962001,4351.794658306306L9031.596479962001,4359.003749215398" />
</g>
<g stroke="rgb(255, 0, 0)">
  <path d="M9031.596479962001,4366.212840124489L9031.596479962001,4373.421931033579" />
</g>
<g stroke="rgb(255, 0, 0)">
  <path d="M9031.596479962001,4380.63102194267L9031.596479962001,4387.84011285176" />
</g>
<g stroke="rgb(255, 0, 0)">
  <path d="M9031.596479962001,4395.049203760851L9031.596479962001,4402.258294669943" />
</g>
<g stroke="rgb(255, 0, 0)">
  <path d="M 8728.696479962002 4451.558294669942 A 10 10 0 1 1 8728.696479962002 4471.558294669942" />
</g>
<g stroke="rgb(255, 0, 0)">
  <path d="M8807.996479962,4528.067385579034L8812.296479962,4528.067385579034" />
</g>
<g stroke="rgb(255, 0, 0)">
  <path d="M8812.296479962,4528.067385579034L8812.296479962,4535.276476488124" />
</g>
<g stroke="rgb(255, 0, 0)">
  <path d="M8812.296479962,4535.276476488124L8807.996479962,4535.276476488124" />
</g>
<g stroke="rgb(255, 0, 0)">
  <path d="M8807.996479962,4542.485567397215L8812.296479962,4542.485567397215" />
</g>
<g stroke="rgb(255, 0, 0)">
  <path d="M8812.296479962,4542.485567397215L8812.296479962,4549.694658306306" />
</g>
<g stroke="rgb(255, 0, 0)">
  <path d="M8812.296479962,4549.694658306306L8807.996479962,4549.694658306306" />
</g>
<g stroke="rgb(255, 0, 0)">
  <path d="M8807.996479962,4556.903749215396L8812.296479962,4556.903749215396" />
</g>
<g stroke="rgb(255, 0, 0)">
  <path d="M8812.296479962,4556.903749215396L8812.296479962,4564.112840124489" />
</g>
<g stroke="rgb(255, 0, 0)">
  <path d="M8812.296479962,4564.112840124489L8807.996479962,4564.112840124489" />
</g>
<g stroke="rgb(255, 0, 0)">
  <path d="M8807.996479962,4571.321931033579L8812.296479962,4571.321931033579" />
</g>
<g stroke="rgb(255, 0, 0)">
  <path d="M8812.296479962,4571.321931033579L8812.296479962,4578.531021942671" />
</g>
<g stroke="rgb(255, 0, 0)">
  <path d="M8812.296479962,4578.531021942671L8807.996479962,4578.531021942671" />
</g>
<g stroke="rgb(255, 0, 0)">
  <path d="M8807.996479962,4585.740112851762L8812.296479962,4585.740112851762" />
</g>
<g stroke="rgb(255, 0, 0)">
  <path d="M8812.296479962,4585.740112851762L8812.296479962,4592.949203760852" />
</g>
<g stroke="rgb(255, 0, 0)">
  <path d="M8812.296479962,4592.949203760852L8807.996479962,4592.949203760852" />
</g>
<g stroke="rgb(255, 0, 0)">
  <path d="M9031.596479962001,4535.276476488124L9031.596479962001,4542.485567397215" />
</g>
<g stroke="rgb(255, 0, 0)">
  <path d="M9031.596479962001,4549.694658306306L9031.596479962001,4556.903749215396" />
</g>
<g stroke="rgb(255, 0, 0)">
  <path d="M9031.596479962001,4564.112840124489L9031.596479962001,4571.321931033579" />
</g>
<g stroke="rgb(255, 0, 0)">
  <path d="M9031.596479962001,4578.531021942671L9031.596479962001,4585.740112851762" />
</g>
<g stroke="rgb(255, 0, 0)">
  <path d="M9031.596479962001,4528.067385579034L9027.296479962,4528.067385579034" />
</g>
<g stroke="rgb(255, 0, 0)">
  <path d="M9027.296479962,4528.067385579034L9027.296479962,4535.276476488124" />
</g>
<g stroke="rgb(255, 0, 0)">
  <path d="M9027.296479962,4535.276476488124L9031.596479962001,4535.276476488124" />
</g>
<g stroke="rgb(255, 0, 0)">
  <path d="M9031.596479962001,4542.485567397215L9027.296479962,4542.485567397215" />
</g>
<g stroke="rgb(255, 0, 0)">
  <path d="M9027.296479962,4542.485567397215L9027.296479962,4549.694658306306" />
</g>
<g stroke="rgb(255, 0, 0)">
  <path d="M9027.296479962,4549.694658306306L9031.596479962001,4549.694658306306" />
</g>
<g stroke="rgb(255, 0, 0)">
  <path d="M9031.596479962001,4556.903749215396L9027.296479962,4556.903749215396" />
</g>
<g stroke="rgb(255, 0, 0)">
  <path d="M9027.296479962,4556.903749215396L9027.296479962,4564.112840124489" />
</g>
<g stroke="rgb(255, 0, 0)">
  <path d="M9027.296479962,4564.112840124489L9031.596479962001,4564.112840124489" />
</g>
<g stroke="rgb(255, 0, 0)">
  <path d="M9031.596479962001,4571.321931033579L9027.296479962,4571.321931033579" />
</g>
<g stroke="rgb(255, 0, 0)">
  <path d="M9027.296479962,4571.321931033579L9027.296479962,4578.531021942671" />
</g>
<g stroke="rgb(255, 0, 0)">
  <path d="M9027.296479962,4578.531021942671L9031.596479962001,4578.531021942671" />
</g>
<g stroke="rgb(255, 0, 0)">
  <path d="M9031.596479962001,4585.740112851762L9027.296479962,4585.740112851762" />
</g>
<g stroke="rgb(255, 0, 0)">
  <path d="M9027.296479962,4585.740112851762L9027.296479962,4592.949203760852" />
</g>
<g stroke="rgb(255, 0, 0)">
  <path d="M9027.296479962,4592.949203760852L9031.596479962001,4592.949203760852" />
</g>
<g stroke="rgb(255, 0, 0)">
  <path d="M8807.996479962,4387.84011285176L8807.996479962,4380.63102194267" />
</g>
<g stroke="rgb(255, 0, 0)">
  <path d="M8807.996479962,4373.421931033579L8807.996479962,4366.212840124489" />
</g>
<g stroke="rgb(255, 0, 0)">
  <path d="M8807.996479962,4359.003749215398L8807.996479962,4351.794658306306" />
</g>
<g stroke="rgb(255, 0, 0)">
  <path d="M8807.996479962,4344.585567397215L8807.996479962,4337.376476488123" />
</g>
<g stroke="rgb(255, 0, 0)">
  <path d="M9031.596479962001,4337.376476488123L9031.596479962001,4344.585567397215" />
</g>
<g stroke="rgb(255, 0, 0)">
  <path d="M9031.596479962001,4351.794658306306L9031.596479962001,4359.003749215398" />
</g>
<g stroke="rgb(255, 0, 0)">
  <path d="M9031.596479962001,4366.212840124489L9031.596479962001,4373.421931033579" />
</g>
<g stroke="rgb(255, 0, 0)">
  <path d="M9031.596479962001,4380.63102194267L9031.596479962001,4387.84011285176" />
</g>
<g stroke="rgb(255, 0, 0)">
  <path d="M8812.296479961997,4359.003749215398L8807.996479962,4359.003749215398" />
</g>
<g stroke="rgb(255, 0, 0)">
  <path d="M8807.996479962,4351.794658306306L8812.296479961997,4351.794658306306" />
</g>
<g stroke="rgb(255, 0, 0)">
  <path d="M8812.296479961997,4351.794658306306L8812.296479961997,4344.585567397215" />
</g>
<g stroke="rgb(255, 0, 0)">
  <path d="M8812.296479961997,4344.585567397215L8807.996479962,4344.585567397215" />
</g>
<g stroke="rgb(255, 0, 0)">
  <path d="M8807.996479962,4337.376476488123L8812.296479961997,4337.376476488123" />
</g>
<g stroke="rgb(255, 0, 0)">
  <path d="M8812.296479961997,4337.376476488123L8812.296479961997,4330.167385579033" />
</g>
<g stroke="rgb(255, 0, 0)">
  <path d="M8812.296479961997,4330.167385579033L8807.996479962,4330.167385579033" />
</g>
<g stroke="rgb(255, 0, 0)">
  <path d="M9031.596479962001,4387.84011285176L9031.596479962001,4380.63102194267" />
</g>
<g stroke="rgb(255, 0, 0)">
  <path d="M9031.596479962001,4373.421931033579L9031.596479962001,4366.212840124489" />
</g>
<g stroke="rgb(255, 0, 0)">
  <path d="M9031.596479962001,4359.003749215398L9031.596479962001,4351.794658306306" />
</g>
<g stroke="rgb(255, 0, 0)">
  <path d="M9031.596479962001,4344.585567397215L9031.596479962001,4337.376476488123" />
</g>
<g stroke="rgb(255, 0, 0)">
  <path d="M9031.596479962001,4395.049203760851L9027.296479962,4395.049203760851" />
</g>
<g stroke="rgb(255, 0, 0)">
  <path d="M9027.296479962,4395.049203760851L9027.296479962,4387.84011285176" />
</g>
<g stroke="rgb(255, 0, 0)">
  <path d="M9027.296479962,4387.84011285176L9031.596479962001,4387.84011285176" />
</g>
<g stroke="rgb(255, 0, 0)">
  <path d="M9031.596479962001,4380.63102194267L9027.296479962,4380.63102194267" />
</g>
<g stroke="rgb(255, 0, 0)">
  <path d="M9027.296479962,4380.63102194267L9027.296479962,4373.421931033579" />
</g>
<g stroke="rgb(255, 0, 0)">
  <path d="M9027.296479962,4373.421931033579L9031.596479962001,4373.421931033579" />
</g>
<g stroke="rgb(255, 0, 0)">
  <path d="M9031.596479962001,4366.212840124489L9027.296479962,4366.212840124489" />
</g>
<g stroke="rgb(255, 0, 0)">
  <path d="M9027.296479962,4366.212840124489L9027.296479962,4359.003749215398" />
</g>
<g stroke="rgb(255, 0, 0)">
  <path d="M9027.296479962,4359.003749215398L9031.596479962001,4359.003749215398" />
</g>
<g stroke="rgb(255, 0, 0)">
  <path d="M9031.596479962001,4351.794658306306L9027.296479962,4351.794658306306" />
</g>
<g stroke="rgb(255, 0, 0)">
  <path d="M9027.296479962,4351.794658306306L9027.296479962,4344.585567397215" />
</g>
<g stroke="rgb(255, 0, 0)">
  <path d="M9027.296479962,4344.585567397215L9031.596479962001,4344.585567397215" />
</g>
<g stroke="rgb(255, 0, 0)">
  <path d="M9031.596479962001,4337.376476488123L9027.296479962,4337.376476488123" />
</g>
<g stroke="rgb(255, 0, 0)">
  <path d="M9027.296479962,4337.376476488123L9027.296479962,4330.167385579033" />
</g>
<g stroke="rgb(255, 0, 0)">
  <path d="M9027.296479962,4330.167385579033L9031.596479962001,4330.167385579033" />
</g>
<g stroke="rgb(255, 0, 0)">
  <path d="M8807.996479962,4516.558294669942L8800.78738905291,4516.558294669942" />
</g>
<g stroke="rgb(255, 0, 0)">
  <path d="M8793.578298143817,4516.558294669942L8786.369207234728,4516.558294669942" />
</g>
<g stroke="rgb(255, 0, 0)">
  <path d="M8779.160116325638,4516.558294669942L8771.951025416545,4516.558294669942" />
</g>
<g stroke="rgb(255, 0, 0)">
  <path d="M8764.741934507458,4516.558294669942L8757.532843598367,4516.558294669942" />
</g>
<g stroke="rgb(255, 0, 0)">
  <path d="M8750.323752689274,4516.558294669942L8743.11466178018,4516.558294669942" />
</g>
<g stroke="rgb(255, 0, 0)">
  <path d="M8800.78738905291,4516.558294669942L8800.78738905291,4520.858294669943" />
</g>
<g stroke="rgb(255, 0, 0)">
  <path d="M8800.78738905291,4520.858294669943L8793.578298143817,4520.858294669943" />
</g>
<g stroke="rgb(255, 0, 0)">
  <path d="M8793.578298143817,4520.858294669943L8793.578298143817,4516.558294669942" />
</g>
<g stroke="rgb(255, 0, 0)">
  <path d="M8786.369207234728,4516.558294669942L8786.369207234728,4520.858294669943" />
</g>
<g stroke="rgb(255, 0, 0)">
  <path d="M8786.369207234728,4520.858294669943L8779.160116325638,4520.858294669943" />
</g>
<g stroke="rgb(255, 0, 0)">
  <path d="M8779.160116325638,4520.858294669943L8779.160116325638,4516.558294669942" />
</g>
<g stroke="rgb(255, 0, 0)">
  <path d="M8771.951025416545,4516.558294669942L8771.951025416545,4520.858294669943" />
</g>
<g stroke="rgb(255, 0, 0)">
  <path d="M8771.951025416545,4520.858294669943L8764.741934507458,4520.858294669943" />
</g>
<g stroke="rgb(255, 0, 0)">
  <path d="M8764.741934507458,4520.858294669943L8764.741934507458,4516.558294669942" />
</g>
<g stroke="rgb(255, 0, 0)">
  <path d="M8757.532843598367,4516.558294669942L8757.532843598367,4520.858294669943" />
</g>
<g stroke="rgb(255, 0, 0)">
  <path d="M8757.532843598367,4520.858294669943L8750.323752689274,4520.858294669943" />
</g>
<g stroke="rgb(255, 0, 0)">
  <path d="M8750.323752689274,4520.858294669943L8750.323752689274,4516.558294669942" />
</g>
<g stroke="rgb(255, 0, 0)">
  <path d="M8743.11466178018,4516.558294669942L8743.11466178018,4520.858294669943" />
</g>
<g stroke="rgb(255, 0, 0)">
  <path d="M8743.11466178018,4520.858294669943L8735.905570871091,4520.858294669943" />
</g>
<g stroke="rgb(255, 0, 0)">
  <path d="M8735.905570871091,4520.858294669943L8735.905570871091,4516.558294669942" />
</g>
<g stroke="rgb(255, 0, 0)">
  <path d="M8735.905570871091,4516.558294669942L8728.696479962002,4516.558294669942" />
</g>
<g stroke="rgb(255, 0, 0)">
  <path d="M8793.578298143817,4406.558294669942L8786.369207234728,4406.558294669942" />
</g>
<g stroke="rgb(255, 0, 0)">
  <path d="M8779.160116325638,4406.558294669942L8771.951025416545,4406.558294669942" />
</g>
<g stroke="rgb(255, 0, 0)">
  <path d="M8764.741934507458,4406.558294669942L8757.532843598367,4406.558294669942" />
</g>
<g stroke="rgb(255, 0, 0)">
  <path d="M8750.323752689274,4406.558294669942L8743.11466178018,4406.558294669942" />
</g>
<g stroke="rgb(255, 0, 0)">
  <path d="M8800.78738905291,4406.558294669942L8800.78738905291,4402.258294669943" />
</g>
<g stroke="rgb(255, 0, 0)">
  <path d="M8800.78738905291,4402.258294669943L8793.578298143817,4402.258294669943" />
</g>
<g stroke="rgb(255, 0, 0)">
  <path d="M8793.578298143817,4402.258294669943L8793.578298143817,4406.558294669942" />
</g>
<g stroke="rgb(255, 0, 0)">
  <path d="M8786.369207234728,4406.558294669942L8786.369207234728,4402.258294669943" />
</g>
<g stroke="rgb(255, 0, 0)">
  <path d="M8786.369207234728,4402.258294669943L8779.160116325638,4402.258294669943" />
</g>
<g stroke="rgb(255, 0, 0)">
  <path d="M8779.160116325638,4402.258294669943L8779.160116325638,4406.558294669942" />
</g>
<g stroke="rgb(255, 0, 0)">
  <path d="M8771.951025416545,4406.558294669942L8771.951025416545,4402.258294669943" />
</g>
<g stroke="rgb(255, 0, 0)">
  <path d="M8771.951025416545,4402.258294669943L8764.741934507458,4402.258294669943" />
</g>
<g stroke="rgb(255, 0, 0)">
  <path d="M8764.741934507458,4402.258294669943L8764.741934507458,4406.558294669942" />
</g>
<g stroke="rgb(255, 0, 0)">
  <path d="M8757.532843598367,4406.558294669942L8757.532843598367,4402.258294669943" />
</g>
<g stroke="rgb(255, 0, 0)">
  <path d="M8757.532843598367,4402.258294669943L8750.323752689274,4402.258294669943" />
</g>
<g stroke="rgb(255, 0, 0)">
  <path d="M8750.323752689274,4402.258294669943L8750.323752689274,4406.558294669942" />
</g>
<g stroke="rgb(255, 0, 0)">
  <path d="M8743.11466178018,4406.558294669942L8743.11466178018,4402.258294669943" />
</g>
<g stroke="rgb(255, 0, 0)">
  <path d="M8743.11466178018,4402.258294669943L8735.905570871091,4402.258294669943" />
</g>
<g stroke="rgb(255, 0, 0)">
  <path d="M8735.905570871091,4402.258294669943L8735.905570871091,4406.558294669942" />
</g>
<g stroke="rgb(255, 0, 0)">
  <path d="M8735.905570871091,4406.558294669942L8728.696479962002,4406.558294669942" />
</g>
<g stroke="rgb(255, 0, 0)">
  <path d="M9110.896479962,4516.558294669942L9110.896479962,4471.558294669942" />
</g>
<g stroke="rgb(255, 0, 0)">
  <path d="M9110.896479962,4451.558294669943L9110.896479962,4406.558294669942" />
</g>
<g stroke="rgb(255, 0, 0)">
  <path d="M 9110.896479962 4471.558294669942 A 10 10 0 1 1 9110.896479962 4451.558294669942" />
</g>
<g stroke="rgb(255, 0, 0)">
  <path d="M9031.596479962001,4516.558294669942L9038.805570871089,4516.558294669942" />
</g>
<g stroke="rgb(255, 0, 0)">
  <path d="M9046.014661780184,4516.558294669942L9053.223752689273,4516.558294669942" />
</g>
<g stroke="rgb(255, 0, 0)">
  <path d="M9060.43284359836,4516.558294669942L9067.641934507454,4516.558294669942" />
</g>
<g stroke="rgb(255, 0, 0)">
  <path d="M9074.851025416547,4516.558294669942L9082.06011632564,4516.558294669942" />
</g>
<g stroke="rgb(255, 0, 0)">
  <path d="M9089.269207234727,4516.558294669942L9096.47829814382,4516.558294669942" />
</g>
<g stroke="rgb(255, 0, 0)">
  <path d="M9038.805570871089,4516.558294669942L9038.805570871089,4520.858294669943" />
</g>
<g stroke="rgb(255, 0, 0)">
  <path d="M9038.805570871089,4520.858294669943L9046.014661780184,4520.858294669943" />
</g>
<g stroke="rgb(255, 0, 0)">
  <path d="M9046.014661780184,4520.858294669943L9046.014661780184,4516.558294669942" />
</g>
<g stroke="rgb(255, 0, 0)">
  <path d="M9053.223752689273,4516.558294669942L9053.223752689273,4520.858294669943" />
</g>
<g stroke="rgb(255, 0, 0)">
  <path d="M9053.223752689273,4520.858294669943L9060.43284359836,4520.858294669943" />
</g>
<g stroke="rgb(255, 0, 0)">
  <path d="M9060.43284359836,4520.858294669943L9060.43284359836,4516.558294669942" />
</g>
<g stroke="rgb(255, 0, 0)">
  <path d="M9067.641934507454,4516.558294669942L9067.641934507454,4520.858294669943" />
</g>
<g stroke="rgb(255, 0, 0)">
  <path d="M9067.641934507454,4520.858294669943L9074.851025416547,4520.858294669943" />
</g>
<g stroke="rgb(255, 0, 0)">
  <path d="M9074.851025416547,4520.858294669943L9074.851025416547,4516.558294669942" />
</g>
<g stroke="rgb(255, 0, 0)">
  <path d="M9082.06011632564,4516.558294669942L9082.06011632564,4520.858294669943" />
</g>
<g stroke="rgb(255, 0, 0)">
  <path d="M9082.06011632564,4520.858294669943L9089.269207234727,4520.858294669943" />
</g>
<g stroke="rgb(255, 0, 0)">
  <path d="M9089.269207234727,4520.858294669943L9089.269207234727,4516.558294669942" />
</g>
<g stroke="rgb(255, 0, 0)">
  <path d="M9096.47829814382,4516.558294669942L9096.47829814382,4520.858294669943" />
</g>
<g stroke="rgb(255, 0, 0)">
  <path d="M9096.47829814382,4520.858294669943L9103.68738905291,4520.858294669943" />
</g>
<g stroke="rgb(255, 0, 0)">
  <path d="M9103.68738905291,4520.858294669943L9103.68738905291,4516.558294669942" />
</g>
<g stroke="rgb(255, 0, 0)">
  <path d="M9103.68738905291,4516.558294669942L9110.896479962,4516.558294669942" />
</g>
<g stroke="rgb(255, 0, 0)">
  <path d="M9031.596479962001,4406.558294669942L9038.805570871089,4406.558294669942" />
</g>
<g stroke="rgb(255, 0, 0)">
  <path d="M9046.014661780184,4406.558294669942L9053.223752689273,4406.558294669942" />
</g>
<g stroke="rgb(255, 0, 0)">
  <path d="M9060.43284359836,4406.558294669942L9067.641934507454,4406.558294669942" />
</g>
<g stroke="rgb(255, 0, 0)">
  <path d="M9074.851025416547,4406.558294669942L9082.06011632564,4406.558294669942" />
</g>
<g stroke="rgb(255, 0, 0)">
  <path d="M9089.269207234727,4406.558294669942L9096.47829814382,4406.558294669942" />
</g>
<g stroke="rgb(255, 0, 0)">
  <path d="M9038.805570871089,4406.558294669942L9038.805570871089,4402.258294669943" />
</g>
<g stroke="rgb(255, 0, 0)">
  <path d="M9038.805570871089,4402.258294669943L9046.014661780184,4402.258294669943" />
</g>
<g stroke="rgb(255, 0, 0)">
  <path d="M9046.014661780184,4402.258294669943L9046.014661780184,4406.558294669942" />
</g>
<g stroke="rgb(255, 0, 0)">
  <path d="M9053.223752689273,4406.558294669942L9053.223752689273,4402.258294669943" />
</g>
<g stroke="rgb(255, 0, 0)">
  <path d="M9053.223752689273,4402.258294669943L9060.43284359836,4402.258294669943" />
</g>
<g stroke="rgb(255, 0, 0)">
  <path d="M9060.43284359836,4402.258294669943L9060.43284359836,4406.558294669942" />
</g>
<g stroke="rgb(255, 0, 0)">
  <path d="M9067.641934507454,4406.558294669942L9067.641934507454,4402.258294669943" />
</g>
<g stroke="rgb(255, 0, 0)">
  <path d="M9067.641934507454,4402.258294669943L9074.851025416547,4402.258294669943" />
</g>
<g stroke="rgb(255, 0, 0)">
  <path d="M9074.851025416547,4402.258294669943L9074.851025416547,4406.558294669942" />
</g>
<g stroke="rgb(255, 0, 0)">
  <path d="M9082.06011632564,4406.558294669942L9082.06011632564,4402.258294669943" />
</g>
<g stroke="rgb(255, 0, 0)">
  <path d="M9082.06011632564,4402.258294669943L9089.269207234727,4402.258294669943" />
</g>
<g stroke="rgb(255, 0, 0)">
  <path d="M9089.269207234727,4402.258294669943L9089.269207234727,4406.558294669942" />
</g>
<g stroke="rgb(255, 0, 0)">
  <path d="M9096.47829814382,4406.558294669942L9096.47829814382,4402.258294669943" />
</g>
<g stroke="rgb(255, 0, 0)">
  <path d="M9096.47829814382,4402.258294669943L9103.68738905291,4402.258294669943" />
</g>
<g stroke="rgb(255, 0, 0)">
  <path d="M9103.68738905291,4402.258294669943L9103.68738905291,4406.558294669942" />
</g>
<g stroke="rgb(255, 0, 0)">
  <path d="M9103.68738905291,4406.558294669942L9110.896479962,4406.558294669942" />
</g>
<g stroke="rgb(0, 0, 0)">
  <path d="M8559.317236769755,4758.001724019825L9143.136722235839,4758.001724019825L9143.136722235839,4295.013647843858L8559.317236769755,4295.013647843858L8559.317236769755,4758.001724019825" />
</g>
  </g>
</svg>