<?xml version="1.0"?>
<svg
  xmlns="http://www.w3.org/2000/svg"
  xmlns:xlink="http://www.w3.org/1999/xlink" version="1.1"
  preserveAspectRatio="xMinYMin meet"
  viewBox="31.97941 -251.894761 146.041178 206.789517"
  width="100%" height="100%"
>
  <g stroke="#000000" stroke-width="0.1%" fill="none" transform="matrix(1,0,0,-1,0,0)">
    <g stroke="rgb(0, 0, 0)">
  <path d="M104.616352,251.894761L99.350964,251.658166" />
</g>
<g stroke="rgb(0, 0, 0)">
  <path d="M99.350964,251.658166L94.28324,250.948647" />
</g>
<g stroke="rgb(0, 0, 0)">
  <path d="M94.28324,250.948647L89.413276,249.76637" />
</g>
<g stroke="rgb(0, 0, 0)">
  <path d="M89.413276,249.76637L84.741172,248.1115" />
</g>
<g stroke="rgb(0, 0, 0)">
  <path d="M84.741172,248.1115L80.267024,245.984203" />
</g>
<g stroke="rgb(0, 0, 0)">
  <path d="M80.267024,245.984203L75.99093,243.384645" />
</g>
<g stroke="rgb(0, 0, 0)">
  <path d="M75.99093,243.384645L71.912988,240.312993" />
</g>
<g stroke="rgb(0, 0, 0)">
  <path d="M71.912988,240.312993L68.033296,236.76941" />
</g>
<g stroke="rgb(0, 0, 0)">
  <path d="M68.033296,236.76941L64.489263,232.890777" />
</g>
<g stroke="rgb(0, 0, 0)">
  <path d="M64.489263,232.890777L61.418202,228.814136" />
</g>
<g stroke="rgb(0, 0, 0)">
  <path d="M61.418202,228.814136L58.819979,224.539469" />
</g>
<g stroke="rgb(0, 0, 0)">
  <path d="M58.819979,224.539469L56.694462,220.06676" />
</g>
<g stroke="rgb(0, 0, 0)">
  <path d="M56.694462,220.06676L55.041515,215.395993" />
</g>
<g stroke="rgb(0, 0, 0)">
  <path d="M55.041515,215.395993L53.861007,210.527151" />
</g>
<g stroke="rgb(0, 0, 0)">
  <path d="M53.861007,210.527151L53.152804,205.460217" />
</g>
<g stroke="rgb(0, 0, 0)">
  <path d="M53.152804,205.460217L52.916771,200.195174" />
</g>
<g stroke="rgb(0, 0, 0)">
  <path d="M52.916771,200.195174L52.916771,177.635035" />
</g>
<g stroke="rgb(0, 0, 0)">
  <path d="M52.916771,177.635035L50.790607,176.220895" />
</g>
<g stroke="rgb(0, 0, 0)">
  <path d="M50.790607,176.220895L48.723167,174.663521" />
</g>
<g stroke="rgb(0, 0, 0)">
  <path d="M48.723167,174.663521L44.767604,171.117466" />
</g>
<g stroke="rgb(0, 0, 0)">
  <path d="M44.767604,171.117466L41.769046,167.835845" />
</g>
<g stroke="rgb(0, 0, 0)">
  <path d="M41.769046,167.835845L39.170822,164.388663" />
</g>
<g stroke="rgb(0, 0, 0)">
  <path d="M39.170822,164.388663L36.97277,160.775973" />
</g>
<g stroke="rgb(0, 0, 0)">
  <path d="M36.97277,160.775973L35.174728,156.997828" />
</g>
<g stroke="rgb(0, 0, 0)">
  <path d="M35.174728,156.997828L33.776533,153.054281" />
</g>
<g stroke="rgb(0, 0, 0)">
  <path d="M33.776533,153.054281L32.778023,148.945388" />
</g>
<g stroke="rgb(0, 0, 0)">
  <path d="M32.778023,148.945388L32.179036,144.6712" />
</g>
<g stroke="rgb(0, 0, 0)">
  <path d="M32.179036,144.6712L31.97941,140.231772" />
</g>
<g stroke="rgb(0, 0, 0)">
  <path d="M31.97941,140.231772L32.093504,136.852044" />
</g>
<g stroke="rgb(0, 0, 0)">
  <path d="M32.093504,136.852044L32.435788,133.43388" />
</g>
<g stroke="rgb(0, 0, 0)">
  <path d="M32.435788,133.43388L33.006264,129.977284" />
</g>
<g stroke="rgb(0, 0, 0)">
  <path d="M33.006264,129.977284L33.804937,126.482263" />
</g>
<g stroke="rgb(0, 0, 0)">
  <path d="M33.804937,126.482263L34.831809,122.948824" />
</g>
<g stroke="rgb(0, 0, 0)">
  <path d="M34.831809,122.948824L36.086882,119.376973" />
</g>
<g stroke="rgb(0, 0, 0)">
  <path d="M36.086882,119.376973L37.570161,115.766715" />
</g>
<g stroke="rgb(0, 0, 0)">
  <path d="M37.570161,115.766715L39.281648,112.118059" />
</g>
<g stroke="rgb(0, 0, 0)">
  <path d="M39.281648,112.118059L41.221347,108.431009" />
</g>
<g stroke="rgb(0, 0, 0)">
  <path d="M41.221347,108.431009L43.389259,104.705573" />
</g>
<g stroke="rgb(0, 0, 0)">
  <path d="M43.389259,104.705573L45.785389,100.941756" />
</g>
<g stroke="rgb(0, 0, 0)">
  <path d="M45.785389,100.941756L48.40974,97.139565" />
</g>
<g stroke="rgb(0, 0, 0)">
  <path d="M48.40974,97.139565L51.262314,93.299007" />
</g>
<g stroke="rgb(0, 0, 0)">
  <path d="M51.262314,93.299007L54.343114,89.420087" />
</g>
<g stroke="rgb(0, 0, 0)">
  <path d="M54.343114,89.420087L61.189407,81.547188" />
</g>
<g stroke="rgb(0, 0, 0)">
  <path d="M61.189407,81.547188L65.733141,76.805092" />
</g>
<g stroke="rgb(0, 0, 0)">
  <path d="M65.733141,76.805092L70.446456,72.143648" />
</g>
<g stroke="rgb(0, 0, 0)">
  <path d="M70.446456,72.143648L75.329359,67.562924" />
</g>
<g stroke="rgb(0, 0, 0)">
  <path d="M75.329359,67.562924L80.381861,63.062991" />
</g>
<g stroke="rgb(0, 0, 0)">
  <path d="M80.381861,63.062991L85.603968,58.643916" />
</g>
<g stroke="rgb(0, 0, 0)">
  <path d="M85.603968,58.643916L90.995692,54.305769" />
</g>
<g stroke="rgb(0, 0, 0)">
  <path d="M90.995692,54.305769L96.557039,50.048619" />
</g>
<g stroke="rgb(0, 0, 0)">
  <path d="M96.557039,50.048619L102.288018,45.872535" />
</g>
<g stroke="rgb(0, 0, 0)">
  <path d="M102.288018,45.872535L103.644789,45.295622" />
</g>
<g stroke="rgb(0, 0, 0)">
  <path d="M103.644789,45.295622L105.127879,45.105244" />
</g>
<g stroke="rgb(0, 0, 0)">
  <path d="M105.127879,45.105244L106.419873,45.295619" />
</g>
<g stroke="rgb(0, 0, 0)">
  <path d="M106.419873,45.295619L107.711977,45.872535" />
</g>
<g stroke="rgb(0, 0, 0)">
  <path d="M107.711977,45.872535L113.44291,50.048621" />
</g>
<g stroke="rgb(0, 0, 0)">
  <path d="M113.44291,50.048621L119.004223,54.305771" />
</g>
<g stroke="rgb(0, 0, 0)">
  <path d="M119.004223,54.305771L124.395926,58.643918" />
</g>
<g stroke="rgb(0, 0, 0)">
  <path d="M124.395926,58.643918L129.618026,63.062993" />
</g>
<g stroke="rgb(0, 0, 0)">
  <path d="M129.618026,63.062993L134.670534,67.562926" />
</g>
<g stroke="rgb(0, 0, 0)">
  <path d="M134.670534,67.562926L139.553457,72.143649" />
</g>
<g stroke="rgb(0, 0, 0)">
  <path d="M139.553457,72.143649L144.266806,76.805092" />
</g>
<g stroke="rgb(0, 0, 0)">
  <path d="M144.266806,76.805092L148.810588,81.547188" />
</g>
<g stroke="rgb(0, 0, 0)">
  <path d="M148.810588,81.547188L155.656834,89.420087" />
</g>
<g stroke="rgb(0, 0, 0)">
  <path d="M155.656834,89.420087L158.737616,93.299007" />
</g>
<g stroke="rgb(0, 0, 0)">
  <path d="M158.737616,93.299007L161.590175,97.139566" />
</g>
<g stroke="rgb(0, 0, 0)">
  <path d="M161.590175,97.139566L164.214514,100.941757" />
</g>
<g stroke="rgb(0, 0, 0)">
  <path d="M164.214514,100.941757L166.610635,104.705574" />
</g>
<g stroke="rgb(0, 0, 0)">
  <path d="M166.610635,104.705574L168.778543,108.431011" />
</g>
<g stroke="rgb(0, 0, 0)">
  <path d="M168.778543,108.431011L170.718239,112.118061" />
</g>
<g stroke="rgb(0, 0, 0)">
  <path d="M170.718239,112.118061L172.429728,115.766718" />
</g>
<g stroke="rgb(0, 0, 0)">
  <path d="M172.429728,115.766718L173.913012,119.376975" />
</g>
<g stroke="rgb(0, 0, 0)">
  <path d="M173.913012,119.376975L175.168094,122.948826" />
</g>
<g stroke="rgb(0, 0, 0)">
  <path d="M175.168094,122.948826L176.194977,126.482266" />
</g>
<g stroke="rgb(0, 0, 0)">
  <path d="M176.194977,126.482266L176.993666,129.977286" />
</g>
<g stroke="rgb(0, 0, 0)">
  <path d="M176.993666,129.977286L177.564161,133.433881" />
</g>
<g stroke="rgb(0, 0, 0)">
  <path d="M177.564161,133.433881L177.906468,136.852045" />
</g>
<g stroke="rgb(0, 0, 0)">
  <path d="M177.906468,136.852045L178.020588,140.231772" />
</g>
<g stroke="rgb(0, 0, 0)">
  <path d="M178.020588,140.231772L177.820914,144.671198" />
</g>
<g stroke="rgb(0, 0, 0)">
  <path d="M177.820914,144.671198L177.221893,148.945385" />
</g>
<g stroke="rgb(0, 0, 0)">
  <path d="M177.221893,148.945385L176.223363,153.054279" />
</g>
<g stroke="rgb(0, 0, 0)">
  <path d="M176.223363,153.054279L174.825162,156.997825" />
</g>
<g stroke="rgb(0, 0, 0)">
  <path d="M174.825162,156.997825L173.027127,160.775971" />
</g>
<g stroke="rgb(0, 0, 0)">
  <path d="M173.027127,160.775971L170.829096,164.388662" />
</g>
<g stroke="rgb(0, 0, 0)">
  <path d="M170.829096,164.388662L168.230905,167.835845" />
</g>
<g stroke="rgb(0, 0, 0)">
  <path d="M168.230905,167.835845L165.232393,171.117466" />
</g>
<g stroke="rgb(0, 0, 0)">
  <path d="M165.232393,171.117466L163.107639,173.119789" />
</g>
<g stroke="rgb(0, 0, 0)">
  <path d="M163.107639,173.119789L160.910955,174.950794" />
</g>
<g stroke="rgb(0, 0, 0)">
  <path d="M160.910955,174.950794L158.643671,176.611385" />
</g>
<g stroke="rgb(0, 0, 0)">
  <path d="M158.643671,176.611385L156.307115,178.102466" />
</g>
<g stroke="rgb(0, 0, 0)">
  <path d="M156.307115,178.102466L156.307115,200.195174" />
</g>
<g stroke="rgb(0, 0, 0)">
  <path d="M156.307115,200.195174L156.070927,205.460217" />
</g>
<g stroke="rgb(0, 0, 0)">
  <path d="M156.070927,205.460217L155.362426,210.527151" />
</g>
<g stroke="rgb(0, 0, 0)">
  <path d="M155.362426,210.527151L154.181573,215.395993" />
</g>
<g stroke="rgb(0, 0, 0)">
  <path d="M154.181573,215.395993L152.528326,220.06676" />
</g>
<g stroke="rgb(0, 0, 0)">
  <path d="M152.528326,220.06676L150.402645,224.539469" />
</g>
<g stroke="rgb(0, 0, 0)">
  <path d="M150.402645,224.539469L147.804489,228.814136" />
</g>
<g stroke="rgb(0, 0, 0)">
  <path d="M147.804489,228.814136L144.733817,232.890777" />
</g>
<g stroke="rgb(0, 0, 0)">
  <path d="M144.733817,232.890777L141.190588,236.76941" />
</g>
<g stroke="rgb(0, 0, 0)">
  <path d="M141.190588,236.76941L137.311981,240.312993" />
</g>
<g stroke="rgb(0, 0, 0)">
  <path d="M137.311981,240.312993L133.235358,243.384645" />
</g>
<g stroke="rgb(0, 0, 0)">
  <path d="M133.235358,243.384645L128.960702,245.984203" />
</g>
<g stroke="rgb(0, 0, 0)">
  <path d="M128.960702,245.984203L124.487997,248.1115" />
</g>
<g stroke="rgb(0, 0, 0)">
  <path d="M124.487997,248.1115L119.817225,249.76637" />
</g>
<g stroke="rgb(0, 0, 0)">
  <path d="M119.817225,249.76637L114.948372,250.948647" />
</g>
<g stroke="rgb(0, 0, 0)">
  <path d="M114.948372,250.948647L109.881419,251.658166" />
</g>
<g stroke="rgb(0, 0, 0)">
  <path d="M109.881419,251.658166L104.616352,251.894761" />
</g>
<g stroke="rgb(0, 0, 0)">
  <path d="M104.616352,251.894761L104.616352,251.894761" />
</g>
<g stroke="rgb(0, 0, 0)">
  <path d="M104.616352,240.773438L108.740116,240.587596" />
</g>
<g stroke="rgb(0, 0, 0)">
  <path d="M108.740116,240.587596L112.710258,240.030228" />
</g>
<g stroke="rgb(0, 0, 0)">
  <path d="M112.710258,240.030228L116.526794,239.101348" />
</g>
<g stroke="rgb(0, 0, 0)">
  <path d="M116.526794,239.101348L120.189742,237.800972" />
</g>
<g stroke="rgb(0, 0, 0)">
  <path d="M120.189742,237.800972L123.69912,236.129116" />
</g>
<g stroke="rgb(0, 0, 0)">
  <path d="M123.69912,236.129116L127.054944,234.085796" />
</g>
<g stroke="rgb(0, 0, 0)">
  <path d="M127.054944,234.085796L130.257233,231.671028" />
</g>
<g stroke="rgb(0, 0, 0)">
  <path d="M130.257233,231.671028L133.306004,228.884827" />
</g>
<g stroke="rgb(0, 0, 0)">
  <path d="M133.306004,228.884827L136.092232,225.836029" />
</g>
<g stroke="rgb(0, 0, 0)">
  <path d="M136.092232,225.836029L138.507019,222.633721" />
</g>
<g stroke="rgb(0, 0, 0)">
  <path d="M138.507019,222.633721L140.55035,219.277886" />
</g>
<g stroke="rgb(0, 0, 0)">
  <path d="M140.55035,219.277886L142.222209,215.768505" />
</g>
<g stroke="rgb(0, 0, 0)">
  <path d="M142.222209,215.768505L143.522581,212.105561" />
</g>
<g stroke="rgb(0, 0, 0)">
  <path d="M143.522581,212.105561L144.45145,208.289036" />
</g>
<g stroke="rgb(0, 0, 0)">
  <path d="M144.45145,208.289036L145.0088,204.318913" />
</g>
<g stroke="rgb(0, 0, 0)">
  <path d="M145.0088,204.318913L145.194615,200.195174" />
</g>
<g stroke="rgb(0, 0, 0)">
  <path d="M145.194615,200.195174L145.194615,182.64448" />
</g>
<g stroke="rgb(0, 0, 0)">
  <path d="M145.194615,182.64448L142.578861,183.19725" />
</g>
<g stroke="rgb(0, 0, 0)">
  <path d="M142.578861,183.19725L139.897237,183.591246" />
</g>
<g stroke="rgb(0, 0, 0)">
  <path d="M139.897237,183.591246L137.150119,183.827154" />
</g>
<g stroke="rgb(0, 0, 0)">
  <path d="M137.150119,183.827154L134.337879,183.90566" />
</g>
<g stroke="rgb(0, 0, 0)">
  <path d="M134.337879,183.90566L131.771671,183.680676" />
</g>
<g stroke="rgb(0, 0, 0)">
  <path d="M131.771671,183.680676L128.979379,183.005211" />
</g>
<g stroke="rgb(0, 0, 0)">
  <path d="M128.979379,183.005211L125.96033,181.878182" />
</g>
<g stroke="rgb(0, 0, 0)">
  <path d="M125.96033,181.878182L122.713852,180.298508" />
</g>
<g stroke="rgb(0, 0, 0)">
  <path d="M122.713852,180.298508L112.368643,174.089619" />
</g>
<g stroke="rgb(0, 0, 0)">
  <path d="M112.368643,174.089619L110.591391,172.669059" />
</g>
<g stroke="rgb(0, 0, 0)">
  <path d="M110.591391,172.669059L108.364615,170.473647" />
</g>
<g stroke="rgb(0, 0, 0)">
  <path d="M108.364615,170.473647L106.26333,168.535635" />
</g>
<g stroke="rgb(0, 0, 0)">
  <path d="M106.26333,168.535635L105.478421,168.051043" />
</g>
<g stroke="rgb(0, 0, 0)">
  <path d="M105.478421,168.051043L104.872115,167.889549" />
</g>
<g stroke="rgb(0, 0, 0)">
  <path d="M104.872115,167.889549L104.385526,168.051044" />
</g>
<g stroke="rgb(0, 0, 0)">
  <path d="M104.385526,168.051044L103.706373,168.535637" />
</g>
<g stroke="rgb(0, 0, 0)">
  <path d="M103.706373,168.535637L101.767671,170.473647" />
</g>
<g stroke="rgb(0, 0, 0)">
  <path d="M101.767671,170.473647L99.5693,172.669059" />
</g>
<g stroke="rgb(0, 0, 0)">
  <path d="M99.5693,172.669059L97.631352,174.089619" />
</g>
<g stroke="rgb(0, 0, 0)">
  <path d="M97.631352,174.089619L87.286143,180.298508" />
</g>
<g stroke="rgb(0, 0, 0)">
  <path d="M87.286143,180.298508L84.137201,181.878181" />
</g>
<g stroke="rgb(0, 0, 0)">
  <path d="M84.137201,181.878181L81.150664,183.00521" />
</g>
<g stroke="rgb(0, 0, 0)">
  <path d="M81.150664,183.00521L78.325859,183.680675" />
</g>
<g stroke="rgb(0, 0, 0)">
  <path d="M78.325859,183.680675L75.662115,183.90566" />
</g>
<g stroke="rgb(0, 0, 0)">
  <path d="M75.662115,183.90566L72.640407,183.814026" />
</g>
<g stroke="rgb(0, 0, 0)">
  <path d="M72.640407,183.814026L69.694177,183.539337" />
</g>
<g stroke="rgb(0, 0, 0)">
  <path d="M69.694177,183.539337L66.823704,183.081802" />
</g>
<g stroke="rgb(0, 0, 0)">
  <path d="M66.823704,183.081802L64.029268,182.441633" />
</g>
<g stroke="rgb(0, 0, 0)">
  <path d="M64.029268,182.441633L64.029268,200.195174" />
</g>
<g stroke="rgb(0, 0, 0)">
  <path d="M64.029268,200.195174L64.214927,204.318913" />
</g>
<g stroke="rgb(0, 0, 0)">
  <path d="M64.214927,204.318913L64.77198,208.289036" />
</g>
<g stroke="rgb(0, 0, 0)">
  <path d="M64.77198,208.289036L65.700505,212.105561" />
</g>
<g stroke="rgb(0, 0, 0)">
  <path d="M65.700505,212.105561L67.000577,215.768505" />
</g>
<g stroke="rgb(0, 0, 0)">
  <path d="M67.000577,215.768505L68.672274,219.277886" />
</g>
<g stroke="rgb(0, 0, 0)">
  <path d="M68.672274,219.277886L70.715672,222.633721" />
</g>
<g stroke="rgb(0, 0, 0)">
  <path d="M70.715672,222.633721L73.130848,225.836029" />
</g>
<g stroke="rgb(0, 0, 0)">
  <path d="M73.130848,225.836029L75.917879,228.884827" />
</g>
<g stroke="rgb(0, 0, 0)">
  <path d="M75.917879,228.884827L78.967737,231.671028" />
</g>
<g stroke="rgb(0, 0, 0)">
  <path d="M78.967737,231.671028L82.171346,234.085797" />
</g>
<g stroke="rgb(0, 0, 0)">
  <path d="M82.171346,234.085797L85.528608,236.129117" />
</g>
<g stroke="rgb(0, 0, 0)">
  <path d="M85.528608,236.129117L89.039428,237.800973" />
</g>
<g stroke="rgb(0, 0, 0)">
  <path d="M89.039428,237.800973L92.703708,239.101349" />
</g>
<g stroke="rgb(0, 0, 0)">
  <path d="M92.703708,239.101349L96.521354,240.030229" />
</g>
<g stroke="rgb(0, 0, 0)">
  <path d="M96.521354,240.030229L100.492267,240.587597" />
</g>
<g stroke="rgb(0, 0, 0)">
  <path d="M100.492267,240.587597L104.616352,240.773438" />
</g>
<g stroke="rgb(0, 0, 0)">
  <path d="M104.616352,240.773438L104.616352,240.773438" />
</g>
<g stroke="rgb(0, 0, 0)">
  <path d="M105.127879,140.372883L106.870161,140.211267" />
</g>
<g stroke="rgb(0, 0, 0)">
  <path d="M106.870161,140.211267L108.484232,139.726634" />
</g>
<g stroke="rgb(0, 0, 0)">
  <path d="M108.484232,139.726634L109.970144,138.919101" />
</g>
<g stroke="rgb(0, 0, 0)">
  <path d="M109.970144,138.919101L111.327949,137.788785" />
</g>
<g stroke="rgb(0, 0, 0)">
  <path d="M111.327949,137.788785L112.46076,136.432825" />
</g>
<g stroke="rgb(0, 0, 0)">
  <path d="M112.46076,136.432825L113.271202,134.94802" />
</g>
<g stroke="rgb(0, 0, 0)">
  <path d="M113.271202,134.94802L113.758247,133.333581" />
</g>
<g stroke="rgb(0, 0, 0)">
  <path d="M113.758247,133.333581L113.920865,131.588716" />
</g>
<g stroke="rgb(0, 0, 0)">
  <path d="M113.920865,131.588716L113.848012,130.337347" />
</g>
<g stroke="rgb(0, 0, 0)">
  <path d="M113.848012,130.337347L113.629548,129.166743" />
</g>
<g stroke="rgb(0, 0, 0)">
  <path d="M113.629548,129.166743L113.265532,128.076853" />
</g>
<g stroke="rgb(0, 0, 0)">
  <path d="M113.265532,128.076853L112.756023,127.067629" />
</g>
<g stroke="rgb(0, 0, 0)">
  <path d="M112.756023,127.067629L112.101076,126.139023" />
</g>
<g stroke="rgb(0, 0, 0)">
  <path d="M112.101076,126.139023L111.300752,125.290986" />
</g>
<g stroke="rgb(0, 0, 0)">
  <path d="M111.300752,125.290986L109.264199,123.836424" />
</g>
<g stroke="rgb(0, 0, 0)">
  <path d="M109.264199,123.836424L112.10406,100.059202" />
</g>
<g stroke="rgb(0, 0, 0)">
  <path d="M112.10406,100.059202L97.887115,100.059202" />
</g>
<g stroke="rgb(0, 0, 0)">
  <path d="M97.887115,100.059202L100.99156,123.836424" />
</g>
<g stroke="rgb(0, 0, 0)">
  <path d="M100.99156,123.836424L99.841297,124.523472" />
</g>
<g stroke="rgb(0, 0, 0)">
  <path d="M99.841297,124.523472L98.843965,125.290989" />
</g>
<g stroke="rgb(0, 0, 0)">
  <path d="M98.843965,125.290989L97.999699,126.139026" />
</g>
<g stroke="rgb(0, 0, 0)">
  <path d="M97.999699,126.139026L97.308637,127.06763" />
</g>
<g stroke="rgb(0, 0, 0)">
  <path d="M97.308637,127.06763L96.770913,128.076852" />
</g>
<g stroke="rgb(0, 0, 0)">
  <path d="M96.770913,128.076852L96.386663,129.166741" />
</g>
<g stroke="rgb(0, 0, 0)">
  <path d="M96.386663,129.166741L96.156023,130.337346" />
</g>
<g stroke="rgb(0, 0, 0)">
  <path d="M96.156023,130.337346L96.079129,131.588716" />
</g>
<g stroke="rgb(0, 0, 0)">
  <path d="M96.079129,131.588716L96.249125,133.333582" />
</g>
<g stroke="rgb(0, 0, 0)">
  <path d="M96.249125,133.333582L96.758865,134.94802" />
</g>
<g stroke="rgb(0, 0, 0)">
  <path d="M96.758865,134.94802L97.607835,136.432823" />
</g>
<g stroke="rgb(0, 0, 0)">
  <path d="M97.607835,136.432823L98.795518,137.788785" />
</g>
<g stroke="rgb(0, 0, 0)">
  <path d="M98.795518,137.788785L100.208671,138.919103" />
</g>
<g stroke="rgb(0, 0, 0)">
  <path d="M100.208671,138.919103L101.734854,139.726634" />
</g>
<g stroke="rgb(0, 0, 0)">
  <path d="M101.734854,139.726634L103.374459,140.211266" />
</g>
<g stroke="rgb(0, 0, 0)">
  <path d="M103.374459,140.211266L105.127879,140.372883" />
</g>
<g stroke="rgb(0, 0, 0)">
  <path d="M105.127879,140.372883L105.127879,140.372883" />
</g>
  </g>
</svg>