<?xml version="1.0"?>
<svg
  xmlns="http://www.w3.org/2000/svg"
  xmlns:xlink="http://www.w3.org/1999/xlink" version="1.1"
  preserveAspectRatio="xMinYMin meet"
  viewBox="-548.9011827403016 -2061.084896776979 1300.0000102305562 1501.1906748643107"
  width="100%" height="100%"
>
  <g stroke="#000000" stroke-width="0.1%" fill="none" transform="matrix(1,0,0,-1,0,0)">
    <g stroke="rgb(255, 0, 0)">
  <path d="M234.2043826194778,1171.668231166L344.2043742586443,1171.668231166L344.2043742586443,1386.668224445583L234.2043826194778,1386.668224445583L234.2043826194778,1171.668231166" />
</g>
<g stroke="rgb(0, 255, 255)">
  <g transform="matrix(1 0 0 1 0 0)">
    <g>
      <path d="M 192.592037783513 584.8250065041294 C 192.592037783513 598.5938986353103 203.7539302437937 609.7557910955909 217.5228223749744 609.7557910955909" />
      <path d="M 217.5228223749744 609.7557910955909 C 231.2917145061552 609.7557910955909 242.4536069664356 598.5938986353103 242.4536069664356 584.8250065041294" />
      <path d="M 242.4536069664356 584.8250065041294 C 242.4536069664356 571.0561143729487 231.2917145061552 559.8942219126682 217.5228223749744 559.8942219126682" />
      <path d="M 217.5228223749744 559.8942219126682 C 203.7539302437937 559.8942219126682 192.592037783513 571.0561143729487 192.592037783513 584.8250065041294" />
      <path d="M 192.592037783513 584.8250065041294 C 192.592037783513 584.8250065041294 192.592037783513 584.8250065041294 192.592037783513 584.8250065041294" />
    </g>
  </g>
</g>
<g stroke="rgb(0, 0, 0)">
  <path d="M751.0988274902545,1161.084897835312L-548.9011827403016,1161.084897835312L-548.9011827403016,2061.084896776979L751.0988274902545,2061.084896776979L751.0988274902545,1161.084897835312" />
</g>
<g stroke="rgb(255, 0, 0)">
  <path d="M58.57405534291604,1169.787694973051L168.5740469820826,1169.787694973051L168.5740469820826,1384.787688252634L58.57405534291604,1384.787688252634L58.57405534291604,1169.787694973051" />
</g>
<g stroke="rgb(255, 0, 0)">
  <path d="M234.2043826194778,1467.347752907433L344.2043742586443,1467.347752907433L344.2043742586443,1682.347746187016L234.2043826194778,1682.347746187016L234.2043826194778,1467.347752907433" />
</g>
<g stroke="rgb(255, 0, 0)">
  <path d="M58.57405534291604,1465.467216714484L168.5740469820826,1465.467216714484L168.5740469820826,1680.467209994067L58.57405534291604,1680.467209994067L58.57405534291604,1465.467216714484" />
</g>
  </g>
</svg>