<svg width="74" height="50" viewBox="0 0 74 50" fill="none" xmlns="http://www.w3.org/2000/svg">
<path fill-rule="evenodd" clip-rule="evenodd" d="M59.6625 18.9566C57.5658 8.31915 48.2233 0.333313 37 0.333313C28.0892 0.333313 20.35 5.38998 16.4958 12.79C7.215 13.7766 0 21.6391 0 31.1666C0 41.3725 8.29417 49.6666 18.5 49.6666H58.5833C67.0933 49.6666 74 42.76 74 34.25C74 26.11 67.6792 19.5116 59.6625 18.9566ZM58.5833 43.5H18.5C11.6858 43.5 6.16666 37.9808 6.16666 31.1666C6.16666 24.8458 10.8842 19.5733 17.1433 18.9258L20.4425 18.5867L21.9842 15.6575C24.9133 10.015 30.6483 6.49998 37 6.49998C45.0783 6.49998 52.0467 12.235 53.6192 20.1591L54.5442 24.7841L59.2617 25.1233C64.0717 25.4317 67.8333 29.4708 67.8333 34.25C67.8333 39.3375 63.6708 43.5 58.5833 43.5ZM32.5292 28.0833H24.6667L37 15.75L49.3333 28.0833H41.4708V37.3333H32.5292V28.0833Z" fill="white"/>
</svg>
