<?xml version="1.0" encoding="utf-8"?>
<!-- Generator: Adobe Illustrator 16.0.0, SVG Export Plug-In . SVG Version: 6.00 Build 0)  -->
<!DOCTYPE svg PUBLIC "-//W3C//DTD SVG 1.1//EN" "http://www.w3.org/Graphics/SVG/1.1/DTD/svg11.dtd">
<svg version="1.1" id="Capa_1" xmlns="http://www.w3.org/2000/svg" xmlns:xlink="http://www.w3.org/1999/xlink" x="0px" y="0px"
	 width="162.754px" height="50.26px" viewBox="0 0 162.754 50.26" enable-background="new 0 0 162.754 50.26" xml:space="preserve">
<path fill="#CC4452" d="M72.199,18.948c0,0,1.015-1.262,0.53-2.719c0,0,1.043-1.691,0.71-2.9c0,0,1.641-0.502,2.11-2.024
	l-2.123,0.464l-1.366,0.568c0,0-1.223,1.337-1.27,3.002c0,0-0.487,0.971,0.116,1.657c0,0,0.437,0.333,0.394,0.796
	c0,0-0.133,0.805,0.125,1.179C71.684,19.345,72.199,18.948,72.199,18.948z"/>
<g>
	<path fill="#FFFFFF" d="M8.717,36.288C3.687,36.288,0,32.413,0,27.632v-0.062c0-4.78,3.655-8.716,8.78-8.716
		c3.155,0,5.124,1.062,6.687,2.812L12.56,24.79c-1.062-1.125-2.125-1.844-3.811-1.844c-2.375,0-4.062,2.094-4.062,4.562v0.062
		c0,2.562,1.655,4.625,4.25,4.625c1.593,0,2.687-0.688,3.843-1.781l2.781,2.812C13.936,35.006,12.061,36.288,8.717,36.288z"/>
	<path fill="#FFFFFF" d="M25.714,36.288c-5.187,0-9.03-3.844-9.03-8.655v-0.063c0-4.812,3.875-8.716,9.092-8.716
		c5.187,0,9.03,3.843,9.03,8.655v0.062C34.806,32.381,30.932,36.288,25.714,36.288z M30.119,27.569c0-2.468-1.781-4.625-4.405-4.625
		c-2.719,0-4.344,2.094-4.344,4.562v0.062c0,2.468,1.781,4.625,4.406,4.625c2.718,0,4.343-2.094,4.343-4.562V27.569z"/>
	<path fill="#FFFFFF" d="M43.428,36.226c-2.344,0-4.969-0.781-7.187-2.531l2.031-3.125c1.812,1.312,3.719,2,5.281,2
		c1.375,0,1.999-0.5,1.999-1.25v-0.062c0-1.031-1.625-1.375-3.468-1.938c-2.344-0.688-5-1.781-5-5.031v-0.062
		c0-3.406,2.749-5.312,6.124-5.312c2.125,0,4.438,0.719,6.249,1.938l-1.812,3.281c-1.656-0.969-3.312-1.562-4.53-1.562
		c-1.157,0-1.751,0.5-1.751,1.156v0.062c0,0.938,1.594,1.375,3.406,2c2.344,0.782,5.062,1.905,5.062,4.968v0.062
		C49.834,34.538,47.052,36.226,43.428,36.226z"/>
	<path fill="#FFFFFF" d="M62.362,35.913v-1.812c-1.156,1.281-2.749,2.125-5.062,2.125c-3.155,0-5.75-1.812-5.75-5.125v-0.062
		c0-3.656,2.782-5.343,6.75-5.343c1.688,0,2.906,0.281,4.094,0.688v-0.281c0-1.969-1.22-3.062-3.595-3.062
		c-1.812,0-3.093,0.344-4.624,0.905l-1.188-3.624c1.843-0.812,3.655-1.344,6.5-1.344c5.187,0,7.467,2.688,7.467,7.218v9.718
		L62.362,35.913L62.362,35.913z M62.456,29.163c-0.812-0.375-1.876-0.625-3.031-0.625c-2.031,0-3.281,0.812-3.281,2.312v0.062
		c0,1.282,1.063,2.032,2.594,2.032c2.218,0,3.718-1.219,3.718-2.938V29.163L62.456,29.163z"/>
	<path fill="#FFFFFF" d="M76.43,34.001c-2.343,0-4.969-0.781-7.187-2.531l2.031-3.125c1.812,1.313,3.718,2,5.281,2
		c1.375,0,1.999-0.5,1.999-1.25v-0.062c0-1.031-1.625-1.375-3.467-1.938c-2.344-0.688-5-1.781-5-5.031v-0.063
		c0-3.405,2.75-5.312,6.125-5.312c2.125,0,4.437,0.718,6.25,1.938l-1.812,3.281c-1.655-0.968-3.312-1.562-4.53-1.562
		c-1.157,0-1.75,0.5-1.75,1.156v0.062c0,0.938,1.594,1.375,3.405,2c2.344,0.781,5.062,1.906,5.062,4.968v0.062
		C82.834,32.313,80.054,34.001,76.43,34.001z"/>
	<path fill="#FFFFFF" d="M90.895,36.194c-2.906,0-4.875-1.156-4.875-5.031v-7.937h-2v-4.062h2v-4.281h4.75v4.281h3.938v4.062H90.77
		v7.155c0,1.095,0.468,1.625,1.531,1.625c0.875,0,1.656-0.219,2.344-0.594v3.812C93.644,35.817,92.488,36.194,90.895,36.194z"/>
	<path fill="#FFFFFF" d="M107.986,35.913v-2.375c-1.093,1.406-2.5,2.688-4.905,2.688c-3.595,0-5.688-2.375-5.688-6.218V19.165h4.75
		v9.343c0,2.249,1.062,3.405,2.875,3.405s2.969-1.156,2.969-3.405v-9.343h4.749v16.748H107.986z"/>
	<path fill="#FFFFFF" d="M128.388,35.913v-2.406c-1.157,1.562-2.751,2.719-5.22,2.719c-3.905,0-7.625-3.062-7.625-8.656v-0.062
		c0-5.593,3.656-8.655,7.625-8.655c2.531,0,4.094,1.156,5.22,2.499v-8.249h4.749v22.81H128.388z M128.45,27.507
		c0-2.781-1.844-4.625-4.062-4.625s-4.095,1.812-4.095,4.625v0.062c0,2.781,1.875,4.625,4.095,4.625
		c2.219,0,4.062-1.844,4.062-4.625V27.507z"/>
	<path fill="#FFFFFF" d="M136.792,17.321v-4.219h5v4.219H136.792z M136.917,35.913V19.165h4.748v16.748H136.917z"/>
	<path fill="#FFFFFF" d="M153.663,36.288c-5.187,0-9.029-3.844-9.029-8.655v-0.063c0-4.812,3.873-8.716,9.092-8.716
		c5.188,0,9.031,3.843,9.031,8.655v0.062C162.754,32.381,158.879,36.288,153.663,36.288z M158.067,27.569
		c0-2.468-1.779-4.625-4.404-4.625c-2.72,0-4.344,2.094-4.344,4.562v0.062c0,2.468,1.78,4.625,4.405,4.625
		c2.717,0,4.343-2.094,4.343-4.562V27.569z"/>
</g>
<g>
	<path fill="#CC4452" d="M93.895,1.508c0,0,0.572,1.406,0.445,2.153c-0.127,0.749-0.422,1.306-0.422,1.306L93.22,5.682
		c0,0-0.653,0.535-0.789,0.843c-0.136,0.309-0.919,0.567-0.919,0.567s-1.59-0.729-1.717-0.702c-0.129,0.027-0.729-0.32-1.082-0.206
		c-0.352,0.113-0.592,1.046-0.592,1.046s-1.727,4.465-3.346,6.439c0,0-1.332,5.384-2.466,5.491c-1.135,0.107-1.455-1.57-1.455-1.57
		s-0.094-0.886,0.444-2.731c0.538-1.845,0.73-1.459,0.795-3.121c0,0-0.418-1.178-2.821-0.995c-2.402,0.183-5.847,1.025-5.847,1.025
		s-4.856,2.062-5.486,2.057c-0.631-0.005-0.918,0.442-1.946,0.172c0,0-0.55-0.551-0.796-1.288c0,0,5.839-2.441,6.625-3.544
		c0,0,0.648-0.379,3.346-1.096c0,0,0.568-1.187,3.072-4.302c0,0,4.468-2.531,9.371-3.658c0,0,1.387-0.442,2.812,0.454
		C90.424,0.563,93.959,1.309,93.895,1.508z"/>
	<path fill="#CC4452" d="M79.648,15.007c-0.386-0.631-1.737-1.304-1.737-1.304c-0.243-1.05-1.524-1.616-1.524-1.616
		c0.229,0.017,0.6-0.536,0.6-0.536s2.355,1.956,2.814,1.846s1.787,0.568,1.787,0.568l0.314-0.822c0,0-0.654-1.19-1.957-1.379
		c0,0-0.192-0.736-0.673-1.022l-3.724,0.561c0,0-0.304,1.071-1.265,1.605c0,0,1.947,2.427,3.076,2.601l1.84,1.069
		C79.2,16.579,80.356,16.165,79.648,15.007z"/>
</g>
<g>
	<path fill="#CC4452" d="M109.241,44.009h0.02c0.304-0.332,0.826-0.568,1.338-0.568c1.328,0,1.727,1.119,1.727,2.467
		c0,1.357-0.475,2.466-1.803,2.466c-0.475,0-0.996-0.198-1.328-0.53h-0.02l-0.219,0.475h-0.949v-6.68h1.234V44.009L109.241,44.009z
		 M110.095,44.465c-0.398,0-0.702,0.181-0.854,0.293v2.296c0.152,0.125,0.456,0.305,0.854,0.305c0.731,0,0.93-0.646,0.93-1.452
		C111.025,45.101,110.827,44.465,110.095,44.465z"/>
	<path fill="#CC4452" d="M112.441,43.536h1.375l1.082,3.463h0.019l1.054-3.463h1.309l-1.679,4.915
		c-0.455,1.356-1.062,1.821-2.116,1.821c-0.256,0-0.606-0.028-0.854-0.086l0.115-1.015c0.142,0.029,0.351,0.047,0.455,0.047
		c0.455,0,0.815-0.351,0.996-0.872L112.441,43.536z"/>
	<path fill="#CC4452" d="M119.969,44.646l-0.18-0.987c0.674-0.132,1.385-0.218,1.955-0.218c1.205,0,1.868,0.312,1.868,1.595v3.245
		h-1.233v-0.477c-0.008,0-0.008,0-0.019,0c-0.407,0.418-0.807,0.569-1.403,0.569c-0.949,0-1.472-0.636-1.472-1.46
		c0-1.158,1.063-1.48,1.993-1.48h0.9v-0.332c0-0.484-0.303-0.637-0.92-0.637C121.081,44.465,120.652,44.503,119.969,44.646z
		 M122.379,46.173h-0.826c-0.561,0-0.836,0.199-0.836,0.637c0,0.416,0.334,0.616,0.74,0.616c0.39,0,0.75-0.161,0.92-0.294v-0.959
		H122.379z"/>
	<path fill="#CC4452" d="M125.655,48.28h-1.232v-4.744h1.232v0.759h0.02c0.304-0.427,0.883-0.854,1.642-0.854v1.168
		c-0.636,0-1.28,0.17-1.661,0.36V48.28z"/>
	<path fill="#CC4452" d="M129.889,43.44c0.607,0,1.091,0.086,1.66,0.229l-0.219,0.986c-0.787-0.189-1.09-0.189-1.441-0.189
		c-0.74,0-1.139,0.494-1.139,1.442s0.398,1.452,1.139,1.452c0.352,0,0.654,0,1.441-0.189l0.219,0.977
		c-0.569,0.143-1.053,0.228-1.66,0.228c-1.84,0-2.448-0.967-2.448-2.466C127.441,44.418,128.047,43.44,129.889,43.44z"/>
	<path fill="#CC4452" d="M133.327,48.28h-1.234v-6.643h1.234v2.514h0.02c0.408-0.436,0.93-0.711,1.547-0.711
		c0.947,0,1.422,0.617,1.422,1.596v3.245h-1.232v-2.96c0-0.551-0.209-0.854-0.758-0.854c-0.391,0-0.76,0.208-0.998,0.36V48.28
		L133.327,48.28z"/>
	<path fill="#CC4452" d="M138.357,41.827v1.311h-1.233v-1.311H138.357z M138.357,43.536v4.744h-1.233v-4.744H138.357z"/>
	<path fill="#CC4452" d="M141.519,43.44c0.604,0,1.09,0.086,1.66,0.229l-0.22,0.986c-0.787-0.189-1.092-0.189-1.44-0.189
		c-0.74,0-1.14,0.494-1.14,1.442s0.398,1.452,1.14,1.452c0.351,0,0.653,0,1.44-0.189l0.22,0.977c-0.57,0.143-1.056,0.228-1.66,0.228
		c-1.843,0-2.449-0.967-2.449-2.466C139.07,44.418,139.676,43.44,141.519,43.44z"/>
	<path fill="#CC4452" d="M144.717,46.173c0.027,0.712,0.427,1.186,1.3,1.186c0.407,0,0.862-0.019,1.479-0.188l0.144,0.978
		c-0.627,0.18-1.187,0.227-1.804,0.227c-1.821,0-2.467-0.967-2.467-2.466c0-1.489,0.646-2.468,2.447-2.468
		c1.424,0,1.898,0.711,1.994,1.539c0.047,0.359,0.018,0.769-0.039,1.194L144.717,46.173L144.717,46.173z M144.717,45.396h1.841
		c0.021-0.123,0.028-0.256,0.021-0.371c-0.039-0.36-0.257-0.635-0.834-0.635C145.06,44.39,144.765,44.788,144.717,45.396z"/>
	<path fill="#CC4452" d="M149.73,48.28h-1.231v-4.744h1.231v0.759h0.021c0.303-0.427,0.883-0.854,1.641-0.854v1.168
		c-0.635,0-1.279,0.17-1.66,0.36L149.73,48.28L149.73,48.28z"/>
	<path fill="#CC4452" d="M153.963,43.44c0.607,0,1.093,0.086,1.66,0.229l-0.217,0.986c-0.789-0.189-1.094-0.189-1.443-0.189
		c-0.739,0-1.139,0.494-1.139,1.442s0.398,1.452,1.139,1.452c0.351,0,0.654,0,1.443-0.189l0.217,0.977
		c-0.567,0.143-1.053,0.228-1.66,0.228c-1.842,0-2.446-0.967-2.446-2.466C151.517,44.418,152.124,43.44,153.963,43.44z"/>
	<path fill="#CC4452" d="M156.167,41.638h1.234v6.643h-1.234V41.638z"/>
	<path fill="#CC4452" d="M159.461,46.173c0.029,0.712,0.427,1.186,1.3,1.186c0.407,0,0.862-0.019,1.479-0.188l0.145,0.978
		c-0.627,0.18-1.186,0.227-1.803,0.227c-1.822,0-2.467-0.967-2.467-2.466c0-1.489,0.645-2.468,2.446-2.468
		c1.424,0,1.897,0.711,1.992,1.539c0.047,0.359,0.021,0.769-0.037,1.194L159.461,46.173L159.461,46.173z M159.461,45.396h1.84
		c0.021-0.123,0.029-0.256,0.021-0.371c-0.038-0.36-0.256-0.635-0.836-0.635C159.804,44.39,159.508,44.788,159.461,45.396z"/>
</g>
</svg>
