<?xml version="1.0"?>
<svg
  xmlns="http://www.w3.org/2000/svg"
  xmlns:xlink="http://www.w3.org/1999/xlink" version="1.1"
  preserveAspectRatio="xMinYMin meet"
  viewBox="8559.317236769755 -4758.001724019825 583.8194854660833 462.98807617596685"
  width="100%" height="100%"
>
  <g stroke="#000000" stroke-width="0.1%" fill="none" transform="matrix(1,0,0,-1,0,0)">
    <g stroke="rgb(0, 0, 255)">
  <path d="M8812.296479962,4413.55353276518L8812.296479962,4407.905913717561" />
</g>
<g stroke="rgb(0, 0, 255)">
  <path d="M8812.296479962,4515.210675622324L8812.296479962,4509.563056574704" />
</g>
<g stroke="rgb(0, 0, 255)">
  <path d="M8812.296479962,4503.915437527085L8812.296479962,4498.267818479468" />
</g>
<g stroke="rgb(0, 0, 255)">
  <path d="M8812.296479962,4492.620199431847L8812.296479962,4486.972580384229" />
</g>
<g stroke="rgb(0, 0, 255)">
  <path d="M8812.296479962,4481.32496133661L8812.296479962,4475.67734228899" />
</g>
<g stroke="rgb(0, 0, 255)">
  <path d="M8812.296479962,4470.029723241371L8812.296479962,4464.382104193751" />
</g>
<g stroke="rgb(0, 0, 255)">
  <path d="M8812.296479962,4458.734485146133L8812.296479962,4453.086866098515" />
</g>
<g stroke="rgb(0, 0, 255)">
  <path d="M8812.296479962,4447.439247050897L8812.296479962,4441.791628003275" />
</g>
<g stroke="rgb(0, 0, 255)">
  <path d="M8812.296479962,4436.144008955657L8812.296479962,4430.496389908039" />
</g>
<g stroke="rgb(0, 0, 255)">
  <path d="M8812.296479962,4424.84877086042L8812.296479962,4419.201151812801" />
</g>
<g stroke="rgb(0, 0, 255)">
  <path d="M9031.596479962001,4520.858294669943L9026.142821425417,4520.858294669943" />
</g>
<g stroke="rgb(0, 0, 255)">
  <path d="M9020.68916288883,4520.858294669943L9015.235504352246,4520.858294669943" />
</g>
<g stroke="rgb(0, 0, 255)">
  <path d="M9009.78184581566,4520.858294669943L9004.328187279076,4520.858294669943" />
</g>
<g stroke="rgb(0, 0, 255)">
  <path d="M8998.87452874249,4520.858294669943L8993.420870205904,4520.858294669943" />
</g>
<g stroke="rgb(0, 0, 255)">
  <path d="M8987.967211669318,4520.858294669943L8982.513553132734,4520.858294669943" />
</g>
<g stroke="rgb(0, 0, 255)">
  <path d="M8977.059894596145,4520.858294669943L8971.606236059562,4520.858294669943" />
</g>
<g stroke="rgb(0, 0, 255)">
  <path d="M8966.152577522975,4520.858294669943L8960.698918986393,4520.858294669943" />
</g>
<g stroke="rgb(0, 0, 255)">
  <path d="M8955.245260449805,4520.858294669943L8949.791601913224,4520.858294669943" />
</g>
<g stroke="rgb(0, 0, 255)">
  <path d="M8944.337943376637,4520.858294669943L8938.884284840047,4520.858294669943" />
</g>
<g stroke="rgb(0, 0, 255)">
  <path d="M8933.430626303463,4520.858294669943L8927.97696776688,4520.858294669943" />
</g>
<g stroke="rgb(0, 0, 255)">
  <path d="M8922.523309230291,4520.858294669943L8917.069650693707,4520.858294669943" />
</g>
<g stroke="rgb(0, 0, 255)">
  <path d="M8911.615992157123,4520.858294669943L8906.162333620538,4520.858294669943" />
</g>
<g stroke="rgb(0, 0, 255)">
  <path d="M8900.708675083953,4520.858294669943L8895.255016547364,4520.858294669943" />
</g>
<g stroke="rgb(0, 0, 255)">
  <path d="M8889.80135801078,4520.858294669943L8884.347699474196,4520.858294669943" />
</g>
<g stroke="rgb(0, 0, 255)">
  <path d="M8878.894040937606,4520.858294669943L8873.440382401026,4520.858294669943" />
</g>
<g stroke="rgb(0, 0, 255)">
  <path d="M8867.986723864442,4520.858294669943L8862.533065327852,4520.858294669943" />
</g>
<g stroke="rgb(0, 0, 255)">
  <path d="M8857.079406791268,4520.858294669943L8851.625748254683,4520.858294669943" />
</g>
<g stroke="rgb(0, 0, 255)">
  <path d="M8846.172089718097,4520.858294669943L8840.718431181513,4520.858294669943" />
</g>
<g stroke="rgb(0, 0, 255)">
  <path d="M8835.264772644927,4520.858294669943L8829.811114108345,4520.858294669943" />
</g>
<g stroke="rgb(0, 0, 255)">
  <path d="M8824.357455571757,4520.858294669943L8818.903797035175,4520.858294669943" />
</g>
<g stroke="rgb(0, 0, 255)">
  <path d="M8813.450138498585,4520.858294669943L8807.996479962,4520.858294669943" />
</g>
<g stroke="rgb(0, 0, 255)">
  <path d="M8807.996479962,4520.858294669943L8807.996479962,4515.210675622324" />
</g>
<g stroke="rgb(0, 0, 255)">
  <path d="M8807.996479962,4509.563056574704L8807.996479962,4503.915437527085" />
</g>
<g stroke="rgb(0, 0, 255)">
  <path d="M8807.996479962,4498.267818479468L8807.996479962,4492.620199431847" />
</g>
<g stroke="rgb(0, 0, 255)">
  <path d="M8807.996479962,4486.972580384229L8807.996479962,4481.32496133661" />
</g>
<g stroke="rgb(0, 0, 255)">
  <path d="M8807.996479962,4475.67734228899L8807.996479962,4470.029723241371" />
</g>
<g stroke="rgb(0, 0, 255)">
  <path d="M8807.996479962,4464.382104193751L8807.996479962,4458.734485146133" />
</g>
<g stroke="rgb(0, 0, 255)">
  <path d="M8807.996479962,4453.086866098515L8807.996479962,4447.439247050897" />
</g>
<g stroke="rgb(0, 0, 255)">
  <path d="M8807.996479962,4441.791628003275L8807.996479962,4436.144008955657" />
</g>
<g stroke="rgb(0, 0, 255)">
  <path d="M8807.996479962,4430.496389908039L8807.996479962,4424.84877086042" />
</g>
<g stroke="rgb(0, 0, 255)">
  <path d="M8807.996479962,4419.201151812801L8807.996479962,4413.55353276518" />
</g>
<g stroke="rgb(0, 0, 255)">
  <path d="M8807.996479962,4407.905913717561L8807.996479962,4402.258294669943" />
</g>
<g stroke="rgb(255, 0, 0)">
  <path d="M8807.996479962,4520.858294669943L8807.996479962,4528.067385579034" />
</g>
<g stroke="rgb(255, 0, 0)">
  <path d="M8807.996479962,4535.276476488124L8807.996479962,4542.485567397215" />
</g>
<g stroke="rgb(255, 0, 0)">
  <path d="M8807.996479962,4549.694658306306L8807.996479962,4556.903749215396" />
</g>
<g stroke="rgb(255, 0, 0)">
  <path d="M8807.996479962,4564.112840124489L8807.996479962,4571.321931033579" />
</g>
<g stroke="rgb(255, 0, 0)">
  <path d="M8807.996479962,4578.531021942671L8807.996479962,4585.740112851762" />
</g>
<g stroke="rgb(255, 0, 0)">
  <path d="M8807.996479962,4592.949203760852L8807.996479962,4600.158294669942" />
</g>
<g stroke="rgb(255, 0, 0)">
  <path d="M8807.996479962,4600.158294669942L9031.596479962001,4600.158294669942" />
</g>
<g stroke="rgb(0, 255, 255)">
  <path d="M8812.296479962,4595.858294669943L9027.296479962,4595.858294669943" />
</g>
<g stroke="rgb(255, 0, 0)">
  <path d="M9031.596479962001,4600.158294669942L9031.596479962001,4592.949203760852" />
</g>
<g stroke="rgb(255, 0, 0)">
  <path d="M9031.596479962001,4585.740112851762L9031.596479962001,4578.531021942671" />
</g>
<g stroke="rgb(255, 0, 0)">
  <path d="M9031.596479962001,4571.321931033579L9031.596479962001,4564.112840124489" />
</g>
<g stroke="rgb(255, 0, 0)">
  <path d="M9031.596479962001,4556.903749215396L9031.596479962001,4549.694658306306" />
</g>
<g stroke="rgb(255, 0, 0)">
  <path d="M9031.596479962001,4542.485567397215L9031.596479962001,4535.276476488124" />
</g>
<g stroke="rgb(255, 0, 0)">
  <path d="M9031.596479962001,4528.067385579034L9031.596479962001,4520.858294669943" />
</g>
<g stroke="rgb(255, 0, 0)">
  <path d="M8728.696479962002,4516.558294669942L8728.696479962002,4471.558294669942" />
</g>
<g stroke="rgb(255, 0, 0)">
  <path d="M8728.696479962002,4451.558294669943L8728.696479962002,4406.558294669942" />
</g>
<g stroke="rgb(255, 0, 0)">
  <path d="M8615.311695579065,4322.958294669944L8725.311695579065,4322.958294669944L8725.311695579065,4537.958294669944L8615.311695579065,4537.958294669944L8615.311695579065,4322.958294669944" />
</g>
<g stroke="rgb(0, 0, 255)">
  <path d="M8813.450138498585,4516.558294669942L8818.903797035175,4516.558294669942" />
</g>
<g stroke="rgb(0, 0, 255)">
  <path d="M8824.357455571757,4516.558294669942L8829.811114108345,4516.558294669942" />
</g>
<g stroke="rgb(0, 0, 255)">
  <path d="M8835.264772644927,4516.558294669942L8840.718431181513,4516.558294669942" />
</g>
<g stroke="rgb(0, 0, 255)">
  <path d="M8846.172089718097,4516.558294669942L8851.625748254683,4516.558294669942" />
</g>
<g stroke="rgb(0, 0, 255)">
  <path d="M8857.079406791268,4516.558294669942L8862.533065327852,4516.558294669942" />
</g>
<g stroke="rgb(0, 0, 255)">
  <path d="M8867.986723864442,4516.558294669942L8873.440382401026,4516.558294669942" />
</g>
<g stroke="rgb(0, 0, 255)">
  <path d="M8878.894040937606,4516.558294669942L8884.347699474196,4516.558294669942" />
</g>
<g stroke="rgb(0, 0, 255)">
  <path d="M8889.80135801078,4516.558294669942L8895.255016547364,4516.558294669942" />
</g>
<g stroke="rgb(0, 0, 255)">
  <path d="M8900.708675083953,4516.558294669942L8906.162333620538,4516.558294669942" />
</g>
<g stroke="rgb(0, 0, 255)">
  <path d="M8911.615992157123,4516.558294669942L8917.069650693707,4516.558294669942" />
</g>
<g stroke="rgb(0, 0, 255)">
  <path d="M8922.523309230291,4516.558294669942L8927.97696776688,4516.558294669942" />
</g>
<g stroke="rgb(0, 0, 255)">
  <path d="M8933.430626303463,4516.558294669942L8938.884284840047,4516.558294669942" />
</g>
<g stroke="rgb(0, 0, 255)">
  <path d="M8944.337943376637,4516.558294669942L8949.791601913224,4516.558294669942" />
</g>
<g stroke="rgb(0, 0, 255)">
  <path d="M8955.245260449805,4516.558294669942L8960.698918986393,4516.558294669942" />
</g>
<g stroke="rgb(0, 0, 255)">
  <path d="M8966.152577522975,4516.558294669942L8971.606236059562,4516.558294669942" />
</g>
<g stroke="rgb(0, 0, 255)">
  <path d="M8977.059894596145,4516.558294669942L8982.513553132734,4516.558294669942" />
</g>
<g stroke="rgb(0, 0, 255)">
  <path d="M8987.967211669318,4516.558294669942L8993.420870205904,4516.558294669942" />
</g>
<g stroke="rgb(0, 0, 255)">
  <path d="M8998.87452874249,4516.558294669942L9004.328187279076,4516.558294669942" />
</g>
<g stroke="rgb(0, 0, 255)">
  <path d="M9009.78184581566,4516.558294669942L9015.235504352246,4516.558294669942" />
</g>
<g stroke="rgb(0, 0, 255)">
  <path d="M9020.68916288883,4516.558294669942L9026.142821425417,4516.558294669942" />
</g>
<g stroke="rgb(255, 0, 0)">
  <path d="M8604.282788007631,4537.871358680217L8611.282788007631,4537.871358680217L8611.282788007631,4322.871358680217L8604.282788007631,4322.871358680217L8604.282788007631,4537.871358680217" />
</g>
<g stroke="rgb(0, 0, 255)">
  <path d="M8807.996479962,4407.905913717561L8812.296479962,4407.905913717561" />
</g>
<g stroke="rgb(0, 0, 255)">
  <path d="M8807.996479962,4413.55353276518L8812.296479962,4413.55353276518" />
</g>
<g stroke="rgb(0, 0, 255)">
  <path d="M8807.996479962,4419.201151812801L8812.296479962,4419.201151812801" />
</g>
<g stroke="rgb(0, 0, 255)">
  <path d="M8807.996479962,4424.84877086042L8812.296479962,4424.84877086042" />
</g>
<g stroke="rgb(0, 0, 255)">
  <path d="M8807.996479962,4430.496389908039L8812.296479962,4430.496389908039" />
</g>
<g stroke="rgb(0, 0, 255)">
  <path d="M8807.996479962,4436.144008955657L8812.296479962,4436.144008955657" />
</g>
<g stroke="rgb(0, 0, 255)">
  <path d="M8807.996479962,4441.791628003275L8812.296479962,4441.791628003275" />
</g>
<g stroke="rgb(0, 0, 255)">
  <path d="M8807.996479962,4447.439247050897L8812.296479962,4447.439247050897" />
</g>
<g stroke="rgb(0, 0, 255)">
  <path d="M8807.996479962,4453.086866098515L8812.296479962,4453.086866098515" />
</g>
<g stroke="rgb(0, 0, 255)">
  <path d="M8807.996479962,4458.734485146133L8812.296479962,4458.734485146133" />
</g>
<g stroke="rgb(0, 0, 255)">
  <path d="M8807.996479962,4464.382104193751L8812.296479962,4464.382104193751" />
</g>
<g stroke="rgb(0, 0, 255)">
  <path d="M8807.996479962,4470.029723241371L8812.296479962,4470.029723241371" />
</g>
<g stroke="rgb(0, 0, 255)">
  <path d="M8807.996479962,4475.67734228899L8812.296479962,4475.67734228899" />
</g>
<g stroke="rgb(0, 0, 255)">
  <path d="M8807.996479962,4481.32496133661L8812.296479962,4481.32496133661" />
</g>
<g stroke="rgb(0, 0, 255)">
  <path d="M8807.996479962,4486.972580384229L8812.296479962,4486.972580384229" />
</g>
<g stroke="rgb(0, 0, 255)">
  <path d="M8807.996479962,4492.620199431847L8812.296479962,4492.620199431847" />
</g>
<g stroke="rgb(0, 0, 255)">
  <path d="M8807.996479962,4498.267818479468L8812.296479962,4498.267818479468" />
</g>
<g stroke="rgb(0, 0, 255)">
  <path d="M8807.996479962,4503.915437527085L8812.296479962,4503.915437527085" />
</g>
<g stroke="rgb(0, 0, 255)">
  <path d="M8807.996479962,4509.563056574704L8812.296479962,4509.563056574704" />
</g>
<g stroke="rgb(0, 0, 255)">
  <path d="M8807.996479962,4515.210675622324L8812.296479962,4515.210675622324" />
</g>
<g stroke="rgb(0, 0, 255)">
  <path d="M8813.450138498585,4516.558294669942L8813.450138498585,4520.858294669943" />
</g>
<g stroke="rgb(0, 0, 255)">
  <path d="M8818.903797035175,4516.558294669942L8818.903797035175,4520.858294669943" />
</g>
<g stroke="rgb(0, 0, 255)">
  <path d="M8824.357455571757,4516.558294669942L8824.357455571757,4520.858294669943" />
</g>
<g stroke="rgb(0, 0, 255)">
  <path d="M8829.811114108345,4516.558294669942L8829.811114108345,4520.858294669943" />
</g>
<g stroke="rgb(0, 0, 255)">
  <path d="M8835.264772644927,4516.558294669942L8835.264772644927,4520.858294669943" />
</g>
<g stroke="rgb(0, 0, 255)">
  <path d="M8840.718431181513,4516.558294669942L8840.718431181513,4520.858294669943" />
</g>
<g stroke="rgb(0, 0, 255)">
  <path d="M8846.172089718097,4516.558294669942L8846.172089718097,4520.858294669943" />
</g>
<g stroke="rgb(0, 0, 255)">
  <path d="M8851.625748254683,4516.558294669942L8851.625748254683,4520.858294669943" />
</g>
<g stroke="rgb(0, 0, 255)">
  <path d="M8857.079406791268,4516.558294669942L8857.079406791268,4520.858294669943" />
</g>
<g stroke="rgb(0, 0, 255)">
  <path d="M8862.533065327852,4516.558294669942L8862.533065327852,4520.858294669943" />
</g>
<g stroke="rgb(0, 0, 255)">
  <path d="M8867.986723864442,4516.558294669942L8867.986723864442,4520.858294669943" />
</g>
<g stroke="rgb(0, 0, 255)">
  <path d="M8873.440382401026,4516.558294669942L8873.440382401026,4520.858294669943" />
</g>
<g stroke="rgb(0, 0, 255)">
  <path d="M8878.894040937606,4516.558294669942L8878.894040937606,4520.858294669943" />
</g>
<g stroke="rgb(0, 0, 255)">
  <path d="M8884.347699474196,4516.558294669942L8884.347699474196,4520.858294669943" />
</g>
<g stroke="rgb(0, 0, 255)">
  <path d="M8889.80135801078,4516.558294669942L8889.80135801078,4520.858294669943" />
</g>
<g stroke="rgb(0, 0, 255)">
  <path d="M8895.255016547364,4516.558294669942L8895.255016547364,4520.858294669943" />
</g>
<g stroke="rgb(0, 0, 255)">
  <path d="M8900.708675083953,4516.558294669942L8900.708675083953,4520.858294669943" />
</g>
<g stroke="rgb(0, 0, 255)">
  <path d="M8906.162333620538,4516.558294669942L8906.162333620538,4520.858294669943" />
</g>
<g stroke="rgb(0, 0, 255)">
  <path d="M8911.615992157123,4516.558294669942L8911.615992157123,4520.858294669943" />
</g>
<g stroke="rgb(0, 0, 255)">
  <path d="M8917.069650693707,4516.558294669942L8917.069650693707,4520.858294669943" />
</g>
<g stroke="rgb(0, 0, 255)">
  <path d="M8922.523309230291,4516.558294669942L8922.523309230291,4520.858294669943" />
</g>
<g stroke="rgb(0, 0, 255)">
  <path d="M8927.97696776688,4516.558294669942L8927.97696776688,4520.858294669943" />
</g>
<g stroke="rgb(0, 0, 255)">
  <path d="M8933.430626303463,4516.558294669942L8933.430626303463,4520.858294669943" />
</g>
<g stroke="rgb(0, 0, 255)">
  <path d="M8938.884284840047,4516.558294669942L8938.884284840047,4520.858294669943" />
</g>
<g stroke="rgb(0, 0, 255)">
  <path d="M8944.337943376637,4516.558294669942L8944.337943376637,4520.858294669943" />
</g>
<g stroke="rgb(0, 0, 255)">
  <path d="M8949.791601913224,4516.558294669942L8949.791601913224,4520.858294669943" />
</g>
<g stroke="rgb(0, 0, 255)">
  <path d="M8955.245260449805,4516.558294669942L8955.245260449805,4520.858294669943" />
</g>
<g stroke="rgb(0, 0, 255)">
  <path d="M8960.698918986393,4516.558294669942L8960.698918986393,4520.858294669943" />
</g>
<g stroke="rgb(0, 0, 255)">
  <path d="M8966.152577522975,4516.558294669942L8966.152577522975,4520.858294669943" />
</g>
<g stroke="rgb(0, 0, 255)">
  <path d="M8971.606236059562,4516.558294669942L8971.606236059562,4520.858294669943" />
</g>
<g stroke="rgb(0, 0, 255)">
  <path d="M8977.059894596145,4516.558294669942L8977.059894596145,4520.858294669943" />
</g>
<g stroke="rgb(0, 0, 255)">
  <path d="M8982.513553132734,4516.558294669942L8982.513553132734,4520.858294669943" />
</g>
<g stroke="rgb(0, 0, 255)">
  <path d="M8987.967211669318,4516.558294669942L8987.967211669318,4520.858294669943" />
</g>
<g stroke="rgb(0, 0, 255)">
  <path d="M8993.420870205904,4516.558294669942L8993.420870205904,4520.858294669943" />
</g>
<g stroke="rgb(0, 0, 255)">
  <path d="M8998.87452874249,4516.558294669942L8998.87452874249,4520.858294669943" />
</g>
<g stroke="rgb(0, 0, 255)">
  <path d="M9004.328187279076,4516.558294669942L9004.328187279076,4520.858294669943" />
</g>
<g stroke="rgb(0, 0, 255)">
  <path d="M9009.78184581566,4516.558294669942L9009.78184581566,4520.858294669943" />
</g>
<g stroke="rgb(0, 0, 255)">
  <path d="M9015.235504352246,4516.558294669942L9015.235504352246,4520.858294669943" />
</g>
<g stroke="rgb(0, 0, 255)">
  <path d="M9020.68916288883,4516.558294669942L9020.68916288883,4520.858294669943" />
</g>
<g stroke="rgb(0, 0, 255)">
  <path d="M9026.142821425417,4516.558294669942L9026.142821425417,4520.858294669943" />
</g>
<g stroke="rgb(255, 0, 0)">
  <path d="M9031.596479962001,4520.858294669943L9031.596479962001,4515.210675622324" />
</g>
<g stroke="rgb(255, 0, 0)">
  <path d="M9031.596479962001,4509.563056574704L9031.596479962001,4503.915437527085" />
</g>
<g stroke="rgb(255, 0, 0)">
  <path d="M9031.596479962001,4498.267818479468L9031.596479962001,4492.620199431847" />
</g>
<g stroke="rgb(255, 0, 0)">
  <path d="M9031.596479962001,4486.972580384229L9031.596479962001,4481.32496133661" />
</g>
<g stroke="rgb(255, 0, 0)">
  <path d="M9031.596479962001,4475.67734228899L9031.596479962001,4470.029723241371" />
</g>
<g stroke="rgb(255, 0, 0)">
  <path d="M9031.596479962001,4464.382104193751L9031.596479962001,4458.734485146133" />
</g>
<g stroke="rgb(255, 0, 0)">
  <path d="M9031.596479962001,4453.086866098515L9031.596479962001,4447.439247050897" />
</g>
<g stroke="rgb(255, 0, 0)">
  <path d="M9031.596479962001,4441.791628003275L9031.596479962001,4436.144008955657" />
</g>
<g stroke="rgb(255, 0, 0)">
  <path d="M9031.596479962001,4430.496389908039L9031.596479962001,4424.84877086042" />
</g>
<g stroke="rgb(255, 0, 0)">
  <path d="M9031.596479962001,4419.201151812801L9031.596479962001,4413.55353276518" />
</g>
<g stroke="rgb(0, 0, 255)">
  <path d="M9031.596479962001,4407.905913717561L9031.596479962001,4402.258294669943" />
</g>
<g stroke="rgb(0, 0, 255)">
  <path d="M9031.596479962001,4407.905913717561L9027.296479962,4407.905913717561" />
</g>
<g stroke="rgb(0, 0, 255)">
  <path d="M9031.596479962001,4413.55353276518L9027.296479962,4413.55353276518" />
</g>
<g stroke="rgb(0, 0, 255)">
  <path d="M9031.596479962001,4419.201151812801L9027.296479962,4419.201151812801" />
</g>
<g stroke="rgb(0, 0, 255)">
  <path d="M9031.596479962001,4424.84877086042L9027.296479962,4424.84877086042" />
</g>
<g stroke="rgb(0, 0, 255)">
  <path d="M9031.596479962001,4430.496389908039L9027.296479962,4430.496389908039" />
</g>
<g stroke="rgb(0, 0, 255)">
  <path d="M9031.596479962001,4436.144008955657L9027.296479962,4436.144008955657" />
</g>
<g stroke="rgb(0, 0, 255)">
  <path d="M9031.596479962001,4441.791628003275L9027.296479962,4441.791628003275" />
</g>
<g stroke="rgb(0, 0, 255)">
  <path d="M9031.596479962001,4447.439247050897L9027.296479962,4447.439247050897" />
</g>
<g stroke="rgb(0, 0, 255)">
  <path d="M9031.596479962001,4453.086866098515L9027.296479962,4453.086866098515" />
</g>
<g stroke="rgb(0, 0, 255)">
  <path d="M9031.596479962001,4458.734485146133L9027.296479962,4458.734485146133" />
</g>
<g stroke="rgb(0, 0, 255)">
  <path d="M9031.596479962001,4464.382104193751L9027.296479962,4464.382104193751" />
</g>
<g stroke="rgb(0, 0, 255)">
  <path d="M9031.596479962001,4470.029723241371L9027.296479962,4470.029723241371" />
</g>
<g stroke="rgb(0, 0, 255)">
  <path d="M9031.596479962001,4475.67734228899L9027.296479962,4475.67734228899" />
</g>
<g stroke="rgb(0, 0, 255)">
  <path d="M9031.596479962001,4481.32496133661L9027.296479962,4481.32496133661" />
</g>
<g stroke="rgb(0, 0, 255)">
  <path d="M9031.596479962001,4486.972580384229L9027.296479962,4486.972580384229" />
</g>
<g stroke="rgb(0, 0, 255)">
  <path d="M9031.596479962001,4492.620199431847L9027.296479962,4492.620199431847" />
</g>
<g stroke="rgb(0, 0, 255)">
  <path d="M9031.596479962001,4498.267818479468L9027.296479962,4498.267818479468" />
</g>
<g stroke="rgb(0, 0, 255)">
  <path d="M9031.596479962001,4503.915437527085L9027.296479962,4503.915437527085" />
</g>
<g stroke="rgb(0, 0, 255)">
  <path d="M9031.596479962001,4509.563056574704L9027.296479962,4509.563056574704" />
</g>
<g stroke="rgb(0, 0, 255)">
  <path d="M9031.596479962001,4515.210675622324L9027.296479962,4515.210675622324" />
</g>
<g stroke="rgb(0, 0, 255)">
  <path d="M9031.596479962001,4402.258294669943L9026.142821425417,4402.258294669943" />
</g>
<g stroke="rgb(0, 0, 255)">
  <path d="M9020.68916288883,4402.258294669943L9015.235504352246,4402.258294669943" />
</g>
<g stroke="rgb(0, 0, 255)">
  <path d="M9009.78184581566,4402.258294669943L9004.328187279076,4402.258294669943" />
</g>
<g stroke="rgb(0, 0, 255)">
  <path d="M8998.87452874249,4402.258294669943L8993.420870205904,4402.258294669943" />
</g>
<g stroke="rgb(0, 0, 255)">
  <path d="M8987.967211669318,4402.258294669943L8982.513553132734,4402.258294669943" />
</g>
<g stroke="rgb(0, 0, 255)">
  <path d="M8977.059894596145,4402.258294669943L8971.606236059562,4402.258294669943" />
</g>
<g stroke="rgb(0, 0, 255)">
  <path d="M8966.152577522975,4402.258294669943L8960.698918986393,4402.258294669943" />
</g>
<g stroke="rgb(0, 0, 255)">
  <path d="M8955.245260449805,4402.258294669943L8949.791601913224,4402.258294669943" />
</g>
<g stroke="rgb(0, 0, 255)">
  <path d="M8944.337943376637,4402.258294669943L8938.884284840047,4402.258294669943" />
</g>
<g stroke="rgb(0, 0, 255)">
  <path d="M8933.430626303463,4402.258294669943L8927.97696776688,4402.258294669943" />
</g>
<g stroke="rgb(0, 0, 255)">
  <path d="M8922.523309230291,4402.258294669943L8917.069650693707,4402.258294669943" />
</g>
<g stroke="rgb(0, 0, 255)">
  <path d="M8911.615992157123,4402.258294669943L8906.162333620538,4402.258294669943" />
</g>
<g stroke="rgb(0, 0, 255)">
  <path d="M8900.708675083953,4402.258294669943L8895.255016547364,4402.258294669943" />
</g>
<g stroke="rgb(0, 0, 255)">
  <path d="M8889.80135801078,4402.258294669943L8884.347699474196,4402.258294669943" />
</g>
<g stroke="rgb(0, 0, 255)">
  <path d="M8878.894040937606,4402.258294669943L8873.440382401026,4402.258294669943" />
</g>
<g stroke="rgb(0, 0, 255)">
  <path d="M8867.986723864442,4402.258294669943L8862.533065327852,4402.258294669943" />
</g>
<g stroke="rgb(0, 0, 255)">
  <path d="M8857.079406791268,4402.258294669943L8851.625748254683,4402.258294669943" />
</g>
<g stroke="rgb(0, 0, 255)">
  <path d="M8846.172089718097,4402.258294669943L8840.718431181513,4402.258294669943" />
</g>
<g stroke="rgb(0, 0, 255)">
  <path d="M8835.264772644927,4402.258294669943L8829.811114108345,4402.258294669943" />
</g>
<g stroke="rgb(0, 0, 255)">
  <path d="M8824.357455571757,4402.258294669943L8818.903797035175,4402.258294669943" />
</g>
<g stroke="rgb(0, 0, 255)">
  <path d="M8813.450138498585,4402.258294669943L8807.996479962,4402.258294669943" />
</g>
<g stroke="rgb(0, 0, 255)">
  <path d="M8813.450138498585,4406.558294669942L8818.903797035175,4406.558294669942" />
</g>
<g stroke="rgb(0, 0, 255)">
  <path d="M8824.357455571757,4406.558294669942L8829.811114108345,4406.558294669942" />
</g>
<g stroke="rgb(0, 0, 255)">
  <path d="M8835.264772644927,4406.558294669942L8840.718431181513,4406.558294669942" />
</g>
<g stroke="rgb(0, 0, 255)">
  <path d="M8846.172089718097,4406.558294669942L8851.625748254683,4406.558294669942" />
</g>
<g stroke="rgb(0, 0, 255)">
  <path d="M8857.079406791268,4406.558294669942L8862.533065327852,4406.558294669942" />
</g>
<g stroke="rgb(0, 0, 255)">
  <path d="M8867.986723864442,4406.558294669942L8873.440382401026,4406.558294669942" />
</g>
<g stroke="rgb(0, 0, 255)">
  <path d="M8878.894040937606,4406.558294669942L8884.347699474196,4406.558294669942" />
</g>
<g stroke="rgb(0, 0, 255)">
  <path d="M8889.80135801078,4406.558294669942L8895.255016547364,4406.558294669942" />
</g>
<g stroke="rgb(0, 0, 255)">
  <path d="M8900.708675083953,4406.558294669942L8906.162333620538,4406.558294669942" />
</g>
<g stroke="rgb(0, 0, 255)">
  <path d="M8911.615992157123,4406.558294669942L8917.069650693707,4406.558294669942" />
</g>
<g stroke="rgb(0, 0, 255)">
  <path d="M8922.523309230291,4406.558294669942L8927.97696776688,4406.558294669942" />
</g>
<g stroke="rgb(0, 0, 255)">
  <path d="M8933.430626303463,4406.558294669942L8938.884284840047,4406.558294669942" />
</g>
<g stroke="rgb(0, 0, 255)">
  <path d="M8944.337943376637,4406.558294669942L8949.791601913224,4406.558294669942" />
</g>
<g stroke="rgb(0, 0, 255)">
  <path d="M8955.245260449805,4406.558294669942L8960.698918986393,4406.558294669942" />
</g>
<g stroke="rgb(0, 0, 255)">
  <path d="M8966.152577522975,4406.558294669942L8971.606236059562,4406.558294669942" />
</g>
<g stroke="rgb(0, 0, 255)">
  <path d="M8977.059894596145,4406.558294669942L8982.513553132734,4406.558294669942" />
</g>
<g stroke="rgb(0, 0, 255)">
  <path d="M8987.967211669318,4406.558294669942L8993.420870205904,4406.558294669942" />
</g>
<g stroke="rgb(0, 0, 255)">
  <path d="M8998.87452874249,4406.558294669942L9004.328187279076,4406.558294669942" />
</g>
<g stroke="rgb(0, 0, 255)">
  <path d="M9009.78184581566,4406.558294669942L9015.235504352246,4406.558294669942" />
</g>
<g stroke="rgb(0, 0, 255)">
  <path d="M9020.68916288883,4406.558294669942L9026.142821425417,4406.558294669942" />
</g>
<g stroke="rgb(0, 0, 255)">
  <path d="M8813.450138498585,4406.558294669942L8813.450138498585,4402.258294669943" />
</g>
<g stroke="rgb(0, 0, 255)">
  <path d="M8818.903797035175,4406.558294669942L8818.903797035175,4402.258294669943" />
</g>
<g stroke="rgb(0, 0, 255)">
  <path d="M8824.357455571757,4406.558294669942L8824.357455571757,4402.258294669943" />
</g>
<g stroke="rgb(0, 0, 255)">
  <path d="M8829.811114108345,4406.558294669942L8829.811114108345,4402.258294669943" />
</g>
<g stroke="rgb(0, 0, 255)">
  <path d="M8835.264772644927,4406.558294669942L8835.264772644927,4402.258294669943" />
</g>
<g stroke="rgb(0, 0, 255)">
  <path d="M8840.718431181513,4406.558294669942L8840.718431181513,4402.258294669943" />
</g>
<g stroke="rgb(0, 0, 255)">
  <path d="M8846.172089718097,4406.558294669942L8846.172089718097,4402.258294669943" />
</g>
<g stroke="rgb(0, 0, 255)">
  <path d="M8851.625748254683,4406.558294669942L8851.625748254683,4402.258294669943" />
</g>
<g stroke="rgb(0, 0, 255)">
  <path d="M8857.079406791268,4406.558294669942L8857.079406791268,4402.258294669943" />
</g>
<g stroke="rgb(0, 0, 255)">
  <path d="M8862.533065327852,4406.558294669942L8862.533065327852,4402.258294669943" />
</g>
<g stroke="rgb(0, 0, 255)">
  <path d="M8867.986723864442,4406.558294669942L8867.986723864442,4402.258294669943" />
</g>
<g stroke="rgb(0, 0, 255)">
  <path d="M8873.440382401026,4406.558294669942L8873.440382401026,4402.258294669943" />
</g>
<g stroke="rgb(0, 0, 255)">
  <path d="M8878.894040937606,4406.558294669942L8878.894040937606,4402.258294669943" />
</g>
<g stroke="rgb(0, 0, 255)">
  <path d="M8884.347699474196,4406.558294669942L8884.347699474196,4402.258294669943" />
</g>
<g stroke="rgb(0, 0, 255)">
  <path d="M8889.80135801078,4406.558294669942L8889.80135801078,4402.258294669943" />
</g>
<g stroke="rgb(0, 0, 255)">
  <path d="M8895.255016547364,4406.558294669942L8895.255016547364,4402.258294669943" />
</g>
<g stroke="rgb(0, 0, 255)">
  <path d="M8900.708675083953,4406.558294669942L8900.708675083953,4402.258294669943" />
</g>
<g stroke="rgb(0, 0, 255)">
  <path d="M8906.162333620538,4406.558294669942L8906.162333620538,4402.258294669943" />
</g>
<g stroke="rgb(0, 0, 255)">
  <path d="M8911.615992157123,4406.558294669942L8911.615992157123,4402.258294669943" />
</g>
<g stroke="rgb(0, 0, 255)">
  <path d="M8917.069650693707,4406.558294669942L8917.069650693707,4402.258294669943" />
</g>
<g stroke="rgb(0, 0, 255)">
  <path d="M8922.523309230291,4406.558294669942L8922.523309230291,4402.258294669943" />
</g>
<g stroke="rgb(0, 0, 255)">
  <path d="M8927.97696776688,4406.558294669942L8927.97696776688,4402.258294669943" />
</g>
<g stroke="rgb(0, 0, 255)">
  <path d="M8933.430626303463,4406.558294669942L8933.430626303463,4402.258294669943" />
</g>
<g stroke="rgb(0, 0, 255)">
  <path d="M8938.884284840047,4406.558294669942L8938.884284840047,4402.258294669943" />
</g>
<g stroke="rgb(0, 0, 255)">
  <path d="M8944.337943376637,4406.558294669942L8944.337943376637,4402.258294669943" />
</g>
<g stroke="rgb(0, 0, 255)">
  <path d="M8949.791601913224,4406.558294669942L8949.791601913224,4402.258294669943" />
</g>
<g stroke="rgb(0, 0, 255)">
  <path d="M8955.245260449805,4406.558294669942L8955.245260449805,4402.258294669943" />
</g>
<g stroke="rgb(0, 0, 255)">
  <path d="M8960.698918986393,4406.558294669942L8960.698918986393,4402.258294669943" />
</g>
<g stroke="rgb(0, 0, 255)">
  <path d="M8966.152577522975,4406.558294669942L8966.152577522975,4402.258294669943" />
</g>
<g stroke="rgb(0, 0, 255)">
  <path d="M8971.606236059562,4406.558294669942L8971.606236059562,4402.258294669943" />
</g>
<g stroke="rgb(0, 0, 255)">
  <path d="M8977.059894596145,4406.558294669942L8977.059894596145,4402.258294669943" />
</g>
<g stroke="rgb(0, 0, 255)">
  <path d="M8982.513553132734,4406.558294669942L8982.513553132734,4402.258294669943" />
</g>
<g stroke="rgb(0, 0, 255)">
  <path d="M8987.967211669318,4406.558294669942L8987.967211669318,4402.258294669943" />
</g>
<g stroke="rgb(0, 0, 255)">
  <path d="M8993.420870205904,4406.558294669942L8993.420870205904,4402.258294669943" />
</g>
<g stroke="rgb(0, 0, 255)">
  <path d="M8998.87452874249,4406.558294669942L8998.87452874249,4402.258294669943" />
</g>
<g stroke="rgb(0, 0, 255)">
  <path d="M9004.328187279076,4406.558294669942L9004.328187279076,4402.258294669943" />
</g>
<g stroke="rgb(0, 0, 255)">
  <path d="M9009.78184581566,4406.558294669942L9009.78184581566,4402.258294669943" />
</g>
<g stroke="rgb(0, 0, 255)">
  <path d="M9015.235504352246,4406.558294669942L9015.235504352246,4402.258294669943" />
</g>
<g stroke="rgb(0, 0, 255)">
  <path d="M9020.68916288883,4406.558294669942L9020.68916288883,4402.258294669943" />
</g>
<g stroke="rgb(0, 0, 255)">
  <path d="M9026.142821425417,4406.558294669942L9026.142821425417,4402.258294669943" />
</g>
<g stroke="rgb(255, 0, 0)">
  <path d="M8807.996479962,4402.258294669943L8807.996479962,4395.049203760851" />
</g>
<g stroke="rgb(255, 0, 0)">
  <path d="M8807.996479962,4387.84011285176L8807.996479962,4380.63102194267" />
</g>
<g stroke="rgb(255, 0, 0)">
  <path d="M8807.996479962,4373.421931033579L8807.996479962,4366.212840124489" />
</g>
<g stroke="rgb(255, 0, 0)">
  <path d="M8807.996479962,4359.003749215398L8807.996479962,4351.794658306306" />
</g>
<g stroke="rgb(255, 0, 0)">
  <path d="M8807.996479962,4344.585567397215L8807.996479962,4337.376476488123" />
</g>
<g stroke="rgb(255, 0, 0)">
  <path d="M8807.996479962,4330.167385579033L8807.996479962,4322.958294669944" />
</g>
<g stroke="rgb(255, 0, 0)">
  <path d="M8807.996479962,4322.958294669944L9031.596479962001,4322.958294669944" />
</g>
<g stroke="rgb(0, 255, 255)">
  <path d="M8812.296479962,4327.258294669943L9027.296479962,4327.258294669943" />
</g>
<g stroke="rgb(255, 0, 0)">
  <path d="M9031.596479962001,4322.958294669944L9031.596479962001,4330.167385579033" />
</g>
<g stroke="rgb(255, 0, 0)">
  <path d="M9031.596479962001,4337.376476488123L9031.596479962001,4344.585567397215" />
</g>
<g stroke="rgb(255, 0, 0)">
  <path d="M9031.596479962001,4351.794658306306L9031.596479962001,4359.003749215398" />
</g>
<g stroke="rgb(255, 0, 0)">
  <path d="M9031.596479962001,4366.212840124489L9031.596479962001,4373.421931033579" />
</g>
<g stroke="rgb(255, 0, 0)">
  <path d="M9031.596479962001,4380.63102194267L9031.596479962001,4387.84011285176" />
</g>
<g stroke="rgb(255, 0, 0)">
  <path d="M9031.596479962001,4395.049203760851L9031.596479962001,4402.258294669943" />
</g>
<g stroke="rgb(255, 0, 0)">
  <path d="M 8728.696479962002 4451.558294669942 A 10 10 0 1 1 8728.696479962002 4471.558294669942" />
</g>
<g stroke="rgb(255, 0, 0)">
  <path d="M8594.823774731942,4537.155684630049L8601.823774731942,4537.155684630049L8601.823774731942,4322.155684630049L8594.823774731942,4322.155684630049L8594.823774731942,4537.155684630049" />
</g>
<g stroke="rgb(255, 0, 0)">
  <path d="M8807.996479962,4528.067385579034L8812.296479962,4528.067385579034" />
</g>
<g stroke="rgb(255, 0, 0)">
  <path d="M8812.296479962,4528.067385579034L8812.296479962,4535.276476488124" />
</g>
<g stroke="rgb(255, 0, 0)">
  <path d="M8812.296479962,4535.276476488124L8807.996479962,4535.276476488124" />
</g>
<g stroke="rgb(255, 0, 0)">
  <path d="M8807.996479962,4542.485567397215L8812.296479962,4542.485567397215" />
</g>
<g stroke="rgb(255, 0, 0)">
  <path d="M8812.296479962,4542.485567397215L8812.296479962,4549.694658306306" />
</g>
<g stroke="rgb(255, 0, 0)">
  <path d="M8812.296479962,4549.694658306306L8807.996479962,4549.694658306306" />
</g>
<g stroke="rgb(255, 0, 0)">
  <path d="M8807.996479962,4556.903749215396L8812.296479962,4556.903749215396" />
</g>
<g stroke="rgb(255, 0, 0)">
  <path d="M8812.296479962,4556.903749215396L8812.296479962,4564.112840124489" />
</g>
<g stroke="rgb(255, 0, 0)">
  <path d="M8812.296479962,4564.112840124489L8807.996479962,4564.112840124489" />
</g>
<g stroke="rgb(255, 0, 0)">
  <path d="M8807.996479962,4571.321931033579L8812.296479962,4571.321931033579" />
</g>
<g stroke="rgb(255, 0, 0)">
  <path d="M8812.296479962,4571.321931033579L8812.296479962,4578.531021942671" />
</g>
<g stroke="rgb(255, 0, 0)">
  <path d="M8812.296479962,4578.531021942671L8807.996479962,4578.531021942671" />
</g>
<g stroke="rgb(255, 0, 0)">
  <path d="M8807.996479962,4585.740112851762L8812.296479962,4585.740112851762" />
</g>
<g stroke="rgb(255, 0, 0)">
  <path d="M8812.296479962,4585.740112851762L8812.296479962,4592.949203760852" />
</g>
<g stroke="rgb(255, 0, 0)">
  <path d="M8812.296479962,4592.949203760852L8807.996479962,4592.949203760852" />
</g>
<g stroke="rgb(255, 0, 0)">
  <path d="M9031.596479962001,4535.276476488124L9031.596479962001,4542.485567397215" />
</g>
<g stroke="rgb(255, 0, 0)">
  <path d="M9031.596479962001,4549.694658306306L9031.596479962001,4556.903749215396" />
</g>
<g stroke="rgb(255, 0, 0)">
  <path d="M9031.596479962001,4564.112840124489L9031.596479962001,4571.321931033579" />
</g>
<g stroke="rgb(255, 0, 0)">
  <path d="M9031.596479962001,4578.531021942671L9031.596479962001,4585.740112851762" />
</g>
<g stroke="rgb(255, 0, 0)">
  <path d="M9031.596479962001,4528.067385579034L9027.296479962,4528.067385579034" />
</g>
<g stroke="rgb(255, 0, 0)">
  <path d="M9027.296479962,4528.067385579034L9027.296479962,4535.276476488124" />
</g>
<g stroke="rgb(255, 0, 0)">
  <path d="M9027.296479962,4535.276476488124L9031.596479962001,4535.276476488124" />
</g>
<g stroke="rgb(255, 0, 0)">
  <path d="M9031.596479962001,4542.485567397215L9027.296479962,4542.485567397215" />
</g>
<g stroke="rgb(255, 0, 0)">
  <path d="M9027.296479962,4542.485567397215L9027.296479962,4549.694658306306" />
</g>
<g stroke="rgb(255, 0, 0)">
  <path d="M9027.296479962,4549.694658306306L9031.596479962001,4549.694658306306" />
</g>
<g stroke="rgb(255, 0, 0)">
  <path d="M9031.596479962001,4556.903749215396L9027.296479962,4556.903749215396" />
</g>
<g stroke="rgb(255, 0, 0)">
  <path d="M9027.296479962,4556.903749215396L9027.296479962,4564.112840124489" />
</g>
<g stroke="rgb(255, 0, 0)">
  <path d="M9027.296479962,4564.112840124489L9031.596479962001,4564.112840124489" />
</g>
<g stroke="rgb(255, 0, 0)">
  <path d="M9031.596479962001,4571.321931033579L9027.296479962,4571.321931033579" />
</g>
<g stroke="rgb(255, 0, 0)">
  <path d="M9027.296479962,4571.321931033579L9027.296479962,4578.531021942671" />
</g>
<g stroke="rgb(255, 0, 0)">
  <path d="M9027.296479962,4578.531021942671L9031.596479962001,4578.531021942671" />
</g>
<g stroke="rgb(255, 0, 0)">
  <path d="M9031.596479962001,4585.740112851762L9027.296479962,4585.740112851762" />
</g>
<g stroke="rgb(255, 0, 0)">
  <path d="M9027.296479962,4585.740112851762L9027.296479962,4592.949203760852" />
</g>
<g stroke="rgb(255, 0, 0)">
  <path d="M9027.296479962,4592.949203760852L9031.596479962001,4592.949203760852" />
</g>
<g stroke="rgb(255, 0, 0)">
  <path d="M8807.996479962,4387.84011285176L8807.996479962,4380.63102194267" />
</g>
<g stroke="rgb(255, 0, 0)">
  <path d="M8807.996479962,4373.421931033579L8807.996479962,4366.212840124489" />
</g>
<g stroke="rgb(255, 0, 0)">
  <path d="M8807.996479962,4359.003749215398L8807.996479962,4351.794658306306" />
</g>
<g stroke="rgb(255, 0, 0)">
  <path d="M8807.996479962,4344.585567397215L8807.996479962,4337.376476488123" />
</g>
<g stroke="rgb(255, 0, 0)">
  <path d="M9031.596479962001,4337.376476488123L9031.596479962001,4344.585567397215" />
</g>
<g stroke="rgb(255, 0, 0)">
  <path d="M9031.596479962001,4351.794658306306L9031.596479962001,4359.003749215398" />
</g>
<g stroke="rgb(255, 0, 0)">
  <path d="M9031.596479962001,4366.212840124489L9031.596479962001,4373.421931033579" />
</g>
<g stroke="rgb(255, 0, 0)">
  <path d="M9031.596479962001,4380.63102194267L9031.596479962001,4387.84011285176" />
</g>
<g stroke="rgb(255, 0, 0)">
  <path d="M8807.996479962,4395.049203760851L8812.296479962,4395.049203760851" />
</g>
<g stroke="rgb(255, 0, 0)">
  <path d="M8812.296479962,4395.049203760851L8812.296479962,4387.84011285176" />
</g>
<g stroke="rgb(255, 0, 0)">
  <path d="M8812.296479962,4387.84011285176L8807.996479962,4387.84011285176" />
</g>
<g stroke="rgb(255, 0, 0)">
  <path d="M8807.996479962,4380.63102194267L8812.296479962,4380.63102194267" />
</g>
<g stroke="rgb(255, 0, 0)">
  <path d="M8812.296479962,4380.63102194267L8812.296479962,4373.421931033579" />
</g>
<g stroke="rgb(255, 0, 0)">
  <path d="M8812.296479962,4373.421931033579L8807.996479962,4373.421931033579" />
</g>
<g stroke="rgb(255, 0, 0)">
  <path d="M8807.996479962,4366.212840124489L8812.296479961997,4366.212840124489" />
</g>
<g stroke="rgb(255, 0, 0)">
  <path d="M8812.296479961997,4366.212840124489L8812.296479961997,4359.003749215398" />
</g>
<g stroke="rgb(255, 0, 0)">
  <path d="M8812.296479961997,4359.003749215398L8807.996479962,4359.003749215398" />
</g>
<g stroke="rgb(255, 0, 0)">
  <path d="M8807.996479962,4351.794658306306L8812.296479961997,4351.794658306306" />
</g>
<g stroke="rgb(255, 0, 0)">
  <path d="M8812.296479961997,4351.794658306306L8812.296479961997,4344.585567397215" />
</g>
<g stroke="rgb(255, 0, 0)">
  <path d="M8812.296479961997,4344.585567397215L8807.996479962,4344.585567397215" />
</g>
<g stroke="rgb(255, 0, 0)">
  <path d="M8807.996479962,4337.376476488123L8812.296479961997,4337.376476488123" />
</g>
<g stroke="rgb(255, 0, 0)">
  <path d="M8812.296479961997,4337.376476488123L8812.296479961997,4330.167385579033" />
</g>
<g stroke="rgb(255, 0, 0)">
  <path d="M8812.296479961997,4330.167385579033L8807.996479962,4330.167385579033" />
</g>
<g stroke="rgb(255, 0, 0)">
  <path d="M9031.596479962001,4387.84011285176L9031.596479962001,4380.63102194267" />
</g>
<g stroke="rgb(255, 0, 0)">
  <path d="M9031.596479962001,4373.421931033579L9031.596479962001,4366.212840124489" />
</g>
<g stroke="rgb(255, 0, 0)">
  <path d="M9031.596479962001,4359.003749215398L9031.596479962001,4351.794658306306" />
</g>
<g stroke="rgb(255, 0, 0)">
  <path d="M9031.596479962001,4344.585567397215L9031.596479962001,4337.376476488123" />
</g>
<g stroke="rgb(255, 0, 0)">
  <path d="M9031.596479962001,4395.049203760851L9027.296479962,4395.049203760851" />
</g>
<g stroke="rgb(255, 0, 0)">
  <path d="M9027.296479962,4395.049203760851L9027.296479962,4387.84011285176" />
</g>
<g stroke="rgb(255, 0, 0)">
  <path d="M9027.296479962,4387.84011285176L9031.596479962001,4387.84011285176" />
</g>
<g stroke="rgb(255, 0, 0)">
  <path d="M9031.596479962001,4380.63102194267L9027.296479962,4380.63102194267" />
</g>
<g stroke="rgb(255, 0, 0)">
  <path d="M9027.296479962,4380.63102194267L9027.296479962,4373.421931033579" />
</g>
<g stroke="rgb(255, 0, 0)">
  <path d="M9027.296479962,4373.421931033579L9031.596479962001,4373.421931033579" />
</g>
<g stroke="rgb(255, 0, 0)">
  <path d="M9031.596479962001,4366.212840124489L9027.296479962,4366.212840124489" />
</g>
<g stroke="rgb(255, 0, 0)">
  <path d="M9027.296479962,4366.212840124489L9027.296479962,4359.003749215398" />
</g>
<g stroke="rgb(255, 0, 0)">
  <path d="M9027.296479962,4359.003749215398L9031.596479962001,4359.003749215398" />
</g>
<g stroke="rgb(255, 0, 0)">
  <path d="M9031.596479962001,4351.794658306306L9027.296479962,4351.794658306306" />
</g>
<g stroke="rgb(255, 0, 0)">
  <path d="M9027.296479962,4351.794658306306L9027.296479962,4344.585567397215" />
</g>
<g stroke="rgb(255, 0, 0)">
  <path d="M9027.296479962,4344.585567397215L9031.596479962001,4344.585567397215" />
</g>
<g stroke="rgb(255, 0, 0)">
  <path d="M9031.596479962001,4337.376476488123L9027.296479962,4337.376476488123" />
</g>
<g stroke="rgb(255, 0, 0)">
  <path d="M9027.296479962,4337.376476488123L9027.296479962,4330.167385579033" />
</g>
<g stroke="rgb(255, 0, 0)">
  <path d="M9027.296479962,4330.167385579033L9031.596479962001,4330.167385579033" />
</g>
<g stroke="rgb(255, 0, 0)">
  <path d="M8807.996479962,4516.558294669942L8800.78738905291,4516.558294669942" />
</g>
<g stroke="rgb(255, 0, 0)">
  <path d="M8793.578298143817,4516.558294669942L8786.369207234728,4516.558294669942" />
</g>
<g stroke="rgb(255, 0, 0)">
  <path d="M8779.160116325638,4516.558294669942L8771.951025416545,4516.558294669942" />
</g>
<g stroke="rgb(255, 0, 0)">
  <path d="M8764.741934507458,4516.558294669942L8757.532843598367,4516.558294669942" />
</g>
<g stroke="rgb(255, 0, 0)">
  <path d="M8750.323752689274,4516.558294669942L8743.11466178018,4516.558294669942" />
</g>
<g stroke="rgb(255, 0, 0)">
  <path d="M8800.78738905291,4516.558294669942L8800.78738905291,4520.858294669943" />
</g>
<g stroke="rgb(255, 0, 0)">
  <path d="M8800.78738905291,4520.858294669943L8793.578298143817,4520.858294669943" />
</g>
<g stroke="rgb(255, 0, 0)">
  <path d="M8793.578298143817,4520.858294669943L8793.578298143817,4516.558294669942" />
</g>
<g stroke="rgb(255, 0, 0)">
  <path d="M8786.369207234728,4516.558294669942L8786.369207234728,4520.858294669943" />
</g>
<g stroke="rgb(255, 0, 0)">
  <path d="M8786.369207234728,4520.858294669943L8779.160116325638,4520.858294669943" />
</g>
<g stroke="rgb(255, 0, 0)">
  <path d="M8779.160116325638,4520.858294669943L8779.160116325638,4516.558294669942" />
</g>
<g stroke="rgb(255, 0, 0)">
  <path d="M8771.951025416545,4516.558294669942L8771.951025416545,4520.858294669943" />
</g>
<g stroke="rgb(255, 0, 0)">
  <path d="M8771.951025416545,4520.858294669943L8764.741934507458,4520.858294669943" />
</g>
<g stroke="rgb(255, 0, 0)">
  <path d="M8764.741934507458,4520.858294669943L8764.741934507458,4516.558294669942" />
</g>
<g stroke="rgb(255, 0, 0)">
  <path d="M8757.532843598367,4516.558294669942L8757.532843598367,4520.858294669943" />
</g>
<g stroke="rgb(255, 0, 0)">
  <path d="M8757.532843598367,4520.858294669943L8750.323752689274,4520.858294669943" />
</g>
<g stroke="rgb(255, 0, 0)">
  <path d="M8750.323752689274,4520.858294669943L8750.323752689274,4516.558294669942" />
</g>
<g stroke="rgb(255, 0, 0)">
  <path d="M8743.11466178018,4516.558294669942L8743.11466178018,4520.858294669943" />
</g>
<g stroke="rgb(255, 0, 0)">
  <path d="M8743.11466178018,4520.858294669943L8735.905570871091,4520.858294669943" />
</g>
<g stroke="rgb(255, 0, 0)">
  <path d="M8735.905570871091,4520.858294669943L8735.905570871091,4516.558294669942" />
</g>
<g stroke="rgb(0, 0, 255)">
  <path d="M9027.296479962,4413.55353276518L9027.296479962,4407.905913717561" />
</g>
<g stroke="rgb(0, 0, 255)">
  <path d="M9027.296479962,4515.210675622324L9027.296479962,4509.563056574704" />
</g>
<g stroke="rgb(0, 0, 255)">
  <path d="M9027.296479962,4503.915437527085L9027.296479962,4498.267818479468" />
</g>
<g stroke="rgb(0, 0, 255)">
  <path d="M9027.296479962,4492.620199431847L9027.296479962,4486.972580384229" />
</g>
<g stroke="rgb(0, 0, 255)">
  <path d="M9027.296479962,4481.324961336609L9027.296479962,4475.67734228899" />
</g>
<g stroke="rgb(0, 0, 255)">
  <path d="M9027.296479962,4470.029723241371L9027.296479962,4464.382104193751" />
</g>
<g stroke="rgb(0, 0, 255)">
  <path d="M9027.296479962,4458.734485146133L9027.296479962,4453.086866098515" />
</g>
<g stroke="rgb(0, 0, 255)">
  <path d="M9027.296479962,4447.439247050894L9027.296479962,4441.791628003275" />
</g>
<g stroke="rgb(0, 0, 255)">
  <path d="M9027.296479962,4436.144008955657L9027.296479962,4430.496389908039" />
</g>
<g stroke="rgb(0, 0, 255)">
  <path d="M9027.296479962,4424.84877086042L9027.296479962,4419.201151812801" />
</g>
<g stroke="rgb(255, 0, 0)">
  <path d="M8735.905570871091,4516.558294669942L8728.696479962002,4516.558294669942" />
</g>
<g stroke="rgb(255, 0, 0)">
  <path d="M8807.996479962,4406.558294669942L8800.78738905291,4406.558294669942" />
</g>
<g stroke="rgb(255, 0, 0)">
  <path d="M8793.578298143817,4406.558294669942L8786.369207234728,4406.558294669942" />
</g>
<g stroke="rgb(255, 0, 0)">
  <path d="M8779.160116325638,4406.558294669942L8771.951025416545,4406.558294669942" />
</g>
<g stroke="rgb(255, 0, 0)">
  <path d="M8764.741934507458,4406.558294669942L8757.532843598367,4406.558294669942" />
</g>
<g stroke="rgb(255, 0, 0)">
  <path d="M8750.323752689274,4406.558294669942L8743.11466178018,4406.558294669942" />
</g>
<g stroke="rgb(255, 0, 0)">
  <path d="M8800.78738905291,4406.558294669942L8800.78738905291,4402.258294669943" />
</g>
<g stroke="rgb(255, 0, 0)">
  <path d="M8800.78738905291,4402.258294669943L8793.578298143817,4402.258294669943" />
</g>
<g stroke="rgb(255, 0, 0)">
  <path d="M8793.578298143817,4402.258294669943L8793.578298143817,4406.558294669942" />
</g>
<g stroke="rgb(255, 0, 0)">
  <path d="M8786.369207234728,4406.558294669942L8786.369207234728,4402.258294669943" />
</g>
<g stroke="rgb(255, 0, 0)">
  <path d="M8786.369207234728,4402.258294669943L8779.160116325638,4402.258294669943" />
</g>
<g stroke="rgb(255, 0, 0)">
  <path d="M8779.160116325638,4402.258294669943L8779.160116325638,4406.558294669942" />
</g>
<g stroke="rgb(255, 0, 0)">
  <path d="M8771.951025416545,4406.558294669942L8771.951025416545,4402.258294669943" />
</g>
<g stroke="rgb(255, 0, 0)">
  <path d="M8771.951025416545,4402.258294669943L8764.741934507458,4402.258294669943" />
</g>
<g stroke="rgb(255, 0, 0)">
  <path d="M8764.741934507458,4402.258294669943L8764.741934507458,4406.558294669942" />
</g>
<g stroke="rgb(255, 0, 0)">
  <path d="M8757.532843598367,4406.558294669942L8757.532843598367,4402.258294669943" />
</g>
<g stroke="rgb(255, 0, 0)">
  <path d="M8757.532843598367,4402.258294669943L8750.323752689274,4402.258294669943" />
</g>
<g stroke="rgb(255, 0, 0)">
  <path d="M8750.323752689274,4402.258294669943L8750.323752689274,4406.558294669942" />
</g>
<g stroke="rgb(255, 0, 0)">
  <path d="M8743.11466178018,4406.558294669942L8743.11466178018,4402.258294669943" />
</g>
<g stroke="rgb(255, 0, 0)">
  <path d="M8743.11466178018,4402.258294669943L8735.905570871091,4402.258294669943" />
</g>
<g stroke="rgb(255, 0, 0)">
  <path d="M8735.905570871091,4402.258294669943L8735.905570871091,4406.558294669942" />
</g>
<g stroke="rgb(255, 0, 0)">
  <path d="M8735.905570871091,4406.558294669942L8728.696479962002,4406.558294669942" />
</g>
<g stroke="rgb(255, 0, 0)">
  <path d="M9110.896479962,4516.558294669942L9110.896479962,4471.558294669942" />
</g>
<g stroke="rgb(255, 0, 0)">
  <path d="M9110.896479962,4451.558294669943L9110.896479962,4406.558294669942" />
</g>
<g stroke="rgb(255, 0, 0)">
  <path d="M 9110.896479962 4471.558294669942 A 10 10 0 1 1 9110.896479962 4451.558294669942" />
</g>
<g stroke="rgb(255, 0, 0)">
  <path d="M9031.596479962001,4516.558294669942L9038.805570871089,4516.558294669942" />
</g>
<g stroke="rgb(255, 0, 0)">
  <path d="M9046.014661780184,4516.558294669942L9053.223752689273,4516.558294669942" />
</g>
<g stroke="rgb(255, 0, 0)">
  <path d="M9060.43284359836,4516.558294669942L9067.641934507454,4516.558294669942" />
</g>
<g stroke="rgb(255, 0, 0)">
  <path d="M9074.851025416547,4516.558294669942L9082.06011632564,4516.558294669942" />
</g>
<g stroke="rgb(255, 0, 0)">
  <path d="M9089.269207234727,4516.558294669942L9096.47829814382,4516.558294669942" />
</g>
<g stroke="rgb(255, 0, 0)">
  <path d="M9038.805570871089,4516.558294669942L9038.805570871089,4520.858294669943" />
</g>
<g stroke="rgb(255, 0, 0)">
  <path d="M9038.805570871089,4520.858294669943L9046.014661780184,4520.858294669943" />
</g>
<g stroke="rgb(255, 0, 0)">
  <path d="M9046.014661780184,4520.858294669943L9046.014661780184,4516.558294669942" />
</g>
<g stroke="rgb(255, 0, 0)">
  <path d="M9053.223752689273,4516.558294669942L9053.223752689273,4520.858294669943" />
</g>
<g stroke="rgb(255, 0, 0)">
  <path d="M9053.223752689273,4520.858294669943L9060.43284359836,4520.858294669943" />
</g>
<g stroke="rgb(255, 0, 0)">
  <path d="M9060.43284359836,4520.858294669943L9060.43284359836,4516.558294669942" />
</g>
<g stroke="rgb(255, 0, 0)">
  <path d="M9067.641934507454,4516.558294669942L9067.641934507454,4520.858294669943" />
</g>
<g stroke="rgb(255, 0, 0)">
  <path d="M9067.641934507454,4520.858294669943L9074.851025416547,4520.858294669943" />
</g>
<g stroke="rgb(255, 0, 0)">
  <path d="M9074.851025416547,4520.858294669943L9074.851025416547,4516.558294669942" />
</g>
<g stroke="rgb(255, 0, 0)">
  <path d="M9082.06011632564,4516.558294669942L9082.06011632564,4520.858294669943" />
</g>
<g stroke="rgb(255, 0, 0)">
  <path d="M9082.06011632564,4520.858294669943L9089.269207234727,4520.858294669943" />
</g>
<g stroke="rgb(255, 0, 0)">
  <path d="M9089.269207234727,4520.858294669943L9089.269207234727,4516.558294669942" />
</g>
<g stroke="rgb(255, 0, 0)">
  <path d="M9096.47829814382,4516.558294669942L9096.47829814382,4520.858294669943" />
</g>
<g stroke="rgb(255, 0, 0)">
  <path d="M9096.47829814382,4520.858294669943L9103.68738905291,4520.858294669943" />
</g>
<g stroke="rgb(255, 0, 0)">
  <path d="M9103.68738905291,4520.858294669943L9103.68738905291,4516.558294669942" />
</g>
<g stroke="rgb(255, 0, 0)">
  <path d="M9103.68738905291,4516.558294669942L9110.896479962,4516.558294669942" />
</g>
<g stroke="rgb(255, 0, 0)">
  <path d="M9031.596479962001,4406.558294669942L9038.805570871089,4406.558294669942" />
</g>
<g stroke="rgb(255, 0, 0)">
  <path d="M9046.014661780184,4406.558294669942L9053.223752689273,4406.558294669942" />
</g>
<g stroke="rgb(255, 0, 0)">
  <path d="M9060.43284359836,4406.558294669942L9067.641934507454,4406.558294669942" />
</g>
<g stroke="rgb(255, 0, 0)">
  <path d="M9074.851025416547,4406.558294669942L9082.06011632564,4406.558294669942" />
</g>
<g stroke="rgb(255, 0, 0)">
  <path d="M9089.269207234727,4406.558294669942L9096.47829814382,4406.558294669942" />
</g>
<g stroke="rgb(255, 0, 0)">
  <path d="M9038.805570871089,4406.558294669942L9038.805570871089,4402.258294669943" />
</g>
<g stroke="rgb(255, 0, 0)">
  <path d="M9038.805570871089,4402.258294669943L9046.014661780184,4402.258294669943" />
</g>
<g stroke="rgb(255, 0, 0)">
  <path d="M9046.014661780184,4402.258294669943L9046.014661780184,4406.558294669942" />
</g>
<g stroke="rgb(255, 0, 0)">
  <path d="M9053.223752689273,4406.558294669942L9053.223752689273,4402.258294669943" />
</g>
<g stroke="rgb(255, 0, 0)">
  <path d="M9053.223752689273,4402.258294669943L9060.43284359836,4402.258294669943" />
</g>
<g stroke="rgb(255, 0, 0)">
  <path d="M9060.43284359836,4402.258294669943L9060.43284359836,4406.558294669942" />
</g>
<g stroke="rgb(255, 0, 0)">
  <path d="M9067.641934507454,4406.558294669942L9067.641934507454,4402.258294669943" />
</g>
<g stroke="rgb(255, 0, 0)">
  <path d="M9067.641934507454,4402.258294669943L9074.851025416547,4402.258294669943" />
</g>
<g stroke="rgb(255, 0, 0)">
  <path d="M9074.851025416547,4402.258294669943L9074.851025416547,4406.558294669942" />
</g>
<g stroke="rgb(255, 0, 0)">
  <path d="M9082.06011632564,4406.558294669942L9082.06011632564,4402.258294669943" />
</g>
<g stroke="rgb(255, 0, 0)">
  <path d="M9082.06011632564,4402.258294669943L9089.269207234727,4402.258294669943" />
</g>
<g stroke="rgb(255, 0, 0)">
  <path d="M9089.269207234727,4402.258294669943L9089.269207234727,4406.558294669942" />
</g>
<g stroke="rgb(255, 0, 0)">
  <path d="M9096.47829814382,4406.558294669942L9096.47829814382,4402.258294669943" />
</g>
<g stroke="rgb(255, 0, 0)">
  <path d="M9096.47829814382,4402.258294669943L9103.68738905291,4402.258294669943" />
</g>
<g stroke="rgb(255, 0, 0)">
  <path d="M9103.68738905291,4402.258294669943L9103.68738905291,4406.558294669942" />
</g>
<g stroke="rgb(255, 0, 0)">
  <path d="M9103.68738905291,4406.558294669942L9110.896479962,4406.558294669942" />
</g>
<g stroke="rgb(0, 0, 0)">
  <path d="M8559.317236769755,4758.001724019825L9143.136722235839,4758.001724019825L9143.136722235839,4295.013647843858L8559.317236769755,4295.013647843858L8559.317236769755,4758.001724019825" />
</g>
  </g>
</svg>