<?xml version="1.0"?>
<svg
  xmlns="http://www.w3.org/2000/svg"
  xmlns:xlink="http://www.w3.org/1999/xlink" version="1.1"
  preserveAspectRatio="xMinYMin meet"
  viewBox="8559.317236769755 -4758.001724019825 583.8194854660833 462.98807617596685"
  width="100%" height="100%"
>
  <g stroke="#000000" stroke-width="0.1%" fill="none" transform="matrix(1,0,0,-1,0,0)">
    <g stroke="rgb(0, 0, 0)">
  <path d="M8559.317236769755,4758.001724019825L9143.136722235839,4758.001724019825L9143.136722235839,4295.013647843858L8559.317236769755,4295.013647843858L8559.317236769755,4758.001724019825" />
</g>
<g stroke="rgb(255, 0, 0)">
  <path d="M8798.960579196326,4662.420933598015L8798.960579196326,4563.905251466884L8930.752669513975,4563.905251466884L8930.752669513975,4662.420933598015L8798.960579196326,4662.420933598015" />
</g>
<g stroke="rgb(0, 0, 255)">
  <path d="M8941.698856417433,4661.545238645738L8941.698856417433,4563.467403990745L9035.398216311043,4563.467403990745L9035.398216311043,4661.545238645738L8941.698856417433,4661.545238645738" />
</g>
<g stroke="rgb(0, 255, 255)">
  <path d="M8686.415096290153,4521.249491072914L8686.415096290153,4381.474655470996L9036.92737633804,4381.474655470996L9036.92737633804,4521.249491072914L8686.415096290153,4521.249491072914" />
</g>
<g stroke="rgb(255, 255, 0)">
  <path d="M8601.475003885911,4715.859069872507L8601.475003885911,4556.730795494939L8765.979233478938,4556.730795494939L8765.979233478938,4715.859069872507L8601.475003885911,4715.859069872507" />
</g>
<g stroke="rgb(255, 0, 255)">
  <path d="M8787.483054340772,4722.310216131057L8787.483054340772,4679.30257440739L9116.491513526824,4679.30257440739L9116.491513526824,4722.310216131057L8787.483054340772,4722.310216131057" />
</g>
  </g>
</svg>