  0
SECTION
  2
HEADER
  9
$ACADVER
  1
AC1024
  9
$ACADMAINTVER
 70
     6
  9
$DWGCODEPAGE
  3
ANSI_1252
  9
$LASTSAVEDBY
  1
dn
  9
$INSBASE
 10
0.0
 20
0.0
 30
0.0
  9
$EXTMIN
 10
-26.17143715884185
 20
-33.5730312499207
 30
0.0
  9
$EXTMAX
 10
85.8275409777476
 20
38.08762922971376
 30
0.0
  9
$LIMMIN
 10
0.0
 20
0.0
  9
$LIMMAX
 10
12.0
 20
9.0
  9
$ORTHOMODE
 70
     0
  9
$REGENMODE
 70
     1
  9
$FILLMODE
 70
     1
  9
$QTEXTMODE
 70
     0
  9
$MIRRTEXT
 70
     1
  9
$LTSCALE
 40
1.0
  9
$ATTMODE
 70
     1
  9
$TEXTSIZE
 40
0.2
  9
$TRACEWID
 40
0.05
  9
$TEXTSTYLE
  7
STANDARD
  9
$CLAYER
  8
0
  9
$CELTYPE
  6
BYLAYER
  9
$CECOLOR
 62
   256
  9
$CELTSCALE
 40
1.0
  9
$DISPSILH
 70
     0
  9
$DIMSCALE
 40
1.0
  9
$DIMASZ
 40
0.18
  9
$DIMEXO
 40
0.0625
  9
$DIMDLI
 40
0.38
  9
$DIMRND
 40
0.0
  9
$DIMDLE
 40
0.0
  9
$DIMEXE
 40
0.18
  9
$DIMTP
 40
0.0
  9
$DIMTM
 40
0.0
  9
$DIMTXT
 40
0.18
  9
$DIMCEN
 40
0.09
  9
$DIMTSZ
 40
0.0
  9
$DIMTOL
 70
     0
  9
$DIMLIM
 70
     0
  9
$DIMTIH
 70
     1
  9
$DIMTOH
 70
     1
  9
$DIMSE1
 70
     0
  9
$DIMSE2
 70
     0
  9
$DIMTAD
 70
     0
  9
$DIMZIN
 70
     0
  9
$DIMBLK
  1

  9
$DIMASO
 70
     1
  9
$DIMSHO
 70
     1
  9
$DIMPOST
  1

  9
$DIMAPOST
  1

  9
$DIMALT
 70
     0
  9
$DIMALTD
 70
     2
  9
$DIMALTF
 40
25.4
  9
$DIMLFAC
 40
1.0
  9
$DIMTOFL
 70
     0
  9
$DIMTVP
 40
0.0
  9
$DIMTIX
 70
     0
  9
$DIMSOXD
 70
     0
  9
$DIMSAH
 70
     0
  9
$DIMBLK1
  1

  9
$DIMBLK2
  1

  9
$DIMSTYLE
  2
STANDARD
  9
$DIMCLRD
 70
     0
  9
$DIMCLRE
 70
     0
  9
$DIMCLRT
 70
     0
  9
$DIMTFAC
 40
1.0
  9
$DIMGAP
 40
0.09
  9
$DIMJUST
 70
     0
  9
$DIMSD1
 70
     0
  9
$DIMSD2
 70
     0
  9
$DIMTOLJ
 70
     1
  9
$DIMTZIN
 70
     0
  9
$DIMALTZ
 70
     0
  9
$DIMALTTZ
 70
     0
  9
$DIMUPT
 70
     0
  9
$DIMDEC
 70
     4
  9
$DIMTDEC
 70
     4
  9
$DIMALTU
 70
     2
  9
$DIMALTTD
 70
     2
  9
$DIMTXSTY
  7
STANDARD
  9
$DIMAUNIT
 70
     0
  9
$DIMADEC
 70
     0
  9
$DIMALTRND
 40
0.0
  9
$DIMAZIN
 70
     0
  9
$DIMDSEP
 70
    46
  9
$DIMATFIT
 70
     3
  9
$DIMFRAC
 70
     0
  9
$DIMLDRBLK
  1

  9
$DIMLUNIT
 70
     2
  9
$DIMLWD
 70
    -2
  9
$DIMLWE
 70
    -2
  9
$DIMTMOVE
 70
     2
  9
$DIMFXL
 40
1.0
  9
$DIMFXLON
 70
     0
  9
$DIMJOGANG
 40
0.7853981633974483
  9
$DIMTFILL
 70
     0
  9
$DIMTFILLCLR
 70
     0
  9
$DIMARCSYM
 70
     0
  9
$DIMLTYPE
  6

  9
$DIMLTEX1
  6

  9
$DIMLTEX2
  6

  9
$DIMTXTDIRECTION
 70
     0
  9
$LUNITS
 70
     2
  9
$LUPREC
 70
     4
  9
$SKETCHINC
 40
0.1
  9
$FILLETRAD
 40
0.5
  9
$AUNITS
 70
     0
  9
$AUPREC
 70
     0
  9
$MENU
  1
.
  9
$ELEVATION
 40
0.0
  9
$PELEVATION
 40
0.0
  9
$THICKNESS
 40
0.0
  9
$LIMCHECK
 70
     0
  9
$CHAMFERA
 40
0.5
  9
$CHAMFERB
 40
0.5
  9
$CHAMFERC
 40
1.0
  9
$CHAMFERD
 40
0.0
  9
$SKPOLY
 70
     0
  9
$TDCREATE
 40
2456265.402765382
  9
$TDUCREATE
 40
2456265.361098715
  9
$TDUPDATE
 40
2456265.403409074
  9
$TDUUPDATE
 40
2456265.361742408
  9
$TDINDWG
 40
0.0000000116
  9
$TDUSRTIMER
 40
2456265.361437836
  9
$USRTIMER
 70
     1
  9
$ANGBASE
 50
0.0
  9
$ANGDIR
 70
     0
  9
$PDMODE
 70
     0
  9
$PDSIZE
 40
0.0
  9
$PLINEWID
 40
0.0
  9
$SPLFRAME
 70
     0
  9
$SPLINETYPE
 70
     6
  9
$SPLINESEGS
 70
     8
  9
$HANDSEED
  5
356
  9
$SURFTAB1
 70
     6
  9
$SURFTAB2
 70
     6
  9
$SURFTYPE
 70
     6
  9
$SURFU
 70
     6
  9
$SURFV
 70
     6
  9
$UCSBASE
  2

  9
$UCSNAME
  2

  9
$UCSORG
 10
0.0
 20
0.0
 30
0.0
  9
$UCSXDIR
 10
1.0
 20
0.0
 30
0.0
  9
$UCSYDIR
 10
0.0
 20
1.0
 30
0.0
  9
$UCSORTHOREF
  2

  9
$UCSORTHOVIEW
 70
     0
  9
$UCSORGTOP
 10
0.0
 20
0.0
 30
0.0
  9
$UCSORGBOTTOM
 10
0.0
 20
0.0
 30
0.0
  9
$UCSORGLEFT
 10
0.0
 20
0.0
 30
0.0
  9
$UCSORGRIGHT
 10
0.0
 20
0.0
 30
0.0
  9
$UCSORGFRONT
 10
0.0
 20
0.0
 30
0.0
  9
$UCSORGBACK
 10
0.0
 20
0.0
 30
0.0
  9
$PUCSBASE
  2

  9
$PUCSNAME
  2

  9
$PUCSORG
 10
0.0
 20
0.0
 30
0.0
  9
$PUCSXDIR
 10
1.0
 20
0.0
 30
0.0
  9
$PUCSYDIR
 10
0.0
 20
1.0
 30
0.0
  9
$PUCSORTHOREF
  2

  9
$PUCSORTHOVIEW
 70
     0
  9
$PUCSORGTOP
 10
0.0
 20
0.0
 30
0.0
  9
$PUCSORGBOTTOM
 10
0.0
 20
0.0
 30
0.0
  9
$PUCSORGLEFT
 10
0.0
 20
0.0
 30
0.0
  9
$PUCSORGRIGHT
 10
0.0
 20
0.0
 30
0.0
  9
$PUCSORGFRONT
 10
0.0
 20
0.0
 30
0.0
  9
$PUCSORGBACK
 10
0.0
 20
0.0
 30
0.0
  9
$USERI1
 70
     0
  9
$USERI2
 70
     0
  9
$USERI3
 70
     0
  9
$USERI4
 70
     0
  9
$USERI5
 70
     0
  9
$USERR1
 40
0.0
  9
$USERR2
 40
0.0
  9
$USERR3
 40
0.0
  9
$USERR4
 40
0.0
  9
$USERR5
 40
0.0
  9
$WORLDVIEW
 70
     1
  9
$SHADEDGE
 70
     3
  9
$SHADEDIF
 70
    70
  9
$TILEMODE
 70
     1
  9
$MAXACTVP
 70
    64
  9
$PINSBASE
 10
0.0
 20
0.0
 30
0.0
  9
$PLIMCHECK
 70
     0
  9
$PEXTMIN
 10
1.000000000000000E+20
 20
1.000000000000000E+20
 30
1.000000000000000E+20
  9
$PEXTMAX
 10
-1.000000000000000E+20
 20
-1.000000000000000E+20
 30
-1.000000000000000E+20
  9
$PLIMMIN
 10
0.0
 20
0.0
  9
$PLIMMAX
 10
0.0
 20
0.0
  9
$UNITMODE
 70
     0
  9
$VISRETAIN
 70
     1
  9
$PLINEGEN
 70
     0
  9
$PSLTSCALE
 70
     1
  9
$TREEDEPTH
 70
  3020
  9
$CMLSTYLE
  2
STANDARD
  9
$CMLJUST
 70
     0
  9
$CMLSCALE
 40
1.0
  9
$PROXYGRAPHICS
 70
     1
  9
$MEASUREMENT
 70
     0
  9
$CELWEIGHT
370
    -1
  9
$ENDCAPS
280
     0
  9
$JOINSTYLE
280
     0
  9
$LWDISPLAY
290
     0
  9
$INSUNITS
 70
     0
  9
$HYPERLINKBASE
  1

  9
$STYLESHEET
  1

  9
$XEDIT
290
     1
  9
$CEPSNTYPE
380
     0
  9
$PSTYLEMODE
290
     1
  9
$FINGERPRINTGUID
  2
{5DD882D4-A6E7-4D95-B259-A58BD2C91C43}
  9
$VERSIONGUID
  2
{FAEB1C32-E019-11D5-929B-00C0DF256EC4}
  9
$EXTNAMES
290
     1
  9
$PSVPSCALE
 40
0.0
  9
$OLESTARTUP
290
     0
  9
$SORTENTS
280
   127
  9
$INDEXCTL
280
     0
  9
$HIDETEXT
280
     1
  9
$XCLIPFRAME
280
     2
  9
$HALOGAP
280
     0
  9
$OBSCOLOR
 70
   257
  9
$OBSLTYPE
280
     0
  9
$INTERSECTIONDISPLAY
280
     0
  9
$INTERSECTIONCOLOR
 70
   257
  9
$DIMASSOC
280
     2
  9
$PROJECTNAME
  1

  9
$CAMERADISPLAY
290
     0
  9
$LENSLENGTH
 40
50.0
  9
$CAMERAHEIGHT
 40
0.0
  9
$STEPSPERSEC
 40
2.0
  9
$STEPSIZE
 40
6.0
  9
$3DDWFPREC
 40
2.0
  9
$PSOLWIDTH
 40
0.25
  9
$PSOLHEIGHT
 40
4.0
  9
$LOFTANG1
 40
1.570796326794897
  9
$LOFTANG2
 40
1.570796326794897
  9
$LOFTMAG1
 40
0.0
  9
$LOFTMAG2
 40
0.0
  9
$LOFTPARAM
 70
     7
  9
$LOFTNORMALS
280
     1
  9
$LATITUDE
 40
37.795
  9
$LONGITUDE
 40
-122.394
  9
$NORTHDIRECTION
 40
0.0
  9
$TIMEZONE
 70
 -8000
  9
$LIGHTGLYPHDISPLAY
280
     1
  9
$TILEMODELIGHTSYNCH
280
     1
  9
$SOLIDHIST
280
     1
  9
$SHOWHIST
280
     1
  9
$DWFFRAME
280
     2
  9
$DGNFRAME
280
     2
  9
$REALWORLDSCALE
290
     1
  9
$INTERFERECOLOR
 62
   256
  9
$CSHADOW
280
     0
  9
$SHADOWPLANELOCATION
 40
0.0
  0
ENDSEC
  0
SECTION
  2
CLASSES
  0
CLASS
  1
ACDBDICTIONARYWDFLT
  2
AcDbDictionaryWithDefault
  3
ObjectDBX Classes
 90
        0
 91
        4
280
     0
281
     0
  0
CLASS
  1
VISUALSTYLE
  2
AcDbVisualStyle
  3
ObjectDBX Classes
 90
     4095
 91
        4
280
     0
281
     0
  0
CLASS
  1
MATERIAL
  2
AcDbMaterial
  3
ObjectDBX Classes
 90
     1153
 91
        4
280
     0
281
     0
  0
CLASS
  1
DICTIONARYVAR
  2
AcDbDictionaryVar
  3
ObjectDBX Classes
 90
        0
 91
        4
280
     0
281
     0
  0
CLASS
  1
XRECORD
  2
AcDbXrecord
  3
AutoCAD 2000
 90
        0
 91
        1
280
     0
281
     0
  0
CLASS
  1
LWPOLYLINE
  2
AcDbPolyline
  3
AutoCAD 2000
 90
        0
 91
        1
280
     0
281
     1
  0
CLASS
  1
HATCH
  2
AcDbHatch
  3
AutoCAD 2000
 90
        0
 91
        1
280
     0
281
     1
  0
CLASS
  1
ACDBPLACEHOLDER
  2
AcDbPlaceHolder
  3
ObjectDBX Classes
 90
        0
 91
        1
280
     0
281
     0
  0
CLASS
  1
LAYOUT
  2
AcDbLayout
  3
ObjectDBX Classes
 90
        0
 91
        1
280
     0
281
     0
  0
CLASS
  1
SCALE
  2
AcDbScale
  3
ObjectDBX Classes
 90
     1153
 91
        4
280
     0
281
     0
  0
CLASS
  1
TABLESTYLE
  2
AcDbTableStyle
  3
ObjectDBX Classes
 90
     4095
 91
        4
280
     0
281
     0
  0
CLASS
  1
RASTERVARIABLES
  2
AcDbRasterVariables
  3
ISM
 90
        0
 91
        4
280
     0
281
     0
  0
CLASS
  1
CELLSTYLEMAP
  2
AcDbCellStyleMap
  3
ObjectDBX Classes
 90
     1152
 91
        4
280
     0
281
     0
  0
ENDSEC
  0
SECTION
  2
TABLES
  0
TABLE
  2
VPORT
  5
8
330
0
100
AcDbSymbolTable
 70
     1
  0
VPORT
  5
29
330
8
100
AcDbSymbolTableRecord
100
AcDbViewportTableRecord
  2
*ACTIVE
 70
     0
 10
0.0
 20
0.0
 11
1.0
 21
1.0
 12
92.82896391536426
 22
-9.837848057682281
 13
0.0
 23
0.0
 14
0.5
 24
0.5
 15
0.5
 25
0.5
 16
0.0
 26
0.0
 36
1.0
 17
0.0
 27
0.0
 37
0.0
 40
302.6513817468992
 41
1.334016393442623
 42
50.0
 43
0.0
 44
0.0
 50
0.0
 51
0.0
 71
    16
 72
   100
 73
     1
 74
     3
 75
     0
 76
     0
 77
     0
 78
     0
281
     0
 65
     1
110
0.0
120
0.0
130
0.0
111
1.0
121
0.0
131
0.0
112
0.0
122
1.0
132
0.0
 79
     0
146
0.0
 60
     3
 61
     5
292
     1
282
     1
141
0.0
142
0.0
 63
   256
  0
ENDTAB
  0
TABLE
  2
LTYPE
  5
5
330
0
100
AcDbSymbolTable
 70
     5
  0
LTYPE
  5
14
330
5
100
AcDbSymbolTableRecord
100
AcDbLinetypeTableRecord
  2
BYBLOCK
 70
     0
  3

 72
    65
 73
     0
 40
0.0
  0
LTYPE
  5
15
330
5
100
AcDbSymbolTableRecord
100
AcDbLinetypeTableRecord
  2
BYLAYER
 70
     0
  3

 72
    65
 73
     0
 40
0.0
  0
LTYPE
  5
16
330
5
100
AcDbSymbolTableRecord
100
AcDbLinetypeTableRecord
  2
CONTINUOUS
 70
     0
  3
Solid line
 72
    65
 73
     0
 40
0.0
  0
LTYPE
  5
3F
330
5
100
AcDbSymbolTableRecord
100
AcDbLinetypeTableRecord
  2
DASHED
 70
     0
  3

 72
    65
 73
     2
 40
0.25
 49
0.5
 74
     0
 49
-0.25
 74
     0
  0
LTYPE
  5
40
330
5
100
AcDbSymbolTableRecord
100
AcDbLinetypeTableRecord
  2
DOT
 70
     0
  3

 72
    65
 73
     2
 40
0.5
 49
0.25
 74
     0
 49
-0.25
 74
     0
  0
LTYPE
  5
41
330
5
100
AcDbSymbolTableRecord
100
AcDbLinetypeTableRecord
  2
CENTER
 70
     0
  3

 72
    65
 73
     4
 40
1.0
 49
1.25
 74
     0
 49
-0.25
 74
     0
 49
0.25
 74
     0
 49
-0.25
 74
     0
  0
LTYPE
  5
42
330
5
100
AcDbSymbolTableRecord
100
AcDbLinetypeTableRecord
  2
PHANTOM
 70
     0
  3

 72
    65
 73
     6
 40
1.0
 49
1.25
 74
     0
 49
-0.25
 74
     0
 49
0.25
 74
     0
 49
-0.25
 74
     0
 49
0.25
 74
     0
 49
-0.25
 74
     0
  0
ENDTAB
  0
TABLE
  2
LAYER
  5
2
330
0
100
AcDbSymbolTable
 70
     1
  0
LAYER
  5
10
330
2
100
AcDbSymbolTableRecord
100
AcDbLayerTableRecord
  2
0
 70
     0
 62
     7
  6
CONTINUOUS
370
    -3
390
0
347
3E
  0
ENDTAB
  0
TABLE
  2
STYLE
  5
3
330
0
100
AcDbSymbolTable
 70
     1
  0
STYLE
  5
11
330
3
100
AcDbSymbolTableRecord
100
AcDbTextStyleTableRecord
  2
STANDARD
 70
     0
 40
0.0
 41
1.0
 50
0.0
 71
     0
 42
0.2
  3
txt
  4

  0
ENDTAB
  0
TABLE
  2
VIEW
  5
6
330
0
100
AcDbSymbolTable
 70
     0
  0
ENDTAB
  0
TABLE
  2
UCS
  5
7
330
0
100
AcDbSymbolTable
 70
     0
  0
ENDTAB
  0
TABLE
  2
APPID
  5
9
330
0
100
AcDbSymbolTable
 70
     1
  0
APPID
  5
12
330
9
100
AcDbSymbolTableRecord
100
AcDbRegAppTableRecord
  2
ACAD
 70
     0
  0
ENDTAB
  0
TABLE
  2
DIMSTYLE
  5
A
330
0
100
AcDbSymbolTable
 70
     1
100
AcDbDimStyleTable
  0
DIMSTYLE
105
27
330
A
100
AcDbSymbolTableRecord
100
AcDbDimStyleTableRecord
  2
STANDARD
 70
     0
178
     0
340
11
  0
ENDTAB
  0
TABLE
  2
BLOCK_RECORD
  5
1
330
0
100
AcDbSymbolTable
 70
     1
  0
BLOCK_RECORD
  5
1F
330
1
100
AcDbSymbolTableRecord
100
AcDbBlockTableRecord
  2
*MODEL_SPACE
340
1BC
 70
     0
280
     1
281
     0
  0
BLOCK_RECORD
  5
1B
330
1
100
AcDbSymbolTableRecord
100
AcDbBlockTableRecord
  2
*PAPER_SPACE
340
1BD
 70
     0
280
     1
281
     0
  0
BLOCK_RECORD
  5
43
330
1
100
AcDbSymbolTableRecord
100
AcDbBlockTableRecord
  2
_115
340
0
102
{BLKREFS
331
0
102
}
 70
     0
280
     1
281
     0
  0
ENDTAB
  0
ENDSEC
  0
SECTION
  2
BLOCKS
  0
BLOCK
  5
20
330
1F
100
AcDbEntity
  8
0
100
AcDbBlockBegin
  2
*MODEL_SPACE
 70
     0
 10
0.0
 20
0.0
 30
0.0
  3
*MODEL_SPACE
  1

  0
ENDBLK
  5
21
330
1F
100
AcDbEntity
  8
0
100
AcDbBlockEnd
  0
BLOCK
  5
1C
330
1B
100
AcDbEntity
 67
     1
  8
0
100
AcDbBlockBegin
  2
*PAPER_SPACE
 70
     0
 10
0.0
 20
0.0
 30
0.0
  3
*PAPER_SPACE
  1

  0
ENDBLK
  5
1D
330
1B
100
AcDbEntity
 67
     1
  8
0
100
AcDbBlockEnd
  0
BLOCK
  5
1AF
330
43
100
AcDbEntity
  8
0
100
AcDbBlockBegin
  2
_115
 70
     0
 10
0.0
 20
0.0
 30
0.0
  3
_115
  1

  0
LINE
  5
44
330
43
100
AcDbEntity
  8
0
  6
Continuous
 62
    18
100
AcDbLine
 10
56.74290710345309
 20
23.34730136086125
 30
0.0
 11
56.74290710345309
 21
32.56000627889405
 31
0.0
  0
LINE
  5
45
330
43
100
AcDbEntity
  8
0
  6
Continuous
 62
    18
100
AcDbLine
 10
56.74290710345309
 20
32.56000627889405
 30
0.0
 11
51.2152841526335
 21
32.56000627889405
 31
0.0
  0
LINE
  5
46
330
43
100
AcDbEntity
  8
0
  6
Continuous
 62
    18
100
AcDbLine
 10
51.2152841526335
 20
32.56000627889405
 30
0.0
 11
49.372743169027
 21
30.7174652952875
 31
0.0
  0
LINE
  5
47
330
43
100
AcDbEntity
  8
0
  6
Continuous
 62
    18
100
AcDbLine
 10
54.90036611984659
 20
23.3473013608613
 30
0.0
 11
56.74290710345309
 21
23.34730136086125
 31
0.0
  0
LINE
  5
48
330
43
100
AcDbEntity
  8
0
  6
Continuous
 62
    18
100
AcDbLine
 10
16.20700546410895
 20
28.874924311681
 30
0.0
 11
19.89208743132205
 21
28.87492431168095
 31
0.0
  0
LINE
  5
49
330
43
100
AcDbEntity
  8
0
  6
Continuous
 62
    18
100
AcDbLine
 10
54.90036611984659
 20
25.1881274548546
 30
0.0
 11
54.90036611984659
 21
23.3473013608613
 31
0.0
  0
LINE
  5
4A
330
43
100
AcDbEntity
  8
0
  6
Continuous
 62
    18
100
AcDbLine
 10
49.372743169027
 20
30.7174652952875
 30
0.0
 11
49.372743169027
 21
23.3473013608613
 31
0.0
  0
LINE
  5
4B
330
43
100
AcDbEntity
  8
0
  6
Continuous
 62
    18
100
AcDbLine
 10
51.2152841526335
 20
30.7174652952875
 30
0.0
 11
51.2152841526335
 21
25.18984234446785
 31
0.0
  0
LINE
  5
4C
330
43
100
AcDbEntity
  8
0
  6
Continuous
 62
    18
100
AcDbLine
 10
54.90036611984659
 20
30.7174652952875
 30
0.0
 11
51.2152841526335
 21
30.7174652952875
 31
0.0
  0
LINE
  5
4D
330
43
100
AcDbEntity
  8
0
  6
Continuous
 62
    18
100
AcDbLine
 10
49.372743169027
 20
23.3473013608613
 30
0.0
 11
53.05782513623999
 21
23.3473013608613
 31
0.0
  0
LINE
  5
4E
330
43
100
AcDbEntity
  8
0
  6
Continuous
 62
    18
100
AcDbLine
 10
53.05782513623999
 20
23.3473013608613
 30
0.0
 11
54.90036611984659
 21
25.1881274548546
 31
0.0
  0
LINE
  5
4F
330
43
100
AcDbEntity
  8
0
  6
Continuous
 62
    18
100
AcDbLine
 10
51.2152841526335
 20
25.18984234446785
 30
0.0
 11
54.90036611984659
 21
25.1881274548546
 31
0.0
  0
LINE
  5
50
330
43
100
AcDbEntity
  8
0
  6
Continuous
 62
    18
100
AcDbLine
 10
38.31749726738765
 20
36.24508824610715
 30
0.0
 11
36.47495628378095
 21
36.24508824610715
 31
0.0
  0
LINE
  5
51
330
43
100
AcDbEntity
  8
0
  6
Continuous
 62
    18
100
AcDbLine
 10
36.47495628378095
 20
34.40254726250065
 30
0.0
 11
38.31749726738765
 21
36.24508824610715
 31
0.0
  0
LINE
  5
52
330
43
100
AcDbEntity
  8
0
  6
Continuous
 62
    18
100
AcDbLine
 10
36.47495628378095
 20
36.24508824610715
 30
0.0
 11
36.47495628378095
 21
34.40254726250065
 31
0.0
  0
LINE
  5
53
330
43
100
AcDbEntity
  8
0
  6
Continuous
 62
    18
100
AcDbLine
 10
21.73462841492855
 20
25.1898423444679
 30
0.0
 11
16.20700546410895
 21
25.1898423444678
 31
0.0
  0
LINE
  5
54
330
43
100
AcDbEntity
  8
0
  6
Continuous
 62
    18
100
AcDbLine
 10
21.73462841492855
 20
23.34730136086125
 30
0.0
 11
21.73462841492855
 21
25.1898423444679
 31
0.0
  0
LINE
  5
55
330
43
100
AcDbEntity
  8
0
  6
Continuous
 62
    18
100
AcDbLine
 10
16.20700546410895
 20
27.03238332807445
 30
0.0
 11
21.73462841492855
 21
27.03238332807445
 31
0.0
  0
LINE
  5
56
330
43
100
AcDbEntity
  8
0
  6
Continuous
 62
    18
100
AcDbLine
 10
16.20700546410895
 20
25.1898423444678
 30
0.0
 11
16.20700546410895
 21
27.03238332807445
 31
0.0
  0
LINE
  5
57
330
43
100
AcDbEntity
  8
0
  6
Continuous
 62
    18
100
AcDbLine
 10
84.37869442037059
 20
33.68570485735525
 30
0.0
 11
84.5061344203706
 21
33.68570485735525
 31
0.0
  0
LINE
  5
58
330
43
100
AcDbEntity
  8
0
  6
Continuous
 62
    18
100
AcDbLine
 10
84.5061344203706
 20
33.68570485735525
 30
0.0
 11
84.5061344203706
 21
36.07363797210935
 31
0.0
  0
LINE
  5
59
330
43
100
AcDbEntity
  8
0
  6
Continuous
 62
    18
100
AcDbLine
 10
84.5061344203706
 20
36.07363797210935
 30
0.0
 11
85.1031176990591
 21
36.07363797210935
 31
0.0
  0
LINE
  5
5A
330
43
100
AcDbEntity
  8
0
  6
Continuous
 62
    18
100
AcDbLine
 10
14.36446448050238
 20
23.34730136086125
 30
0.0
 11
21.73462841492855
 21
23.34730136086125
 31
0.0
  0
LINE
  5
5B
330
43
100
AcDbEntity
  8
0
  6
Continuous
 62
    18
100
AcDbLine
 10
14.36446448050238
 20
32.56000627889405
 30
0.0
 11
14.36446448050238
 21
23.34730136086125
 31
0.0
  0
LINE
  5
5C
330
43
100
AcDbEntity
  8
0
  6
Continuous
 62
    18
100
AcDbLine
 10
19.89208743132205
 20
28.87492431168095
 30
0.0
 11
19.89208743132205
 21
30.7174652952875
 31
0.0
  0
LINE
  5
5D
330
43
100
AcDbEntity
  8
0
  6
Continuous
 62
    18
100
AcDbLine
 10
54.90036611984659
 20
25.1881274548546
 30
0.0
 11
54.90036611984659
 21
30.7174652952875
 31
0.0
  0
LINE
  5
5E
330
43
100
AcDbEntity
  8
0
  6
Continuous
 62
    18
100
AcDbLine
 10
16.20700546410895
 20
30.7174652952875
 30
0.0
 11
16.20700546410895
 21
28.874924311681
 31
0.0
  0
LINE
  5
5F
330
43
100
AcDbEntity
  8
0
  6
Continuous
 62
    18
100
AcDbLine
 10
19.89208743132205
 20
30.7174652952875
 30
0.0
 11
16.20700546410895
 21
30.7174652952875
 31
0.0
  0
LINE
  5
60
330
43
100
AcDbEntity
  8
0
  6
Continuous
 62
    18
100
AcDbLine
 10
-21.56508469982555
 20
36.2450882461072
 30
0.0
 11
-18.80127322441565
 21
36.2450882461072
 31
0.0
  0
LINE
  5
61
330
43
100
AcDbEntity
  8
0
  6
Continuous
 62
    18
100
AcDbLine
 10
-18.80127322441565
 20
36.2450882461072
 30
0.0
 11
-18.80127322441565
 21
38.08762922971376
 31
0.0
  0
LINE
  5
62
330
43
100
AcDbEntity
  8
0
  6
Continuous
 62
    18
100
AcDbLine
 10
-21.56508469982555
 20
23.34730136086135
 30
0.0
 11
-21.56508469982555
 21
36.2450882461072
 31
0.0
  0
LINE
  5
63
330
43
100
AcDbEntity
  8
0
  6
Continuous
 62
    18
100
AcDbLine
 10
-26.17143715884185
 20
36.24508824610715
 30
0.0
 11
-23.4076256834321
 21
36.2450882461072
 31
0.0
  0
LINE
  5
64
330
43
100
AcDbEntity
  8
0
  6
Continuous
 62
    18
100
AcDbLine
 10
-23.4076256834321
 20
36.2450882461072
 30
0.0
 11
-23.4076256834321
 21
23.34730136086125
 31
0.0
  0
LINE
  5
65
330
43
100
AcDbEntity
  8
0
  6
Continuous
 62
    18
100
AcDbLine
 10
-23.4076256834321
 20
23.34730136086125
 30
0.0
 11
-21.56508469982555
 21
23.34730136086135
 31
0.0
  0
LINE
  5
66
330
43
100
AcDbEntity
  8
0
  6
Continuous
 62
    18
100
AcDbLine
 10
75.1683169395188
 20
23.34730136086125
 30
0.0
 11
77.01085792312529
 21
23.34730136086125
 31
0.0
  0
LINE
  5
67
330
43
100
AcDbEntity
  8
0
  6
Continuous
 62
    18
100
AcDbLine
 10
77.01085792312529
 20
23.34730136086125
 30
0.0
 11
77.01085792312529
 21
30.71746529528755
 31
0.0
  0
LINE
  5
68
330
43
100
AcDbEntity
  8
0
  6
Continuous
 62
    18
100
AcDbLine
 10
77.01085792312529
 20
30.71746529528755
 30
0.0
 11
82.53848087394499
 21
30.7174652952875
 31
0.0
  0
LINE
  5
69
330
43
100
AcDbEntity
  8
0
  6
Continuous
 62
    18
100
AcDbLine
 10
75.1683169395188
 20
32.56000627889405
 30
0.0
 11
75.1683169395188
 21
23.34730136086125
 31
0.0
  0
LINE
  5
6A
330
43
100
AcDbEntity
  8
0
  6
Continuous
 62
    18
100
AcDbLine
 10
77.01085792312529
 20
30.71746529528755
 30
0.0
 11
77.01085792312529
 21
32.560006278894
 31
0.0
  0
LINE
  5
6B
330
43
100
AcDbEntity
  8
0
  6
Continuous
 62
    18
100
AcDbLine
 10
77.01085792312529
 20
32.560006278894
 30
0.0
 11
75.1683169395188
 21
32.56000627889405
 31
0.0
  0
LINE
  5
6C
330
43
100
AcDbEntity
  8
0
  6
Continuous
 62
    18
100
AcDbLine
 10
82.53848087394499
 20
30.7174652952875
 30
0.0
 11
82.53848087394499
 21
32.560006278894
 31
0.0
  0
LINE
  5
6D
330
43
100
AcDbEntity
  8
0
  6
Continuous
 62
    18
100
AcDbLine
 10
82.53848087394499
 20
32.560006278894
 30
0.0
 11
78.8533989067319
 21
32.56000627889405
 31
0.0
  0
LINE
  5
6E
330
43
100
AcDbEntity
  8
0
  6
Continuous
 62
    18
100
AcDbLine
 10
78.85339890673188
 20
32.56000627889405
 30
0.0
 11
77.01085792312527
 21
30.71746529528755
 31
0.0
  0
LINE
  5
6F
330
43
100
AcDbEntity
  8
0
  6
Continuous
 62
    18
100
AcDbLine
 10
12.52192349689584
 20
36.2450882461072
 30
0.0
 11
10.67938251328928
 21
38.08762922971376
 31
0.0
  0
LINE
  5
70
330
43
100
AcDbEntity
  8
0
  6
Continuous
 62
    18
100
AcDbLine
 10
10.67938251328928
 20
32.56000627889405
 30
0.0
 11
10.67938251328928
 21
36.2450882461072
 31
0.0
  0
LINE
  5
71
330
43
100
AcDbEntity
  8
0
  6
Continuous
 62
    18
100
AcDbLine
 10
12.52192349689584
 20
32.56000627889405
 30
0.0
 11
12.52192349689584
 21
36.2450882461072
 31
0.0
  0
LINE
  5
72
330
43
100
AcDbEntity
  8
0
  6
Continuous
 62
    18
100
AcDbLine
 10
12.52192349689584
 20
23.3473013608613
 30
0.0
 11
12.52192349689584
 21
30.7174652952875
 31
0.0
  0
LINE
  5
73
330
43
100
AcDbEntity
  8
0
  6
Continuous
 62
    18
100
AcDbLine
 10
12.52192349689584
 20
30.7174652952875
 30
0.0
 11
11.60065300509248
 21
31.63873578709075
 31
0.0
  0
LINE
  5
74
330
43
100
AcDbEntity
  8
0
  6
Continuous
 62
    18
100
AcDbLine
 10
11.60065300509248
 20
31.63873578709075
 30
0.0
 11
12.52192349689584
 21
32.56000627889405
 31
0.0
  0
LINE
  5
75
330
43
100
AcDbEntity
  8
0
  6
Continuous
 62
    18
100
AcDbLine
 10
6.99430054607619
 20
32.56000627889405
 30
0.0
 11
10.67938251328928
 21
32.56000627889405
 31
0.0
  0
LINE
  5
76
330
43
100
AcDbEntity
  8
0
  6
Continuous
 62
    18
100
AcDbLine
 10
10.67938251328928
 20
36.2450882461072
 30
0.0
 11
6.99430054607619
 21
36.2450882461072
 31
0.0
  0
LINE
  5
77
330
43
100
AcDbEntity
  8
0
  6
Continuous
 62
    18
100
AcDbLine
 10
6.99430054607619
 20
36.2450882461072
 30
0.0
 11
6.99430054607619
 21
32.56000627889405
 31
0.0
  0
LINE
  5
78
330
43
100
AcDbEntity
  8
0
  6
Continuous
 62
    18
100
AcDbLine
 10
-26.17143715884185
 20
38.0876292297137
 30
0.0
 11
-26.17143715884185
 21
36.24508824610715
 31
0.0
  0
LINE
  5
79
330
43
100
AcDbEntity
  8
0
  6
Continuous
 62
    18
100
AcDbLine
 10
-18.80127322441565
 20
38.08762922971376
 30
0.0
 11
-26.17143715884185
 21
38.0876292297137
 31
0.0
  0
LINE
  5
7A
330
43
100
AcDbEntity
  8
0
  6
Continuous
 62
    18
100
AcDbLine
 10
6.99430054607619
 20
30.7174652952875
 30
0.0
 11
10.67938251328928
 21
30.7174652952875
 31
0.0
  0
LINE
  5
7B
330
43
100
AcDbEntity
  8
0
  6
Continuous
 62
    18
100
AcDbLine
 10
10.67938251328928
 20
30.7174652952875
 30
0.0
 11
10.67938251328928
 21
23.3473013608613
 31
0.0
  0
LINE
  5
7C
330
43
100
AcDbEntity
  8
0
  6
Continuous
 62
    18
100
AcDbLine
 10
10.67938251328928
 20
23.3473013608613
 30
0.0
 11
12.52192349689584
 21
23.3473013608613
 31
0.0
  0
LINE
  5
7D
330
43
100
AcDbEntity
  8
0
  6
Continuous
 62
    18
100
AcDbLine
 10
6.99430054607619
 20
23.3473013608613
 30
0.0
 11
6.99430054607619
 21
30.7174652952875
 31
0.0
  0
LINE
  5
7E
330
43
100
AcDbEntity
  8
0
  6
Continuous
 62
    18
100
AcDbLine
 10
10.67938251328928
 20
38.08762922971376
 30
0.0
 11
5.15175956246948
 21
38.08762922971376
 31
0.0
  0
LINE
  5
7F
330
43
100
AcDbEntity
  8
0
  6
Continuous
 62
    18
100
AcDbLine
 10
5.15175956246948
 20
38.08762922971376
 30
0.0
 11
5.15175956246948
 21
23.3473013608613
 31
0.0
  0
LINE
  5
80
330
43
100
AcDbEntity
  8
0
  6
Continuous
 62
    18
100
AcDbLine
 10
5.15175956246948
 20
23.3473013608613
 30
0.0
 11
6.99430054607619
 21
23.3473013608613
 31
0.0
  0
LINE
  5
81
330
43
100
AcDbEntity
  8
0
  6
Continuous
 62
    18
100
AcDbLine
 10
85.1031176990591
 20
36.07363797210935
 30
0.0
 11
85.1031176990591
 21
33.68570485735525
 31
0.0
  0
LINE
  5
82
330
43
100
AcDbEntity
  8
0
  6
Continuous
 62
    18
100
AcDbLine
 10
58.5854480870597
 20
30.7174652952875
 30
0.0
 11
60.4279890706663
 21
30.7174652952875
 31
0.0
  0
LINE
  5
83
330
43
100
AcDbEntity
  8
0
  6
Continuous
 62
    18
100
AcDbLine
 10
47.5302021854204
 20
25.18984234446785
 30
0.0
 11
42.00257923460075
 21
25.18984234446785
 31
0.0
  0
LINE
  5
84
330
43
100
AcDbEntity
  8
0
  6
Continuous
 62
    18
100
AcDbLine
 10
42.00257923460075
 20
25.18984234446785
 30
0.0
 11
42.00257923460075
 21
30.7174652952875
 31
0.0
  0
LINE
  5
85
330
43
100
AcDbEntity
  8
0
  6
Continuous
 62
    18
100
AcDbLine
 10
42.00257923460075
 20
30.7174652952875
 30
0.0
 11
45.6876612018139
 21
30.7174652952875
 31
0.0
  0
LINE
  5
86
330
43
100
AcDbEntity
  8
0
  6
Continuous
 62
    18
100
AcDbLine
 10
47.5302021854204
 20
23.3473013608613
 30
0.0
 11
47.5302021854204
 21
25.18984234446785
 31
0.0
  0
LINE
  5
87
330
43
100
AcDbEntity
  8
0
  6
Continuous
 62
    18
100
AcDbLine
 10
40.1600382509942
 20
30.7174652952875
 30
0.0
 11
40.1600382509942
 21
23.3473013608613
 31
0.0
  0
LINE
  5
88
330
43
100
AcDbEntity
  8
0
  6
Continuous
 62
    18
100
AcDbLine
 10
40.1600382509942
 20
23.3473013608613
 30
0.0
 11
47.5302021854204
 21
23.3473013608613
 31
0.0
  0
LINE
  5
89
330
43
100
AcDbEntity
  8
0
  6
Continuous
 62
    18
100
AcDbLine
 10
67.7981530050926
 20
25.1898423444679
 30
0.0
 11
71.4832349723057
 21
25.18984234446785
 31
0.0
  0
LINE
  5
8A
330
43
100
AcDbEntity
  8
0
  6
Continuous
 62
    18
100
AcDbLine
 10
73.3257759559123
 20
23.34730136086125
 30
0.0
 11
73.3257759559123
 21
32.56000627889405
 31
0.0
  0
LINE
  5
8B
330
43
100
AcDbEntity
  8
0
  6
Continuous
 62
    18
100
AcDbLine
 10
36.47495628378095
 20
23.3473013608613
 30
0.0
 11
38.31749726738765
 21
23.3473013608613
 31
0.0
  0
LINE
  5
8C
330
43
100
AcDbEntity
  8
0
  6
Continuous
 62
    18
100
AcDbLine
 10
38.31749726738765
 20
23.3473013608613
 30
0.0
 11
38.31749726738765
 21
32.56000627889405
 31
0.0
  0
LINE
  5
8D
330
43
100
AcDbEntity
  8
0
  6
Continuous
 62
    18
100
AcDbLine
 10
38.31749726738765
 20
32.56000627889405
 30
0.0
 11
36.47495628378095
 21
32.56000627889405
 31
0.0
  0
LINE
  5
8E
330
43
100
AcDbEntity
  8
0
  6
Continuous
 62
    18
100
AcDbLine
 10
36.47495628378095
 20
32.56000627889405
 30
0.0
 11
36.47495628378095
 21
23.3473013608613
 31
0.0
  0
LINE
  5
8F
330
43
100
AcDbEntity
  8
0
  6
Continuous
 62
    18
100
AcDbLine
 10
73.3257759559123
 20
32.56000627889405
 30
0.0
 11
65.95561202148589
 21
32.56000627889405
 31
0.0
  0
LINE
  5
90
330
43
100
AcDbEntity
  8
0
  6
Continuous
 62
    18
100
AcDbLine
 10
65.95561202148589
 20
23.3473013608613
 30
0.0
 11
73.3257759559123
 21
23.34730136086125
 31
0.0
  0
LINE
  5
91
330
43
100
AcDbEntity
  8
0
  6
Continuous
 62
    18
100
AcDbLine
 10
65.95561202148589
 20
32.56000627889405
 30
0.0
 11
65.95561202148589
 21
23.3473013608613
 31
0.0
  0
LINE
  5
92
330
43
100
AcDbEntity
  8
0
  6
Continuous
 62
    18
100
AcDbLine
 10
62.2705300542728
 20
25.18984234446785
 30
0.0
 11
62.2705300542728
 21
30.7174652952875
 31
0.0
  0
LINE
  5
93
330
43
100
AcDbEntity
  8
0
  6
Continuous
 62
    18
100
AcDbLine
 10
64.1130710378793
 20
25.18984234446785
 30
0.0
 11
62.2705300542728
 21
25.18984234446785
 31
0.0
  0
LINE
  5
94
330
43
100
AcDbEntity
  8
0
  6
Continuous
 62
    18
100
AcDbLine
 10
64.1130710378793
 20
30.7174652952875
 30
0.0
 11
64.1130710378793
 21
32.56000627889405
 31
0.0
  0
LINE
  5
95
330
43
100
AcDbEntity
  8
0
  6
Continuous
 62
    18
100
AcDbLine
 10
62.2705300542728
 20
30.7174652952875
 30
0.0
 11
64.1130710378793
 21
30.7174652952875
 31
0.0
  0
LINE
  5
96
330
43
100
AcDbEntity
  8
0
  6
Continuous
 62
    18
100
AcDbLine
 10
60.4279890706663
 20
30.7174652952875
 30
0.0
 11
60.4279890706663
 21
23.3473013608614
 31
0.0
  0
LINE
  5
97
330
43
100
AcDbEntity
  8
0
  6
Continuous
 62
    18
100
AcDbLine
 10
64.1130710378793
 20
23.34730136086125
 30
0.0
 11
64.1130710378793
 21
25.18984234446785
 31
0.0
  0
LINE
  5
98
330
43
100
AcDbEntity
  8
0
  6
Continuous
 62
    18
100
AcDbLine
 10
60.4279890706663
 20
23.3473013608614
 30
0.0
 11
64.1130710378793
 21
23.34730136086125
 31
0.0
  0
LINE
  5
99
330
43
100
AcDbEntity
  8
0
  6
Continuous
 62
    18
100
AcDbLine
 10
58.5854480870597
 20
32.56000627889405
 30
0.0
 11
58.5854480870597
 21
30.7174652952875
 31
0.0
  0
LINE
  5
9A
330
43
100
AcDbEntity
  8
0
  6
Continuous
 62
    18
100
AcDbLine
 10
60.4279890706663
 20
32.56000627889405
 30
0.0
 11
58.5854480870597
 21
32.56000627889405
 31
0.0
  0
LINE
  5
9B
330
43
100
AcDbEntity
  8
0
  6
Continuous
 62
    18
100
AcDbLine
 10
45.6876612018139
 20
30.7174652952875
 30
0.0
 11
47.5302021854204
 21
28.87492431168095
 31
0.0
  0
LINE
  5
9C
330
43
100
AcDbEntity
  8
0
  6
Continuous
 62
    18
100
AcDbLine
 10
47.5302021854204
 20
28.87492431168095
 30
0.0
 11
47.5302021854204
 21
32.56000627889405
 31
0.0
  0
LINE
  5
9D
330
43
100
AcDbEntity
  8
0
  6
Continuous
 62
    18
100
AcDbLine
 10
64.1130710378793
 20
32.56000627889405
 30
0.0
 11
62.2705300542728
 21
32.56000627889405
 31
0.0
  0
LINE
  5
9E
330
43
100
AcDbEntity
  8
0
  6
Continuous
 62
    18
100
AcDbLine
 10
60.4279890706663
 20
38.08762922971376
 30
0.0
 11
60.4279890706663
 21
32.56000627889405
 31
0.0
  0
LINE
  5
9F
330
43
100
AcDbEntity
  8
0
  6
Continuous
 62
    18
100
AcDbLine
 10
62.2705300542728
 20
38.08762922971376
 30
0.0
 11
60.4279890706663
 21
38.08762922971376
 31
0.0
  0
LINE
  5
A0
330
43
100
AcDbEntity
  8
0
  6
Continuous
 62
    18
100
AcDbLine
 10
23.5771693985351
 20
32.56000627889405
 30
0.0
 11
23.5771693985351
 21
15.9771374264351
 31
0.0
  0
LINE
  5
A1
330
43
100
AcDbEntity
  8
0
  6
Continuous
 62
    18
100
AcDbLine
 10
23.5771693985351
 20
15.9771374264351
 30
0.0
 11
25.41971038214165
 21
15.9771374264351
 31
0.0
  0
LINE
  5
A2
330
43
100
AcDbEntity
  8
0
  6
Continuous
 62
    18
100
AcDbLine
 10
25.41971038214165
 20
15.9771374264351
 30
0.0
 11
25.41971038214165
 21
23.3473013608613
 31
0.0
  0
LINE
  5
A3
330
43
100
AcDbEntity
  8
0
  6
Continuous
 62
    18
100
AcDbLine
 10
29.10479234935475
 20
32.56000627889405
 30
0.0
 11
23.5771693985351
 21
32.56000627889405
 31
0.0
  0
LINE
  5
A4
330
43
100
AcDbEntity
  8
0
  6
Continuous
 62
    18
100
AcDbLine
 10
85.70010097774761
 20
33.68570485735525
 30
0.0
 11
85.8275409777476
 21
33.68570485735525
 31
0.0
  0
LINE
  5
A5
330
43
100
AcDbEntity
  8
0
  6
Continuous
 62
    18
100
AcDbLine
 10
85.8275409777476
 20
33.68570485735525
 30
0.0
 11
85.8275409777476
 21
36.2010779721094
 31
0.0
  0
LINE
  5
A6
330
43
100
AcDbEntity
  8
0
  6
Continuous
 62
    18
100
AcDbLine
 10
85.8275409777476
 20
36.2010779721094
 30
0.0
 11
84.37869442037059
 21
36.2010779721094
 31
0.0
  0
LINE
  5
A7
330
43
100
AcDbEntity
  8
0
  6
Continuous
 62
    18
100
AcDbLine
 10
85.70010097774761
 20
36.07363797210935
 30
0.0
 11
85.70010097774761
 21
33.68570485735525
 31
0.0
  0
LINE
  5
A8
330
43
100
AcDbEntity
  8
0
  6
Continuous
 62
    18
100
AcDbLine
 10
85.1031176990591
 20
33.68570485735525
 30
0.0
 11
85.2305576990591
 21
33.68570485735525
 31
0.0
  0
LINE
  5
A9
330
43
100
AcDbEntity
  8
0
  6
Continuous
 62
    18
100
AcDbLine
 10
85.2305576990591
 20
33.68570485735525
 30
0.0
 11
85.2305576990591
 21
36.07363797210935
 31
0.0
  0
LINE
  5
AA
330
43
100
AcDbEntity
  8
0
  6
Continuous
 62
    18
100
AcDbLine
 10
85.2305576990591
 20
36.07363797210935
 30
0.0
 11
85.70010097774761
 21
36.07363797210935
 31
0.0
  0
LINE
  5
AB
330
43
100
AcDbEntity
  8
0
  6
Continuous
 62
    18
100
AcDbLine
 10
84.37869442037059
 20
36.2010779721094
 30
0.0
 11
84.37869442037059
 21
33.68570485735525
 31
0.0
  0
LINE
  5
AC
330
43
100
AcDbEntity
  8
0
  6
Continuous
 62
    18
100
AcDbLine
 10
21.73462841492855
 20
27.03238332807445
 30
0.0
 11
21.73462841492855
 21
30.71746529528755
 31
0.0
  0
LINE
  5
AD
330
43
100
AcDbEntity
  8
0
  6
Continuous
 62
    18
100
AcDbLine
 10
19.89208743132205
 20
32.56000627889405
 30
0.0
 11
14.36446448050238
 21
32.56000627889405
 31
0.0
  0
LINE
  5
AE
330
43
100
AcDbEntity
  8
0
  6
Continuous
 62
    18
100
AcDbLine
 10
21.73462841492855
 20
30.71746529528755
 30
0.0
 11
19.89208743132205
 21
32.56000627889405
 31
0.0
  0
LINE
  5
AF
330
43
100
AcDbEntity
  8
0
  6
Continuous
 62
    18
100
AcDbLine
 10
32.78987431656785
 20
23.3473013608613
 30
0.0
 11
34.6324153001744
 21
23.3473013608613
 31
0.0
  0
LINE
  5
B0
330
43
100
AcDbEntity
  8
0
  6
Continuous
 62
    18
100
AcDbLine
 10
34.6324153001744
 20
23.3473013608613
 30
0.0
 11
34.6324153001744
 21
38.08762922971376
 31
0.0
  0
LINE
  5
B1
330
43
100
AcDbEntity
  8
0
  6
Continuous
 62
    18
100
AcDbLine
 10
34.6324153001744
 20
38.08762922971376
 30
0.0
 11
32.78987431656785
 21
38.08762922971376
 31
0.0
  0
LINE
  5
B2
330
43
100
AcDbEntity
  8
0
  6
Continuous
 62
    18
100
AcDbLine
 10
71.4832349723057
 20
25.18984234446785
 30
0.0
 11
71.4832349723057
 21
30.7174652952875
 31
0.0
  0
LINE
  5
B3
330
43
100
AcDbEntity
  8
0
  6
Continuous
 62
    18
100
AcDbLine
 10
32.78987431656785
 20
38.08762922971376
 30
0.0
 11
32.78987431656785
 21
23.3473013608613
 31
0.0
  0
LINE
  5
B4
330
43
100
AcDbEntity
  8
0
  6
Continuous
 62
    18
100
AcDbLine
 10
67.7981530050926
 20
30.7174652952875
 30
0.0
 11
67.7981530050926
 21
25.1898423444679
 31
0.0
  0
LINE
  5
B5
330
43
100
AcDbEntity
  8
0
  6
Continuous
 62
    18
100
AcDbLine
 10
71.4832349723057
 20
30.7174652952875
 30
0.0
 11
67.7981530050926
 21
30.7174652952875
 31
0.0
  0
LINE
  5
B6
330
43
100
AcDbEntity
  8
0
  6
Continuous
 62
    18
100
AcDbLine
 10
29.10479234935475
 20
25.18984234446785
 30
0.0
 11
29.10479234935475
 21
30.7174652952875
 31
0.0
  0
LINE
  5
B7
330
43
100
AcDbEntity
  8
0
  6
Continuous
 62
    18
100
AcDbLine
 10
29.10479234935475
 20
30.7174652952875
 30
0.0
 11
25.41971038214165
 21
30.7174652952875
 31
0.0
  0
LINE
  5
B8
330
43
100
AcDbEntity
  8
0
  6
Continuous
 62
    18
100
AcDbLine
 10
25.41971038214165
 20
23.3473013608613
 30
0.0
 11
30.9473333329613
 21
23.3473013608613
 31
0.0
  0
LINE
  5
B9
330
43
100
AcDbEntity
  8
0
  6
Continuous
 62
    18
100
AcDbLine
 10
30.9473333329613
 20
23.3473013608613
 30
0.0
 11
30.9473333329613
 21
30.7174652952875
 31
0.0
  0
LINE
  5
BA
330
43
100
AcDbEntity
  8
0
  6
Continuous
 62
    18
100
AcDbLine
 10
30.9473333329613
 20
30.7174652952875
 30
0.0
 11
29.10479234935475
 21
32.56000627889405
 31
0.0
  0
LINE
  5
BB
330
43
100
AcDbEntity
  8
0
  6
Continuous
 62
    18
100
AcDbLine
 10
25.41971038214165
 20
25.18984234446785
 30
0.0
 11
29.10479234935475
 21
25.18984234446785
 31
0.0
  0
LINE
  5
BC
330
43
100
AcDbEntity
  8
0
  6
Continuous
 62
    18
100
AcDbLine
 10
25.41971038214165
 20
30.7174652952875
 30
0.0
 11
25.41971038214165
 21
25.18984234446785
 31
0.0
  0
LINE
  5
BD
330
43
100
AcDbEntity
  8
0
  6
Continuous
 62
    18
100
AcDbLine
 10
42.00257923460075
 20
32.56000627889405
 30
0.0
 11
40.1600382509942
 21
30.7174652952875
 31
0.0
  0
LINE
  5
BE
330
43
100
AcDbEntity
  8
0
  6
Continuous
 62
    18
100
AcDbLine
 10
47.5302021854204
 20
32.56000627889405
 30
0.0
 11
42.00257923460075
 21
32.56000627889405
 31
0.0
  0
LINE
  5
BF
330
43
100
AcDbEntity
  8
0
  6
Continuous
 62
    18
100
AcDbLine
 10
62.2705300542728
 20
32.56000627889405
 30
0.0
 11
62.2705300542728
 21
38.08762922971376
 31
0.0
  0
LINE
  5
C0
330
43
100
AcDbEntity
  8
0
  6
Continuous
 62
    18
100
AcDbLine
 10
-11.43110928998944
 20
23.34730136086135
 30
0.0
 11
-9.588568306382898
 21
23.34730136086135
 31
0.0
  0
LINE
  5
C1
330
43
100
AcDbEntity
  8
0
  6
Continuous
 62
    18
100
AcDbLine
 10
-11.43110928998944
 20
30.7174652952875
 30
0.0
 11
-11.43110928998944
 21
23.34730136086135
 31
0.0
  0
LINE
  5
C2
330
43
100
AcDbEntity
  8
0
  6
Continuous
 62
    18
100
AcDbLine
 10
-9.588568306382898
 20
30.7174652952875
 30
0.0
 11
-11.43110928998944
 21
32.56000627889405
 31
0.0
  0
LINE
  5
C3
330
43
100
AcDbEntity
  8
0
  6
Continuous
 62
    18
100
AcDbLine
 10
-9.588568306382898
 20
23.34730136086135
 30
0.0
 11
-9.588568306382898
 21
30.7174652952875
 31
0.0
  0
LINE
  5
C4
330
43
100
AcDbEntity
  8
0
  6
Continuous
 62
    18
100
AcDbLine
 10
-16.9587322408091
 20
23.34730136086135
 30
0.0
 11
-15.11619125720255
 21
23.3473013608613
 31
0.0
  0
LINE
  5
C5
330
43
100
AcDbEntity
  8
0
  6
Continuous
 62
    18
100
AcDbLine
 10
83.90915114168219
 20
36.2010779721094
 30
0.0
 11
83.43960786299368
 21
36.2010779721094
 31
0.0
  0
LINE
  5
C6
330
43
100
AcDbEntity
  8
0
  6
Continuous
 62
    18
100
AcDbLine
 10
-15.11619125720255
 20
30.71746529528755
 30
0.0
 11
-11.43110928998944
 21
30.7174652952875
 31
0.0
  0
LINE
  5
C7
330
43
100
AcDbEntity
  8
0
  6
Continuous
 62
    18
100
AcDbLine
 10
-15.11619125720255
 20
23.3473013608613
 30
0.0
 11
-15.11619125720255
 21
30.71746529528755
 31
0.0
  0
LINE
  5
C8
330
43
100
AcDbEntity
  8
0
  6
Continuous
 62
    18
100
AcDbLine
 10
-11.43110928998944
 20
32.56000627889405
 30
0.0
 11
-15.11619125720255
 21
32.56000627889405
 31
0.0
  0
LINE
  5
C9
330
43
100
AcDbEntity
  8
0
  6
Continuous
 62
    18
100
AcDbLine
 10
-15.11619125720255
 20
32.56000627889405
 30
0.0
 11
-15.11619125720255
 21
38.08762922971376
 31
0.0
  0
LINE
  5
CA
330
43
100
AcDbEntity
  8
0
  6
Continuous
 62
    18
100
AcDbLine
 10
-15.11619125720255
 20
38.08762922971376
 30
0.0
 11
-16.9587322408091
 21
38.08762922971376
 31
0.0
  0
LINE
  5
CB
330
43
100
AcDbEntity
  8
0
  6
Continuous
 62
    18
100
AcDbLine
 10
82.7151845843049
 20
36.2010779721094
 30
0.0
 11
82.7151845843049
 21
36.07363797210935
 31
0.0
  0
LINE
  5
CC
330
43
100
AcDbEntity
  8
0
  6
Continuous
 62
    18
100
AcDbLine
 10
82.7151845843049
 20
36.07363797210935
 30
0.0
 11
83.31216786299369
 21
36.07363797210935
 31
0.0
  0
LINE
  5
CD
330
43
100
AcDbEntity
  8
0
  6
Continuous
 62
    18
100
AcDbLine
 10
83.31216786299369
 20
36.07363797210935
 30
0.0
 11
83.31216786299369
 21
33.68570485735525
 31
0.0
  0
LINE
  5
CE
330
43
100
AcDbEntity
  8
0
  6
Continuous
 62
    18
100
AcDbLine
 10
83.31216786299369
 20
36.2010779721094
 30
0.0
 11
82.7151845843049
 21
36.2010779721094
 31
0.0
  0
LINE
  5
CF
330
43
100
AcDbEntity
  8
0
  6
Continuous
 62
    18
100
AcDbLine
 10
83.43960786299368
 20
36.2010779721094
 30
0.0
 11
83.43960786299368
 21
37.26760452948645
 31
0.0
  0
LINE
  5
D0
330
43
100
AcDbEntity
  8
0
  6
Continuous
 62
    18
100
AcDbLine
 10
83.31216786299369
 20
33.68570485735525
 30
0.0
 11
83.90915114168219
 21
33.68570485735525
 31
0.0
  0
LINE
  5
D1
330
43
100
AcDbEntity
  8
0
  6
Continuous
 62
    18
100
AcDbLine
 10
83.90915114168219
 20
36.07363797210935
 30
0.0
 11
83.90915114168219
 21
36.2010779721094
 31
0.0
  0
LINE
  5
D2
330
43
100
AcDbEntity
  8
0
  6
Continuous
 62
    18
100
AcDbLine
 10
-16.9587322408091
 20
38.08762922971376
 30
0.0
 11
-16.9587322408091
 21
23.34730136086135
 31
0.0
  0
LINE
  5
D3
330
43
100
AcDbEntity
  8
0
  6
Continuous
 62
    18
100
AcDbLine
 10
83.43960786299368
 20
36.07363797210935
 30
0.0
 11
83.90915114168219
 21
36.07363797210935
 31
0.0
  0
LINE
  5
D4
330
43
100
AcDbEntity
  8
0
  6
Continuous
 62
    18
100
AcDbLine
 10
83.90915114168219
 20
33.68570485735525
 30
0.0
 11
83.90915114168219
 21
33.8131448573553
 31
0.0
  0
LINE
  5
D5
330
43
100
AcDbEntity
  8
0
  6
Continuous
 62
    18
100
AcDbLine
 10
83.90915114168219
 20
33.8131448573553
 30
0.0
 11
83.43960786299368
 21
33.8131448573553
 31
0.0
  0
LINE
  5
D6
330
43
100
AcDbEntity
  8
0
  6
Continuous
 62
    18
100
AcDbLine
 10
83.43960786299368
 20
33.8131448573553
 30
0.0
 11
83.43960786299368
 21
36.07363797210935
 31
0.0
  0
LINE
  5
D7
330
43
100
AcDbEntity
  8
0
  6
Continuous
 62
    18
100
AcDbLine
 10
83.43960786299368
 20
37.26760452948645
 30
0.0
 11
83.31216786299369
 21
37.26760452948645
 31
0.0
  0
LINE
  5
D8
330
43
100
AcDbEntity
  8
0
  6
Continuous
 62
    18
100
AcDbLine
 10
83.31216786299369
 20
37.26760452948645
 30
0.0
 11
83.31216786299369
 21
36.2010779721094
 31
0.0
  0
LINE
  5
D9
330
43
100
AcDbEntity
  8
0
  6
Continuous
 62
    18
100
AcDbLine
 10
-5.90348633916981
 20
27.03238332807445
 30
0.0
 11
-0.3758633883501651
 21
27.03238332807445
 31
0.0
  0
LINE
  5
DA
330
43
100
AcDbEntity
  8
0
  6
Continuous
 62
    18
100
AcDbLine
 10
-5.90348633916981
 20
25.1898423444678
 30
0.0
 11
-5.90348633916981
 21
27.03238332807445
 31
0.0
  0
LINE
  5
DB
330
43
100
AcDbEntity
  8
0
  6
Continuous
 62
    18
100
AcDbLine
 10
-0.375863388350163
 20
25.1898423444679
 30
0.0
 11
-5.903486339169808
 21
25.1898423444678
 31
0.0
  0
LINE
  5
DC
330
43
100
AcDbEntity
  8
0
  6
Continuous
 62
    18
100
AcDbLine
 10
-5.90348633916981
 20
28.87492431168105
 30
0.0
 11
-2.21840437195671
 21
28.87492431168095
 31
0.0
  0
LINE
  5
DD
330
43
100
AcDbEntity
  8
0
  6
Continuous
 62
    18
100
AcDbLine
 10
-5.90348633916981
 20
30.7174652952875
 30
0.0
 11
-5.90348633916981
 21
28.87492431168105
 31
0.0
  0
LINE
  5
DE
330
43
100
AcDbEntity
  8
0
  6
Continuous
 62
    18
100
AcDbLine
 10
-0.375863388350163
 20
23.34730136086125
 30
0.0
 11
-0.375863388350163
 21
25.1898423444679
 31
0.0
  0
LINE
  5
DF
330
43
100
AcDbEntity
  8
0
  6
Continuous
 62
    18
100
AcDbLine
 10
-0.375863388350163
 20
27.03238332807445
 30
0.0
 11
-0.3758633883501615
 21
30.71746529528755
 31
0.0
  0
LINE
  5
E0
330
43
100
AcDbEntity
  8
0
  6
Continuous
 62
    18
100
AcDbLine
 10
-0.3758633883501615
 20
30.71746529528755
 30
0.0
 11
-2.21840437195671
 21
32.56000627889405
 31
0.0
  0
LINE
  5
E1
330
43
100
AcDbEntity
  8
0
  6
Continuous
 62
    18
100
AcDbLine
 10
-7.74602732277635
 20
23.34730136086125
 30
0.0
 11
-0.3758633883501634
 21
23.34730136086125
 31
0.0
  0
LINE
  5
E2
330
43
100
AcDbEntity
  8
0
  6
Continuous
 62
    18
100
AcDbLine
 10
-7.74602732277635
 20
32.56000627889405
 30
0.0
 11
-7.74602732277635
 21
23.34730136086125
 31
0.0
  0
LINE
  5
E3
330
43
100
AcDbEntity
  8
0
  6
Continuous
 62
    18
100
AcDbLine
 10
-2.21840437195671
 20
32.56000627889405
 30
0.0
 11
-7.746027322776348
 21
32.56000627889405
 31
0.0
  0
LINE
  5
E4
330
43
100
AcDbEntity
  8
0
  6
Continuous
 62
    18
100
AcDbLine
 10
-2.21840437195671
 20
30.7174652952875
 30
0.0
 11
-5.90348633916981
 21
30.7174652952875
 31
0.0
  0
LINE
  5
E5
330
43
100
AcDbEntity
  8
0
  6
Continuous
 62
    18
100
AcDbLine
 10
-2.21840437195671
 20
28.87492431168095
 30
0.0
 11
-2.21840437195671
 21
30.7174652952875
 31
0.0
  0
LINE
  5
E6
330
43
100
AcDbEntity
  8
0
  6
Continuous
 62
    18
100
AcDbLine
 10
36.47495628378095
 20
32.56000627889405
 30
0.0
 11
36.47495628378095
 21
23.3473013608613
 31
0.0
  0
LINE
  5
E7
330
43
100
AcDbEntity
  8
0
  6
Continuous
 62
    18
100
AcDbLine
 10
84.37869442037059
 20
33.68570485735525
 30
0.0
 11
84.5061344203706
 21
33.68570485735525
 31
0.0
  0
LINE
  5
E8
330
43
100
AcDbEntity
  8
0
  6
Continuous
 62
    18
100
AcDbLine
 10
54.90036611984659
 20
30.7174652952875
 30
0.0
 11
51.2152841526335
 21
30.7174652952875
 31
0.0
  0
LINE
  5
E9
330
43
100
AcDbEntity
  8
0
  6
Continuous
 62
    18
100
AcDbLine
 10
54.90036611984659
 20
25.1881274548546
 30
0.0
 11
54.90036611984659
 21
30.7174652952875
 31
0.0
  0
LINE
  5
EA
330
43
100
AcDbEntity
  8
0
  6
Continuous
 62
    18
100
AcDbLine
 10
84.37869442037059
 20
36.2010779721094
 30
0.0
 11
84.37869442037059
 21
33.68570485735525
 31
0.0
  0
LINE
  5
EB
330
43
100
AcDbEntity
  8
0
  6
Continuous
 62
    18
100
AcDbLine
 10
85.70010097774761
 20
33.68570485735525
 30
0.0
 11
85.8275409777476
 21
33.68570485735525
 31
0.0
  0
LINE
  5
EC
330
43
100
AcDbEntity
  8
0
  6
Continuous
 62
    18
100
AcDbLine
 10
85.8275409777476
 20
33.68570485735525
 30
0.0
 11
85.8275409777476
 21
36.2010779721094
 31
0.0
  0
LINE
  5
ED
330
43
100
AcDbEntity
  8
0
  6
Continuous
 62
    18
100
AcDbLine
 10
85.8275409777476
 20
36.2010779721094
 30
0.0
 11
84.37869442037059
 21
36.2010779721094
 31
0.0
  0
LINE
  5
EE
330
43
100
AcDbEntity
  8
0
  6
Continuous
 62
    18
100
AcDbLine
 10
36.47495628378095
 20
34.40254726250065
 30
0.0
 11
38.31749726738765
 21
36.24508824610715
 31
0.0
  0
LINE
  5
EF
330
43
100
AcDbEntity
  8
0
  6
Continuous
 62
    18
100
AcDbLine
 10
54.90036611984659
 20
23.3473013608613
 30
0.0
 11
56.74290710345309
 21
23.34730136086125
 31
0.0
  0
LINE
  5
F0
330
43
100
AcDbEntity
  8
0
  6
Continuous
 62
    18
100
AcDbLine
 10
56.74290710345309
 20
23.34730136086125
 30
0.0
 11
56.74290710345309
 21
32.56000627889405
 31
0.0
  0
LINE
  5
F1
330
43
100
AcDbEntity
  8
0
  6
Continuous
 62
    18
100
AcDbLine
 10
51.2152841526335
 20
30.7174652952875
 30
0.0
 11
51.2152841526335
 21
25.18984234446785
 31
0.0
  0
LINE
  5
F2
330
43
100
AcDbEntity
  8
0
  6
Continuous
 62
    18
100
AcDbLine
 10
36.47495628378095
 20
36.24508824610715
 30
0.0
 11
36.47495628378095
 21
34.40254726250065
 31
0.0
  0
LINE
  5
F3
330
43
100
AcDbEntity
  8
0
  6
Continuous
 62
    18
100
AcDbLine
 10
51.2152841526335
 20
25.18984234446785
 30
0.0
 11
54.90036611984659
 21
25.1881274548546
 31
0.0
  0
LINE
  5
F4
330
43
100
AcDbEntity
  8
0
  6
Continuous
 62
    18
100
AcDbLine
 10
38.31749726738765
 20
36.24508824610715
 30
0.0
 11
36.47495628378095
 21
36.24508824610715
 31
0.0
  0
LINE
  5
F5
330
43
100
AcDbEntity
  8
0
  6
Continuous
 62
    18
100
AcDbLine
 10
30.9473333329613
 20
23.3473013608613
 30
0.0
 11
30.9473333329613
 21
30.7174652952875
 31
0.0
  0
LINE
  5
F6
330
43
100
AcDbEntity
  8
0
  6
Continuous
 62
    18
100
AcDbLine
 10
30.9473333329613
 20
30.7174652952875
 30
0.0
 11
29.10479234935475
 21
32.56000627889405
 31
0.0
  0
LINE
  5
F7
330
43
100
AcDbEntity
  8
0
  6
Continuous
 62
    18
100
AcDbLine
 10
29.10479234935475
 20
32.56000627889405
 30
0.0
 11
23.5771693985351
 21
32.56000627889405
 31
0.0
  0
LINE
  5
F8
330
43
100
AcDbEntity
  8
0
  6
Continuous
 62
    18
100
AcDbLine
 10
19.89208743132205
 20
30.7174652952875
 30
0.0
 11
16.20700546410895
 21
30.7174652952875
 31
0.0
  0
LINE
  5
F9
330
43
100
AcDbEntity
  8
0
  6
Continuous
 62
    18
100
AcDbLine
 10
16.20700546410895
 20
30.7174652952875
 30
0.0
 11
16.20700546410895
 21
28.87492431168105
 31
0.0
  0
LINE
  5
FA
330
43
100
AcDbEntity
  8
0
  6
Continuous
 62
    18
100
AcDbLine
 10
16.20700546410895
 20
28.87492431168105
 30
0.0
 11
19.89208743132205
 21
28.87492431168095
 31
0.0
  0
LINE
  5
FB
330
43
100
AcDbEntity
  8
0
  6
Continuous
 62
    18
100
AcDbLine
 10
19.89208743132205
 20
28.87492431168095
 30
0.0
 11
19.89208743132205
 21
30.7174652952875
 31
0.0
  0
LINE
  5
FC
330
43
100
AcDbEntity
  8
0
  6
Continuous
 62
    18
100
AcDbLine
 10
85.2305576990591
 20
33.68570485735525
 30
0.0
 11
85.2305576990591
 21
36.07363797210935
 31
0.0
  0
LINE
  5
FD
330
43
100
AcDbEntity
  8
0
  6
Continuous
 62
    18
100
AcDbLine
 10
85.2305576990591
 20
36.07363797210935
 30
0.0
 11
85.70010097774761
 21
36.07363797210935
 31
0.0
  0
LINE
  5
FE
330
43
100
AcDbEntity
  8
0
  6
Continuous
 62
    18
100
AcDbLine
 10
85.70010097774761
 20
36.07363797210935
 30
0.0
 11
85.70010097774761
 21
33.68570485735525
 31
0.0
  0
LINE
  5
FF
330
43
100
AcDbEntity
  8
0
  6
Continuous
 62
    18
100
AcDbLine
 10
85.1031176990591
 20
33.68570485735525
 30
0.0
 11
85.2305576990591
 21
33.68570485735525
 31
0.0
  0
LINE
  5
100
330
43
100
AcDbEntity
  8
0
  6
Continuous
 62
    18
100
AcDbLine
 10
84.5061344203706
 20
33.68570485735525
 30
0.0
 11
84.5061344203706
 21
36.07363797210935
 31
0.0
  0
LINE
  5
101
330
43
100
AcDbEntity
  8
0
  6
Continuous
 62
    18
100
AcDbLine
 10
84.5061344203706
 20
36.07363797210935
 30
0.0
 11
85.1031176990591
 21
36.07363797210935
 31
0.0
  0
LINE
  5
102
330
43
100
AcDbEntity
  8
0
  6
Continuous
 62
    18
100
AcDbLine
 10
85.1031176990591
 20
36.07363797210935
 30
0.0
 11
85.1031176990591
 21
33.68570485735525
 31
0.0
  0
LINE
  5
103
330
43
100
AcDbEntity
  8
0
  6
Continuous
 62
    18
100
AcDbLine
 10
5.15175956246948
 20
38.08762922971376
 30
0.0
 11
5.15175956246948
 21
23.3473013608613
 31
0.0
  0
LINE
  5
104
330
43
100
AcDbEntity
  8
0
  6
Continuous
 62
    18
100
AcDbLine
 10
5.15175956246948
 20
23.3473013608613
 30
0.0
 11
6.99430054607619
 21
23.3473013608613
 31
0.0
  0
LINE
  5
105
330
43
100
AcDbEntity
  8
0
  6
Continuous
 62
    18
100
AcDbLine
 10
6.99430054607619
 20
23.3473013608613
 30
0.0
 11
6.99430054607619
 21
30.7174652952875
 31
0.0
  0
LINE
  5
106
330
43
100
AcDbEntity
  8
0
  6
Continuous
 62
    18
100
AcDbLine
 10
6.99430054607619
 20
32.56000627889405
 30
0.0
 11
10.67938251328928
 21
32.56000627889405
 31
0.0
  0
LINE
  5
107
330
43
100
AcDbEntity
  8
0
  6
Continuous
 62
    18
100
AcDbLine
 10
-26.17143715884185
 20
36.24508824610715
 30
0.0
 11
-23.4076256834321
 21
36.2450882461072
 31
0.0
  0
LINE
  5
108
330
43
100
AcDbEntity
  8
0
  6
Continuous
 62
    18
100
AcDbLine
 10
10.67938251328928
 20
32.56000627889405
 30
0.0
 11
10.67938251328928
 21
36.2450882461072
 31
0.0
  0
LINE
  5
109
330
43
100
AcDbEntity
  8
0
  6
Continuous
 62
    18
100
AcDbLine
 10
-26.17143715884185
 20
38.08762922971376
 30
0.0
 11
-26.17143715884185
 21
36.24508824610715
 31
0.0
  0
LINE
  5
10A
330
43
100
AcDbEntity
  8
0
  6
Continuous
 62
    18
100
AcDbLine
 10
12.52192349689584
 20
30.7174652952875
 30
0.0
 11
11.60065300509248
 21
31.63873578709075
 31
0.0
  0
LINE
  5
10B
330
43
100
AcDbEntity
  8
0
  6
Continuous
 62
    18
100
AcDbLine
 10
-15.11619125720255
 20
38.08762922971376
 30
0.0
 11
-16.9587322408091
 21
38.08762922971376
 31
0.0
  0
LINE
  5
10C
330
43
100
AcDbEntity
  8
0
  6
Continuous
 62
    18
100
AcDbLine
 10
11.60065300509248
 20
31.63873578709075
 30
0.0
 11
12.52192349689584
 21
32.56000627889405
 31
0.0
  0
LINE
  5
10D
330
43
100
AcDbEntity
  8
0
  6
Continuous
 62
    18
100
AcDbLine
 10
12.52192349689584
 20
23.3473013608613
 30
0.0
 11
12.52192349689584
 21
30.7174652952875
 31
0.0
  0
LINE
  5
10E
330
43
100
AcDbEntity
  8
0
  6
Continuous
 62
    18
100
AcDbLine
 10
6.99430054607619
 20
30.7174652952875
 30
0.0
 11
10.67938251328928
 21
30.7174652952875
 31
0.0
  0
LINE
  5
10F
330
43
100
AcDbEntity
  8
0
  6
Continuous
 62
    18
100
AcDbLine
 10
10.67938251328928
 20
30.7174652952875
 30
0.0
 11
10.67938251328928
 21
23.3473013608613
 31
0.0
  0
LINE
  5
110
330
43
100
AcDbEntity
  8
0
  6
Continuous
 62
    18
100
AcDbLine
 10
10.67938251328928
 20
23.3473013608613
 30
0.0
 11
12.52192349689584
 21
23.3473013608613
 31
0.0
  0
LINE
  5
111
330
43
100
AcDbEntity
  8
0
  6
Continuous
 62
    18
100
AcDbLine
 10
-18.80127322441565
 20
36.2450882461072
 30
0.0
 11
-18.80127322441565
 21
38.08762922971376
 31
0.0
  0
LINE
  5
112
330
43
100
AcDbEntity
  8
0
  6
Continuous
 62
    18
100
AcDbLine
 10
49.372743169027
 20
23.3473013608613
 30
0.0
 11
53.05782513623999
 21
23.3473013608613
 31
0.0
  0
LINE
  5
113
330
43
100
AcDbEntity
  8
0
  6
Continuous
 62
    18
100
AcDbLine
 10
-21.56508469982555
 20
36.2450882461072
 30
0.0
 11
-18.80127322441565
 21
36.2450882461072
 31
0.0
  0
LINE
  5
114
330
43
100
AcDbEntity
  8
0
  6
Continuous
 62
    18
100
AcDbLine
 10
49.372743169027
 20
30.7174652952875
 30
0.0
 11
49.372743169027
 21
23.3473013608613
 31
0.0
  0
LINE
  5
115
330
43
100
AcDbEntity
  8
0
  6
Continuous
 62
    18
100
AcDbLine
 10
56.74290710345309
 20
32.56000627889405
 30
0.0
 11
51.2152841526335
 21
32.56000627889405
 31
0.0
  0
LINE
  5
116
330
43
100
AcDbEntity
  8
0
  6
Continuous
 62
    18
100
AcDbLine
 10
51.2152841526335
 20
32.56000627889405
 30
0.0
 11
49.372743169027
 21
30.7174652952875
 31
0.0
  0
LINE
  5
117
330
43
100
AcDbEntity
  8
0
  6
Continuous
 62
    18
100
AcDbLine
 10
-18.80127322441565
 20
38.08762922971376
 30
0.0
 11
-26.17143715884185
 21
38.08762922971376
 31
0.0
  0
LINE
  5
118
330
43
100
AcDbEntity
  8
0
  6
Continuous
 62
    18
100
AcDbLine
 10
6.99430054607619
 20
36.2450882461072
 30
0.0
 11
6.99430054607619
 21
32.56000627889405
 31
0.0
  0
LINE
  5
119
330
43
100
AcDbEntity
  8
0
  6
Continuous
 62
    18
100
AcDbLine
 10
-23.4076256834321
 20
36.2450882461072
 30
0.0
 11
-23.4076256834321
 21
23.34730136086125
 31
0.0
  0
LINE
  5
11A
330
43
100
AcDbEntity
  8
0
  6
Continuous
 62
    18
100
AcDbLine
 10
10.67938251328928
 20
36.2450882461072
 30
0.0
 11
6.99430054607619
 21
36.2450882461072
 31
0.0
  0
LINE
  5
11B
330
43
100
AcDbEntity
  8
0
  6
Continuous
 62
    18
100
AcDbLine
 10
-23.4076256834321
 20
23.34730136086125
 30
0.0
 11
-21.56508469982555
 21
23.34730136086135
 31
0.0
  0
LINE
  5
11C
330
43
100
AcDbEntity
  8
0
  6
Continuous
 62
    18
100
AcDbLine
 10
53.05782513623999
 20
23.3473013608613
 30
0.0
 11
54.90036611984659
 21
25.1881274548546
 31
0.0
  0
LINE
  5
11D
330
43
100
AcDbEntity
  8
0
  6
Continuous
 62
    18
100
AcDbLine
 10
-21.56508469982555
 20
23.34730136086135
 30
0.0
 11
-21.56508469982555
 21
36.2450882461072
 31
0.0
  0
LINE
  5
11E
330
43
100
AcDbEntity
  8
0
  6
Continuous
 62
    18
100
AcDbLine
 10
54.90036611984659
 20
25.1881274548546
 30
0.0
 11
54.90036611984659
 21
23.3473013608613
 31
0.0
  0
LINE
  5
11F
330
43
100
AcDbEntity
  8
0
  6
Continuous
 62
    18
100
AcDbLine
 10
65.95561202148589
 20
23.3473013608613
 30
0.0
 11
73.3257759559123
 21
23.34730136086125
 31
0.0
  0
LINE
  5
120
330
43
100
AcDbEntity
  8
0
  6
Continuous
 62
    18
100
AcDbLine
 10
42.00257923460075
 20
25.18984234446785
 30
0.0
 11
42.00257923460075
 21
30.7174652952875
 31
0.0
  0
LINE
  5
121
330
43
100
AcDbEntity
  8
0
  6
Continuous
 62
    18
100
AcDbLine
 10
65.95561202148589
 20
32.56000627889405
 30
0.0
 11
65.95561202148589
 21
23.3473013608613
 31
0.0
  0
LINE
  5
122
330
43
100
AcDbEntity
  8
0
  6
Continuous
 62
    18
100
AcDbLine
 10
47.5302021854204
 20
25.18984234446785
 30
0.0
 11
42.00257923460075
 21
25.18984234446785
 31
0.0
  0
LINE
  5
123
330
43
100
AcDbEntity
  8
0
  6
Continuous
 62
    18
100
AcDbLine
 10
73.3257759559123
 20
32.56000627889405
 30
0.0
 11
65.95561202148589
 21
32.56000627889405
 31
0.0
  0
LINE
  5
124
330
43
100
AcDbEntity
  8
0
  6
Continuous
 62
    18
100
AcDbLine
 10
47.5302021854204
 20
23.3473013608613
 30
0.0
 11
47.5302021854204
 21
25.18984234446785
 31
0.0
  0
LINE
  5
125
330
43
100
AcDbEntity
  8
0
  6
Continuous
 62
    18
100
AcDbLine
 10
73.3257759559123
 20
23.34730136086125
 30
0.0
 11
73.3257759559123
 21
32.56000627889405
 31
0.0
  0
LINE
  5
126
330
43
100
AcDbEntity
  8
0
  6
Continuous
 62
    18
100
AcDbLine
 10
67.7981530050926
 20
30.7174652952875
 30
0.0
 11
67.7981530050926
 21
25.1898423444679
 31
0.0
  0
LINE
  5
127
330
43
100
AcDbEntity
  8
0
  6
Continuous
 62
    18
100
AcDbLine
 10
45.6876612018139
 20
30.7174652952875
 30
0.0
 11
47.5302021854204
 21
28.87492431168095
 31
0.0
  0
LINE
  5
128
330
43
100
AcDbEntity
  8
0
  6
Continuous
 62
    18
100
AcDbLine
 10
47.5302021854204
 20
28.87492431168095
 30
0.0
 11
47.5302021854204
 21
32.56000627889405
 31
0.0
  0
LINE
  5
129
330
43
100
AcDbEntity
  8
0
  6
Continuous
 62
    18
100
AcDbLine
 10
71.4832349723057
 20
30.7174652952875
 30
0.0
 11
67.7981530050926
 21
30.7174652952875
 31
0.0
  0
LINE
  5
12A
330
43
100
AcDbEntity
  8
0
  6
Continuous
 62
    18
100
AcDbLine
 10
42.00257923460075
 20
30.7174652952875
 30
0.0
 11
45.6876612018139
 21
30.7174652952875
 31
0.0
  0
LINE
  5
12B
330
43
100
AcDbEntity
  8
0
  6
Continuous
 62
    18
100
AcDbLine
 10
67.7981530050926
 20
25.1898423444679
 30
0.0
 11
71.4832349723057
 21
25.18984234446785
 31
0.0
  0
LINE
  5
12C
330
43
100
AcDbEntity
  8
0
  6
Continuous
 62
    18
100
AcDbLine
 10
71.4832349723057
 20
25.18984234446785
 30
0.0
 11
71.4832349723057
 21
30.7174652952875
 31
0.0
  0
LINE
  5
12D
330
43
100
AcDbEntity
  8
0
  6
Continuous
 62
    18
100
AcDbLine
 10
64.1130710378793
 20
30.7174652952875
 30
0.0
 11
64.1130710378793
 21
32.56000627889405
 31
0.0
  0
LINE
  5
12E
330
43
100
AcDbEntity
  8
0
  6
Continuous
 62
    18
100
AcDbLine
 10
64.1130710378793
 20
32.56000627889405
 30
0.0
 11
62.2705300542728
 21
32.56000627889405
 31
0.0
  0
LINE
  5
12F
330
43
100
AcDbEntity
  8
0
  6
Continuous
 62
    18
100
AcDbLine
 10
62.2705300542728
 20
32.56000627889405
 30
0.0
 11
62.2705300542728
 21
38.08762922971376
 31
0.0
  0
LINE
  5
130
330
43
100
AcDbEntity
  8
0
  6
Continuous
 62
    18
100
AcDbLine
 10
62.2705300542728
 20
30.7174652952875
 30
0.0
 11
64.1130710378793
 21
30.7174652952875
 31
0.0
  0
LINE
  5
131
330
43
100
AcDbEntity
  8
0
  6
Continuous
 62
    18
100
AcDbLine
 10
64.1130710378793
 20
23.34730136086125
 30
0.0
 11
64.1130710378793
 21
25.18984234446785
 31
0.0
  0
LINE
  5
132
330
43
100
AcDbEntity
  8
0
  6
Continuous
 62
    18
100
AcDbLine
 10
64.1130710378793
 20
25.18984234446785
 30
0.0
 11
62.2705300542728
 21
25.18984234446785
 31
0.0
  0
LINE
  5
133
330
43
100
AcDbEntity
  8
0
  6
Continuous
 62
    18
100
AcDbLine
 10
62.2705300542728
 20
25.18984234446785
 30
0.0
 11
62.2705300542728
 21
30.7174652952875
 31
0.0
  0
LINE
  5
134
330
43
100
AcDbEntity
  8
0
  6
Continuous
 62
    18
100
AcDbLine
 10
58.5854480870597
 20
30.7174652952875
 30
0.0
 11
60.4279890706663
 21
30.7174652952875
 31
0.0
  0
LINE
  5
135
330
43
100
AcDbEntity
  8
0
  6
Continuous
 62
    18
100
AcDbLine
 10
60.4279890706663
 20
30.7174652952875
 30
0.0
 11
60.4279890706663
 21
23.3473013608613
 31
0.0
  0
LINE
  5
136
330
43
100
AcDbEntity
  8
0
  6
Continuous
 62
    18
100
AcDbLine
 10
40.1600382509942
 20
23.3473013608613
 30
0.0
 11
47.5302021854204
 21
23.3473013608613
 31
0.0
  0
LINE
  5
137
330
43
100
AcDbEntity
  8
0
  6
Continuous
 62
    18
100
AcDbLine
 10
58.5854480870597
 20
32.56000627889405
 30
0.0
 11
58.5854480870597
 21
30.7174652952875
 31
0.0
  0
LINE
  5
138
330
43
100
AcDbEntity
  8
0
  6
Continuous
 62
    18
100
AcDbLine
 10
62.2705300542728
 20
38.08762922971376
 30
0.0
 11
60.4279890706663
 21
38.08762922971376
 31
0.0
  0
LINE
  5
139
330
43
100
AcDbEntity
  8
0
  6
Continuous
 62
    18
100
AcDbLine
 10
60.4279890706663
 20
38.08762922971376
 30
0.0
 11
60.4279890706663
 21
32.56000627889405
 31
0.0
  0
LINE
  5
13A
330
43
100
AcDbEntity
  8
0
  6
Continuous
 62
    18
100
AcDbLine
 10
60.4279890706663
 20
32.56000627889405
 30
0.0
 11
58.5854480870597
 21
32.56000627889405
 31
0.0
  0
LINE
  5
13B
330
43
100
AcDbEntity
  8
0
  6
Continuous
 62
    18
100
AcDbLine
 10
21.73462841492855
 20
23.34730136086125
 30
0.0
 11
21.73462841492855
 21
25.1898423444679
 31
0.0
  0
LINE
  5
13C
330
43
100
AcDbEntity
  8
0
  6
Continuous
 62
    18
100
AcDbLine
 10
29.10479234935475
 20
25.18984234446785
 30
0.0
 11
29.10479234935475
 21
30.7174652952875
 31
0.0
  0
LINE
  5
13D
330
43
100
AcDbEntity
  8
0
  6
Continuous
 62
    18
100
AcDbLine
 10
14.36446448050238
 20
23.34730136086125
 30
0.0
 11
21.73462841492855
 21
23.34730136086125
 31
0.0
  0
LINE
  5
13E
330
43
100
AcDbEntity
  8
0
  6
Continuous
 62
    18
100
AcDbLine
 10
29.10479234935475
 20
30.7174652952875
 30
0.0
 11
25.41971038214165
 21
30.7174652952875
 31
0.0
  0
LINE
  5
13F
330
43
100
AcDbEntity
  8
0
  6
Continuous
 62
    18
100
AcDbLine
 10
16.20700546410895
 20
25.1898423444678
 30
0.0
 11
16.20700546410895
 21
27.03238332807445
 31
0.0
  0
LINE
  5
140
330
43
100
AcDbEntity
  8
0
  6
Continuous
 62
    18
100
AcDbLine
 10
25.41971038214165
 20
30.7174652952875
 30
0.0
 11
25.41971038214165
 21
25.18984234446785
 31
0.0
  0
LINE
  5
141
330
43
100
AcDbEntity
  8
0
  6
Continuous
 62
    18
100
AcDbLine
 10
21.73462841492855
 20
25.1898423444679
 30
0.0
 11
16.20700546410895
 21
25.1898423444678
 31
0.0
  0
LINE
  5
142
330
43
100
AcDbEntity
  8
0
  6
Continuous
 62
    18
100
AcDbLine
 10
25.41971038214165
 20
15.9771374264351
 30
0.0
 11
25.41971038214165
 21
23.3473013608613
 31
0.0
  0
LINE
  5
143
330
43
100
AcDbEntity
  8
0
  6
Continuous
 62
    18
100
AcDbLine
 10
21.73462841492855
 20
30.71746529528755
 30
0.0
 11
19.89208743132205
 21
32.56000627889405
 31
0.0
  0
LINE
  5
144
330
43
100
AcDbEntity
  8
0
  6
Continuous
 62
    18
100
AcDbLine
 10
25.41971038214165
 20
23.3473013608613
 30
0.0
 11
30.9473333329613
 21
23.3473013608613
 31
0.0
  0
LINE
  5
145
330
43
100
AcDbEntity
  8
0
  6
Continuous
 62
    18
100
AcDbLine
 10
19.89208743132205
 20
32.56000627889405
 30
0.0
 11
14.36446448050238
 21
32.56000627889405
 31
0.0
  0
LINE
  5
146
330
43
100
AcDbEntity
  8
0
  6
Continuous
 62
    18
100
AcDbLine
 10
23.5771693985351
 20
32.56000627889405
 30
0.0
 11
23.5771693985351
 21
15.9771374264351
 31
0.0
  0
LINE
  5
147
330
43
100
AcDbEntity
  8
0
  6
Continuous
 62
    18
100
AcDbLine
 10
14.36446448050238
 20
32.56000627889405
 30
0.0
 11
14.36446448050238
 21
23.34730136086125
 31
0.0
  0
LINE
  5
148
330
43
100
AcDbEntity
  8
0
  6
Continuous
 62
    18
100
AcDbLine
 10
23.5771693985351
 20
15.9771374264351
 30
0.0
 11
25.41971038214165
 21
15.9771374264351
 31
0.0
  0
LINE
  5
149
330
43
100
AcDbEntity
  8
0
  6
Continuous
 62
    18
100
AcDbLine
 10
36.47495628378095
 20
23.3473013608613
 30
0.0
 11
38.31749726738765
 21
23.3473013608613
 31
0.0
  0
LINE
  5
14A
330
43
100
AcDbEntity
  8
0
  6
Continuous
 62
    18
100
AcDbLine
 10
38.31749726738765
 20
23.3473013608613
 30
0.0
 11
38.31749726738765
 21
32.56000627889405
 31
0.0
  0
LINE
  5
14B
330
43
100
AcDbEntity
  8
0
  6
Continuous
 62
    18
100
AcDbLine
 10
38.31749726738765
 20
32.56000627889405
 30
0.0
 11
36.47495628378095
 21
32.56000627889405
 31
0.0
  0
LINE
  5
14C
330
43
100
AcDbEntity
  8
0
  6
Continuous
 62
    18
100
AcDbLine
 10
47.5302021854204
 20
32.56000627889405
 30
0.0
 11
42.00257923460075
 21
32.56000627889405
 31
0.0
  0
LINE
  5
14D
330
43
100
AcDbEntity
  8
0
  6
Continuous
 62
    18
100
AcDbLine
 10
42.00257923460075
 20
32.56000627889405
 30
0.0
 11
40.1600382509942
 21
30.7174652952875
 31
0.0
  0
LINE
  5
14E
330
43
100
AcDbEntity
  8
0
  6
Continuous
 62
    18
100
AcDbLine
 10
40.1600382509942
 20
30.7174652952875
 30
0.0
 11
40.1600382509942
 21
23.3473013608613
 31
0.0
  0
LINE
  5
14F
330
43
100
AcDbEntity
  8
0
  6
Continuous
 62
    18
100
AcDbLine
 10
32.78987431656785
 20
23.3473013608613
 30
0.0
 11
34.6324153001744
 21
23.3473013608613
 31
0.0
  0
LINE
  5
150
330
43
100
AcDbEntity
  8
0
  6
Continuous
 62
    18
100
AcDbLine
 10
16.20700546410895
 20
27.03238332807445
 30
0.0
 11
21.73462841492855
 21
27.03238332807445
 31
0.0
  0
LINE
  5
151
330
43
100
AcDbEntity
  8
0
  6
Continuous
 62
    18
100
AcDbLine
 10
25.41971038214165
 20
25.18984234446785
 30
0.0
 11
29.10479234935475
 21
25.18984234446785
 31
0.0
  0
LINE
  5
152
330
43
100
AcDbEntity
  8
0
  6
Continuous
 62
    18
100
AcDbLine
 10
21.73462841492855
 20
27.03238332807445
 30
0.0
 11
21.73462841492855
 21
30.71746529528755
 31
0.0
  0
LINE
  5
153
330
43
100
AcDbEntity
  8
0
  6
Continuous
 62
    18
100
AcDbLine
 10
34.6324153001744
 20
23.3473013608613
 30
0.0
 11
34.6324153001744
 21
38.08762922971376
 31
0.0
  0
LINE
  5
154
330
43
100
AcDbEntity
  8
0
  6
Continuous
 62
    18
100
AcDbLine
 10
34.6324153001744
 20
38.08762922971376
 30
0.0
 11
32.78987431656785
 21
38.08762922971376
 31
0.0
  0
LINE
  5
155
330
43
100
AcDbEntity
  8
0
  6
Continuous
 62
    18
100
AcDbLine
 10
32.78987431656785
 20
38.08762922971376
 30
0.0
 11
32.78987431656785
 21
23.3473013608613
 31
0.0
  0
LINE
  5
156
330
43
100
AcDbEntity
  8
0
  6
Continuous
 62
    18
100
AcDbLine
 10
-15.11619125720255
 20
32.56000627889405
 30
0.0
 11
-15.11619125720255
 21
38.08762922971376
 31
0.0
  0
LINE
  5
157
330
43
100
AcDbEntity
  8
0
  6
Continuous
 62
    18
100
AcDbLine
 10
60.4279890706663
 20
23.3473013608613
 30
0.0
 11
64.1130710378793
 21
23.34730136086125
 31
0.0
  0
LINE
  5
158
330
43
100
AcDbEntity
  8
0
  6
Continuous
 62
    18
100
AcDbLine
 10
82.53848087394499
 20
32.560006278894
 30
0.0
 11
78.8533989067319
 21
32.56000627889405
 31
0.0
  0
LINE
  5
159
330
43
100
AcDbEntity
  8
0
  6
Continuous
 62
    18
100
AcDbLine
 10
78.85339890673188
 20
32.56000627889405
 30
0.0
 11
77.01085792312527
 21
30.71746529528755
 31
0.0
  0
LINE
  5
15A
330
43
100
AcDbEntity
  8
0
  6
Continuous
 62
    18
100
AcDbLine
 10
77.01085792312529
 20
30.71746529528755
 30
0.0
 11
77.01085792312529
 21
32.560006278894
 31
0.0
  0
LINE
  5
15B
330
43
100
AcDbEntity
  8
0
  6
Continuous
 62
    18
100
AcDbLine
 10
-16.9587322408091
 20
38.08762922971376
 30
0.0
 11
-16.9587322408091
 21
23.34730136086135
 31
0.0
  0
LINE
  5
15C
330
43
100
AcDbEntity
  8
0
  6
Continuous
 62
    18
100
AcDbLine
 10
77.01085792312529
 20
30.71746529528755
 30
0.0
 11
82.53848087394499
 21
30.7174652952875
 31
0.0
  0
LINE
  5
15D
330
43
100
AcDbEntity
  8
0
  6
Continuous
 62
    18
100
AcDbLine
 10
-16.9587322408091
 20
23.34730136086135
 30
0.0
 11
-15.11619125720255
 21
23.3473013608613
 31
0.0
  0
LINE
  5
15E
330
43
100
AcDbEntity
  8
0
  6
Continuous
 62
    18
100
AcDbLine
 10
82.53848087394499
 20
30.7174652952875
 30
0.0
 11
82.53848087394499
 21
32.560006278894
 31
0.0
  0
LINE
  5
15F
330
43
100
AcDbEntity
  8
0
  6
Continuous
 62
    18
100
AcDbLine
 10
82.7151845843049
 20
36.2010779721094
 30
0.0
 11
82.7151845843049
 21
36.07363797210935
 31
0.0
  0
LINE
  5
160
330
43
100
AcDbEntity
  8
0
  6
Continuous
 62
    18
100
AcDbLine
 10
82.7151845843049
 20
36.07363797210935
 30
0.0
 11
83.31216786299369
 21
36.07363797210935
 31
0.0
  0
LINE
  5
161
330
43
100
AcDbEntity
  8
0
  6
Continuous
 62
    18
100
AcDbLine
 10
83.31216786299369
 20
36.07363797210935
 30
0.0
 11
83.31216786299369
 21
33.68570485735525
 31
0.0
  0
LINE
  5
162
330
43
100
AcDbEntity
  8
0
  6
Continuous
 62
    18
100
AcDbLine
 10
83.31216786299369
 20
36.2010779721094
 30
0.0
 11
82.7151845843049
 21
36.2010779721094
 31
0.0
  0
LINE
  5
163
330
43
100
AcDbEntity
  8
0
  6
Continuous
 62
    18
100
AcDbLine
 10
83.43960786299368
 20
36.2010779721094
 30
0.0
 11
83.43960786299368
 21
37.26760452948645
 31
0.0
  0
LINE
  5
164
330
43
100
AcDbEntity
  8
0
  6
Continuous
 62
    18
100
AcDbLine
 10
83.43960786299368
 20
37.26760452948645
 30
0.0
 11
83.31216786299369
 21
37.26760452948645
 31
0.0
  0
LINE
  5
165
330
43
100
AcDbEntity
  8
0
  6
Continuous
 62
    18
100
AcDbLine
 10
83.31216786299369
 20
37.26760452948645
 30
0.0
 11
83.31216786299369
 21
36.2010779721094
 31
0.0
  0
LINE
  5
166
330
43
100
AcDbEntity
  8
0
  6
Continuous
 62
    18
100
AcDbLine
 10
10.67938251328928
 20
38.08762922971376
 30
0.0
 11
5.15175956246948
 21
38.08762922971376
 31
0.0
  0
LINE
  5
167
330
43
100
AcDbEntity
  8
0
  6
Continuous
 62
    18
100
AcDbLine
 10
-9.588568306382898
 20
23.34730136086135
 30
0.0
 11
-9.588568306382898
 21
30.7174652952875
 31
0.0
  0
LINE
  5
168
330
43
100
AcDbEntity
  8
0
  6
Continuous
 62
    18
100
AcDbLine
 10
77.01085792312529
 20
32.560006278894
 30
0.0
 11
75.1683169395188
 21
32.56000627889405
 31
0.0
  0
LINE
  5
169
330
43
100
AcDbEntity
  8
0
  6
Continuous
 62
    18
100
AcDbLine
 10
-9.588568306382898
 20
30.7174652952875
 30
0.0
 11
-11.43110928998944
 21
32.56000627889405
 31
0.0
  0
LINE
  5
16A
330
43
100
AcDbEntity
  8
0
  6
Continuous
 62
    18
100
AcDbLine
 10
12.52192349689584
 20
32.56000627889405
 30
0.0
 11
12.52192349689584
 21
36.2450882461072
 31
0.0
  0
LINE
  5
16B
330
43
100
AcDbEntity
  8
0
  6
Continuous
 62
    18
100
AcDbLine
 10
-11.43110928998944
 20
32.56000627889405
 30
0.0
 11
-15.11619125720255
 21
32.56000627889405
 31
0.0
  0
LINE
  5
16C
330
43
100
AcDbEntity
  8
0
  6
Continuous
 62
    18
100
AcDbLine
 10
12.52192349689584
 20
36.2450882461072
 30
0.0
 11
10.67938251328928
 21
38.08762922971376
 31
0.0
  0
LINE
  5
16D
330
43
100
AcDbEntity
  8
0
  6
Continuous
 62
    18
100
AcDbLine
 10
-15.11619125720255
 20
30.71746529528755
 30
0.0
 11
-11.43110928998944
 21
30.7174652952875
 31
0.0
  0
LINE
  5
16E
330
43
100
AcDbEntity
  8
0
  6
Continuous
 62
    18
100
AcDbLine
 10
77.01085792312529
 20
23.34730136086125
 30
0.0
 11
77.01085792312529
 21
30.71746529528755
 31
0.0
  0
LINE
  5
16F
330
43
100
AcDbEntity
  8
0
  6
Continuous
 62
    18
100
AcDbLine
 10
-15.11619125720255
 20
23.3473013608613
 30
0.0
 11
-15.11619125720255
 21
30.71746529528755
 31
0.0
  0
LINE
  5
170
330
43
100
AcDbEntity
  8
0
  6
Continuous
 62
    18
100
AcDbLine
 10
75.1683169395188
 20
23.34730136086125
 30
0.0
 11
77.01085792312529
 21
23.34730136086125
 31
0.0
  0
LINE
  5
171
330
43
100
AcDbEntity
  8
0
  6
Continuous
 62
    18
100
AcDbLine
 10
-11.43110928998944
 20
23.34730136086135
 30
0.0
 11
-9.588568306382898
 21
23.34730136086135
 31
0.0
  0
LINE
  5
172
330
43
100
AcDbEntity
  8
0
  6
Continuous
 62
    18
100
AcDbLine
 10
75.1683169395188
 20
32.56000627889405
 30
0.0
 11
75.1683169395188
 21
23.34730136086125
 31
0.0
  0
LINE
  5
173
330
43
100
AcDbEntity
  8
0
  6
Continuous
 62
    18
100
AcDbLine
 10
-11.43110928998944
 20
30.7174652952875
 30
0.0
 11
-11.43110928998944
 21
23.34730136086135
 31
0.0
  0
LINE
  5
174
330
43
100
AcDbEntity
  8
0
  6
Continuous
 62
    18
100
AcDbLine
 10
-0.375863388350163
 20
30.71746529528755
 30
0.0
 11
-2.21840437195671
 21
32.56000627889405
 31
0.0
  0
LINE
  5
175
330
43
100
AcDbEntity
  8
0
  6
Continuous
 62
    18
100
AcDbLine
 10
-5.90348633916981
 20
28.87492431168105
 30
0.0
 11
-2.21840437195671
 21
28.87492431168095
 31
0.0
  0
LINE
  5
176
330
43
100
AcDbEntity
  8
0
  6
Continuous
 62
    18
100
AcDbLine
 10
-7.74602732277635
 20
32.56000627889405
 30
0.0
 11
-7.74602732277635
 21
23.34730136086125
 31
0.0
  0
LINE
  5
177
330
43
100
AcDbEntity
  8
0
  6
Continuous
 62
    18
100
AcDbLine
 10
-2.21840437195671
 20
32.56000627889405
 30
0.0
 11
-7.746027322776348
 21
32.56000627889405
 31
0.0
  0
LINE
  5
178
330
43
100
AcDbEntity
  8
0
  6
Continuous
 62
    18
100
AcDbLine
 10
-2.21840437195671
 20
28.87492431168095
 30
0.0
 11
-2.21840437195671
 21
30.7174652952875
 31
0.0
  0
LINE
  5
179
330
43
100
AcDbEntity
  8
0
  6
Continuous
 62
    18
100
AcDbLine
 10
-2.21840437195671
 20
30.7174652952875
 30
0.0
 11
-5.90348633916981
 21
30.7174652952875
 31
0.0
  0
LINE
  5
17A
330
43
100
AcDbEntity
  8
0
  6
Continuous
 62
    18
100
AcDbLine
 10
-5.90348633916981
 20
30.7174652952875
 30
0.0
 11
-5.90348633916981
 21
28.87492431168105
 31
0.0
  0
LINE
  5
17B
330
43
100
AcDbEntity
  8
0
  6
Continuous
 62
    18
100
AcDbLine
 10
-5.90348633916981
 20
27.03238332807445
 30
0.0
 11
-0.3758633883501651
 21
27.03238332807445
 31
0.0
  0
LINE
  5
17C
330
43
100
AcDbEntity
  8
0
  6
Continuous
 62
    18
100
AcDbLine
 10
83.43960786299368
 20
33.8131448573553
 30
0.0
 11
83.43960786299368
 21
36.07363797210935
 31
0.0
  0
LINE
  5
17D
330
43
100
AcDbEntity
  8
0
  6
Continuous
 62
    18
100
AcDbLine
 10
-5.90348633916981
 20
25.1898423444678
 30
0.0
 11
-5.90348633916981
 21
27.03238332807445
 31
0.0
  0
LINE
  5
17E
330
43
100
AcDbEntity
  8
0
  6
Continuous
 62
    18
100
AcDbLine
 10
83.90915114168219
 20
33.8131448573553
 30
0.0
 11
83.43960786299368
 21
33.8131448573553
 31
0.0
  0
LINE
  5
17F
330
43
100
AcDbEntity
  8
0
  6
Continuous
 62
    18
100
AcDbLine
 10
83.31216786299369
 20
33.68570485735525
 30
0.0
 11
83.90915114168219
 21
33.68570485735525
 31
0.0
  0
LINE
  5
180
330
43
100
AcDbEntity
  8
0
  6
Continuous
 62
    18
100
AcDbLine
 10
83.90915114168219
 20
33.68570485735525
 30
0.0
 11
83.90915114168219
 21
33.8131448573553
 31
0.0
  0
LINE
  5
181
330
43
100
AcDbEntity
  8
0
  6
Continuous
 62
    18
100
AcDbLine
 10
-0.375863388350163
 20
27.03238332807445
 30
0.0
 11
-0.375863388350163
 21
30.71746529528755
 31
0.0
  0
LINE
  5
182
330
43
100
AcDbEntity
  8
0
  6
Continuous
 62
    18
100
AcDbLine
 10
83.90915114168219
 20
36.2010779721094
 30
0.0
 11
83.43960786299368
 21
36.2010779721094
 31
0.0
  0
LINE
  5
183
330
43
100
AcDbEntity
  8
0
  6
Continuous
 62
    18
100
AcDbLine
 10
-7.74602732277635
 20
23.34730136086125
 30
0.0
 11
-0.3758633883501634
 21
23.34730136086125
 31
0.0
  0
LINE
  5
184
330
43
100
AcDbEntity
  8
0
  6
Continuous
 62
    18
100
AcDbLine
 10
-0.375863388350163
 20
23.34730136086125
 30
0.0
 11
-0.375863388350163
 21
25.1898423444679
 31
0.0
  0
LINE
  5
185
330
43
100
AcDbEntity
  8
0
  6
Continuous
 62
    18
100
AcDbLine
 10
83.43960786299368
 20
36.07363797210935
 30
0.0
 11
83.90915114168219
 21
36.07363797210935
 31
0.0
  0
LINE
  5
186
330
43
100
AcDbEntity
  8
0
  6
Continuous
 62
    18
100
AcDbLine
 10
-0.375863388350163
 20
25.1898423444679
 30
0.0
 11
-5.903486339169808
 21
25.1898423444678
 31
0.0
  0
LINE
  5
187
330
43
100
AcDbEntity
  8
0
  6
Continuous
 62
    18
100
AcDbLine
 10
83.90915114168219
 20
36.07363797210935
 30
0.0
 11
83.90915114168219
 21
36.2010779721094
 31
0.0
  0
LINE
  5
188
330
43
100
AcDbEntity
  8
0
  6
Continuous
 62
    18
100
AcDbLine
 10
38.8838345062947
 20
-22.5844313769384
 30
0.0
 11
38.8838345062947
 21
-3.7647093694545
 31
0.0
  0
LINE
  5
189
330
43
100
AcDbEntity
  8
0
  6
Continuous
 62
    18
100
AcDbLine
 10
33.24796560673705
 20
1.865410683339145
 30
0.0
 11
21.16866435367196
 21
1.865410683339145
 31
0.0
  0
LINE
  5
18A
330
43
100
AcDbEntity
  8
0
  6
Continuous
 62
    18
100
AcDbLine
 10
34.26437054233075
 20
-22.60312702871345
 30
0.0
 11
34.26437054233075
 21
-2.754053280624835
 31
0.0
  0
LINE
  5
18B
330
43
100
AcDbEntity
  8
0
  6
Continuous
 62
    18
100
AcDbLine
 10
29.1434303020905
 20
-2.754053280624835
 30
0.0
 11
34.26437054233075
 21
-2.754053280624835
 31
0.0
  0
LINE
  5
18C
330
43
100
AcDbEntity
  8
0
  6
Continuous
 62
    18
100
AcDbLine
 10
29.14343030209045
 20
-22.60004873604035
 30
0.0
 11
29.1434303020905
 21
-2.754053280624835
 31
0.0
  0
LINE
  5
18D
330
43
100
AcDbEntity
  8
0
  6
Continuous
 62
    18
100
AcDbLine
 10
15.5328239957842
 20
-3.764709369102835
 30
0.0
 11
15.5328239957842
 21
-22.5852671447317
 31
0.0
  0
LINE
  5
18E
330
43
100
AcDbEntity
  8
0
  6
Continuous
 62
    18
100
AcDbLine
 10
24.89859726905745
 20
-2.754053280624835
 30
0.0
 11
24.89859726905745
 21
-22.59999333696825
 31
0.0
  0
LINE
  5
18F
330
43
100
AcDbEntity
  8
0
  6
Continuous
 62
    18
100
AcDbLine
 10
20.15228795974815
 20
-2.754053280624835
 30
0.0
 11
24.89859726905745
 21
-2.754053280624835
 31
0.0
  0
LINE
  5
190
330
43
100
AcDbEntity
  8
0
  6
Continuous
 62
    18
100
AcDbLine
 10
20.15228795974815
 20
-22.60205966494155
 30
0.0
 11
20.15228795974815
 21
-2.754053280624835
 31
0.0
  0
SPLINE
  5
191
330
43
100
AcDbEntity
  8
0
  6
Continuous
 62
    18
100
AcDbSpline
210
0.0
220
0.0
230
1.0
 70
     8
 71
     3
 72
    18
 73
    14
 74
     0
 42
0.000000001
 43
0.00001
 40
0.0
 40
0.0
 40
0.0
 40
0.0
 40
0.125
 40
0.125
 40
0.25
 40
0.25
 40
0.5
 40
0.5
 40
0.625
 40
0.625
 40
0.75
 40
0.75
 40
1.0
 40
1.0
 40
1.0
 40
1.0
 10
27.0210654981616
 20
-24.85682920233865
 30
0.0
 10
26.874272417617
 20
-24.8505760328196
 30
0.0
 10
26.7274681828928
 20
-24.8444455647717
 30
0.0
 10
26.43629620530295
 20
-24.80538201782435
 30
0.0
 10
26.29286532704955
 20
-24.77003333253025
 30
0.0
 10
25.8846593113752
 20
-24.6156605896549
 30
0.0
 10
25.63197092652395
 20
-24.44911237596825
 30
0.0
 10
25.33971139255555
 20
-24.1183520967864
 30
0.0
 10
25.25861097899685
 20
-23.9975797838795
 30
0.0
 10
25.1172448470183
 20
-23.7426059035535
 30
0.0
 10
25.0582195983695
 20
-23.6064023672879
 30
0.0
 10
24.93079879675155
 20
-23.18885085636425
 30
0.0
 10
24.91261811551075
 20
-22.893168371572
 30
0.0
 10
24.89859726905745
 20
-22.59999333696825
 30
0.0
  0
SPLINE
  5
192
330
43
100
AcDbEntity
  8
0
  6
Continuous
 62
    18
100
AcDbSpline
210
0.0
220
0.0
230
1.0
 70
     8
 71
     3
 72
    18
 73
    14
 74
     0
 42
0.000000001
 43
0.00001
 40
0.0
 40
0.0
 40
0.0
 40
0.0
 40
0.125
 40
0.125
 40
0.25
 40
0.25
 40
0.5
 40
0.5
 40
0.75
 40
0.75
 40
0.875
 40
0.875
 40
1.0
 40
1.0
 40
1.0
 40
1.0
 10
20.1522879597481
 20
-22.60205966494155
 30
0.0
 10
20.14618343441235
 20
-22.7564359735994
 30
0.0
 10
20.14058094371605
 20
-22.9109212141895
 30
0.0
 10
20.0990015217494
 20
-23.21747750227725
 30
0.0
 10
20.06079656887865
 20
-23.36536944767255
 30
0.0
 10
19.8981259966706
 20
-23.79418257788525
 30
0.0
 10
19.7238278162928
 20
-24.0545932930911
 30
0.0
 10
19.27090410848255
 20
-24.47403322976955
 30
0.0
 10
19.00005591370135
 20
-24.6326660450344
 30
0.0
 10
18.56546929051535
 20
-24.7755162275048
 30
0.0
 10
18.4135954278859
 20
-24.8078558367985
 30
0.0
 10
18.108292358574
 20
-24.8441705234771
 30
0.0
 10
17.95454868430545
 20
-24.8505099079054
 30
0.0
 10
17.8008080697519
 20
-24.8568824012748
 30
0.0
  0
SPLINE
  5
193
330
43
100
AcDbEntity
  8
0
  6
Continuous
 62
    18
100
AcDbSpline
210
0.0
220
0.0
230
1.0
 70
     8
 71
     3
 72
    22
 73
    18
 74
     0
 42
0.000000001
 43
0.00001
 40
0.0
 40
0.0
 40
0.0
 40
0.0
 40
0.125
 40
0.125
 40
0.25
 40
0.25
 40
0.375
 40
0.375
 40
0.5
 40
0.5
 40
0.625
 40
0.625
 40
0.75
 40
0.75
 40
0.875
 40
0.875
 40
1.0
 40
1.0
 40
1.0
 40
1.0
 10
17.8008080697519
 20
-24.8568824012748
 30
0.0
 10
17.64947953855925
 20
-24.85107547956935
 30
0.0
 10
17.4981318160332
 20
-24.84547191288
 30
0.0
 10
17.1981622862964
 20
-24.80538046310575
 30
0.0
 10
17.0501192529964
 20
-24.76751290044395
 30
0.0
 10
16.7673195642027
 20
-24.66577014070075
 30
0.0
 10
16.62984303845525
 20
-24.60223194434015
 30
0.0
 10
16.3714905433587
 20
-24.4426905528655
 30
0.0
 10
16.25375710485435
 20
-24.3481347636266
 30
0.0
 10
16.0376073426933
 20
-24.13406381126575
 30
0.0
 10
15.9425722771604
 20
-24.01795372697705
 30
0.0
 10
15.78633508840525
 20
-23.7621988940932
 30
0.0
 10
15.72393889926715
 20
-23.6220323674785
 30
0.0
 10
15.6222375912591
 20
-23.33787024753995
 30
0.0
 10
15.5837240131312
 20
-23.192214396295
 30
0.0
 10
15.54341088296495
 20
-22.89026443710025
 30
0.0
 10
15.5383774880179
 20
-22.7375685081292
 30
0.0
 10
15.5328239957842
 20
-22.5852671447317
 30
0.0
  0
SPLINE
  5
194
330
43
100
AcDbEntity
  8
0
  6
Continuous
 62
    18
100
AcDbSpline
210
0.0
220
0.0
230
1.0
 70
     8
 71
     3
 72
    24
 73
    20
 74
     0
 42
0.000000001
 43
0.00001
 40
0.0
 40
0.0
 40
0.0
 40
0.0
 40
0.125
 40
0.125
 40
0.25
 40
0.25
 40
0.375
 40
0.375
 40
0.5
 40
0.5
 40
0.625
 40
0.625
 40
0.75
 40
0.75
 40
0.875
 40
0.875
 40
0.9375
 40
0.9375
 40
1.0
 40
1.0
 40
1.0
 40
1.0
 10
33.24796560673705
 20
1.865410683339145
 30
0.0
 10
33.618652428871
 20
1.85481853291594
 30
0.0
 10
33.98859715113905
 20
1.837260408389745
 30
0.0
 10
34.71832961634244
 20
1.70680220032138
 30
0.0
 10
35.0765714547121
 20
1.60365550431227
 30
0.0
 10
35.75571126945965
 20
1.326575090526554
 30
0.0
 10
36.0826413775263
 20
1.152083070659864
 30
0.0
 10
36.69502868605714
 20
0.731429329734246
 30
0.0
 10
36.97648148271769
 20
0.491121906143865
 30
0.0
 10
37.50052605451195
 20
-0.0365840701758158
 30
0.0
 10
37.73840693539465
 20
-0.318629821966482
 30
0.0
 10
38.15686276238685
 20
-0.9228570701086399
 30
0.0
 10
38.33251923009855
 20
-1.254352438773448
 30
0.0
 10
38.61289910563985
 20
-1.93929052670569
 30
0.0
 10
38.717342807524
 20
-2.291657346299215
 30
0.0
 10
38.8193734782335
 20
-2.83533542876846
 30
0.0
 10
38.8438837210383
 20
-3.01964772115926
 30
0.0
 10
38.8731120807365
 20
-3.39171850063974
 30
0.0
 10
38.87842729955941
 20
-3.57821622180271
 30
0.0
 10
38.8838345062947
 20
-3.7647093694545
 30
0.0
  0
SPLINE
  5
195
330
43
100
AcDbEntity
  8
0
  6
Continuous
 62
    18
100
AcDbSpline
210
0.0
220
0.0
230
1.0
 70
     8
 71
     3
 72
    20
 73
    16
 74
     0
 42
0.000000001
 43
0.00001
 40
0.0
 40
0.0
 40
0.0
 40
0.0
 40
0.125
 40
0.125
 40
0.25
 40
0.25
 40
0.499999999999993
 40
0.499999999999993
 40
0.6249999999999944
 40
0.6249999999999944
 40
0.7499999999999964
 40
0.7499999999999964
 40
0.874999999999998
 40
0.874999999999998
 40
1.0
 40
1.0
 40
1.0
 40
1.0
 10
36.6155004259066
 20
-24.85686811647985
 30
0.0
 10
36.46194188933405
 20
-24.8505042504183
 30
0.0
 10
36.3083809706144
 20
-24.8441662734996
 30
0.0
 10
36.00342892848175
 20
-24.8079090133582
 30
0.0
 10
35.8517598904761
 20
-24.7756273159135
 30
0.0
 10
35.41769511038
 20
-24.6331522571753
 30
0.0
 10
35.14745288508185
 20
-24.47435850766935
 30
0.0
 10
34.8074023904197
 20
-24.16115733567295
 30
0.0
 10
34.70617327059225
 20
-24.0461348715791
 30
0.0
 10
34.53836892108745
 20
-23.7926119748677
 30
0.0
 10
34.47111079154276
 20
-23.65212986177665
 30
0.0
 10
34.36124806787555
 20
-23.3661121953274
 30
0.0
 10
34.3187488547499
 20
-23.21927022534625
 30
0.0
 10
34.27457607649295
 20
-22.91299873550735
 30
0.0
 10
34.26982617866835
 20
-22.7578248951836
 30
0.0
 10
34.26437054233075
 20
-22.60312702871345
 30
0.0
  0
SPLINE
  5
196
330
43
100
AcDbEntity
  8
0
  6
Continuous
 62
    18
100
AcDbSpline
210
0.0
220
0.0
230
1.0
 70
     8
 71
     3
 72
    20
 73
    16
 74
     0
 42
0.000000001
 43
0.00001
 40
0.0
 40
0.0
 40
0.0
 40
0.0
 40
0.125
 40
0.125
 40
0.25
 40
0.25
 40
0.5
 40
0.5
 40
0.625
 40
0.625
 40
0.75
 40
0.75
 40
0.875
 40
0.875
 40
1.0
 40
1.0
 40
1.0
 40
1.0
 10
38.8838345062947
 20
-22.5844313769384
 30
0.0
 10
38.87782169736121
 20
-22.735448746612
 30
0.0
 10
38.8723612905039
 20
-22.8865186447552
 30
0.0
 10
38.8304753929551
 20
-23.1857139400183
 30
0.0
 10
38.79050019093204
 20
-23.33279491375075
 30
0.0
 10
38.63280463102445
 20
-23.75382581215845
 30
0.0
 10
38.4708789592478
 20
-24.01573759677205
 30
0.0
 10
38.15066791359089
 20
-24.33909524561825
 30
0.0
 10
38.0347512424871
 20
-24.434251669337
 30
0.0
 10
37.78338066033174
 20
-24.59768499335
 30
0.0
 10
37.6463266656949
 20
-24.66639203690315
 30
0.0
 10
37.36477142261085
 20
-24.76977998744685
 30
0.0
 10
37.2192597924836
 20
-24.8054144213203
 30
0.0
 10
36.91887984185325
 20
-24.84494186871705
 30
0.0
 10
36.76700294570375
 20
-24.85084369742445
 30
0.0
 10
36.6155004259066
 20
-24.85686811647985
 30
0.0
  0
CIRCLE
  5
197
330
43
100
AcDbEntity
  8
0
  6
Continuous
 62
    18
100
AcDbCircle
 10
27.01363316736905
 20
-11.3472563896829
 30
0.0
 40
22.2257748602378
  0
SPLINE
  5
198
330
43
100
AcDbEntity
  8
0
  6
Continuous
 62
    18
100
AcDbSpline
210
0.0
220
0.0
230
1.0
 70
     8
 71
     3
 72
    26
 73
    22
 74
     0
 42
0.000000001
 43
0.00001
 40
0.0
 40
0.0
 40
0.0
 40
0.0
 40
0.0625
 40
0.0625
 40
0.125
 40
0.125
 40
0.25
 40
0.25
 40
0.375
 40
0.375
 40
0.5
 40
0.5
 40
0.625
 40
0.625
 40
0.75
 40
0.75
 40
0.8750000000000018
 40
0.8750000000000018
 40
0.9375000000000009
 40
0.9375000000000009
 40
1.0
 40
1.0
 40
1.0
 40
1.0
 10
15.5328239957842
 20
-3.764709369102835
 30
0.0
 10
15.5381928145528
 20
-3.57954020340895
 30
0.0
 10
15.5434918462894
 20
-3.394363443359195
 30
0.0
 10
15.5721283905679
 20
-3.02597290461032
 30
0.0
 10
15.59613009823615
 20
-2.842831404872015
 30
0.0
 10
15.69788962764725
 20
-2.296644836029595
 30
0.0
 10
15.8038109460795
 20
-1.93992340132368
 30
0.0
 10
16.0809680030121
 20
-1.261349181893106
 30
0.0
 10
16.25289273388275
 20
-0.934093756826626
 30
0.0
 10
16.67508311661075
 20
-0.321964919310941
 30
0.0
 10
16.91440763399705
 20
-0.0385949584682798
 30
0.0
 10
17.43827968005035
 20
0.489487274594497
 30
0.0
 10
17.71874996643685
 20
0.728262120836931
 30
0.0
 10
18.3235358170061
 20
1.146041073142534
 30
0.0
 10
18.65572107190715
 20
1.321415045951984
 30
0.0
 10
19.34007112541
 20
1.60184761742227
 30
0.0
 10
19.6927797169083
 20
1.70554141802304
 30
0.0
 10
20.2384671091579
 20
1.803440831155775
 30
0.0
 10
20.4237176566628
 20
1.826960934671495
 30
0.0
 10
20.7957219000324
 20
1.854872369315585
 30
0.0
 10
20.98219516729885
 20
1.86010374276563
 30
0.0
 10
21.16866435367195
 20
1.865410683339145
 30
0.0
  0
SPLINE
  5
199
330
43
100
AcDbEntity
  8
0
  6
Continuous
 62
    18
100
AcDbSpline
210
0.0
220
0.0
230
1.0
 70
     8
 71
     3
 72
    18
 73
    14
 74
     0
 42
0.000000001
 43
0.00001
 40
0.0
 40
0.0
 40
0.0
 40
0.0
 40
0.125
 40
0.125
 40
0.25
 40
0.25
 40
0.5
 40
0.5
 40
0.75
 40
0.75
 40
0.875
 40
0.875
 40
1.0
 40
1.0
 40
1.0
 40
1.0
 10
29.1434303020905
 20
-22.60004873604035
 30
0.0
 10
29.13646126666875
 20
-22.7464505941707
 30
0.0
 10
29.1296106042571
 20
-22.8928638004064
 30
0.0
 10
29.0964675446125
 20
-23.18382638550895
 30
0.0
 10
29.06826878594115
 20
-23.3290355330303
 30
0.0
 10
28.94102868043265
 20
-23.7463977514459
 30
0.0
 10
28.79643105840335
 20
-24.00802027006895
 30
0.0
 10
28.404680045194
 20
-24.4463852814238
 30
0.0
 10
28.1575126776164
 20
-24.61606901448555
 30
0.0
 10
27.74862611602885
 20
-24.7698972932084
 30
0.0
 10
27.60658047942495
 20
-24.8052022964822
 30
0.0
 10
27.3148845773562
 20
-24.84451835503625
 30
0.0
 10
27.1679693672042
 20
-24.85060165350995
 30
0.0
 10
27.02106549816155
 20
-24.85682920233865
 30
0.0
  0
CIRCLE
  5
19A
330
43
100
AcDbEntity
  8
0
  6
Continuous
 62
    18
100
AcDbCircle
 10
27.01363316736905
 20
-11.3472563896829
 30
0.0
 40
19.2257748602378
  0
LINE
  5
19B
330
43
100
AcDbEntity
  8
0
  6
Continuous
 62
    18
100
AcDbLine
 10
38.8838345062947
 20
-22.5844313769384
 30
0.0
 11
38.8838345062947
 21
-3.7647093694545
 31
0.0
  0
SPLINE
  5
19C
330
43
100
AcDbEntity
  8
0
  6
Continuous
 62
    18
100
AcDbSpline
210
0.0
220
0.0
230
1.0
 70
     8
 71
     2
 72
    24
 73
    21
 74
     0
 42
0.000000001
 43
0.00001
 40
0.0
 40
0.0
 40
0.0
 40
0.0625
 40
0.0625
 40
0.125
 40
0.125
 40
0.25
 40
0.25
 40
0.375
 40
0.375
 40
0.5
 40
0.5
 40
0.625
 40
0.625
 40
0.75
 40
0.75
 40
0.875
 40
0.875
 40
0.9375
 40
0.9375
 40
1.0
 40
1.0
 40
1.0
 10
15.53282399578419
 20
-3.764709369102975
 30
0.0
 10
15.54359224072679
 20
-3.393298890649599
 30
0.0
 10
15.55781011842865
 20
-3.210168173985006
 30
0.0
 10
15.57930630565969
 20
-2.933290551619006
 30
0.0
 10
15.63004994137319
 20
-2.660769215258013
 30
0.0
 10
15.73109495023145
 20
-2.118101736676981
 30
0.0
 10
15.94238947454583
 20
-1.600636291608587
 30
0.0
 10
16.15881389074689
 20
-1.070607616153796
 30
0.0
 10
16.46398792524675
 20
-0.6280293380689916
 30
0.0
 10
16.77001979465275
 20
-0.1842069859386009
 30
0.0
 10
17.1763436570237
 20
0.2254461580629974
 30
0.0
 10
17.57981474794648
 20
0.6322231559625913
 30
0.0
 10
18.02114289172146
 20
0.9371515969896216
 30
0.0
 10
18.46277405642553
 20
1.242289405356423
 30
0.0
 10
18.99789609865858
 20
1.46163133168703
 30
0.0
 10
19.51500095937568
 20
1.673588170152007
 30
0.0
 10
20.05657131174136
 20
1.770807693444815
 30
0.0
 10
20.33008681368393
 20
1.8199075871074
 30
0.0
 10
20.60971977834761
 20
1.840916651993402
 30
0.0
 10
20.79370910679249
 20
1.854739928316612
 30
0.0
 10
21.16866435367196
 20
1.865410683339008
 30
0.0
  0
LINE
  5
19D
330
43
100
AcDbEntity
  8
0
  6
Continuous
 62
    18
100
AcDbLine
 10
33.24796560673705
 20
1.865410683339145
 30
0.0
 11
21.16866435367196
 21
1.865410683339145
 31
0.0
  0
SPLINE
  5
19E
330
43
100
AcDbEntity
  8
0
  6
Continuous
 62
    18
100
AcDbSpline
210
0.0
220
0.0
230
1.0
 70
     8
 71
     2
 72
    24
 73
    21
 74
     0
 42
0.000000001
 43
0.00001
 40
0.0
 40
0.0
 40
0.0
 40
0.0625
 40
0.0625
 40
0.125
 40
0.125
 40
0.25
 40
0.25
 40
0.375
 40
0.375
 40
0.5
 40
0.5
 40
0.625
 40
0.625
 40
0.75
 40
0.75
 40
0.875
 40
0.875
 40
0.9375
 40
0.9375
 40
1.0
 40
1.0
 40
1.0
 10
33.24796560673703
 20
1.865410683339008
 30
0.0
 10
33.5809106530361
 20
1.855884678701403
 30
0.0
 10
33.80289721631349
 20
1.83920985145139
 30
0.0
 10
34.10404507034331
 20
1.816588714529804
 30
0.0
 10
34.35346338374075
 20
1.772031304355409
 30
0.0
 10
34.90538969756669
 20
1.673432260780205
 30
0.0
 10
35.41614136208588
 20
1.465115297419217
 30
0.0
 10
35.93476613984444
 20
1.253587178508403
 30
0.0
 10
36.38883503179171
 20
0.9417562001970137
 30
0.0
 10
36.82929444619634
 20
0.6392715056140197
 30
0.0
 10
37.23850376861485
 20
0.2272689179839971
 30
0.0
 10
37.64078758537529
 20
-0.1777608904463823
 30
0.0
 10
37.94763484889075
 20
-0.620743446037797
 30
0.0
 10
38.25434333542675
 20
-1.063525655110392
 30
0.0
 10
38.47270916786919
 20
-1.596821482739791
 30
0.0
 10
38.68349842825883
 20
-2.111613709240983
 30
0.0
 10
38.78536325466366
 20
-2.654109401278804
 30
0.0
 10
38.83655627279709
 20
-2.926745136104802
 30
0.0
 10
38.85849790088743
 20
-3.20568311089961
 30
0.0
 10
38.87295576936085
 20
-3.389482076738615
 30
0.0
 10
38.88383450629469
 20
-3.764709369454583
 30
0.0
  0
LINE
  5
19F
330
43
100
AcDbEntity
  8
0
  6
Continuous
 62
    18
100
AcDbLine
 10
15.5328239957842
 20
-3.764709369102835
 30
0.0
 11
15.5328239957842
 21
-22.5852671447317
 31
0.0
  0
LINE
  5
1A0
330
43
100
AcDbEntity
  8
0
  6
Continuous
 62
    18
100
AcDbLine
 10
20.15228795974815
 20
-22.60205966494155
 30
0.0
 11
20.15228795974815
 21
-2.754053280624835
 31
0.0
  0
SPLINE
  5
1A1
330
43
100
AcDbEntity
  8
0
  6
Continuous
 62
    18
100
AcDbSpline
210
0.0
220
0.0
230
1.0
 70
     8
 71
     2
 72
    20
 73
    17
 74
     0
 42
0.000000001
 43
0.00001
 40
0.0
 40
0.0
 40
0.0
 40
0.0625
 40
0.0625
 40
0.125
 40
0.125
 40
0.25
 40
0.25
 40
0.375
 40
0.375
 40
0.5
 40
0.5
 40
0.75
 40
0.75
 40
0.875
 40
0.875
 40
1.0
 40
1.0
 40
1.0
 10
20.15228795974813
 20
-22.60205966494179
 30
0.0
 10
20.14597812713349
 20
-22.76168757527899
 30
0.0
 10
20.14154654085825
 20
-22.83354132331779
 30
0.0
 10
20.13361949443263
 20
-22.9620704686804
 30
0.0
 10
20.11979123273273
 20
-23.06419935823359
 30
0.0
 10
20.08915870152992
 20
-23.29043649951959
 30
0.0
 10
20.00657304480933
 20
-23.50830715774359
 30
0.0
 10
19.92521340813843
 20
-23.722943431138
 30
0.0
 10
19.79622505576092
 20
-23.91486850401299
 30
0.0
 10
19.66702223157791
 20
-24.10711269497999
 30
0.0
 10
19.4973659623877
 20
-24.26431326143039
 30
0.0
 10
19.15488801092636
 20
-24.581647411377
 30
0.0
 10
18.71033149824403
 20
-24.72789950001479
 30
0.0
 10
18.49794658895897
 20
-24.79777078902298
 30
0.0
 10
18.26094389322994
 20
-24.82601318013799
 30
0.0
 10
18.10914687213624
 20
-24.8441020496616
 30
0.0
 10
17.80080806975192
 20
-24.85688240127499
 30
0.0
  0
SPLINE
  5
1A2
330
43
100
AcDbEntity
  8
0
  6
Continuous
 62
    18
100
AcDbSpline
210
0.0
220
0.0
230
1.0
 70
     8
 71
     2
 72
    22
 73
    19
 74
     0
 42
0.000000001
 43
0.00001
 40
0.0
 40
0.0
 40
0.0
 40
0.125
 40
0.125
 40
0.25
 40
0.25
 40
0.375
 40
0.375
 40
0.5
 40
0.5
 40
0.625
 40
0.625
 40
0.75
 40
0.75
 40
0.875
 40
0.875
 40
0.9375
 40
0.9375
 40
1.0
 40
1.0
 40
1.0
 10
17.80080806975192
 20
-24.85688240127499
 30
0.0
 10
17.49637080406051
 20
-24.84520203979059
 30
0.0
 10
17.3481470511648
 20
-24.82542618799299
 30
0.0
 10
17.13056281656045
 20
-24.79639633621199
 30
0.0
 10
16.90871940859953
 20
-24.71664152057258
 30
0.0
 10
16.68496833838041
 20
-24.636200882203
 30
0.0
 10
16.50066679090699
 20
-24.52246124860299
 30
0.0
 10
16.31278124873505
 20
-24.40650979285919
 30
0.0
 10
16.14568222377385
 20
-24.24109928744639
 30
0.0
 10
15.97691737714765
 20
-24.07403979333579
 30
0.0
 10
15.86445368278283
 20
-23.89007631053519
 30
0.0
 10
15.75703013950495
 20
-23.7143572994554
 30
0.0
 10
15.67308824526313
 20
-23.47995130750939
 30
0.0
 10
15.59195553174155
 20
-23.2533898942358
 30
0.0
 10
15.56356744804809
 20
-23.04123941669779
 30
0.0
 10
15.55026064364045
 20
-22.9417947010888
 30
0.0
 10
15.54271956959759
 20
-22.8137506746398
 30
0.0
 10
15.53860584646145
 20
-22.74390151640938
 30
0.0
 10
15.53282399578419
 20
-22.58526714473179
 30
0.0
  0
LINE
  5
1A3
330
43
100
AcDbEntity
  8
0
  6
Continuous
 62
    18
100
AcDbLine
 10
29.1434303020905
 20
-2.754053280624835
 30
0.0
 11
34.26437054233075
 21
-2.754053280624835
 31
0.0
  0
SPLINE
  5
1A4
330
43
100
AcDbEntity
  8
0
  6
Continuous
 62
    18
100
AcDbSpline
210
0.0
220
0.0
230
1.0
 70
     8
 71
     2
 72
    18
 73
    15
 74
     0
 42
0.000000001
 43
0.00001
 40
0.0
 40
0.0
 40
0.0
 40
0.125
 40
0.125
 40
0.25
 40
0.25
 40
0.5
 40
0.5
 40
0.625
 40
0.625
 40
0.75
 40
0.75
 40
0.875
 40
0.875
 40
1.0
 40
1.0
 40
1.0
 10
29.1434303020905
 20
-22.60004873604059
 30
0.0
 10
29.12942519987235
 20
-22.89428267629538
 30
0.0
 10
29.11303907443482
 20
-23.03834509295779
 30
0.0
 10
29.08697542920729
 20
-23.26748966607999
 30
0.0
 10
29.02585541743833
 20
-23.4681562725024
 30
0.0
 10
28.89510908632614
 20
-23.8974170302656
 30
0.0
 10
28.60055555179867
 20
-24.22720277574659
 30
0.0
 10
28.45406052723793
 20
-24.39122039978059
 30
0.0
 10
28.27150691959849
 20
-24.51664835797199
 30
0.0
 10
28.08986990205641
 20
-24.64144655033258
 30
0.0
 10
27.88492163655804
 20
-24.71862120030099
 30
0.0
 10
27.68223088749584
 20
-24.79494576724779
 30
0.0
 10
27.46073252839059
 20
-24.8248603257594
 30
0.0
 10
27.31685948079676
 20
-24.84429116361239
 30
0.0
 10
27.02106549816157
 20
-24.85682920233879
 30
0.0
  0
LINE
  5
1A5
330
43
100
AcDbEntity
  8
0
  6
Continuous
 62
    18
100
AcDbLine
 10
29.14343030209045
 20
-22.60004873604035
 30
0.0
 11
29.1434303020905
 21
-2.754053280624835
 31
0.0
  0
LINE
  5
1A6
330
43
100
AcDbEntity
  8
0
  6
Continuous
 62
    18
100
AcDbLine
 10
34.26437054233075
 20
-22.60312702871345
 30
0.0
 11
34.26437054233075
 21
-2.754053280624835
 31
0.0
  0
SPLINE
  5
1A7
330
43
100
AcDbEntity
  8
0
  6
Continuous
 62
    18
100
AcDbSpline
210
0.0
220
0.0
230
1.0
 70
     8
 71
     2
 72
    18
 73
    15
 74
     0
 42
0.000000001
 43
0.00001
 40
0.0
 40
0.0
 40
0.0
 40
0.0625
 40
0.0625
 40
0.125
 40
0.125
 40
0.25
 40
0.25
 40
0.5
 40
0.5
 40
0.75
 40
0.75
 40
0.875
 40
0.875
 40
1.0
 40
1.0
 40
1.0
 10
38.88383450629469
 20
-22.58443137693859
 30
0.0
 10
38.87760296726475
 20
-22.74100875767938
 30
0.0
 10
38.87322522645245
 20
-22.8108062304286
 30
0.0
 10
38.86534355047661
 20
-22.9364694635268
 30
0.0
 10
38.85141834172951
 20
-23.03611629238699
 30
0.0
 10
38.82157403973165
 20
-23.24967790626599
 30
0.0
 10
38.73793500429619
 20
-23.47313854655339
 30
0.0
 10
38.57381860768067
 20
-23.911612697749
 30
0.0
 10
38.25740492880987
 20
-24.2313093626696
 30
0.0
 10
37.93002641693285
 20
-24.5620846274662
 30
0.0
 10
37.50554904415289
 20
-24.71808601217498
 30
0.0
 10
37.29532738148425
 20
-24.79534542003799
 30
0.0
 10
37.06906981716843
 20
-24.82517814501879
 30
0.0
 10
36.92078653657154
 20
-24.84472973147159
 30
0.0
 10
36.6155004259066
 20
-24.85686811647998
 30
0.0
  0
SPLINE
  5
1A8
330
43
100
AcDbEntity
  8
0
  6
Continuous
 62
    18
100
AcDbSpline
210
0.0
220
0.0
230
1.0
 70
     8
 71
     2
 72
    20
 73
    17
 74
     0
 42
0.000000001
 43
0.00001
 40
0.0
 40
0.0
 40
0.0
 40
0.125
 40
0.125
 40
0.25
 40
0.25
 40
0.5
 40
0.5
 40
0.625
 40
0.625
 40
0.75
 40
0.75
 40
0.875
 40
0.875
 40
0.9375
 40
0.9375
 40
1.0
 40
1.0
 40
1.0
 10
36.6155004259066
 20
-24.85686811647998
 30
0.0
 10
36.30840673131879
 20
-24.84414146656699
 30
0.0
 10
36.15590494954807
 20
-24.826037643429
 30
0.0
 10
35.92032026142086
 20
-24.79807086508499
 30
0.0
 10
35.70707163044403
 20
-24.72813562966759
 30
0.0
 10
35.26616950017312
 20
-24.58354105883599
 30
0.0
 10
34.92075255530708
 20
-24.26555772633858
 30
0.0
 10
34.74346938900555
 20
-24.10235469633619
 30
0.0
 10
34.62227109583984
 20
-23.91937342322359
 30
0.0
 10
34.50691812453169
 20
-23.74521722847879
 30
0.0
 10
34.41617942970916
 20
-23.509121028552
 30
0.0
 10
34.32724939529717
 20
-23.27773084573019
 30
0.0
 10
34.29666246562143
 20
-23.06613448042699
 30
0.0
 10
34.28209444258545
 20
-22.96535480895459
 30
0.0
 10
34.27427997167951
 20
-22.83521655015179
 30
0.0
 10
34.27009303405954
 20
-22.76548940187299
 30
0.0
 10
34.26437054233073
 20
-22.60312702871359
 30
0.0
  0
CIRCLE
  5
1A9
330
43
100
AcDbEntity
  8
0
  6
Continuous
 62
    18
100
AcDbCircle
 10
27.01363316736905
 20
-11.3472563896829
 30
0.0
 40
19.2257748602378
  0
LINE
  5
1AA
330
43
100
AcDbEntity
  8
0
  6
Continuous
 62
    18
100
AcDbLine
 10
20.15228795974815
 20
-2.754053280624835
 30
0.0
 11
24.89859726905745
 21
-2.754053280624835
 31
0.0
  0
CIRCLE
  5
1AB
330
43
100
AcDbEntity
  8
0
  6
Continuous
 62
    18
100
AcDbCircle
 10
27.01363316736905
 20
-11.3472563896829
 30
0.0
 40
22.2257748602378
  0
SPLINE
  5
1AC
330
43
100
AcDbEntity
  8
0
  6
Continuous
 62
    18
100
AcDbSpline
210
0.0
220
0.0
230
1.0
 70
     8
 71
     2
 72
    20
 73
    17
 74
     0
 42
0.000000001
 43
0.00001
 40
0.0
 40
0.0
 40
0.0
 40
0.125
 40
0.125
 40
0.25
 40
0.25
 40
0.375
 40
0.375
 40
0.5
 40
0.5
 40
0.625
 40
0.625
 40
0.75
 40
0.75
 40
0.875
 40
0.875
 40
1.0
 40
1.0
 40
1.0
 10
27.02106549816158
 20
-24.85682920233879
 30
0.0
 10
26.72649050391754
 20
-24.84428177841079
 30
0.0
 10
26.58188219409787
 20
-24.8249137912982
 30
0.0
 10
26.35935487762891
 20
-24.79510979038739
 30
0.0
 10
26.15679665515809
 20
-24.71857575157199
 30
0.0
 10
25.94976699938398
 20
-24.6403522387582
 30
0.0
 10
25.76797732575841
 20
-24.51768752145278
 30
0.0
 10
25.58144354962738
 20
-24.3918216652648
 30
0.0
 10
25.43713123721168
 20
-24.2286055231806
 30
0.0
 10
25.30205182159233
 20
-24.07583171806758
 30
0.0
 10
25.18792791300756
 20
-23.87009284371659
 30
0.0
 10
25.07861161151555
 20
-23.67302096722679
 30
0.0
 10
25.01574599783018
 20
-23.46721853031358
 30
0.0
 10
24.95868758200609
 20
-23.280427050288
 30
0.0
 10
24.93057425045932
 20
-23.0391586938864
 30
0.0
 10
24.91197631985879
 20
-22.87955142211959
 30
0.0
 10
24.89859726905746
 20
-22.59999333696838
 30
0.0
  0
LINE
  5
1AD
330
43
100
AcDbEntity
  8
0
  6
Continuous
 62
    18
100
AcDbLine
 10
24.89859726905745
 20
-2.754053280624835
 30
0.0
 11
24.89859726905745
 21
-22.59999333696825
 31
0.0
  0
ENDBLK
  5
1B0
330
43
100
AcDbEntity
  8
0
100
AcDbBlockEnd
  0
ENDSEC
  0
SECTION
  2
ENTITIES
  0
LINE
  5
1E4
330
1F
100
AcDbEntity
  8
0
  6
Continuous
 62
    18
100
AcDbLine
 10
56.74290710345309
 20
23.34730136086125
 30
0.0
 11
56.74290710345309
 21
32.56000627889405
 31
0.0
  0
LINE
  5
1E5
330
1F
100
AcDbEntity
  8
0
  6
Continuous
 62
    18
100
AcDbLine
 10
56.74290710345309
 20
32.56000627889405
 30
0.0
 11
51.2152841526335
 21
32.56000627889405
 31
0.0
  0
LINE
  5
1E6
330
1F
100
AcDbEntity
  8
0
  6
Continuous
 62
    18
100
AcDbLine
 10
51.2152841526335
 20
32.56000627889405
 30
0.0
 11
49.372743169027
 21
30.7174652952875
 31
0.0
  0
LINE
  5
1E7
330
1F
100
AcDbEntity
  8
0
  6
Continuous
 62
    18
100
AcDbLine
 10
54.90036611984659
 20
23.3473013608613
 30
0.0
 11
56.74290710345309
 21
23.34730136086125
 31
0.0
  0
LINE
  5
1E8
330
1F
100
AcDbEntity
  8
0
  6
Continuous
 62
    18
100
AcDbLine
 10
16.20700546410895
 20
28.874924311681
 30
0.0
 11
19.89208743132205
 21
28.87492431168095
 31
0.0
  0
LINE
  5
1E9
330
1F
100
AcDbEntity
  8
0
  6
Continuous
 62
    18
100
AcDbLine
 10
54.90036611984659
 20
25.1881274548546
 30
0.0
 11
54.90036611984659
 21
23.3473013608613
 31
0.0
  0
LINE
  5
1EA
330
1F
100
AcDbEntity
  8
0
  6
Continuous
 62
    18
100
AcDbLine
 10
49.372743169027
 20
30.7174652952875
 30
0.0
 11
49.372743169027
 21
23.3473013608613
 31
0.0
  0
LINE
  5
1EB
330
1F
100
AcDbEntity
  8
0
  6
Continuous
 62
    18
100
AcDbLine
 10
51.2152841526335
 20
30.7174652952875
 30
0.0
 11
51.2152841526335
 21
25.18984234446785
 31
0.0
  0
LINE
  5
1EC
330
1F
100
AcDbEntity
  8
0
  6
Continuous
 62
    18
100
AcDbLine
 10
54.90036611984659
 20
30.7174652952875
 30
0.0
 11
51.2152841526335
 21
30.7174652952875
 31
0.0
  0
LINE
  5
1ED
330
1F
100
AcDbEntity
  8
0
  6
Continuous
 62
    18
100
AcDbLine
 10
49.372743169027
 20
23.3473013608613
 30
0.0
 11
53.05782513623999
 21
23.3473013608613
 31
0.0
  0
LINE
  5
1EE
330
1F
100
AcDbEntity
  8
0
  6
Continuous
 62
    18
100
AcDbLine
 10
53.05782513623999
 20
23.3473013608613
 30
0.0
 11
54.90036611984659
 21
25.1881274548546
 31
0.0
  0
LINE
  5
1EF
330
1F
100
AcDbEntity
  8
0
  6
Continuous
 62
    18
100
AcDbLine
 10
51.2152841526335
 20
25.18984234446785
 30
0.0
 11
54.90036611984659
 21
25.1881274548546
 31
0.0
  0
LINE
  5
1F0
330
1F
100
AcDbEntity
  8
0
  6
Continuous
 62
    18
100
AcDbLine
 10
38.31749726738765
 20
36.24508824610715
 30
0.0
 11
36.47495628378095
 21
36.24508824610715
 31
0.0
  0
LINE
  5
1F1
330
1F
100
AcDbEntity
  8
0
  6
Continuous
 62
    18
100
AcDbLine
 10
36.47495628378095
 20
34.40254726250065
 30
0.0
 11
38.31749726738765
 21
36.24508824610715
 31
0.0
  0
LINE
  5
1F2
330
1F
100
AcDbEntity
  8
0
  6
Continuous
 62
    18
100
AcDbLine
 10
36.47495628378095
 20
36.24508824610715
 30
0.0
 11
36.47495628378095
 21
34.40254726250065
 31
0.0
  0
LINE
  5
1F3
330
1F
100
AcDbEntity
  8
0
  6
Continuous
 62
    18
100
AcDbLine
 10
21.73462841492855
 20
25.1898423444679
 30
0.0
 11
16.20700546410895
 21
25.1898423444678
 31
0.0
  0
LINE
  5
1F4
330
1F
100
AcDbEntity
  8
0
  6
Continuous
 62
    18
100
AcDbLine
 10
21.73462841492855
 20
23.34730136086125
 30
0.0
 11
21.73462841492855
 21
25.1898423444679
 31
0.0
  0
LINE
  5
1F5
330
1F
100
AcDbEntity
  8
0
  6
Continuous
 62
    18
100
AcDbLine
 10
16.20700546410895
 20
27.03238332807445
 30
0.0
 11
21.73462841492855
 21
27.03238332807445
 31
0.0
  0
LINE
  5
1F6
330
1F
100
AcDbEntity
  8
0
  6
Continuous
 62
    18
100
AcDbLine
 10
16.20700546410895
 20
25.1898423444678
 30
0.0
 11
16.20700546410895
 21
27.03238332807445
 31
0.0
  0
LINE
  5
1F7
330
1F
100
AcDbEntity
  8
0
  6
Continuous
 62
    18
100
AcDbLine
 10
84.37869442037059
 20
33.68570485735525
 30
0.0
 11
84.5061344203706
 21
33.68570485735525
 31
0.0
  0
LINE
  5
1F8
330
1F
100
AcDbEntity
  8
0
  6
Continuous
 62
    18
100
AcDbLine
 10
84.5061344203706
 20
33.68570485735525
 30
0.0
 11
84.5061344203706
 21
36.07363797210935
 31
0.0
  0
LINE
  5
1F9
330
1F
100
AcDbEntity
  8
0
  6
Continuous
 62
    18
100
AcDbLine
 10
84.5061344203706
 20
36.07363797210935
 30
0.0
 11
85.1031176990591
 21
36.07363797210935
 31
0.0
  0
LINE
  5
1FA
330
1F
100
AcDbEntity
  8
0
  6
Continuous
 62
    18
100
AcDbLine
 10
14.36446448050238
 20
23.34730136086125
 30
0.0
 11
21.73462841492855
 21
23.34730136086125
 31
0.0
  0
LINE
  5
1FB
330
1F
100
AcDbEntity
  8
0
  6
Continuous
 62
    18
100
AcDbLine
 10
14.36446448050238
 20
32.56000627889405
 30
0.0
 11
14.36446448050238
 21
23.34730136086125
 31
0.0
  0
LINE
  5
1FC
330
1F
100
AcDbEntity
  8
0
  6
Continuous
 62
    18
100
AcDbLine
 10
19.89208743132205
 20
28.87492431168095
 30
0.0
 11
19.89208743132205
 21
30.7174652952875
 31
0.0
  0
LINE
  5
1FD
330
1F
100
AcDbEntity
  8
0
  6
Continuous
 62
    18
100
AcDbLine
 10
54.90036611984659
 20
25.1881274548546
 30
0.0
 11
54.90036611984659
 21
30.7174652952875
 31
0.0
  0
LINE
  5
1FE
330
1F
100
AcDbEntity
  8
0
  6
Continuous
 62
    18
100
AcDbLine
 10
16.20700546410895
 20
30.7174652952875
 30
0.0
 11
16.20700546410895
 21
28.874924311681
 31
0.0
  0
LINE
  5
1FF
330
1F
100
AcDbEntity
  8
0
  6
Continuous
 62
    18
100
AcDbLine
 10
19.89208743132205
 20
30.7174652952875
 30
0.0
 11
16.20700546410895
 21
30.7174652952875
 31
0.0
  0
LINE
  5
200
330
1F
100
AcDbEntity
  8
0
  6
Continuous
 62
    18
100
AcDbLine
 10
-21.56508469982555
 20
36.2450882461072
 30
0.0
 11
-18.80127322441565
 21
36.2450882461072
 31
0.0
  0
LINE
  5
201
330
1F
100
AcDbEntity
  8
0
  6
Continuous
 62
    18
100
AcDbLine
 10
-18.80127322441565
 20
36.2450882461072
 30
0.0
 11
-18.80127322441565
 21
38.08762922971376
 31
0.0
  0
LINE
  5
202
330
1F
100
AcDbEntity
  8
0
  6
Continuous
 62
    18
100
AcDbLine
 10
-21.56508469982555
 20
23.34730136086135
 30
0.0
 11
-21.56508469982555
 21
36.2450882461072
 31
0.0
  0
LINE
  5
203
330
1F
100
AcDbEntity
  8
0
  6
Continuous
 62
    18
100
AcDbLine
 10
-26.17143715884185
 20
36.24508824610715
 30
0.0
 11
-23.4076256834321
 21
36.2450882461072
 31
0.0
  0
LINE
  5
204
330
1F
100
AcDbEntity
  8
0
  6
Continuous
 62
    18
100
AcDbLine
 10
-23.4076256834321
 20
36.2450882461072
 30
0.0
 11
-23.4076256834321
 21
23.34730136086125
 31
0.0
  0
LINE
  5
205
330
1F
100
AcDbEntity
  8
0
  6
Continuous
 62
    18
100
AcDbLine
 10
-23.4076256834321
 20
23.34730136086125
 30
0.0
 11
-21.56508469982555
 21
23.34730136086135
 31
0.0
  0
LINE
  5
206
330
1F
100
AcDbEntity
  8
0
  6
Continuous
 62
    18
100
AcDbLine
 10
75.1683169395188
 20
23.34730136086125
 30
0.0
 11
77.01085792312529
 21
23.34730136086125
 31
0.0
  0
LINE
  5
207
330
1F
100
AcDbEntity
  8
0
  6
Continuous
 62
    18
100
AcDbLine
 10
77.01085792312529
 20
23.34730136086125
 30
0.0
 11
77.01085792312529
 21
30.71746529528755
 31
0.0
  0
LINE
  5
208
330
1F
100
AcDbEntity
  8
0
  6
Continuous
 62
    18
100
AcDbLine
 10
77.01085792312529
 20
30.71746529528755
 30
0.0
 11
82.53848087394499
 21
30.7174652952875
 31
0.0
  0
LINE
  5
209
330
1F
100
AcDbEntity
  8
0
  6
Continuous
 62
    18
100
AcDbLine
 10
75.1683169395188
 20
32.56000627889405
 30
0.0
 11
75.1683169395188
 21
23.34730136086125
 31
0.0
  0
LINE
  5
20A
330
1F
100
AcDbEntity
  8
0
  6
Continuous
 62
    18
100
AcDbLine
 10
77.01085792312529
 20
30.71746529528755
 30
0.0
 11
77.01085792312529
 21
32.560006278894
 31
0.0
  0
LINE
  5
20B
330
1F
100
AcDbEntity
  8
0
  6
Continuous
 62
    18
100
AcDbLine
 10
77.01085792312529
 20
32.560006278894
 30
0.0
 11
75.1683169395188
 21
32.56000627889405
 31
0.0
  0
LINE
  5
20C
330
1F
100
AcDbEntity
  8
0
  6
Continuous
 62
    18
100
AcDbLine
 10
82.53848087394499
 20
30.7174652952875
 30
0.0
 11
82.53848087394499
 21
32.560006278894
 31
0.0
  0
LINE
  5
20D
330
1F
100
AcDbEntity
  8
0
  6
Continuous
 62
    18
100
AcDbLine
 10
82.53848087394499
 20
32.560006278894
 30
0.0
 11
78.8533989067319
 21
32.56000627889405
 31
0.0
  0
LINE
  5
20E
330
1F
100
AcDbEntity
  8
0
  6
Continuous
 62
    18
100
AcDbLine
 10
78.85339890673188
 20
32.56000627889405
 30
0.0
 11
77.01085792312527
 21
30.71746529528755
 31
0.0
  0
LINE
  5
20F
330
1F
100
AcDbEntity
  8
0
  6
Continuous
 62
    18
100
AcDbLine
 10
12.52192349689584
 20
36.2450882461072
 30
0.0
 11
10.67938251328928
 21
38.08762922971376
 31
0.0
  0
LINE
  5
210
330
1F
100
AcDbEntity
  8
0
  6
Continuous
 62
    18
100
AcDbLine
 10
10.67938251328928
 20
32.56000627889405
 30
0.0
 11
10.67938251328928
 21
36.2450882461072
 31
0.0
  0
LINE
  5
211
330
1F
100
AcDbEntity
  8
0
  6
Continuous
 62
    18
100
AcDbLine
 10
12.52192349689584
 20
32.56000627889405
 30
0.0
 11
12.52192349689584
 21
36.2450882461072
 31
0.0
  0
LINE
  5
212
330
1F
100
AcDbEntity
  8
0
  6
Continuous
 62
    18
100
AcDbLine
 10
12.52192349689584
 20
23.3473013608613
 30
0.0
 11
12.52192349689584
 21
30.7174652952875
 31
0.0
  0
LINE
  5
213
330
1F
100
AcDbEntity
  8
0
  6
Continuous
 62
    18
100
AcDbLine
 10
12.52192349689584
 20
30.7174652952875
 30
0.0
 11
11.60065300509248
 21
31.63873578709075
 31
0.0
  0
LINE
  5
214
330
1F
100
AcDbEntity
  8
0
  6
Continuous
 62
    18
100
AcDbLine
 10
11.60065300509248
 20
31.63873578709075
 30
0.0
 11
12.52192349689584
 21
32.56000627889405
 31
0.0
  0
LINE
  5
215
330
1F
100
AcDbEntity
  8
0
  6
Continuous
 62
    18
100
AcDbLine
 10
6.99430054607619
 20
32.56000627889405
 30
0.0
 11
10.67938251328928
 21
32.56000627889405
 31
0.0
  0
LINE
  5
216
330
1F
100
AcDbEntity
  8
0
  6
Continuous
 62
    18
100
AcDbLine
 10
10.67938251328928
 20
36.2450882461072
 30
0.0
 11
6.99430054607619
 21
36.2450882461072
 31
0.0
  0
LINE
  5
217
330
1F
100
AcDbEntity
  8
0
  6
Continuous
 62
    18
100
AcDbLine
 10
6.99430054607619
 20
36.2450882461072
 30
0.0
 11
6.99430054607619
 21
32.56000627889405
 31
0.0
  0
LINE
  5
218
330
1F
100
AcDbEntity
  8
0
  6
Continuous
 62
    18
100
AcDbLine
 10
-26.17143715884185
 20
38.0876292297137
 30
0.0
 11
-26.17143715884185
 21
36.24508824610715
 31
0.0
  0
LINE
  5
219
330
1F
100
AcDbEntity
  8
0
  6
Continuous
 62
    18
100
AcDbLine
 10
-18.80127322441565
 20
38.08762922971376
 30
0.0
 11
-26.17143715884185
 21
38.0876292297137
 31
0.0
  0
LINE
  5
21A
330
1F
100
AcDbEntity
  8
0
  6
Continuous
 62
    18
100
AcDbLine
 10
6.99430054607619
 20
30.7174652952875
 30
0.0
 11
10.67938251328928
 21
30.7174652952875
 31
0.0
  0
LINE
  5
21B
330
1F
100
AcDbEntity
  8
0
  6
Continuous
 62
    18
100
AcDbLine
 10
10.67938251328928
 20
30.7174652952875
 30
0.0
 11
10.67938251328928
 21
23.3473013608613
 31
0.0
  0
LINE
  5
21C
330
1F
100
AcDbEntity
  8
0
  6
Continuous
 62
    18
100
AcDbLine
 10
10.67938251328928
 20
23.3473013608613
 30
0.0
 11
12.52192349689584
 21
23.3473013608613
 31
0.0
  0
LINE
  5
21D
330
1F
100
AcDbEntity
  8
0
  6
Continuous
 62
    18
100
AcDbLine
 10
6.99430054607619
 20
23.3473013608613
 30
0.0
 11
6.99430054607619
 21
30.7174652952875
 31
0.0
  0
LINE
  5
21E
330
1F
100
AcDbEntity
  8
0
  6
Continuous
 62
    18
100
AcDbLine
 10
10.67938251328928
 20
38.08762922971376
 30
0.0
 11
5.15175956246948
 21
38.08762922971376
 31
0.0
  0
LINE
  5
21F
330
1F
100
AcDbEntity
  8
0
  6
Continuous
 62
    18
100
AcDbLine
 10
5.15175956246948
 20
38.08762922971376
 30
0.0
 11
5.15175956246948
 21
23.3473013608613
 31
0.0
  0
LINE
  5
220
330
1F
100
AcDbEntity
  8
0
  6
Continuous
 62
    18
100
AcDbLine
 10
5.15175956246948
 20
23.3473013608613
 30
0.0
 11
6.99430054607619
 21
23.3473013608613
 31
0.0
  0
LINE
  5
221
330
1F
100
AcDbEntity
  8
0
  6
Continuous
 62
    18
100
AcDbLine
 10
85.1031176990591
 20
36.07363797210935
 30
0.0
 11
85.1031176990591
 21
33.68570485735525
 31
0.0
  0
LINE
  5
222
330
1F
100
AcDbEntity
  8
0
  6
Continuous
 62
    18
100
AcDbLine
 10
58.5854480870597
 20
30.7174652952875
 30
0.0
 11
60.4279890706663
 21
30.7174652952875
 31
0.0
  0
LINE
  5
223
330
1F
100
AcDbEntity
  8
0
  6
Continuous
 62
    18
100
AcDbLine
 10
47.5302021854204
 20
25.18984234446785
 30
0.0
 11
42.00257923460075
 21
25.18984234446785
 31
0.0
  0
LINE
  5
224
330
1F
100
AcDbEntity
  8
0
  6
Continuous
 62
    18
100
AcDbLine
 10
42.00257923460075
 20
25.18984234446785
 30
0.0
 11
42.00257923460075
 21
30.7174652952875
 31
0.0
  0
LINE
  5
225
330
1F
100
AcDbEntity
  8
0
  6
Continuous
 62
    18
100
AcDbLine
 10
42.00257923460075
 20
30.7174652952875
 30
0.0
 11
45.6876612018139
 21
30.7174652952875
 31
0.0
  0
LINE
  5
226
330
1F
100
AcDbEntity
  8
0
  6
Continuous
 62
    18
100
AcDbLine
 10
47.5302021854204
 20
23.3473013608613
 30
0.0
 11
47.5302021854204
 21
25.18984234446785
 31
0.0
  0
LINE
  5
227
330
1F
100
AcDbEntity
  8
0
  6
Continuous
 62
    18
100
AcDbLine
 10
40.1600382509942
 20
30.7174652952875
 30
0.0
 11
40.1600382509942
 21
23.3473013608613
 31
0.0
  0
LINE
  5
228
330
1F
100
AcDbEntity
  8
0
  6
Continuous
 62
    18
100
AcDbLine
 10
40.1600382509942
 20
23.3473013608613
 30
0.0
 11
47.5302021854204
 21
23.3473013608613
 31
0.0
  0
LINE
  5
229
330
1F
100
AcDbEntity
  8
0
  6
Continuous
 62
    18
100
AcDbLine
 10
67.7981530050926
 20
25.1898423444679
 30
0.0
 11
71.4832349723057
 21
25.18984234446785
 31
0.0
  0
LINE
  5
22A
330
1F
100
AcDbEntity
  8
0
  6
Continuous
 62
    18
100
AcDbLine
 10
73.3257759559123
 20
23.34730136086125
 30
0.0
 11
73.3257759559123
 21
32.56000627889405
 31
0.0
  0
LINE
  5
22B
330
1F
100
AcDbEntity
  8
0
  6
Continuous
 62
    18
100
AcDbLine
 10
36.47495628378095
 20
23.3473013608613
 30
0.0
 11
38.31749726738765
 21
23.3473013608613
 31
0.0
  0
LINE
  5
22C
330
1F
100
AcDbEntity
  8
0
  6
Continuous
 62
    18
100
AcDbLine
 10
38.31749726738765
 20
23.3473013608613
 30
0.0
 11
38.31749726738765
 21
32.56000627889405
 31
0.0
  0
LINE
  5
22D
330
1F
100
AcDbEntity
  8
0
  6
Continuous
 62
    18
100
AcDbLine
 10
38.31749726738765
 20
32.56000627889405
 30
0.0
 11
36.47495628378095
 21
32.56000627889405
 31
0.0
  0
LINE
  5
22E
330
1F
100
AcDbEntity
  8
0
  6
Continuous
 62
    18
100
AcDbLine
 10
36.47495628378095
 20
32.56000627889405
 30
0.0
 11
36.47495628378095
 21
23.3473013608613
 31
0.0
  0
LINE
  5
22F
330
1F
100
AcDbEntity
  8
0
  6
Continuous
 62
    18
100
AcDbLine
 10
73.3257759559123
 20
32.56000627889405
 30
0.0
 11
65.95561202148589
 21
32.56000627889405
 31
0.0
  0
LINE
  5
230
330
1F
100
AcDbEntity
  8
0
  6
Continuous
 62
    18
100
AcDbLine
 10
65.95561202148589
 20
23.3473013608613
 30
0.0
 11
73.3257759559123
 21
23.34730136086125
 31
0.0
  0
LINE
  5
231
330
1F
100
AcDbEntity
  8
0
  6
Continuous
 62
    18
100
AcDbLine
 10
65.95561202148589
 20
32.56000627889405
 30
0.0
 11
65.95561202148589
 21
23.3473013608613
 31
0.0
  0
LINE
  5
232
330
1F
100
AcDbEntity
  8
0
  6
Continuous
 62
    18
100
AcDbLine
 10
62.2705300542728
 20
25.18984234446785
 30
0.0
 11
62.2705300542728
 21
30.7174652952875
 31
0.0
  0
LINE
  5
233
330
1F
100
AcDbEntity
  8
0
  6
Continuous
 62
    18
100
AcDbLine
 10
64.1130710378793
 20
25.18984234446785
 30
0.0
 11
62.2705300542728
 21
25.18984234446785
 31
0.0
  0
LINE
  5
234
330
1F
100
AcDbEntity
  8
0
  6
Continuous
 62
    18
100
AcDbLine
 10
64.1130710378793
 20
30.7174652952875
 30
0.0
 11
64.1130710378793
 21
32.56000627889405
 31
0.0
  0
LINE
  5
235
330
1F
100
AcDbEntity
  8
0
  6
Continuous
 62
    18
100
AcDbLine
 10
62.2705300542728
 20
30.7174652952875
 30
0.0
 11
64.1130710378793
 21
30.7174652952875
 31
0.0
  0
LINE
  5
236
330
1F
100
AcDbEntity
  8
0
  6
Continuous
 62
    18
100
AcDbLine
 10
60.4279890706663
 20
30.7174652952875
 30
0.0
 11
60.4279890706663
 21
23.3473013608614
 31
0.0
  0
LINE
  5
237
330
1F
100
AcDbEntity
  8
0
  6
Continuous
 62
    18
100
AcDbLine
 10
64.1130710378793
 20
23.34730136086125
 30
0.0
 11
64.1130710378793
 21
25.18984234446785
 31
0.0
  0
LINE
  5
238
330
1F
100
AcDbEntity
  8
0
  6
Continuous
 62
    18
100
AcDbLine
 10
60.4279890706663
 20
23.3473013608614
 30
0.0
 11
64.1130710378793
 21
23.34730136086125
 31
0.0
  0
LINE
  5
239
330
1F
100
AcDbEntity
  8
0
  6
Continuous
 62
    18
100
AcDbLine
 10
58.5854480870597
 20
32.56000627889405
 30
0.0
 11
58.5854480870597
 21
30.7174652952875
 31
0.0
  0
LINE
  5
23A
330
1F
100
AcDbEntity
  8
0
  6
Continuous
 62
    18
100
AcDbLine
 10
60.4279890706663
 20
32.56000627889405
 30
0.0
 11
58.5854480870597
 21
32.56000627889405
 31
0.0
  0
LINE
  5
23B
330
1F
100
AcDbEntity
  8
0
  6
Continuous
 62
    18
100
AcDbLine
 10
45.6876612018139
 20
30.7174652952875
 30
0.0
 11
47.5302021854204
 21
28.87492431168095
 31
0.0
  0
LINE
  5
23C
330
1F
100
AcDbEntity
  8
0
  6
Continuous
 62
    18
100
AcDbLine
 10
47.5302021854204
 20
28.87492431168095
 30
0.0
 11
47.5302021854204
 21
32.56000627889405
 31
0.0
  0
LINE
  5
23D
330
1F
100
AcDbEntity
  8
0
  6
Continuous
 62
    18
100
AcDbLine
 10
64.1130710378793
 20
32.56000627889405
 30
0.0
 11
62.2705300542728
 21
32.56000627889405
 31
0.0
  0
LINE
  5
23E
330
1F
100
AcDbEntity
  8
0
  6
Continuous
 62
    18
100
AcDbLine
 10
60.4279890706663
 20
38.08762922971376
 30
0.0
 11
60.4279890706663
 21
32.56000627889405
 31
0.0
  0
LINE
  5
23F
330
1F
100
AcDbEntity
  8
0
  6
Continuous
 62
    18
100
AcDbLine
 10
62.2705300542728
 20
38.08762922971376
 30
0.0
 11
60.4279890706663
 21
38.08762922971376
 31
0.0
  0
LINE
  5
240
330
1F
100
AcDbEntity
  8
0
  6
Continuous
 62
    18
100
AcDbLine
 10
23.5771693985351
 20
32.56000627889405
 30
0.0
 11
23.5771693985351
 21
15.9771374264351
 31
0.0
  0
LINE
  5
241
330
1F
100
AcDbEntity
  8
0
  6
Continuous
 62
    18
100
AcDbLine
 10
23.5771693985351
 20
15.9771374264351
 30
0.0
 11
25.41971038214165
 21
15.9771374264351
 31
0.0
  0
LINE
  5
242
330
1F
100
AcDbEntity
  8
0
  6
Continuous
 62
    18
100
AcDbLine
 10
25.41971038214165
 20
15.9771374264351
 30
0.0
 11
25.41971038214165
 21
23.3473013608613
 31
0.0
  0
LINE
  5
243
330
1F
100
AcDbEntity
  8
0
  6
Continuous
 62
    18
100
AcDbLine
 10
29.10479234935475
 20
32.56000627889405
 30
0.0
 11
23.5771693985351
 21
32.56000627889405
 31
0.0
  0
LINE
  5
244
330
1F
100
AcDbEntity
  8
0
  6
Continuous
 62
    18
100
AcDbLine
 10
85.70010097774761
 20
33.68570485735525
 30
0.0
 11
85.8275409777476
 21
33.68570485735525
 31
0.0
  0
LINE
  5
245
330
1F
100
AcDbEntity
  8
0
  6
Continuous
 62
    18
100
AcDbLine
 10
85.8275409777476
 20
33.68570485735525
 30
0.0
 11
85.8275409777476
 21
36.2010779721094
 31
0.0
  0
LINE
  5
246
330
1F
100
AcDbEntity
  8
0
  6
Continuous
 62
    18
100
AcDbLine
 10
85.8275409777476
 20
36.2010779721094
 30
0.0
 11
84.37869442037059
 21
36.2010779721094
 31
0.0
  0
LINE
  5
247
330
1F
100
AcDbEntity
  8
0
  6
Continuous
 62
    18
100
AcDbLine
 10
85.70010097774761
 20
36.07363797210935
 30
0.0
 11
85.70010097774761
 21
33.68570485735525
 31
0.0
  0
LINE
  5
248
330
1F
100
AcDbEntity
  8
0
  6
Continuous
 62
    18
100
AcDbLine
 10
85.1031176990591
 20
33.68570485735525
 30
0.0
 11
85.2305576990591
 21
33.68570485735525
 31
0.0
  0
LINE
  5
249
330
1F
100
AcDbEntity
  8
0
  6
Continuous
 62
    18
100
AcDbLine
 10
85.2305576990591
 20
33.68570485735525
 30
0.0
 11
85.2305576990591
 21
36.07363797210935
 31
0.0
  0
LINE
  5
24A
330
1F
100
AcDbEntity
  8
0
  6
Continuous
 62
    18
100
AcDbLine
 10
85.2305576990591
 20
36.07363797210935
 30
0.0
 11
85.70010097774761
 21
36.07363797210935
 31
0.0
  0
LINE
  5
24B
330
1F
100
AcDbEntity
  8
0
  6
Continuous
 62
    18
100
AcDbLine
 10
84.37869442037059
 20
36.2010779721094
 30
0.0
 11
84.37869442037059
 21
33.68570485735525
 31
0.0
  0
LINE
  5
24C
330
1F
100
AcDbEntity
  8
0
  6
Continuous
 62
    18
100
AcDbLine
 10
21.73462841492855
 20
27.03238332807445
 30
0.0
 11
21.73462841492855
 21
30.71746529528755
 31
0.0
  0
LINE
  5
24D
330
1F
100
AcDbEntity
  8
0
  6
Continuous
 62
    18
100
AcDbLine
 10
19.89208743132205
 20
32.56000627889405
 30
0.0
 11
14.36446448050238
 21
32.56000627889405
 31
0.0
  0
LINE
  5
24E
330
1F
100
AcDbEntity
  8
0
  6
Continuous
 62
    18
100
AcDbLine
 10
21.73462841492855
 20
30.71746529528755
 30
0.0
 11
19.89208743132205
 21
32.56000627889405
 31
0.0
  0
LINE
  5
24F
330
1F
100
AcDbEntity
  8
0
  6
Continuous
 62
    18
100
AcDbLine
 10
32.78987431656785
 20
23.3473013608613
 30
0.0
 11
34.6324153001744
 21
23.3473013608613
 31
0.0
  0
LINE
  5
250
330
1F
100
AcDbEntity
  8
0
  6
Continuous
 62
    18
100
AcDbLine
 10
34.6324153001744
 20
23.3473013608613
 30
0.0
 11
34.6324153001744
 21
38.08762922971376
 31
0.0
  0
LINE
  5
251
330
1F
100
AcDbEntity
  8
0
  6
Continuous
 62
    18
100
AcDbLine
 10
34.6324153001744
 20
38.08762922971376
 30
0.0
 11
32.78987431656785
 21
38.08762922971376
 31
0.0
  0
LINE
  5
252
330
1F
100
AcDbEntity
  8
0
  6
Continuous
 62
    18
100
AcDbLine
 10
71.4832349723057
 20
25.18984234446785
 30
0.0
 11
71.4832349723057
 21
30.7174652952875
 31
0.0
  0
LINE
  5
253
330
1F
100
AcDbEntity
  8
0
  6
Continuous
 62
    18
100
AcDbLine
 10
32.78987431656785
 20
38.08762922971376
 30
0.0
 11
32.78987431656785
 21
23.3473013608613
 31
0.0
  0
LINE
  5
254
330
1F
100
AcDbEntity
  8
0
  6
Continuous
 62
    18
100
AcDbLine
 10
67.7981530050926
 20
30.7174652952875
 30
0.0
 11
67.7981530050926
 21
25.1898423444679
 31
0.0
  0
LINE
  5
255
330
1F
100
AcDbEntity
  8
0
  6
Continuous
 62
    18
100
AcDbLine
 10
71.4832349723057
 20
30.7174652952875
 30
0.0
 11
67.7981530050926
 21
30.7174652952875
 31
0.0
  0
LINE
  5
256
330
1F
100
AcDbEntity
  8
0
  6
Continuous
 62
    18
100
AcDbLine
 10
29.10479234935475
 20
25.18984234446785
 30
0.0
 11
29.10479234935475
 21
30.7174652952875
 31
0.0
  0
LINE
  5
257
330
1F
100
AcDbEntity
  8
0
  6
Continuous
 62
    18
100
AcDbLine
 10
29.10479234935475
 20
30.7174652952875
 30
0.0
 11
25.41971038214165
 21
30.7174652952875
 31
0.0
  0
LINE
  5
258
330
1F
100
AcDbEntity
  8
0
  6
Continuous
 62
    18
100
AcDbLine
 10
25.41971038214165
 20
23.3473013608613
 30
0.0
 11
30.9473333329613
 21
23.3473013608613
 31
0.0
  0
LINE
  5
259
330
1F
100
AcDbEntity
  8
0
  6
Continuous
 62
    18
100
AcDbLine
 10
30.9473333329613
 20
23.3473013608613
 30
0.0
 11
30.9473333329613
 21
30.7174652952875
 31
0.0
  0
LINE
  5
25A
330
1F
100
AcDbEntity
  8
0
  6
Continuous
 62
    18
100
AcDbLine
 10
30.9473333329613
 20
30.7174652952875
 30
0.0
 11
29.10479234935475
 21
32.56000627889405
 31
0.0
  0
LINE
  5
25B
330
1F
100
AcDbEntity
  8
0
  6
Continuous
 62
    18
100
AcDbLine
 10
25.41971038214165
 20
25.18984234446785
 30
0.0
 11
29.10479234935475
 21
25.18984234446785
 31
0.0
  0
LINE
  5
25C
330
1F
100
AcDbEntity
  8
0
  6
Continuous
 62
    18
100
AcDbLine
 10
25.41971038214165
 20
30.7174652952875
 30
0.0
 11
25.41971038214165
 21
25.18984234446785
 31
0.0
  0
LINE
  5
25D
330
1F
100
AcDbEntity
  8
0
  6
Continuous
 62
    18
100
AcDbLine
 10
42.00257923460075
 20
32.56000627889405
 30
0.0
 11
40.1600382509942
 21
30.7174652952875
 31
0.0
  0
LINE
  5
25E
330
1F
100
AcDbEntity
  8
0
  6
Continuous
 62
    18
100
AcDbLine
 10
47.5302021854204
 20
32.56000627889405
 30
0.0
 11
42.00257923460075
 21
32.56000627889405
 31
0.0
  0
LINE
  5
25F
330
1F
100
AcDbEntity
  8
0
  6
Continuous
 62
    18
100
AcDbLine
 10
62.2705300542728
 20
32.56000627889405
 30
0.0
 11
62.2705300542728
 21
38.08762922971376
 31
0.0
  0
LINE
  5
260
330
1F
100
AcDbEntity
  8
0
  6
Continuous
 62
    18
100
AcDbLine
 10
-11.43110928998944
 20
23.34730136086135
 30
0.0
 11
-9.588568306382898
 21
23.34730136086135
 31
0.0
  0
LINE
  5
261
330
1F
100
AcDbEntity
  8
0
  6
Continuous
 62
    18
100
AcDbLine
 10
-11.43110928998944
 20
30.7174652952875
 30
0.0
 11
-11.43110928998944
 21
23.34730136086135
 31
0.0
  0
LINE
  5
262
330
1F
100
AcDbEntity
  8
0
  6
Continuous
 62
    18
100
AcDbLine
 10
-9.588568306382898
 20
30.7174652952875
 30
0.0
 11
-11.43110928998944
 21
32.56000627889405
 31
0.0
  0
LINE
  5
263
330
1F
100
AcDbEntity
  8
0
  6
Continuous
 62
    18
100
AcDbLine
 10
-9.588568306382898
 20
23.34730136086135
 30
0.0
 11
-9.588568306382898
 21
30.7174652952875
 31
0.0
  0
LINE
  5
264
330
1F
100
AcDbEntity
  8
0
  6
Continuous
 62
    18
100
AcDbLine
 10
-16.9587322408091
 20
23.34730136086135
 30
0.0
 11
-15.11619125720255
 21
23.3473013608613
 31
0.0
  0
LINE
  5
265
330
1F
100
AcDbEntity
  8
0
  6
Continuous
 62
    18
100
AcDbLine
 10
83.90915114168219
 20
36.2010779721094
 30
0.0
 11
83.43960786299368
 21
36.2010779721094
 31
0.0
  0
LINE
  5
266
330
1F
100
AcDbEntity
  8
0
  6
Continuous
 62
    18
100
AcDbLine
 10
-15.11619125720255
 20
30.71746529528755
 30
0.0
 11
-11.43110928998944
 21
30.7174652952875
 31
0.0
  0
LINE
  5
267
330
1F
100
AcDbEntity
  8
0
  6
Continuous
 62
    18
100
AcDbLine
 10
-15.11619125720255
 20
23.3473013608613
 30
0.0
 11
-15.11619125720255
 21
30.71746529528755
 31
0.0
  0
LINE
  5
268
330
1F
100
AcDbEntity
  8
0
  6
Continuous
 62
    18
100
AcDbLine
 10
-11.43110928998944
 20
32.56000627889405
 30
0.0
 11
-15.11619125720255
 21
32.56000627889405
 31
0.0
  0
LINE
  5
269
330
1F
100
AcDbEntity
  8
0
  6
Continuous
 62
    18
100
AcDbLine
 10
-15.11619125720255
 20
32.56000627889405
 30
0.0
 11
-15.11619125720255
 21
38.08762922971376
 31
0.0
  0
LINE
  5
26A
330
1F
100
AcDbEntity
  8
0
  6
Continuous
 62
    18
100
AcDbLine
 10
-15.11619125720255
 20
38.08762922971376
 30
0.0
 11
-16.9587322408091
 21
38.08762922971376
 31
0.0
  0
LINE
  5
26B
330
1F
100
AcDbEntity
  8
0
  6
Continuous
 62
    18
100
AcDbLine
 10
82.7151845843049
 20
36.2010779721094
 30
0.0
 11
82.7151845843049
 21
36.07363797210935
 31
0.0
  0
LINE
  5
26C
330
1F
100
AcDbEntity
  8
0
  6
Continuous
 62
    18
100
AcDbLine
 10
82.7151845843049
 20
36.07363797210935
 30
0.0
 11
83.31216786299369
 21
36.07363797210935
 31
0.0
  0
LINE
  5
26D
330
1F
100
AcDbEntity
  8
0
  6
Continuous
 62
    18
100
AcDbLine
 10
83.31216786299369
 20
36.07363797210935
 30
0.0
 11
83.31216786299369
 21
33.68570485735525
 31
0.0
  0
LINE
  5
26E
330
1F
100
AcDbEntity
  8
0
  6
Continuous
 62
    18
100
AcDbLine
 10
83.31216786299369
 20
36.2010779721094
 30
0.0
 11
82.7151845843049
 21
36.2010779721094
 31
0.0
  0
LINE
  5
26F
330
1F
100
AcDbEntity
  8
0
  6
Continuous
 62
    18
100
AcDbLine
 10
83.43960786299368
 20
36.2010779721094
 30
0.0
 11
83.43960786299368
 21
37.26760452948645
 31
0.0
  0
LINE
  5
270
330
1F
100
AcDbEntity
  8
0
  6
Continuous
 62
    18
100
AcDbLine
 10
83.31216786299369
 20
33.68570485735525
 30
0.0
 11
83.90915114168219
 21
33.68570485735525
 31
0.0
  0
LINE
  5
271
330
1F
100
AcDbEntity
  8
0
  6
Continuous
 62
    18
100
AcDbLine
 10
83.90915114168219
 20
36.07363797210935
 30
0.0
 11
83.90915114168219
 21
36.2010779721094
 31
0.0
  0
LINE
  5
272
330
1F
100
AcDbEntity
  8
0
  6
Continuous
 62
    18
100
AcDbLine
 10
-16.9587322408091
 20
38.08762922971376
 30
0.0
 11
-16.9587322408091
 21
23.34730136086135
 31
0.0
  0
LINE
  5
273
330
1F
100
AcDbEntity
  8
0
  6
Continuous
 62
    18
100
AcDbLine
 10
83.43960786299368
 20
36.07363797210935
 30
0.0
 11
83.90915114168219
 21
36.07363797210935
 31
0.0
  0
LINE
  5
274
330
1F
100
AcDbEntity
  8
0
  6
Continuous
 62
    18
100
AcDbLine
 10
83.90915114168219
 20
33.68570485735525
 30
0.0
 11
83.90915114168219
 21
33.8131448573553
 31
0.0
  0
LINE
  5
275
330
1F
100
AcDbEntity
  8
0
  6
Continuous
 62
    18
100
AcDbLine
 10
83.90915114168219
 20
33.8131448573553
 30
0.0
 11
83.43960786299368
 21
33.8131448573553
 31
0.0
  0
LINE
  5
276
330
1F
100
AcDbEntity
  8
0
  6
Continuous
 62
    18
100
AcDbLine
 10
83.43960786299368
 20
33.8131448573553
 30
0.0
 11
83.43960786299368
 21
36.07363797210935
 31
0.0
  0
LINE
  5
277
330
1F
100
AcDbEntity
  8
0
  6
Continuous
 62
    18
100
AcDbLine
 10
83.43960786299368
 20
37.26760452948645
 30
0.0
 11
83.31216786299369
 21
37.26760452948645
 31
0.0
  0
LINE
  5
278
330
1F
100
AcDbEntity
  8
0
  6
Continuous
 62
    18
100
AcDbLine
 10
83.31216786299369
 20
37.26760452948645
 30
0.0
 11
83.31216786299369
 21
36.2010779721094
 31
0.0
  0
LINE
  5
279
330
1F
100
AcDbEntity
  8
0
  6
Continuous
 62
    18
100
AcDbLine
 10
-5.90348633916981
 20
27.03238332807445
 30
0.0
 11
-0.3758633883501651
 21
27.03238332807445
 31
0.0
  0
LINE
  5
27A
330
1F
100
AcDbEntity
  8
0
  6
Continuous
 62
    18
100
AcDbLine
 10
-5.90348633916981
 20
25.1898423444678
 30
0.0
 11
-5.90348633916981
 21
27.03238332807445
 31
0.0
  0
LINE
  5
27B
330
1F
100
AcDbEntity
  8
0
  6
Continuous
 62
    18
100
AcDbLine
 10
-0.375863388350163
 20
25.1898423444679
 30
0.0
 11
-5.903486339169808
 21
25.1898423444678
 31
0.0
  0
LINE
  5
27C
330
1F
100
AcDbEntity
  8
0
  6
Continuous
 62
    18
100
AcDbLine
 10
-5.90348633916981
 20
28.87492431168105
 30
0.0
 11
-2.21840437195671
 21
28.87492431168095
 31
0.0
  0
LINE
  5
27D
330
1F
100
AcDbEntity
  8
0
  6
Continuous
 62
    18
100
AcDbLine
 10
-5.90348633916981
 20
30.7174652952875
 30
0.0
 11
-5.90348633916981
 21
28.87492431168105
 31
0.0
  0
LINE
  5
27E
330
1F
100
AcDbEntity
  8
0
  6
Continuous
 62
    18
100
AcDbLine
 10
-0.375863388350163
 20
23.34730136086125
 30
0.0
 11
-0.375863388350163
 21
25.1898423444679
 31
0.0
  0
LINE
  5
27F
330
1F
100
AcDbEntity
  8
0
  6
Continuous
 62
    18
100
AcDbLine
 10
-0.375863388350163
 20
27.03238332807445
 30
0.0
 11
-0.3758633883501615
 21
30.71746529528755
 31
0.0
  0
LINE
  5
280
330
1F
100
AcDbEntity
  8
0
  6
Continuous
 62
    18
100
AcDbLine
 10
-0.3758633883501615
 20
30.71746529528755
 30
0.0
 11
-2.21840437195671
 21
32.56000627889405
 31
0.0
  0
LINE
  5
281
330
1F
100
AcDbEntity
  8
0
  6
Continuous
 62
    18
100
AcDbLine
 10
-7.74602732277635
 20
23.34730136086125
 30
0.0
 11
-0.3758633883501634
 21
23.34730136086125
 31
0.0
  0
LINE
  5
282
330
1F
100
AcDbEntity
  8
0
  6
Continuous
 62
    18
100
AcDbLine
 10
-7.74602732277635
 20
32.56000627889405
 30
0.0
 11
-7.74602732277635
 21
23.34730136086125
 31
0.0
  0
LINE
  5
283
330
1F
100
AcDbEntity
  8
0
  6
Continuous
 62
    18
100
AcDbLine
 10
-2.21840437195671
 20
32.56000627889405
 30
0.0
 11
-7.746027322776348
 21
32.56000627889405
 31
0.0
  0
LINE
  5
284
330
1F
100
AcDbEntity
  8
0
  6
Continuous
 62
    18
100
AcDbLine
 10
-2.21840437195671
 20
30.7174652952875
 30
0.0
 11
-5.90348633916981
 21
30.7174652952875
 31
0.0
  0
LINE
  5
285
330
1F
100
AcDbEntity
  8
0
  6
Continuous
 62
    18
100
AcDbLine
 10
-2.21840437195671
 20
28.87492431168095
 30
0.0
 11
-2.21840437195671
 21
30.7174652952875
 31
0.0
  0
LINE
  5
286
330
1F
100
AcDbEntity
  8
0
  6
Continuous
 62
    18
100
AcDbLine
 10
36.47495628378095
 20
32.56000627889405
 30
0.0
 11
36.47495628378095
 21
23.3473013608613
 31
0.0
  0
LINE
  5
287
330
1F
100
AcDbEntity
  8
0
  6
Continuous
 62
    18
100
AcDbLine
 10
84.37869442037059
 20
33.68570485735525
 30
0.0
 11
84.5061344203706
 21
33.68570485735525
 31
0.0
  0
LINE
  5
288
330
1F
100
AcDbEntity
  8
0
  6
Continuous
 62
    18
100
AcDbLine
 10
54.90036611984659
 20
30.7174652952875
 30
0.0
 11
51.2152841526335
 21
30.7174652952875
 31
0.0
  0
LINE
  5
289
330
1F
100
AcDbEntity
  8
0
  6
Continuous
 62
    18
100
AcDbLine
 10
54.90036611984659
 20
25.1881274548546
 30
0.0
 11
54.90036611984659
 21
30.7174652952875
 31
0.0
  0
LINE
  5
28A
330
1F
100
AcDbEntity
  8
0
  6
Continuous
 62
    18
100
AcDbLine
 10
84.37869442037059
 20
36.2010779721094
 30
0.0
 11
84.37869442037059
 21
33.68570485735525
 31
0.0
  0
LINE
  5
28B
330
1F
100
AcDbEntity
  8
0
  6
Continuous
 62
    18
100
AcDbLine
 10
85.70010097774761
 20
33.68570485735525
 30
0.0
 11
85.8275409777476
 21
33.68570485735525
 31
0.0
  0
LINE
  5
28C
330
1F
100
AcDbEntity
  8
0
  6
Continuous
 62
    18
100
AcDbLine
 10
85.8275409777476
 20
33.68570485735525
 30
0.0
 11
85.8275409777476
 21
36.2010779721094
 31
0.0
  0
LINE
  5
28D
330
1F
100
AcDbEntity
  8
0
  6
Continuous
 62
    18
100
AcDbLine
 10
85.8275409777476
 20
36.2010779721094
 30
0.0
 11
84.37869442037059
 21
36.2010779721094
 31
0.0
  0
LINE
  5
28E
330
1F
100
AcDbEntity
  8
0
  6
Continuous
 62
    18
100
AcDbLine
 10
36.47495628378095
 20
34.40254726250065
 30
0.0
 11
38.31749726738765
 21
36.24508824610715
 31
0.0
  0
LINE
  5
28F
330
1F
100
AcDbEntity
  8
0
  6
Continuous
 62
    18
100
AcDbLine
 10
54.90036611984659
 20
23.3473013608613
 30
0.0
 11
56.74290710345309
 21
23.34730136086125
 31
0.0
  0
LINE
  5
290
330
1F
100
AcDbEntity
  8
0
  6
Continuous
 62
    18
100
AcDbLine
 10
56.74290710345309
 20
23.34730136086125
 30
0.0
 11
56.74290710345309
 21
32.56000627889405
 31
0.0
  0
LINE
  5
291
330
1F
100
AcDbEntity
  8
0
  6
Continuous
 62
    18
100
AcDbLine
 10
51.2152841526335
 20
30.7174652952875
 30
0.0
 11
51.2152841526335
 21
25.18984234446785
 31
0.0
  0
LINE
  5
292
330
1F
100
AcDbEntity
  8
0
  6
Continuous
 62
    18
100
AcDbLine
 10
36.47495628378095
 20
36.24508824610715
 30
0.0
 11
36.47495628378095
 21
34.40254726250065
 31
0.0
  0
LINE
  5
293
330
1F
100
AcDbEntity
  8
0
  6
Continuous
 62
    18
100
AcDbLine
 10
51.2152841526335
 20
25.18984234446785
 30
0.0
 11
54.90036611984659
 21
25.1881274548546
 31
0.0
  0
LINE
  5
294
330
1F
100
AcDbEntity
  8
0
  6
Continuous
 62
    18
100
AcDbLine
 10
38.31749726738765
 20
36.24508824610715
 30
0.0
 11
36.47495628378095
 21
36.24508824610715
 31
0.0
  0
LINE
  5
295
330
1F
100
AcDbEntity
  8
0
  6
Continuous
 62
    18
100
AcDbLine
 10
30.9473333329613
 20
23.3473013608613
 30
0.0
 11
30.9473333329613
 21
30.7174652952875
 31
0.0
  0
LINE
  5
296
330
1F
100
AcDbEntity
  8
0
  6
Continuous
 62
    18
100
AcDbLine
 10
30.9473333329613
 20
30.7174652952875
 30
0.0
 11
29.10479234935475
 21
32.56000627889405
 31
0.0
  0
LINE
  5
297
330
1F
100
AcDbEntity
  8
0
  6
Continuous
 62
    18
100
AcDbLine
 10
29.10479234935475
 20
32.56000627889405
 30
0.0
 11
23.5771693985351
 21
32.56000627889405
 31
0.0
  0
LINE
  5
298
330
1F
100
AcDbEntity
  8
0
  6
Continuous
 62
    18
100
AcDbLine
 10
19.89208743132205
 20
30.7174652952875
 30
0.0
 11
16.20700546410895
 21
30.7174652952875
 31
0.0
  0
LINE
  5
299
330
1F
100
AcDbEntity
  8
0
  6
Continuous
 62
    18
100
AcDbLine
 10
16.20700546410895
 20
30.7174652952875
 30
0.0
 11
16.20700546410895
 21
28.87492431168105
 31
0.0
  0
LINE
  5
29A
330
1F
100
AcDbEntity
  8
0
  6
Continuous
 62
    18
100
AcDbLine
 10
16.20700546410895
 20
28.87492431168105
 30
0.0
 11
19.89208743132205
 21
28.87492431168095
 31
0.0
  0
LINE
  5
29B
330
1F
100
AcDbEntity
  8
0
  6
Continuous
 62
    18
100
AcDbLine
 10
19.89208743132205
 20
28.87492431168095
 30
0.0
 11
19.89208743132205
 21
30.7174652952875
 31
0.0
  0
LINE
  5
29C
330
1F
100
AcDbEntity
  8
0
  6
Continuous
 62
    18
100
AcDbLine
 10
85.2305576990591
 20
33.68570485735525
 30
0.0
 11
85.2305576990591
 21
36.07363797210935
 31
0.0
  0
LINE
  5
29D
330
1F
100
AcDbEntity
  8
0
  6
Continuous
 62
    18
100
AcDbLine
 10
85.2305576990591
 20
36.07363797210935
 30
0.0
 11
85.70010097774761
 21
36.07363797210935
 31
0.0
  0
LINE
  5
29E
330
1F
100
AcDbEntity
  8
0
  6
Continuous
 62
    18
100
AcDbLine
 10
85.70010097774761
 20
36.07363797210935
 30
0.0
 11
85.70010097774761
 21
33.68570485735525
 31
0.0
  0
LINE
  5
29F
330
1F
100
AcDbEntity
  8
0
  6
Continuous
 62
    18
100
AcDbLine
 10
85.1031176990591
 20
33.68570485735525
 30
0.0
 11
85.2305576990591
 21
33.68570485735525
 31
0.0
  0
LINE
  5
2A0
330
1F
100
AcDbEntity
  8
0
  6
Continuous
 62
    18
100
AcDbLine
 10
84.5061344203706
 20
33.68570485735525
 30
0.0
 11
84.5061344203706
 21
36.07363797210935
 31
0.0
  0
LINE
  5
2A1
330
1F
100
AcDbEntity
  8
0
  6
Continuous
 62
    18
100
AcDbLine
 10
84.5061344203706
 20
36.07363797210935
 30
0.0
 11
85.1031176990591
 21
36.07363797210935
 31
0.0
  0
LINE
  5
2A2
330
1F
100
AcDbEntity
  8
0
  6
Continuous
 62
    18
100
AcDbLine
 10
85.1031176990591
 20
36.07363797210935
 30
0.0
 11
85.1031176990591
 21
33.68570485735525
 31
0.0
  0
LINE
  5
2A3
330
1F
100
AcDbEntity
  8
0
  6
Continuous
 62
    18
100
AcDbLine
 10
5.15175956246948
 20
38.08762922971376
 30
0.0
 11
5.15175956246948
 21
23.3473013608613
 31
0.0
  0
LINE
  5
2A4
330
1F
100
AcDbEntity
  8
0
  6
Continuous
 62
    18
100
AcDbLine
 10
5.15175956246948
 20
23.3473013608613
 30
0.0
 11
6.99430054607619
 21
23.3473013608613
 31
0.0
  0
LINE
  5
2A5
330
1F
100
AcDbEntity
  8
0
  6
Continuous
 62
    18
100
AcDbLine
 10
6.99430054607619
 20
23.3473013608613
 30
0.0
 11
6.99430054607619
 21
30.7174652952875
 31
0.0
  0
LINE
  5
2A6
330
1F
100
AcDbEntity
  8
0
  6
Continuous
 62
    18
100
AcDbLine
 10
6.99430054607619
 20
32.56000627889405
 30
0.0
 11
10.67938251328928
 21
32.56000627889405
 31
0.0
  0
LINE
  5
2A7
330
1F
100
AcDbEntity
  8
0
  6
Continuous
 62
    18
100
AcDbLine
 10
-26.17143715884185
 20
36.24508824610715
 30
0.0
 11
-23.4076256834321
 21
36.2450882461072
 31
0.0
  0
LINE
  5
2A8
330
1F
100
AcDbEntity
  8
0
  6
Continuous
 62
    18
100
AcDbLine
 10
10.67938251328928
 20
32.56000627889405
 30
0.0
 11
10.67938251328928
 21
36.2450882461072
 31
0.0
  0
LINE
  5
2A9
330
1F
100
AcDbEntity
  8
0
  6
Continuous
 62
    18
100
AcDbLine
 10
-26.17143715884185
 20
38.08762922971376
 30
0.0
 11
-26.17143715884185
 21
36.24508824610715
 31
0.0
  0
LINE
  5
2AA
330
1F
100
AcDbEntity
  8
0
  6
Continuous
 62
    18
100
AcDbLine
 10
12.52192349689584
 20
30.7174652952875
 30
0.0
 11
11.60065300509248
 21
31.63873578709075
 31
0.0
  0
LINE
  5
2AB
330
1F
100
AcDbEntity
  8
0
  6
Continuous
 62
    18
100
AcDbLine
 10
-15.11619125720255
 20
38.08762922971376
 30
0.0
 11
-16.9587322408091
 21
38.08762922971376
 31
0.0
  0
LINE
  5
2AC
330
1F
100
AcDbEntity
  8
0
  6
Continuous
 62
    18
100
AcDbLine
 10
11.60065300509248
 20
31.63873578709075
 30
0.0
 11
12.52192349689584
 21
32.56000627889405
 31
0.0
  0
LINE
  5
2AD
330
1F
100
AcDbEntity
  8
0
  6
Continuous
 62
    18
100
AcDbLine
 10
12.52192349689584
 20
23.3473013608613
 30
0.0
 11
12.52192349689584
 21
30.7174652952875
 31
0.0
  0
LINE
  5
2AE
330
1F
100
AcDbEntity
  8
0
  6
Continuous
 62
    18
100
AcDbLine
 10
6.99430054607619
 20
30.7174652952875
 30
0.0
 11
10.67938251328928
 21
30.7174652952875
 31
0.0
  0
LINE
  5
2AF
330
1F
100
AcDbEntity
  8
0
  6
Continuous
 62
    18
100
AcDbLine
 10
10.67938251328928
 20
30.7174652952875
 30
0.0
 11
10.67938251328928
 21
23.3473013608613
 31
0.0
  0
LINE
  5
2B0
330
1F
100
AcDbEntity
  8
0
  6
Continuous
 62
    18
100
AcDbLine
 10
10.67938251328928
 20
23.3473013608613
 30
0.0
 11
12.52192349689584
 21
23.3473013608613
 31
0.0
  0
LINE
  5
2B1
330
1F
100
AcDbEntity
  8
0
  6
Continuous
 62
    18
100
AcDbLine
 10
-18.80127322441565
 20
36.2450882461072
 30
0.0
 11
-18.80127322441565
 21
38.08762922971376
 31
0.0
  0
LINE
  5
2B2
330
1F
100
AcDbEntity
  8
0
  6
Continuous
 62
    18
100
AcDbLine
 10
49.372743169027
 20
23.3473013608613
 30
0.0
 11
53.05782513623999
 21
23.3473013608613
 31
0.0
  0
LINE
  5
2B3
330
1F
100
AcDbEntity
  8
0
  6
Continuous
 62
    18
100
AcDbLine
 10
-21.56508469982555
 20
36.2450882461072
 30
0.0
 11
-18.80127322441565
 21
36.2450882461072
 31
0.0
  0
LINE
  5
2B4
330
1F
100
AcDbEntity
  8
0
  6
Continuous
 62
    18
100
AcDbLine
 10
49.372743169027
 20
30.7174652952875
 30
0.0
 11
49.372743169027
 21
23.3473013608613
 31
0.0
  0
LINE
  5
2B5
330
1F
100
AcDbEntity
  8
0
  6
Continuous
 62
    18
100
AcDbLine
 10
56.74290710345309
 20
32.56000627889405
 30
0.0
 11
51.2152841526335
 21
32.56000627889405
 31
0.0
  0
LINE
  5
2B6
330
1F
100
AcDbEntity
  8
0
  6
Continuous
 62
    18
100
AcDbLine
 10
51.2152841526335
 20
32.56000627889405
 30
0.0
 11
49.372743169027
 21
30.7174652952875
 31
0.0
  0
LINE
  5
2B7
330
1F
100
AcDbEntity
  8
0
  6
Continuous
 62
    18
100
AcDbLine
 10
-18.80127322441565
 20
38.08762922971376
 30
0.0
 11
-26.17143715884185
 21
38.08762922971376
 31
0.0
  0
LINE
  5
2B8
330
1F
100
AcDbEntity
  8
0
  6
Continuous
 62
    18
100
AcDbLine
 10
6.99430054607619
 20
36.2450882461072
 30
0.0
 11
6.99430054607619
 21
32.56000627889405
 31
0.0
  0
LINE
  5
2B9
330
1F
100
AcDbEntity
  8
0
  6
Continuous
 62
    18
100
AcDbLine
 10
-23.4076256834321
 20
36.2450882461072
 30
0.0
 11
-23.4076256834321
 21
23.34730136086125
 31
0.0
  0
LINE
  5
2BA
330
1F
100
AcDbEntity
  8
0
  6
Continuous
 62
    18
100
AcDbLine
 10
10.67938251328928
 20
36.2450882461072
 30
0.0
 11
6.99430054607619
 21
36.2450882461072
 31
0.0
  0
LINE
  5
2BB
330
1F
100
AcDbEntity
  8
0
  6
Continuous
 62
    18
100
AcDbLine
 10
-23.4076256834321
 20
23.34730136086125
 30
0.0
 11
-21.56508469982555
 21
23.34730136086135
 31
0.0
  0
LINE
  5
2BC
330
1F
100
AcDbEntity
  8
0
  6
Continuous
 62
    18
100
AcDbLine
 10
53.05782513623999
 20
23.3473013608613
 30
0.0
 11
54.90036611984659
 21
25.1881274548546
 31
0.0
  0
LINE
  5
2BD
330
1F
100
AcDbEntity
  8
0
  6
Continuous
 62
    18
100
AcDbLine
 10
-21.56508469982555
 20
23.34730136086135
 30
0.0
 11
-21.56508469982555
 21
36.2450882461072
 31
0.0
  0
LINE
  5
2BE
330
1F
100
AcDbEntity
  8
0
  6
Continuous
 62
    18
100
AcDbLine
 10
54.90036611984659
 20
25.1881274548546
 30
0.0
 11
54.90036611984659
 21
23.3473013608613
 31
0.0
  0
LINE
  5
2BF
330
1F
100
AcDbEntity
  8
0
  6
Continuous
 62
    18
100
AcDbLine
 10
65.95561202148589
 20
23.3473013608613
 30
0.0
 11
73.3257759559123
 21
23.34730136086125
 31
0.0
  0
LINE
  5
2C0
330
1F
100
AcDbEntity
  8
0
  6
Continuous
 62
    18
100
AcDbLine
 10
42.00257923460075
 20
25.18984234446785
 30
0.0
 11
42.00257923460075
 21
30.7174652952875
 31
0.0
  0
LINE
  5
2C1
330
1F
100
AcDbEntity
  8
0
  6
Continuous
 62
    18
100
AcDbLine
 10
65.95561202148589
 20
32.56000627889405
 30
0.0
 11
65.95561202148589
 21
23.3473013608613
 31
0.0
  0
LINE
  5
2C2
330
1F
100
AcDbEntity
  8
0
  6
Continuous
 62
    18
100
AcDbLine
 10
47.5302021854204
 20
25.18984234446785
 30
0.0
 11
42.00257923460075
 21
25.18984234446785
 31
0.0
  0
LINE
  5
2C3
330
1F
100
AcDbEntity
  8
0
  6
Continuous
 62
    18
100
AcDbLine
 10
73.3257759559123
 20
32.56000627889405
 30
0.0
 11
65.95561202148589
 21
32.56000627889405
 31
0.0
  0
LINE
  5
2C4
330
1F
100
AcDbEntity
  8
0
  6
Continuous
 62
    18
100
AcDbLine
 10
47.5302021854204
 20
23.3473013608613
 30
0.0
 11
47.5302021854204
 21
25.18984234446785
 31
0.0
  0
LINE
  5
2C5
330
1F
100
AcDbEntity
  8
0
  6
Continuous
 62
    18
100
AcDbLine
 10
73.3257759559123
 20
23.34730136086125
 30
0.0
 11
73.3257759559123
 21
32.56000627889405
 31
0.0
  0
LINE
  5
2C6
330
1F
100
AcDbEntity
  8
0
  6
Continuous
 62
    18
100
AcDbLine
 10
67.7981530050926
 20
30.7174652952875
 30
0.0
 11
67.7981530050926
 21
25.1898423444679
 31
0.0
  0
LINE
  5
2C7
330
1F
100
AcDbEntity
  8
0
  6
Continuous
 62
    18
100
AcDbLine
 10
45.6876612018139
 20
30.7174652952875
 30
0.0
 11
47.5302021854204
 21
28.87492431168095
 31
0.0
  0
LINE
  5
2C8
330
1F
100
AcDbEntity
  8
0
  6
Continuous
 62
    18
100
AcDbLine
 10
47.5302021854204
 20
28.87492431168095
 30
0.0
 11
47.5302021854204
 21
32.56000627889405
 31
0.0
  0
LINE
  5
2C9
330
1F
100
AcDbEntity
  8
0
  6
Continuous
 62
    18
100
AcDbLine
 10
71.4832349723057
 20
30.7174652952875
 30
0.0
 11
67.7981530050926
 21
30.7174652952875
 31
0.0
  0
LINE
  5
2CA
330
1F
100
AcDbEntity
  8
0
  6
Continuous
 62
    18
100
AcDbLine
 10
42.00257923460075
 20
30.7174652952875
 30
0.0
 11
45.6876612018139
 21
30.7174652952875
 31
0.0
  0
LINE
  5
2CB
330
1F
100
AcDbEntity
  8
0
  6
Continuous
 62
    18
100
AcDbLine
 10
67.7981530050926
 20
25.1898423444679
 30
0.0
 11
71.4832349723057
 21
25.18984234446785
 31
0.0
  0
LINE
  5
2CC
330
1F
100
AcDbEntity
  8
0
  6
Continuous
 62
    18
100
AcDbLine
 10
71.4832349723057
 20
25.18984234446785
 30
0.0
 11
71.4832349723057
 21
30.7174652952875
 31
0.0
  0
LINE
  5
2CD
330
1F
100
AcDbEntity
  8
0
  6
Continuous
 62
    18
100
AcDbLine
 10
64.1130710378793
 20
30.7174652952875
 30
0.0
 11
64.1130710378793
 21
32.56000627889405
 31
0.0
  0
LINE
  5
2CE
330
1F
100
AcDbEntity
  8
0
  6
Continuous
 62
    18
100
AcDbLine
 10
64.1130710378793
 20
32.56000627889405
 30
0.0
 11
62.2705300542728
 21
32.56000627889405
 31
0.0
  0
LINE
  5
2CF
330
1F
100
AcDbEntity
  8
0
  6
Continuous
 62
    18
100
AcDbLine
 10
62.2705300542728
 20
32.56000627889405
 30
0.0
 11
62.2705300542728
 21
38.08762922971376
 31
0.0
  0
LINE
  5
2D0
330
1F
100
AcDbEntity
  8
0
  6
Continuous
 62
    18
100
AcDbLine
 10
62.2705300542728
 20
30.7174652952875
 30
0.0
 11
64.1130710378793
 21
30.7174652952875
 31
0.0
  0
LINE
  5
2D1
330
1F
100
AcDbEntity
  8
0
  6
Continuous
 62
    18
100
AcDbLine
 10
64.1130710378793
 20
23.34730136086125
 30
0.0
 11
64.1130710378793
 21
25.18984234446785
 31
0.0
  0
LINE
  5
2D2
330
1F
100
AcDbEntity
  8
0
  6
Continuous
 62
    18
100
AcDbLine
 10
64.1130710378793
 20
25.18984234446785
 30
0.0
 11
62.2705300542728
 21
25.18984234446785
 31
0.0
  0
LINE
  5
2D3
330
1F
100
AcDbEntity
  8
0
  6
Continuous
 62
    18
100
AcDbLine
 10
62.2705300542728
 20
25.18984234446785
 30
0.0
 11
62.2705300542728
 21
30.7174652952875
 31
0.0
  0
LINE
  5
2D4
330
1F
100
AcDbEntity
  8
0
  6
Continuous
 62
    18
100
AcDbLine
 10
58.5854480870597
 20
30.7174652952875
 30
0.0
 11
60.4279890706663
 21
30.7174652952875
 31
0.0
  0
LINE
  5
2D5
330
1F
100
AcDbEntity
  8
0
  6
Continuous
 62
    18
100
AcDbLine
 10
60.4279890706663
 20
30.7174652952875
 30
0.0
 11
60.4279890706663
 21
23.3473013608613
 31
0.0
  0
LINE
  5
2D6
330
1F
100
AcDbEntity
  8
0
  6
Continuous
 62
    18
100
AcDbLine
 10
40.1600382509942
 20
23.3473013608613
 30
0.0
 11
47.5302021854204
 21
23.3473013608613
 31
0.0
  0
LINE
  5
2D7
330
1F
100
AcDbEntity
  8
0
  6
Continuous
 62
    18
100
AcDbLine
 10
58.5854480870597
 20
32.56000627889405
 30
0.0
 11
58.5854480870597
 21
30.7174652952875
 31
0.0
  0
LINE
  5
2D8
330
1F
100
AcDbEntity
  8
0
  6
Continuous
 62
    18
100
AcDbLine
 10
62.2705300542728
 20
38.08762922971376
 30
0.0
 11
60.4279890706663
 21
38.08762922971376
 31
0.0
  0
LINE
  5
2D9
330
1F
100
AcDbEntity
  8
0
  6
Continuous
 62
    18
100
AcDbLine
 10
60.4279890706663
 20
38.08762922971376
 30
0.0
 11
60.4279890706663
 21
32.56000627889405
 31
0.0
  0
LINE
  5
2DA
330
1F
100
AcDbEntity
  8
0
  6
Continuous
 62
    18
100
AcDbLine
 10
60.4279890706663
 20
32.56000627889405
 30
0.0
 11
58.5854480870597
 21
32.56000627889405
 31
0.0
  0
LINE
  5
2DB
330
1F
100
AcDbEntity
  8
0
  6
Continuous
 62
    18
100
AcDbLine
 10
21.73462841492855
 20
23.34730136086125
 30
0.0
 11
21.73462841492855
 21
25.1898423444679
 31
0.0
  0
LINE
  5
2DC
330
1F
100
AcDbEntity
  8
0
  6
Continuous
 62
    18
100
AcDbLine
 10
29.10479234935475
 20
25.18984234446785
 30
0.0
 11
29.10479234935475
 21
30.7174652952875
 31
0.0
  0
LINE
  5
2DD
330
1F
100
AcDbEntity
  8
0
  6
Continuous
 62
    18
100
AcDbLine
 10
14.36446448050238
 20
23.34730136086125
 30
0.0
 11
21.73462841492855
 21
23.34730136086125
 31
0.0
  0
LINE
  5
2DE
330
1F
100
AcDbEntity
  8
0
  6
Continuous
 62
    18
100
AcDbLine
 10
29.10479234935475
 20
30.7174652952875
 30
0.0
 11
25.41971038214165
 21
30.7174652952875
 31
0.0
  0
LINE
  5
2DF
330
1F
100
AcDbEntity
  8
0
  6
Continuous
 62
    18
100
AcDbLine
 10
16.20700546410895
 20
25.1898423444678
 30
0.0
 11
16.20700546410895
 21
27.03238332807445
 31
0.0
  0
LINE
  5
2E0
330
1F
100
AcDbEntity
  8
0
  6
Continuous
 62
    18
100
AcDbLine
 10
25.41971038214165
 20
30.7174652952875
 30
0.0
 11
25.41971038214165
 21
25.18984234446785
 31
0.0
  0
LINE
  5
2E1
330
1F
100
AcDbEntity
  8
0
  6
Continuous
 62
    18
100
AcDbLine
 10
21.73462841492855
 20
25.1898423444679
 30
0.0
 11
16.20700546410895
 21
25.1898423444678
 31
0.0
  0
LINE
  5
2E2
330
1F
100
AcDbEntity
  8
0
  6
Continuous
 62
    18
100
AcDbLine
 10
25.41971038214165
 20
15.9771374264351
 30
0.0
 11
25.41971038214165
 21
23.3473013608613
 31
0.0
  0
LINE
  5
2E3
330
1F
100
AcDbEntity
  8
0
  6
Continuous
 62
    18
100
AcDbLine
 10
21.73462841492855
 20
30.71746529528755
 30
0.0
 11
19.89208743132205
 21
32.56000627889405
 31
0.0
  0
LINE
  5
2E4
330
1F
100
AcDbEntity
  8
0
  6
Continuous
 62
    18
100
AcDbLine
 10
25.41971038214165
 20
23.3473013608613
 30
0.0
 11
30.9473333329613
 21
23.3473013608613
 31
0.0
  0
LINE
  5
2E5
330
1F
100
AcDbEntity
  8
0
  6
Continuous
 62
    18
100
AcDbLine
 10
19.89208743132205
 20
32.56000627889405
 30
0.0
 11
14.36446448050238
 21
32.56000627889405
 31
0.0
  0
LINE
  5
2E6
330
1F
100
AcDbEntity
  8
0
  6
Continuous
 62
    18
100
AcDbLine
 10
23.5771693985351
 20
32.56000627889405
 30
0.0
 11
23.5771693985351
 21
15.9771374264351
 31
0.0
  0
LINE
  5
2E7
330
1F
100
AcDbEntity
  8
0
  6
Continuous
 62
    18
100
AcDbLine
 10
14.36446448050238
 20
32.56000627889405
 30
0.0
 11
14.36446448050238
 21
23.34730136086125
 31
0.0
  0
LINE
  5
2E8
330
1F
100
AcDbEntity
  8
0
  6
Continuous
 62
    18
100
AcDbLine
 10
23.5771693985351
 20
15.9771374264351
 30
0.0
 11
25.41971038214165
 21
15.9771374264351
 31
0.0
  0
LINE
  5
2E9
330
1F
100
AcDbEntity
  8
0
  6
Continuous
 62
    18
100
AcDbLine
 10
36.47495628378095
 20
23.3473013608613
 30
0.0
 11
38.31749726738765
 21
23.3473013608613
 31
0.0
  0
LINE
  5
2EA
330
1F
100
AcDbEntity
  8
0
  6
Continuous
 62
    18
100
AcDbLine
 10
38.31749726738765
 20
23.3473013608613
 30
0.0
 11
38.31749726738765
 21
32.56000627889405
 31
0.0
  0
LINE
  5
2EB
330
1F
100
AcDbEntity
  8
0
  6
Continuous
 62
    18
100
AcDbLine
 10
38.31749726738765
 20
32.56000627889405
 30
0.0
 11
36.47495628378095
 21
32.56000627889405
 31
0.0
  0
LINE
  5
2EC
330
1F
100
AcDbEntity
  8
0
  6
Continuous
 62
    18
100
AcDbLine
 10
47.5302021854204
 20
32.56000627889405
 30
0.0
 11
42.00257923460075
 21
32.56000627889405
 31
0.0
  0
LINE
  5
2ED
330
1F
100
AcDbEntity
  8
0
  6
Continuous
 62
    18
100
AcDbLine
 10
42.00257923460075
 20
32.56000627889405
 30
0.0
 11
40.1600382509942
 21
30.7174652952875
 31
0.0
  0
LINE
  5
2EE
330
1F
100
AcDbEntity
  8
0
  6
Continuous
 62
    18
100
AcDbLine
 10
40.1600382509942
 20
30.7174652952875
 30
0.0
 11
40.1600382509942
 21
23.3473013608613
 31
0.0
  0
LINE
  5
2EF
330
1F
100
AcDbEntity
  8
0
  6
Continuous
 62
    18
100
AcDbLine
 10
32.78987431656785
 20
23.3473013608613
 30
0.0
 11
34.6324153001744
 21
23.3473013608613
 31
0.0
  0
LINE
  5
2F0
330
1F
100
AcDbEntity
  8
0
  6
Continuous
 62
    18
100
AcDbLine
 10
16.20700546410895
 20
27.03238332807445
 30
0.0
 11
21.73462841492855
 21
27.03238332807445
 31
0.0
  0
LINE
  5
2F1
330
1F
100
AcDbEntity
  8
0
  6
Continuous
 62
    18
100
AcDbLine
 10
25.41971038214165
 20
25.18984234446785
 30
0.0
 11
29.10479234935475
 21
25.18984234446785
 31
0.0
  0
LINE
  5
2F2
330
1F
100
AcDbEntity
  8
0
  6
Continuous
 62
    18
100
AcDbLine
 10
21.73462841492855
 20
27.03238332807445
 30
0.0
 11
21.73462841492855
 21
30.71746529528755
 31
0.0
  0
LINE
  5
2F3
330
1F
100
AcDbEntity
  8
0
  6
Continuous
 62
    18
100
AcDbLine
 10
34.6324153001744
 20
23.3473013608613
 30
0.0
 11
34.6324153001744
 21
38.08762922971376
 31
0.0
  0
LINE
  5
2F4
330
1F
100
AcDbEntity
  8
0
  6
Continuous
 62
    18
100
AcDbLine
 10
34.6324153001744
 20
38.08762922971376
 30
0.0
 11
32.78987431656785
 21
38.08762922971376
 31
0.0
  0
LINE
  5
2F5
330
1F
100
AcDbEntity
  8
0
  6
Continuous
 62
    18
100
AcDbLine
 10
32.78987431656785
 20
38.08762922971376
 30
0.0
 11
32.78987431656785
 21
23.3473013608613
 31
0.0
  0
LINE
  5
2F6
330
1F
100
AcDbEntity
  8
0
  6
Continuous
 62
    18
100
AcDbLine
 10
-15.11619125720255
 20
32.56000627889405
 30
0.0
 11
-15.11619125720255
 21
38.08762922971376
 31
0.0
  0
LINE
  5
2F7
330
1F
100
AcDbEntity
  8
0
  6
Continuous
 62
    18
100
AcDbLine
 10
60.4279890706663
 20
23.3473013608613
 30
0.0
 11
64.1130710378793
 21
23.34730136086125
 31
0.0
  0
LINE
  5
2F8
330
1F
100
AcDbEntity
  8
0
  6
Continuous
 62
    18
100
AcDbLine
 10
82.53848087394499
 20
32.560006278894
 30
0.0
 11
78.8533989067319
 21
32.56000627889405
 31
0.0
  0
LINE
  5
2F9
330
1F
100
AcDbEntity
  8
0
  6
Continuous
 62
    18
100
AcDbLine
 10
78.85339890673188
 20
32.56000627889405
 30
0.0
 11
77.01085792312527
 21
30.71746529528755
 31
0.0
  0
LINE
  5
2FA
330
1F
100
AcDbEntity
  8
0
  6
Continuous
 62
    18
100
AcDbLine
 10
77.01085792312529
 20
30.71746529528755
 30
0.0
 11
77.01085792312529
 21
32.560006278894
 31
0.0
  0
LINE
  5
2FB
330
1F
100
AcDbEntity
  8
0
  6
Continuous
 62
    18
100
AcDbLine
 10
-16.9587322408091
 20
38.08762922971376
 30
0.0
 11
-16.9587322408091
 21
23.34730136086135
 31
0.0
  0
LINE
  5
2FC
330
1F
100
AcDbEntity
  8
0
  6
Continuous
 62
    18
100
AcDbLine
 10
77.01085792312529
 20
30.71746529528755
 30
0.0
 11
82.53848087394499
 21
30.7174652952875
 31
0.0
  0
LINE
  5
2FD
330
1F
100
AcDbEntity
  8
0
  6
Continuous
 62
    18
100
AcDbLine
 10
-16.9587322408091
 20
23.34730136086135
 30
0.0
 11
-15.11619125720255
 21
23.3473013608613
 31
0.0
  0
LINE
  5
2FE
330
1F
100
AcDbEntity
  8
0
  6
Continuous
 62
    18
100
AcDbLine
 10
82.53848087394499
 20
30.7174652952875
 30
0.0
 11
82.53848087394499
 21
32.560006278894
 31
0.0
  0
LINE
  5
2FF
330
1F
100
AcDbEntity
  8
0
  6
Continuous
 62
    18
100
AcDbLine
 10
82.7151845843049
 20
36.2010779721094
 30
0.0
 11
82.7151845843049
 21
36.07363797210935
 31
0.0
  0
LINE
  5
300
330
1F
100
AcDbEntity
  8
0
  6
Continuous
 62
    18
100
AcDbLine
 10
82.7151845843049
 20
36.07363797210935
 30
0.0
 11
83.31216786299369
 21
36.07363797210935
 31
0.0
  0
LINE
  5
301
330
1F
100
AcDbEntity
  8
0
  6
Continuous
 62
    18
100
AcDbLine
 10
83.31216786299369
 20
36.07363797210935
 30
0.0
 11
83.31216786299369
 21
33.68570485735525
 31
0.0
  0
LINE
  5
302
330
1F
100
AcDbEntity
  8
0
  6
Continuous
 62
    18
100
AcDbLine
 10
83.31216786299369
 20
36.2010779721094
 30
0.0
 11
82.7151845843049
 21
36.2010779721094
 31
0.0
  0
LINE
  5
303
330
1F
100
AcDbEntity
  8
0
  6
Continuous
 62
    18
100
AcDbLine
 10
83.43960786299368
 20
36.2010779721094
 30
0.0
 11
83.43960786299368
 21
37.26760452948645
 31
0.0
  0
LINE
  5
304
330
1F
100
AcDbEntity
  8
0
  6
Continuous
 62
    18
100
AcDbLine
 10
83.43960786299368
 20
37.26760452948645
 30
0.0
 11
83.31216786299369
 21
37.26760452948645
 31
0.0
  0
LINE
  5
305
330
1F
100
AcDbEntity
  8
0
  6
Continuous
 62
    18
100
AcDbLine
 10
83.31216786299369
 20
37.26760452948645
 30
0.0
 11
83.31216786299369
 21
36.2010779721094
 31
0.0
  0
LINE
  5
306
330
1F
100
AcDbEntity
  8
0
  6
Continuous
 62
    18
100
AcDbLine
 10
10.67938251328928
 20
38.08762922971376
 30
0.0
 11
5.15175956246948
 21
38.08762922971376
 31
0.0
  0
LINE
  5
307
330
1F
100
AcDbEntity
  8
0
  6
Continuous
 62
    18
100
AcDbLine
 10
-9.588568306382898
 20
23.34730136086135
 30
0.0
 11
-9.588568306382898
 21
30.7174652952875
 31
0.0
  0
LINE
  5
308
330
1F
100
AcDbEntity
  8
0
  6
Continuous
 62
    18
100
AcDbLine
 10
77.01085792312529
 20
32.560006278894
 30
0.0
 11
75.1683169395188
 21
32.56000627889405
 31
0.0
  0
LINE
  5
309
330
1F
100
AcDbEntity
  8
0
  6
Continuous
 62
    18
100
AcDbLine
 10
-9.588568306382898
 20
30.7174652952875
 30
0.0
 11
-11.43110928998944
 21
32.56000627889405
 31
0.0
  0
LINE
  5
30A
330
1F
100
AcDbEntity
  8
0
  6
Continuous
 62
    18
100
AcDbLine
 10
12.52192349689584
 20
32.56000627889405
 30
0.0
 11
12.52192349689584
 21
36.2450882461072
 31
0.0
  0
LINE
  5
30B
330
1F
100
AcDbEntity
  8
0
  6
Continuous
 62
    18
100
AcDbLine
 10
-11.43110928998944
 20
32.56000627889405
 30
0.0
 11
-15.11619125720255
 21
32.56000627889405
 31
0.0
  0
LINE
  5
30C
330
1F
100
AcDbEntity
  8
0
  6
Continuous
 62
    18
100
AcDbLine
 10
12.52192349689584
 20
36.2450882461072
 30
0.0
 11
10.67938251328928
 21
38.08762922971376
 31
0.0
  0
LINE
  5
30D
330
1F
100
AcDbEntity
  8
0
  6
Continuous
 62
    18
100
AcDbLine
 10
-15.11619125720255
 20
30.71746529528755
 30
0.0
 11
-11.43110928998944
 21
30.7174652952875
 31
0.0
  0
LINE
  5
30E
330
1F
100
AcDbEntity
  8
0
  6
Continuous
 62
    18
100
AcDbLine
 10
77.01085792312529
 20
23.34730136086125
 30
0.0
 11
77.01085792312529
 21
30.71746529528755
 31
0.0
  0
LINE
  5
30F
330
1F
100
AcDbEntity
  8
0
  6
Continuous
 62
    18
100
AcDbLine
 10
-15.11619125720255
 20
23.3473013608613
 30
0.0
 11
-15.11619125720255
 21
30.71746529528755
 31
0.0
  0
LINE
  5
310
330
1F
100
AcDbEntity
  8
0
  6
Continuous
 62
    18
100
AcDbLine
 10
75.1683169395188
 20
23.34730136086125
 30
0.0
 11
77.01085792312529
 21
23.34730136086125
 31
0.0
  0
LINE
  5
311
330
1F
100
AcDbEntity
  8
0
  6
Continuous
 62
    18
100
AcDbLine
 10
-11.43110928998944
 20
23.34730136086135
 30
0.0
 11
-9.588568306382898
 21
23.34730136086135
 31
0.0
  0
LINE
  5
312
330
1F
100
AcDbEntity
  8
0
  6
Continuous
 62
    18
100
AcDbLine
 10
75.1683169395188
 20
32.56000627889405
 30
0.0
 11
75.1683169395188
 21
23.34730136086125
 31
0.0
  0
LINE
  5
313
330
1F
100
AcDbEntity
  8
0
  6
Continuous
 62
    18
100
AcDbLine
 10
-11.43110928998944
 20
30.7174652952875
 30
0.0
 11
-11.43110928998944
 21
23.34730136086135
 31
0.0
  0
LINE
  5
314
330
1F
100
AcDbEntity
  8
0
  6
Continuous
 62
    18
100
AcDbLine
 10
-0.375863388350163
 20
30.71746529528755
 30
0.0
 11
-2.21840437195671
 21
32.56000627889405
 31
0.0
  0
LINE
  5
315
330
1F
100
AcDbEntity
  8
0
  6
Continuous
 62
    18
100
AcDbLine
 10
-5.90348633916981
 20
28.87492431168105
 30
0.0
 11
-2.21840437195671
 21
28.87492431168095
 31
0.0
  0
LINE
  5
316
330
1F
100
AcDbEntity
  8
0
  6
Continuous
 62
    18
100
AcDbLine
 10
-7.74602732277635
 20
32.56000627889405
 30
0.0
 11
-7.74602732277635
 21
23.34730136086125
 31
0.0
  0
LINE
  5
317
330
1F
100
AcDbEntity
  8
0
  6
Continuous
 62
    18
100
AcDbLine
 10
-2.21840437195671
 20
32.56000627889405
 30
0.0
 11
-7.746027322776348
 21
32.56000627889405
 31
0.0
  0
LINE
  5
318
330
1F
100
AcDbEntity
  8
0
  6
Continuous
 62
    18
100
AcDbLine
 10
-2.21840437195671
 20
28.87492431168095
 30
0.0
 11
-2.21840437195671
 21
30.7174652952875
 31
0.0
  0
LINE
  5
319
330
1F
100
AcDbEntity
  8
0
  6
Continuous
 62
    18
100
AcDbLine
 10
-2.21840437195671
 20
30.7174652952875
 30
0.0
 11
-5.90348633916981
 21
30.7174652952875
 31
0.0
  0
LINE
  5
31A
330
1F
100
AcDbEntity
  8
0
  6
Continuous
 62
    18
100
AcDbLine
 10
-5.90348633916981
 20
30.7174652952875
 30
0.0
 11
-5.90348633916981
 21
28.87492431168105
 31
0.0
  0
LINE
  5
31B
330
1F
100
AcDbEntity
  8
0
  6
Continuous
 62
    18
100
AcDbLine
 10
-5.90348633916981
 20
27.03238332807445
 30
0.0
 11
-0.3758633883501651
 21
27.03238332807445
 31
0.0
  0
LINE
  5
31C
330
1F
100
AcDbEntity
  8
0
  6
Continuous
 62
    18
100
AcDbLine
 10
83.43960786299368
 20
33.8131448573553
 30
0.0
 11
83.43960786299368
 21
36.07363797210935
 31
0.0
  0
LINE
  5
31D
330
1F
100
AcDbEntity
  8
0
  6
Continuous
 62
    18
100
AcDbLine
 10
-5.90348633916981
 20
25.1898423444678
 30
0.0
 11
-5.90348633916981
 21
27.03238332807445
 31
0.0
  0
LINE
  5
31E
330
1F
100
AcDbEntity
  8
0
  6
Continuous
 62
    18
100
AcDbLine
 10
83.90915114168219
 20
33.8131448573553
 30
0.0
 11
83.43960786299368
 21
33.8131448573553
 31
0.0
  0
LINE
  5
31F
330
1F
100
AcDbEntity
  8
0
  6
Continuous
 62
    18
100
AcDbLine
 10
83.31216786299369
 20
33.68570485735525
 30
0.0
 11
83.90915114168219
 21
33.68570485735525
 31
0.0
  0
LINE
  5
320
330
1F
100
AcDbEntity
  8
0
  6
Continuous
 62
    18
100
AcDbLine
 10
83.90915114168219
 20
33.68570485735525
 30
0.0
 11
83.90915114168219
 21
33.8131448573553
 31
0.0
  0
LINE
  5
321
330
1F
100
AcDbEntity
  8
0
  6
Continuous
 62
    18
100
AcDbLine
 10
-0.375863388350163
 20
27.03238332807445
 30
0.0
 11
-0.375863388350163
 21
30.71746529528755
 31
0.0
  0
LINE
  5
322
330
1F
100
AcDbEntity
  8
0
  6
Continuous
 62
    18
100
AcDbLine
 10
83.90915114168219
 20
36.2010779721094
 30
0.0
 11
83.43960786299368
 21
36.2010779721094
 31
0.0
  0
LINE
  5
323
330
1F
100
AcDbEntity
  8
0
  6
Continuous
 62
    18
100
AcDbLine
 10
-7.74602732277635
 20
23.34730136086125
 30
0.0
 11
-0.3758633883501634
 21
23.34730136086125
 31
0.0
  0
LINE
  5
324
330
1F
100
AcDbEntity
  8
0
  6
Continuous
 62
    18
100
AcDbLine
 10
-0.375863388350163
 20
23.34730136086125
 30
0.0
 11
-0.375863388350163
 21
25.1898423444679
 31
0.0
  0
LINE
  5
325
330
1F
100
AcDbEntity
  8
0
  6
Continuous
 62
    18
100
AcDbLine
 10
83.43960786299368
 20
36.07363797210935
 30
0.0
 11
83.90915114168219
 21
36.07363797210935
 31
0.0
  0
LINE
  5
326
330
1F
100
AcDbEntity
  8
0
  6
Continuous
 62
    18
100
AcDbLine
 10
-0.375863388350163
 20
25.1898423444679
 30
0.0
 11
-5.903486339169808
 21
25.1898423444678
 31
0.0
  0
LINE
  5
327
330
1F
100
AcDbEntity
  8
0
  6
Continuous
 62
    18
100
AcDbLine
 10
83.90915114168219
 20
36.07363797210935
 30
0.0
 11
83.90915114168219
 21
36.2010779721094
 31
0.0
  0
ENDSEC
  0
SECTION
  2
OBJECTS
  0
DICTIONARY
  5
C
330
0
100
AcDbDictionary
281
     1
  3
ACAD_GROUP
350
D
  3
ACAD_IMAGE_VARS
350
1E3
  3
ACAD_LAYOUT
350
1A
  3
ACAD_MATERIAL
350
3B
  3
ACAD_MLEADERSTYLE
350
1B3
  3
ACAD_MLINESTYLE
350
17
  3
ACAD_PLOTSETTINGS
350
19
  3
ACAD_SCALELIST
350
1BE
  3
ACAD_TABLESTYLE
350
1E0
  3
ACAD_VISUALSTYLE
350
2A
  3
ACDB_RECOMPOSE_DATA
350
355
  3
ACDBVARIABLEDICTIONARY
350
1B1
  3
APPDATA
350
1E2
  0
DICTIONARY
  5
D
102
{ACAD_REACTORS
330
C
102
}
330
C
100
AcDbDictionary
281
     1
  0
RASTERVARIABLES
  5
1E3
102
{ACAD_REACTORS
330
C
102
}
330
C
100
AcDbRasterVariables
 90
        0
 70
     1
 71
     1
 72
     0
  0
DICTIONARY
  5
1A
102
{ACAD_REACTORS
330
C
102
}
330
C
100
AcDbDictionary
281
     1
  3
Model
350
1BC
  3
Sheet 1
350
1BD
  0
DICTIONARY
  5
3B
102
{ACAD_REACTORS
330
C
102
}
330
C
100
AcDbDictionary
281
     1
  3
BYBLOCK
350
3D
  3
BYLAYER
350
3C
  3
GLOBAL
350
3E
  0
DICTIONARY
  5
1B3
102
{ACAD_REACTORS
330
C
102
}
330
C
100
AcDbDictionary
281
     1
  0
DICTIONARY
  5
17
102
{ACAD_REACTORS
330
C
102
}
330
C
100
AcDbDictionary
281
     1
  3
STANDARD
350
18
  0
DICTIONARY
  5
19
102
{ACAD_REACTORS
330
C
102
}
330
C
100
AcDbDictionary
281
     1
  0
DICTIONARY
  5
1BE
102
{ACAD_REACTORS
330
C
102
}
330
C
100
AcDbDictionary
281
     1
  3
A0
350
1BF
  3
A1
350
1C0
  3
A2
350
1C1
  3
A3
350
1C2
  3
A4
350
1C3
  3
A5
350
1C4
  3
A6
350
1C5
  3
A7
350
1C6
  3
A8
350
1C7
  3
A9
350
1C8
  3
B0
350
1C9
  3
B1
350
1CA
  3
B2
350
1CB
  3
B3
350
1CC
  3
B4
350
1CD
  3
B5
350
1CE
  3
B6
350
1CF
  3
B7
350
1D0
  3
B8
350
1D1
  3
B9
350
1D2
  3
C0
350
1D3
  3
C1
350
1D4
  3
C2
350
1D5
  3
C3
350
1D6
  3
C4
350
1D7
  3
C5
350
1D8
  3
C6
350
1D9
  3
C7
350
1DA
  3
C8
350
1DB
  3
C9
350
1DC
  3
D0
350
1DD
  3
D1
350
1DE
  3
D2
350
1DF
  0
DICTIONARY
  5
1E0
102
{ACAD_REACTORS
330
C
102
}
330
C
100
AcDbDictionary
281
     1
  3
Standard
350
1E1
  0
DICTIONARY
  5
2A
102
{ACAD_REACTORS
330
C
102
}
330
C
100
AcDbDictionary
281
     1
  3
2DWIREFRAME
350
2F
  3
3D_HIDDEN
350
31
  3
3DWIREFRAME
350
30
  3
BASIC
350
32
  3
BRIGHTEN
350
36
  3
COLORCHANGE
350
3A
  3
CONCEPTUAL
350
34
  3
DIM
350
35
  3
FACEPATTERN
350
39
  3
FLAT
350
2B
  3
FLATWITHEDGES
350
2C
  3
GOURAUD
350
2D
  3
GOURAUDWITHEDGES
350
2E
  3
LINEPATTERN
350
38
  3
REALISTIC
350
33
  3
THICKEN
350
37
  0
XRECORD
  5
355
102
{ACAD_REACTORS
330
C
102
}
330
C
100
AcDbXrecord
280
     1
 90
        1
330
1E1
  0
DICTIONARY
  5
1B1
102
{ACAD_REACTORS
330
C
102
}
330
C
100
AcDbDictionary
281
     1
  3
CANNOSCALE
350
34E
  3
CTABLESTYLE
350
352
  3
DIMASSOC
350
1B4
  3
HIDETEXT
350
1B5
  0
DICTIONARY
  5
1E2
102
{ACAD_REACTORS
330
C
102
}
330
C
100
AcDbDictionary
281
     1
  0
LAYOUT
  5
1BC
102
{ACAD_REACTORS
330
1A
102
}
330
1A
100
AcDbPlotSettings
  1

  2
none_device
  4

  6

 40
0.0
 41
0.0
 42
0.0
 43
0.0
 44
0.0
 45
0.0
 46
0.0
 47
0.0
 48
0.0
 49
0.0
140
0.0
141
0.0
142
1.0
143
1.0
 70
  1712
 72
     0
 73
     0
 74
     0
  7

 75
     0
 76
     0
 77
     2
 78
   300
147
1.0
148
0.0
149
0.0
100
AcDbLayout
  1
Model
 70
     1
 71
     0
 10
0.0
 20
0.0
 11
12.0
 21
9.0
 12
0.0
 22
0.0
 32
0.0
 14
-26.17143715884185
 24
-33.5730312499207
 34
0.0
 15
85.8275409777476
 25
38.08762922971376
 35
0.0
146
0.0
 13
0.0
 23
0.0
 33
0.0
 16
1.0
 26
0.0
 36
0.0
 17
0.0
 27
1.0
 37
0.0
 76
     0
330
1F
331
29
  0
LAYOUT
  5
1BD
102
{ACAD_REACTORS
330
1A
102
}
330
1A
100
AcDbPlotSettings
  1

  2
none_device
  4

  6

 40
0.0
 41
0.0
 42
0.0
 43
0.0
 44
0.0
 45
0.0
 46
0.0
 47
0.0
 48
0.0
 49
0.0
140
0.0
141
0.0
142
1.0
143
1.0
 70
   688
 72
     0
 73
     0
 74
     5
  7

 75
    16
 76
     0
 77
     2
 78
   300
147
1.0
148
0.0
149
0.0
100
AcDbLayout
  1
Sheet 1
 70
     1
 71
     1
 10
0.0
 20
0.0
 11
0.0
 21
0.0
 12
0.0
 22
0.0
 32
0.0
 14
1.000000000000000E+20
 24
1.000000000000000E+20
 34
1.000000000000000E+20
 15
-1.000000000000000E+20
 25
-1.000000000000000E+20
 35
-1.000000000000000E+20
146
0.0
 13
0.0
 23
0.0
 33
0.0
 16
1.0
 26
0.0
 36
0.0
 17
0.0
 27
1.0
 37
0.0
 76
     0
330
1B
  0
MATERIAL
  5
3D
102
{ACAD_REACTORS
330
3B
102
}
330
3B
100
AcDbMaterial
  1
ByBlock
 72
     1
 94
      127
  0
MATERIAL
  5
3C
102
{ACAD_REACTORS
330
3B
102
}
330
3B
100
AcDbMaterial
  1
ByLayer
 72
     1
 94
      127
  0
MATERIAL
  5
3E
102
{ACAD_REACTORS
330
3B
102
}
330
3B
100
AcDbMaterial
  1
Global
 72
     1
 94
      127
  0
MLINESTYLE
  5
18
102
{ACAD_REACTORS
330
17
102
}
330
17
100
AcDbMlineStyle
  2
Standard
 70
     0
  3

 62
   256
 51
90.0
 52
90.0
 71
     2
 49
0.5
 62
   256
  6
BYLAYER
 49
-0.5
 62
   256
  6
BYLAYER
  0
SCALE
  5
1BF
102
{ACAD_REACTORS
330
1BE
102
}
330
1BE
100
AcDbScale
 70
     0
300
1:1
140
1.0
141
1.0
290
     1
  0
SCALE
  5
1C0
102
{ACAD_REACTORS
330
1BE
102
}
330
1BE
100
AcDbScale
 70
     0
300
1:2
140
1.0
141
2.0
290
     0
  0
SCALE
  5
1C1
102
{ACAD_REACTORS
330
1BE
102
}
330
1BE
100
AcDbScale
 70
     0
300
1:4
140
1.0
141
4.0
290
     0
  0
SCALE
  5
1C2
102
{ACAD_REACTORS
330
1BE
102
}
330
1BE
100
AcDbScale
 70
     0
300
1:5
140
1.0
141
5.0
290
     0
  0
SCALE
  5
1C3
102
{ACAD_REACTORS
330
1BE
102
}
330
1BE
100
AcDbScale
 70
     0
300
1:8
140
1.0
141
8.0
290
     0
  0
SCALE
  5
1C4
102
{ACAD_REACTORS
330
1BE
102
}
330
1BE
100
AcDbScale
 70
     0
300
1:10
140
1.0
141
10.0
290
     0
  0
SCALE
  5
1C5
102
{ACAD_REACTORS
330
1BE
102
}
330
1BE
100
AcDbScale
 70
     0
300
1:16
140
1.0
141
16.0
290
     0
  0
SCALE
  5
1C6
102
{ACAD_REACTORS
330
1BE
102
}
330
1BE
100
AcDbScale
 70
     0
300
1:20
140
1.0
141
20.0
290
     0
  0
SCALE
  5
1C7
102
{ACAD_REACTORS
330
1BE
102
}
330
1BE
100
AcDbScale
 70
     0
300
1:30
140
1.0
141
30.0
290
     0
  0
SCALE
  5
1C8
102
{ACAD_REACTORS
330
1BE
102
}
330
1BE
100
AcDbScale
 70
     0
300
1:40
140
1.0
141
40.0
290
     0
  0
SCALE
  5
1C9
102
{ACAD_REACTORS
330
1BE
102
}
330
1BE
100
AcDbScale
 70
     0
300
1:50
140
1.0
141
50.0
290
     0
  0
SCALE
  5
1CA
102
{ACAD_REACTORS
330
1BE
102
}
330
1BE
100
AcDbScale
 70
     0
300
1:100
140
1.0
141
100.0
290
     0
  0
SCALE
  5
1CB
102
{ACAD_REACTORS
330
1BE
102
}
330
1BE
100
AcDbScale
 70
     0
300
2:1
140
2.0
141
1.0
290
     0
  0
SCALE
  5
1CC
102
{ACAD_REACTORS
330
1BE
102
}
330
1BE
100
AcDbScale
 70
     0
300
4:1
140
4.0
141
1.0
290
     0
  0
SCALE
  5
1CD
102
{ACAD_REACTORS
330
1BE
102
}
330
1BE
100
AcDbScale
 70
     0
300
8:1
140
8.0
141
1.0
290
     0
  0
SCALE
  5
1CE
102
{ACAD_REACTORS
330
1BE
102
}
330
1BE
100
AcDbScale
 70
     0
300
10:1
140
10.0
141
1.0
290
     0
  0
SCALE
  5
1CF
102
{ACAD_REACTORS
330
1BE
102
}
330
1BE
100
AcDbScale
 70
     0
300
100:1
140
100.0
141
1.0
290
     0
  0
SCALE
  5
1D0
102
{ACAD_REACTORS
330
1BE
102
}
330
1BE
100
AcDbScale
 70
     0
300
1/128" = 1'-0"
140
0.0078125
141
12.0
290
     0
  0
SCALE
  5
1D1
102
{ACAD_REACTORS
330
1BE
102
}
330
1BE
100
AcDbScale
 70
     0
300
1/64" = 1'-0"
140
0.015625
141
12.0
290
     0
  0
SCALE
  5
1D2
102
{ACAD_REACTORS
330
1BE
102
}
330
1BE
100
AcDbScale
 70
     0
300
1/32" = 1'-0"
140
0.03125
141
12.0
290
     0
  0
SCALE
  5
1D3
102
{ACAD_REACTORS
330
1BE
102
}
330
1BE
100
AcDbScale
 70
     0
300
1/16" = 1'-0"
140
0.0625
141
12.0
290
     0
  0
SCALE
  5
1D4
102
{ACAD_REACTORS
330
1BE
102
}
330
1BE
100
AcDbScale
 70
     0
300
3/32" = 1'-0"
140
0.09375
141
12.0
290
     0
  0
SCALE
  5
1D5
102
{ACAD_REACTORS
330
1BE
102
}
330
1BE
100
AcDbScale
 70
     0
300
1/8" = 1'-0"
140
0.125
141
12.0
290
     0
  0
SCALE
  5
1D6
102
{ACAD_REACTORS
330
1BE
102
}
330
1BE
100
AcDbScale
 70
     0
300
3/16" = 1'-0"
140
0.1875
141
12.0
290
     0
  0
SCALE
  5
1D7
102
{ACAD_REACTORS
330
1BE
102
}
330
1BE
100
AcDbScale
 70
     0
300
1/4" = 1'-0"
140
0.25
141
12.0
290
     0
  0
SCALE
  5
1D8
102
{ACAD_REACTORS
330
1BE
102
}
330
1BE
100
AcDbScale
 70
     0
300
3/8" = 1'-0"
140
0.375
141
12.0
290
     0
  0
SCALE
  5
1D9
102
{ACAD_REACTORS
330
1BE
102
}
330
1BE
100
AcDbScale
 70
     0
300
1/2" = 1'-0"
140
0.5
141
12.0
290
     0
  0
SCALE
  5
1DA
102
{ACAD_REACTORS
330
1BE
102
}
330
1BE
100
AcDbScale
 70
     0
300
3/4" = 1'-0"
140
0.75
141
12.0
290
     0
  0
SCALE
  5
1DB
102
{ACAD_REACTORS
330
1BE
102
}
330
1BE
100
AcDbScale
 70
     0
300
1" = 1'-0"
140
1.0
141
12.0
290
     0
  0
SCALE
  5
1DC
102
{ACAD_REACTORS
330
1BE
102
}
330
1BE
100
AcDbScale
 70
     0
300
1-1/2" = 1'-0"
140
1.5
141
12.0
290
     0
  0
SCALE
  5
1DD
102
{ACAD_REACTORS
330
1BE
102
}
330
1BE
100
AcDbScale
 70
     0
300
3" = 1'-0"
140
3.0
141
12.0
290
     0
  0
SCALE
  5
1DE
102
{ACAD_REACTORS
330
1BE
102
}
330
1BE
100
AcDbScale
 70
     0
300
6" = 1'-0"
140
6.0
141
12.0
290
     0
  0
SCALE
  5
1DF
102
{ACAD_REACTORS
330
1BE
102
}
330
1BE
100
AcDbScale
 70
     0
300
1'-0" = 1'-0"
140
12.0
141
12.0
290
     0
  0
TABLESTYLE
  5
1E1
102
{ACAD_REACTORS
330
1E0
102
}
102
{ACAD_XDICTIONARY
360
353
102
}
330
1E0
100
AcDbTableStyle
  3
Standard
 70
     0
 71
     0
 40
0.06
 41
0.06
280
     0
281
     0
  7
STANDARD
140
0.18
170
     2
 62
     0
 63
   257
283
     0
 90
        4
 91
        0
  1

274
    -2
284
     1
 64
     0
275
    -2
285
     1
 65
     0
276
    -2
286
     1
 66
     0
277
    -2
287
     1
 67
     0
278
    -2
288
     1
 68
     0
279
    -2
289
     1
 69
     0
  7
STANDARD
140
0.25
170
     5
 62
     0
 63
   257
283
     0
 90
        4
 91
        0
  1

274
    -2
284
     1
 64
     0
275
    -2
285
     1
 65
     0
276
    -2
286
     1
 66
     0
277
    -2
287
     1
 67
     0
278
    -2
288
     1
 68
     0
279
    -2
289
     1
 69
     0
  7
STANDARD
140
0.18
170
     5
 62
     0
 63
   257
283
     0
 90
        4
 91
        0
  1

274
    -2
284
     1
 64
     0
275
    -2
285
     1
 65
     0
276
    -2
286
     1
 66
     0
277
    -2
287
     1
 67
     0
278
    -2
288
     1
 68
     0
279
    -2
289
     1
 69
     0
  0
VISUALSTYLE
  5
2F
102
{ACAD_REACTORS
330
2A
102
}
330
2A
100
AcDbVisualStyle
  2
2dWireframe
 70
     4
177
     2
291
     0
 71
     0
176
     1
 72
     2
176
     1
 73
     0
176
     1
 90
        0
176
     1
 40
-0.6
176
     1
 41
-30.0
176
     1
 62
     5
 63
     7
176
     1
 74
     1
176
     1
 91
        4
176
     1
 64
     7
176
     1
 65
   257
176
     1
 75
     1
176
     1
175
     1
176
     1
 42
1.0
176
     1
 92
        0
176
     1
 66
   257
176
     1
 43
1.0
176
     1
 76
     1
176
     1
 77
     6
176
     1
 78
     2
176
     1
 67
     7
176
     1
 79
     5
176
     1
170
     0
176
     1
171
     0
176
     1
290
     0
176
     1
 93
        1
176
     1
 44
0.0
176
     1
173
     0
176
     1
  0
VISUALSTYLE
  5
31
102
{ACAD_REACTORS
330
2A
102
}
330
2A
100
AcDbVisualStyle
  2
3D Hidden
 70
     6
177
     2
291
     0
 71
     1
176
     1
 72
     2
176
     1
 73
     2
176
     1
 90
        0
176
     1
 40
-0.6
176
     1
 41
-30.0
176
     1
 62
     5
 63
     7
176
     1
 74
     2
176
     1
 91
        2
176
     1
 64
     7
176
     1
 65
   257
176
     1
 75
     2
176
     1
175
     1
176
     1
 42
40.0
176
     1
 92
        0
176
     1
 66
   257
176
     1
 43
1.0
176
     1
 76
     1
176
     1
 77
     6
176
     1
 78
     2
176
     1
 67
     7
176
     1
 79
     3
176
     1
170
     0
176
     1
171
     0
176
     1
290
     0
176
     1
 93
        1
176
     1
 44
0.0
176
     1
173
     0
176
     1
  0
VISUALSTYLE
  5
30
102
{ACAD_REACTORS
330
2A
102
}
330
2A
100
AcDbVisualStyle
  2
3dWireframe
 70
     5
177
     2
291
     0
 71
     0
176
     1
 72
     2
176
     1
 73
     0
176
     1
 90
        0
176
     1
 40
-0.6
176
     1
 41
-30.0
176
     1
 62
     5
 63
     7
176
     1
 74
     1
176
     1
 91
        4
176
     1
 64
     7
176
     1
 65
   257
176
     1
 75
     1
176
     1
175
     1
176
     1
 42
1.0
176
     1
 92
        0
176
     1
 66
   257
176
     1
 43
1.0
176
     1
 76
     1
176
     1
 77
     6
176
     1
 78
     2
176
     1
 67
     7
176
     1
 79
     5
176
     1
170
     0
176
     1
171
     0
176
     1
290
     0
176
     1
 93
        1
176
     1
 44
0.0
176
     1
173
     0
176
     1
  0
VISUALSTYLE
  5
32
102
{ACAD_REACTORS
330
2A
102
}
330
2A
100
AcDbVisualStyle
  2
Basic
 70
     7
177
     2
291
     1
 71
     1
176
     1
 72
     0
176
     1
 73
     1
176
     1
 90
        0
176
     1
 40
-0.6
176
     1
 41
-30.0
176
     1
 62
     5
 63
     7
176
     1
 74
     0
176
     1
 91
        4
176
     1
 64
     7
176
     1
 65
   257
176
     1
 75
     1
176
     1
175
     1
176
     1
 42
1.0
176
     1
 92
        8
176
     1
 66
     7
176
     1
 43
1.0
176
     1
 76
     1
176
     1
 77
     6
176
     1
 78
     2
176
     1
 67
     7
176
     1
 79
     5
176
     1
170
     0
176
     1
171
     0
176
     1
290
     0
176
     1
 93
        1
176
     1
 44
0.0
176
     1
173
     0
176
     1
  0
VISUALSTYLE
  5
36
102
{ACAD_REACTORS
330
2A
102
}
330
2A
100
AcDbVisualStyle
  2
Brighten
 70
    12
177
     2
291
     1
 71
     2
176
     1
 72
     2
176
     1
 73
     0
176
     1
 90
        0
176
     1
 40
-0.6
176
     1
 41
-30.0
176
     1
 62
     5
 63
     7
176
     1
 74
     1
176
     1
 91
        4
176
     1
 64
     7
176
     1
 65
   257
176
     1
 75
     1
176
     1
175
     1
176
     1
 42
1.0
176
     1
 92
        8
176
     1
 66
     7
176
     1
 43
1.0
176
     1
 76
     1
176
     1
 77
     6
176
     1
 78
     2
176
     1
 67
     7
176
     1
 79
     5
176
     1
170
     0
176
     1
171
     0
176
     1
290
     0
176
     1
 93
        1
176
     1
 44
50.0
176
     1
173
     0
176
     1
  0
VISUALSTYLE
  5
3A
102
{ACAD_REACTORS
330
2A
102
}
330
2A
100
AcDbVisualStyle
  2
ColorChange
 70
    16
177
     2
291
     1
 71
     2
176
     1
 72
     2
176
     1
 73
     3
176
     1
 90
        0
176
     1
 40
-0.6
176
     1
 41
-30.0
176
     1
 62
     5
 63
     8
176
     1
 74
     1
176
     1
 91
        4
176
     1
 64
     7
176
     1
 65
   257
176
     1
 75
     1
176
     1
175
     1
176
     1
 42
1.0
176
     1
 92
        8
176
     1
 66
     8
176
     1
 43
1.0
176
     1
 76
     1
176
     1
 77
     6
176
     1
 78
     2
176
     1
 67
     7
176
     1
 79
     5
176
     1
170
     0
176
     1
171
     0
176
     1
290
     0
176
     1
 93
        1
176
     1
 44
0.0
176
     1
173
     0
176
     1
  0
VISUALSTYLE
  5
34
102
{ACAD_REACTORS
330
2A
102
}
330
2A
100
AcDbVisualStyle
  2
Conceptual
 70
     9
177
     2
291
     0
 71
     3
176
     1
 72
     2
176
     1
 73
     0
176
     1
 90
        0
176
     1
 40
-0.6
176
     1
 41
-30.0
176
     1
 62
     5
 63
     7
176
     1
 74
     2
176
     1
 91
        2
176
     1
 64
     7
176
     1
 65
   257
176
     1
 75
     1
176
     1
175
     1
176
     1
 42
40.0
176
     1
 92
        8
176
     1
 66
     7
176
     1
 43
1.0
176
     1
 76
     1
176
     1
 77
     6
176
     1
 78
     2
176
     1
 67
     7
176
     1
 79
     3
176
     1
170
     0
176
     1
171
     0
176
     1
290
     0
176
     1
 93
        1
176
     1
 44
0.0
176
     1
173
     0
176
     1
  0
VISUALSTYLE
  5
35
102
{ACAD_REACTORS
330
2A
102
}
330
2A
100
AcDbVisualStyle
  2
Dim
 70
    11
177
     2
291
     1
 71
     2
176
     1
 72
     2
176
     1
 73
     0
176
     1
 90
        0
176
     1
 40
-0.6
176
     1
 41
-30.0
176
     1
 62
     5
 63
     7
176
     1
 74
     1
176
     1
 91
        4
176
     1
 64
     7
176
     1
 65
   257
176
     1
 75
     1
176
     1
175
     1
176
     1
 42
1.0
176
     1
 92
        8
176
     1
 66
     7
176
     1
 43
1.0
176
     1
 76
     1
176
     1
 77
     6
176
     1
 78
     2
176
     1
 67
     7
176
     1
 79
     5
176
     1
170
     0
176
     1
171
     0
176
     1
290
     0
176
     1
 93
        1
176
     1
 44
-50.0
176
     1
173
     0
176
     1
  0
VISUALSTYLE
  5
39
102
{ACAD_REACTORS
330
2A
102
}
330
2A
100
AcDbVisualStyle
  2
Facepattern
 70
    15
177
     2
291
     1
 71
     2
176
     1
 72
     2
176
     1
 73
     0
176
     1
 90
        0
176
     1
 40
-0.6
176
     1
 41
-30.0
176
     1
 62
     5
 63
     7
176
     1
 74
     1
176
     1
 91
        4
176
     1
 64
     7
176
     1
 65
   257
176
     1
 75
     1
176
     1
175
     1
176
     1
 42
1.0
176
     1
 92
        8
176
     1
 66
     7
176
     1
 43
1.0
176
     1
 76
     1
176
     1
 77
     6
176
     1
 78
     2
176
     1
 67
     7
176
     1
 79
     5
176
     1
170
     0
176
     1
171
     0
176
     1
290
     0
176
     1
 93
        1
176
     1
 44
0.0
176
     1
173
     0
176
     1
  0
VISUALSTYLE
  5
2B
102
{ACAD_REACTORS
330
2A
102
}
330
2A
100
AcDbVisualStyle
  2
Flat
 70
     0
177
     2
291
     1
 71
     2
176
     1
 72
     1
176
     1
 73
     1
176
     1
 90
        2
176
     1
 40
-0.6
176
     1
 41
30.0
176
     1
 62
     5
 63
     7
176
     1
 74
     0
176
     1
 91
        4
176
     1
 64
     7
176
     1
 65
   257
176
     1
 75
     1
176
     1
175
     1
176
     1
 42
1.0
176
     1
 92
        8
176
     1
 66
     7
176
     1
 43
1.0
176
     1
 76
     1
176
     1
 77
     6
176
     1
 78
     2
176
     1
 67
     7
176
     1
 79
     5
176
     1
170
     0
176
     1
171
     0
176
     1
290
     0
176
     1
 93
       13
176
     1
 44
0.0
176
     1
173
     0
176
     1
  0
VISUALSTYLE
  5
2C
102
{ACAD_REACTORS
330
2A
102
}
330
2A
100
AcDbVisualStyle
  2
FlatWithEdges
 70
     1
177
     2
291
     1
 71
     2
176
     1
 72
     1
176
     1
 73
     1
176
     1
 90
        2
176
     1
 40
-0.6
176
     1
 41
30.0
176
     1
 62
     5
 63
     7
176
     1
 74
     1
176
     1
 91
        4
176
     1
 64
     7
176
     1
 65
   257
176
     1
 75
     1
176
     1
175
     1
176
     1
 42
1.0
176
     1
 92
        0
176
     1
 66
   257
176
     1
 43
1.0
176
     1
 76
     1
176
     1
 77
     6
176
     1
 78
     2
176
     1
 67
     7
176
     1
 79
     5
176
     1
170
     0
176
     1
171
     0
176
     1
290
     0
176
     1
 93
       13
176
     1
 44
0.0
176
     1
173
     0
176
     1
  0
VISUALSTYLE
  5
2D
102
{ACAD_REACTORS
330
2A
102
}
330
2A
100
AcDbVisualStyle
  2
Gouraud
 70
     2
177
     2
291
     1
 71
     2
176
     1
 72
     2
176
     1
 73
     1
176
     1
 90
        2
176
     1
 40
-0.6
176
     1
 41
30.0
176
     1
 62
     5
 63
     7
176
     1
 74
     0
176
     1
 91
        4
176
     1
 64
     7
176
     1
 65
   257
176
     1
 75
     1
176
     1
175
     1
176
     1
 42
1.0
176
     1
 92
        0
176
     1
 66
     7
176
     1
 43
1.0
176
     1
 76
     1
176
     1
 77
     6
176
     1
 78
     2
176
     1
 67
     7
176
     1
 79
     5
176
     1
170
     0
176
     1
171
     0
176
     1
290
     0
176
     1
 93
       13
176
     1
 44
0.0
176
     1
173
     0
176
     1
  0
VISUALSTYLE
  5
2E
102
{ACAD_REACTORS
330
2A
102
}
330
2A
100
AcDbVisualStyle
  2
GouraudWithEdges
 70
     3
177
     2
291
     1
 71
     2
176
     1
 72
     2
176
     1
 73
     1
176
     1
 90
        2
176
     1
 40
-0.6
176
     1
 41
30.0
176
     1
 62
     5
 63
     7
176
     1
 74
     1
176
     1
 91
        4
176
     1
 64
     7
176
     1
 65
   257
176
     1
 75
     1
176
     1
175
     1
176
     1
 42
1.0
176
     1
 92
        0
176
     1
 66
   257
176
     1
 43
1.0
176
     1
 76
     1
176
     1
 77
     6
176
     1
 78
     2
176
     1
 67
     7
176
     1
 79
     5
176
     1
170
     0
176
     1
171
     0
176
     1
290
     0
176
     1
 93
       13
176
     1
 44
0.0
176
     1
173
     0
176
     1
  0
VISUALSTYLE
  5
38
102
{ACAD_REACTORS
330
2A
102
}
330
2A
100
AcDbVisualStyle
  2
Linepattern
 70
    14
177
     2
291
     1
 71
     2
176
     1
 72
     2
176
     1
 73
     0
176
     1
 90
        0
176
     1
 40
-0.6
176
     1
 41
-30.0
176
     1
 62
     5
 63
     7
176
     1
 74
     1
176
     1
 91
        4
176
     1
 64
     7
176
     1
 65
   257
176
     1
 75
     7
176
     1
175
     7
176
     1
 42
1.0
176
     1
 92
        8
176
     1
 66
     7
176
     1
 43
1.0
176
     1
 76
     1
176
     1
 77
     6
176
     1
 78
     2
176
     1
 67
     7
176
     1
 79
     5
176
     1
170
     0
176
     1
171
     0
176
     1
290
     0
176
     1
 93
        1
176
     1
 44
0.0
176
     1
173
     0
176
     1
  0
VISUALSTYLE
  5
33
102
{ACAD_REACTORS
330
2A
102
}
330
2A
100
AcDbVisualStyle
  2
Realistic
 70
     8
177
     2
291
     0
 71
     2
176
     1
 72
     2
176
     1
 73
     0
176
     1
 90
        0
176
     1
 40
-0.6
176
     1
 41
-30.0
176
     1
 62
     5
 63
     7
176
     1
 74
     1
176
     1
 91
        0
176
     1
 64
     7
176
     1
 65
   257
176
     1
 75
     1
176
     1
175
     1
176
     1
 42
1.0
176
     1
 92
        8
176
     1
 66
     8
176
     1
 43
1.0
176
     1
 76
     1
176
     1
 77
     6
176
     1
 78
     2
176
     1
 67
     7
176
     1
 79
     5
176
     1
170
     0
176
     1
171
     0
176
     1
290
     0
176
     1
 93
       13
176
     1
 44
0.0
176
     1
173
     0
176
     1
  0
VISUALSTYLE
  5
37
102
{ACAD_REACTORS
330
2A
102
}
330
2A
100
AcDbVisualStyle
  2
Thicken
 70
    13
177
     2
291
     1
 71
     2
176
     1
 72
     2
176
     1
 73
     0
176
     1
 90
        0
176
     1
 40
-0.6
176
     1
 41
-30.0
176
     1
 62
     5
 63
     7
176
     1
 74
     1
176
     1
 91
        4
176
     1
 64
     7
176
     1
 65
   257
176
     1
 75
     1
176
     1
175
     1
176
     1
 42
1.0
176
     1
 92
       12
176
     1
 66
     7
176
     1
 43
1.0
176
     1
 76
     1
176
     1
 77
     6
176
     1
 78
     2
176
     1
 67
     7
176
     1
 79
     5
176
     1
170
     0
176
     1
171
     0
176
     1
290
     0
176
     1
 93
        1
176
     1
 44
0.0
176
     1
173
     0
176
     1
  0
DICTIONARYVAR
  5
34E
102
{ACAD_REACTORS
330
1B1
102
}
330
1B1
100
DictionaryVariables
280
     0
  1
1:1
  0
DICTIONARYVAR
  5
352
102
{ACAD_REACTORS
330
1B1
102
}
330
1B1
100
DictionaryVariables
280
     0
  1
Standard
  0
DICTIONARYVAR
  5
1B4
102
{ACAD_REACTORS
330
1B1
102
}
330
1B1
100
DictionaryVariables
280
     0
  1
2
  0
DICTIONARYVAR
  5
1B5
102
{ACAD_REACTORS
330
1B1
102
}
330
1B1
100
DictionaryVariables
280
     0
  1
1
  0
DICTIONARY
  5
353
330
1E1
100
AcDbDictionary
280
     1
281
     1
  3
ACAD_ROUNDTRIP_2008_TABLESTYLE_CELLSTYLEMAP
360
354
  0
CELLSTYLEMAP
  5
354
102
{ACAD_REACTORS
330
353
102
}
330
353
100
AcDbCellStyleMap
 90
        3
300
CELLSTYLE
  1
TABLEFORMAT_BEGIN
 90
        5
170
     1
 91
        0
 92
        0
 62
   257
 93
        1
300
CONTENTFORMAT
  1
CONTENTFORMAT_BEGIN
 90
        0
 91
        0
 92
        4
 93
        0
300

 40
0.0
140
1.0
 94
        5
 62
     0
340
11
144
0.25
309
CONTENTFORMAT_END
171
     1
301
MARGIN
  1
CELLMARGIN_BEGIN
 40
0.06
 40
0.06
 40
0.06
 40
0.06
 40
0.06
 40
0.06
309
CELLMARGIN_END
 94
        6
 95
        1
302
GRIDFORMAT
  1
GRIDFORMAT_BEGIN
 90
        0
 91
        1
 62
     0
 92
       -2
340
14
 93
        0
 40
0.045
309
GRIDFORMAT_END
 95
        2
302
GRIDFORMAT
  1
GRIDFORMAT_BEGIN
 90
        0
 91
        1
 62
     0
 92
       -2
340
14
 93
        0
 40
0.045
309
GRIDFORMAT_END
 95
        4
302
GRIDFORMAT
  1
GRIDFORMAT_BEGIN
 90
        0
 91
        1
 62
     0
 92
       -2
340
14
 93
        0
 40
0.045
309
GRIDFORMAT_END
 95
        8
302
GRIDFORMAT
  1
GRIDFORMAT_BEGIN
 90
        0
 91
        1
 62
     0
 92
       -2
340
14
 93
        0
 40
0.045
309
GRIDFORMAT_END
 95
       16
302
GRIDFORMAT
  1
GRIDFORMAT_BEGIN
 90
        0
 91
        1
 62
     0
 92
       -2
340
14
 93
        0
 40
0.045
309
GRIDFORMAT_END
 95
       32
302
GRIDFORMAT
  1
GRIDFORMAT_BEGIN
 90
        0
 91
        1
 62
     0
 92
       -2
340
14
 93
        0
 40
0.045
309
GRIDFORMAT_END
309
TABLEFORMAT_END
  1
CELLSTYLE_BEGIN
 90
        1
 91
        1
300
_TITLE
309
CELLSTYLE_END
300
CELLSTYLE
  1
TABLEFORMAT_BEGIN
 90
        5
170
     1
 91
        0
 92
        0
 62
   257
 93
        1
300
CONTENTFORMAT
  1
CONTENTFORMAT_BEGIN
 90
        0
 91
        0
 92
        4
 93
        0
300

 40
0.0
140
1.0
 94
        5
 62
     0
340
11
144
0.18
309
CONTENTFORMAT_END
171
     1
301
MARGIN
  1
CELLMARGIN_BEGIN
 40
0.06
 40
0.06
 40
0.06
 40
0.06
 40
0.06
 40
0.06
309
CELLMARGIN_END
 94
        6
 95
        1
302
GRIDFORMAT
  1
GRIDFORMAT_BEGIN
 90
        0
 91
        1
 62
     0
 92
       -2
340
14
 93
        0
 40
0.045
309
GRIDFORMAT_END
 95
        2
302
GRIDFORMAT
  1
GRIDFORMAT_BEGIN
 90
        0
 91
        1
 62
     0
 92
       -2
340
14
 93
        0
 40
0.045
309
GRIDFORMAT_END
 95
        4
302
GRIDFORMAT
  1
GRIDFORMAT_BEGIN
 90
        0
 91
        1
 62
     0
 92
       -2
340
14
 93
        0
 40
0.045
309
GRIDFORMAT_END
 95
        8
302
GRIDFORMAT
  1
GRIDFORMAT_BEGIN
 90
        0
 91
        1
 62
     0
 92
       -2
340
14
 93
        0
 40
0.045
309
GRIDFORMAT_END
 95
       16
302
GRIDFORMAT
  1
GRIDFORMAT_BEGIN
 90
        0
 91
        1
 62
     0
 92
       -2
340
14
 93
        0
 40
0.045
309
GRIDFORMAT_END
 95
       32
302
GRIDFORMAT
  1
GRIDFORMAT_BEGIN
 90
        0
 91
        1
 62
     0
 92
       -2
340
14
 93
        0
 40
0.045
309
GRIDFORMAT_END
309
TABLEFORMAT_END
  1
CELLSTYLE_BEGIN
 90
        2
 91
        1
300
_HEADER
309
CELLSTYLE_END
300
CELLSTYLE
  1
TABLEFORMAT_BEGIN
 90
        5
170
     1
 91
        0
 92
        0
 62
   257
 93
        1
300
CONTENTFORMAT
  1
CONTENTFORMAT_BEGIN
 90
        0
 91
        0
 92
        4
 93
        0
300

 40
0.0
140
1.0
 94
        2
 62
     0
340
11
144
0.18
309
CONTENTFORMAT_END
171
     1
301
MARGIN
  1
CELLMARGIN_BEGIN
 40
0.06
 40
0.06
 40
0.06
 40
0.06
 40
0.06
 40
0.06
309
CELLMARGIN_END
 94
        6
 95
        1
302
GRIDFORMAT
  1
GRIDFORMAT_BEGIN
 90
        0
 91
        1
 62
     0
 92
       -2
340
14
 93
        0
 40
0.045
309
GRIDFORMAT_END
 95
        2
302
GRIDFORMAT
  1
GRIDFORMAT_BEGIN
 90
        0
 91
        1
 62
     0
 92
       -2
340
14
 93
        0
 40
0.045
309
GRIDFORMAT_END
 95
        4
302
GRIDFORMAT
  1
GRIDFORMAT_BEGIN
 90
        0
 91
        1
 62
     0
 92
       -2
340
14
 93
        0
 40
0.045
309
GRIDFORMAT_END
 95
        8
302
GRIDFORMAT
  1
GRIDFORMAT_BEGIN
 90
        0
 91
        1
 62
     0
 92
       -2
340
14
 93
        0
 40
0.045
309
GRIDFORMAT_END
 95
       16
302
GRIDFORMAT
  1
GRIDFORMAT_BEGIN
 90
        0
 91
        1
 62
     0
 92
       -2
340
14
 93
        0
 40
0.045
309
GRIDFORMAT_END
 95
       32
302
GRIDFORMAT
  1
GRIDFORMAT_BEGIN
 90
        0
 91
        1
 62
     0
 92
       -2
340
14
 93
        0
 40
0.045
309
GRIDFORMAT_END
309
TABLEFORMAT_END
  1
CELLSTYLE_BEGIN
 90
        3
 91
        2
300
_DATA
309
CELLSTYLE_END
  0
ENDSEC
  0
EOF
